<?xml version="1.0" encoding="UTF-8" standalone="no"?>
<!DOCTYPE svg PUBLIC "-//W3C//DTD SVG 1.1//EN" "http://www.w3.org/Graphics/SVG/1.1/DTD/svg11.dtd">
<svg width="100%" height="100%" viewBox="0 0 402 680" version="1.1" xmlns="http://www.w3.org/2000/svg" xmlns:xlink="http://www.w3.org/1999/xlink" xml:space="preserve" xmlns:serif="http://www.serif.com/" style="fill-rule:evenodd;clip-rule:evenodd;stroke-linejoin:round;stroke-miterlimit:2;">
    <g id="Монтажная-область1" serif:id="Монтажная область1" transform="matrix(0.957434,0,0,1,-5.54736,-54.2892)">
        <rect x="5.794" y="54.289" width="419.185" height="679.818" style="fill:none;"/>
        <g transform="matrix(1.04446,0,0,1,-18.0646,0.289206)">
            <path d="M264.5,59.5C278.648,59.014 292.648,60.18 306.5,63C324.223,72.724 337.056,86.89 345,105.5C348.878,117.632 349.544,129.966 347,142.5C343.009,150.831 337.176,157.664 329.5,163C326.328,164.752 323.328,166.752 320.5,169C307.157,175.006 293.823,181.006 280.5,187C273.125,187.686 265.792,187.353 258.5,186C249.413,183.812 240.413,181.479 231.5,179C223.969,167.786 216.802,156.286 210,144.5C206.151,129.166 208.151,114.5 216,100.5C226.872,86.628 239.372,74.461 253.5,64C257.053,61.879 260.72,60.379 264.5,59.5ZM269.5,77.5C278.179,78.135 286.846,78.968 295.5,80C298.637,80.601 301.637,81.601 304.5,83C313.194,91.021 320.36,100.187 326,110.5C327.352,113.72 328.186,117.053 328.5,120.5C301.768,119.533 275.768,123.366 250.5,132C247.606,134.909 246.773,138.409 248,142.5C250.132,145.316 252.965,146.649 256.5,146.5C272.562,143.654 288.562,140.488 304.5,137C312.464,135.669 320.464,135.335 328.5,136C323.045,142.461 316.712,147.794 309.5,152C300.103,155.532 291.103,159.865 282.5,165C277.924,166.476 273.257,166.81 268.5,166C257.601,164.034 247.268,160.701 237.5,156C233.875,150.585 230.375,145.085 227,139.5C224.075,127.602 226.409,116.936 234,107.5C242.909,96.589 253.076,87.089 264.5,79C266.382,78.802 268.048,78.302 269.5,77.5Z" style="fill:rgb(41,108,30);fill-opacity:0.84;"/>
        </g>
        <g transform="matrix(1.04446,0,0,1,-18.0646,0.289206)">
            <path d="M289.5,99.5C303.706,98.007 307.373,103.341 300.5,115.5C293.375,120.464 287.875,119.131 284,111.5C282.873,106.089 284.707,102.089 289.5,99.5Z" style="fill:rgb(41,108,30);fill-opacity:0.68;"/>
        </g>
        <g transform="matrix(1.04446,0,0,1,-18.0646,0.289206)">
            <path d="M254.5,101.5C264.922,101.098 269.089,106.098 267,116.5C263.191,125.476 257.524,126.809 250,120.5C247.276,113.067 248.776,106.733 254.5,101.5Z" style="fill:rgb(41,108,30);fill-opacity:0.74;"/>
        </g>
        <g transform="matrix(1.04446,0,0,1,-18.0646,0.289206)">
            <path d="M179.5,188.5C185.176,188.334 190.843,188.501 196.5,189C212.821,193.829 229.154,198.496 245.5,203C247.049,204.214 248.215,205.714 249,207.5C249.765,217.226 252.098,226.559 256,235.5C256.739,236.574 257.739,237.241 259,237.5C266.383,234.303 272.716,229.637 278,223.5C281.308,217.715 284.475,211.882 287.5,206C291.956,204.577 296.456,203.41 301,202.5C320.35,205.125 339.683,207.792 359,210.5C365.142,209.257 371.309,207.924 377.5,206.5C394.516,207.009 404.683,215.676 408,232.5C412.038,251.646 413.372,270.98 412,290.5C410.099,294.57 406.932,296.903 402.5,297.5C388.54,295.952 374.54,294.785 360.5,294C355.915,292.916 351.915,290.749 348.5,287.5C348.167,287.833 347.833,288.167 347.5,288.5C354.363,301.648 357.863,315.648 358,330.5C365.198,350.628 370.698,371.294 374.5,392.5C374.855,401.133 370.855,406.133 362.5,407.5C357.993,406.874 353.493,406.207 349,405.5C333.862,410.273 318.362,412.94 302.5,413.5C295.279,414.372 288.612,412.872 282.5,409C278.579,408.797 274.745,408.297 271,407.5C253.181,408.834 235.347,410.5 217.5,412.5C208.499,411.419 199.499,411.253 190.5,412C185.691,411.786 181.357,410.286 177.5,407.5C172.608,408.903 167.608,409.57 162.5,409.5C162.747,412.505 161.747,415.005 159.5,417C147.918,421.209 141.251,417.209 139.5,405C142.565,379.725 146.065,354.225 150,328.5C151.906,313.206 152.906,297.873 153,282.5C145.833,288.333 138.667,294.167 131.5,300C125.424,305.405 120.091,311.405 115.5,318C109.127,321.112 104.293,319.612 101,313.5C101.32,297.993 95.82,284.827 84.5,274C78.755,273.423 75.422,270.256 74.5,264.5C75.071,259.446 75.905,254.446 77,249.5C82.52,243.315 88.687,237.815 95.5,233C117.051,220.728 137.384,206.728 156.5,191C164.241,189.9 171.908,189.066 179.5,188.5ZM181.5,206.5C185.514,206.334 189.514,206.501 193.5,207C205.33,211.124 217.33,214.624 229.5,217.5C232.274,223.913 234.44,230.58 236,237.5C238.466,244.275 242.3,250.108 247.5,255C254.971,258.304 262.304,257.971 269.5,254C279.137,250.101 286.97,243.935 293,235.5C295.374,231.25 297.874,227.084 300.5,223C303.5,222.333 306.5,222.333 309.5,223C326.358,225.308 343.191,227.808 360,230.5C366.91,229.918 373.743,228.918 380.5,227.5C382.167,227.833 383.833,228.167 385.5,228.5C388.209,232.788 390.042,237.455 391,242.5C393.262,254.066 394.428,265.733 394.5,277.5C384.456,277.219 374.456,276.385 364.5,275C358.34,270.42 352.007,266.086 345.5,262C330.986,259.511 324.486,265.678 326,280.5C328.273,291.652 331.94,302.319 337,312.5C338.064,328.377 341.397,343.71 347,358.5C349.062,367.884 351.229,377.217 353.5,386.5C349.818,386.335 346.152,386.501 342.5,387C329.738,391.552 316.572,394.052 303,394.5C300.5,394.333 298,394.167 295.5,394C292.785,392.092 289.785,390.759 286.5,390C281.989,389.599 277.489,389.099 273,388.5C254.442,389.64 235.942,391.307 217.5,393.5C218.863,387.705 216.696,384.039 211,382.5C198.743,384.939 186.577,387.773 174.5,391C169.207,391.977 163.874,392.477 158.5,392.5C165.171,357.297 169.504,321.797 171.5,286C171.06,280.162 170.56,274.328 170,268.5C167.369,262.512 162.702,259.845 156,260.5C154.112,260.796 152.278,261.296 150.5,262C138.53,271.579 127.03,281.746 116,292.5C111.154,279.473 103.654,268.14 93.5,258.5C97.272,254.774 101.272,251.274 105.5,248C125.547,236.948 144.214,223.948 161.5,209C168.24,207.911 174.907,207.077 181.5,206.5Z" style="fill:rgb(41,108,30);fill-opacity:0.84;"/>
        </g>
        <g transform="matrix(1.04446,0,0,1,-18.0646,0.289206)">
            <path d="M237.5,438.5C273.545,440.281 309.545,442.781 345.5,446C351.041,448.383 354.708,452.549 356.5,458.5C353.353,469.104 350.519,479.771 348,490.5C343.773,527.113 340.107,563.78 337,600.5C335.235,612.799 328.735,616.299 317.5,611C306.157,610.11 294.823,609.11 283.5,608C277.115,607.207 270.782,607.374 264.5,608.5C251.81,609.141 245.143,603.141 244.5,590.5C246.502,566.461 248.836,542.461 251.5,518.5C245.937,517.02 240.27,515.854 234.5,515C231.118,514.176 227.784,514.343 224.5,515.5C218.139,526.888 212.306,538.554 207,550.5C198.611,572.945 189.944,595.278 181,617.5C176.061,623.13 170.561,623.797 164.5,619.5C163.054,617.382 162.387,615.049 162.5,612.5C144.557,614.934 126.557,616.934 108.5,618.5C102.787,618.483 97.12,617.983 91.5,617C88.731,615.311 87.064,612.811 86.5,609.5C99.886,573.843 112.386,537.843 124,501.5C129.691,484.094 134.358,466.428 138,448.5C139.113,443.218 142.28,440.218 147.5,439.5C151.338,440.779 155.172,440.779 159,439.5C174.554,441.631 190.054,443.965 205.5,446.5C216.704,445.648 227.371,442.981 237.5,438.5ZM152.5,457.5C165.77,460.399 179.104,463.232 192.5,466C199.081,466.187 205.581,466.687 212,467.5C222.292,464.509 232.625,461.509 243,458.5C274.156,460.651 305.323,462.651 336.5,464.5C333.406,472.205 331.239,480.205 330,488.5C325.151,523.381 321.651,558.381 319.5,593.5C300.518,591.963 281.518,590.63 262.5,589.5C262.677,566.046 264.844,542.712 269,519.5C274.324,513.125 273.158,508.291 265.5,505C250.616,500.654 235.45,497.821 220,496.5C216.062,496.43 213.062,498.096 211,501.5C206.881,511.071 202.215,520.404 197,529.5C187.77,551.859 178.937,574.359 170.5,597C166.535,597.003 162.535,596.836 158.5,596.5C141.202,598.711 123.869,600.211 106.5,601C122.119,561.143 135.952,520.643 148,479.5C149.395,472.126 150.895,464.792 152.5,457.5Z" style="fill:rgb(41,108,30);fill-opacity:0.83;"/>
        </g>
        <g transform="matrix(1.04446,0,0,1,-18.0646,0.289206)">
            <path d="M123.5,618.5C134.697,618.186 143.197,622.852 149,632.5C153,639.833 157,647.167 161,654.5C167.543,658.442 173.543,663.108 179,668.5C184.903,683.506 179.737,692.34 163.5,695C158.857,695.83 154.19,696.497 149.5,697C125.185,698.494 100.852,698.827 76.5,698C66.456,696.88 57.956,692.714 51,685.5C47.71,679.835 46.71,673.835 48,667.5C41.345,661.841 36.678,654.841 34,646.5C32.491,640.716 33.991,635.883 38.5,632C46.574,627.297 55.241,624.297 64.5,623C84.348,621.863 104.014,620.363 123.5,618.5ZM115.5,638.5C119.846,638.334 124.179,638.501 128.5,639C134.96,648.082 140.794,657.582 146,667.5C148.592,670.762 151.759,673.262 155.5,675C151.954,676.174 148.287,676.84 144.5,677C132.814,677.501 121.147,677.834 109.5,678C110.952,672.749 108.952,669.582 103.5,668.5C94.329,671.093 84.996,672.26 75.5,672C71.313,668.785 68.813,664.619 68,659.5C61.523,656.194 57.023,651.194 54.5,644.5C63.039,642.399 71.705,641.066 80.5,640.5C83.233,640.166 85.733,640.499 88,641.5C97.271,640.568 106.437,639.568 115.5,638.5Z" style="fill:rgb(41,108,30);fill-opacity:0.85;"/>
        </g>
        <g transform="matrix(1.04446,0,0,1,-18.0646,0.289206)">
            <path d="M314.5,624.5C325.476,623.113 335.809,624.947 345.5,630C354.333,637.5 362.5,645.667 370,654.5C377.453,666.153 376.786,677.486 368,688.5C345.474,717.012 316.308,727.512 280.5,720C270.5,714.667 260.5,709.333 250.5,704C239.984,695.438 236.484,684.605 240,671.5C244.089,665.407 248.922,659.907 254.5,655C247.848,647.561 249.181,641.561 258.5,637C276.963,631.344 295.63,627.177 314.5,624.5ZM315.5,642.5C321.925,642.13 328.258,642.63 334.5,644C342.333,650.5 349.5,657.667 356,665.5C356.857,668.551 356.19,671.217 354,673.5C349.5,678 345,682.5 340.5,687C324.514,698.279 306.848,701.946 287.5,698C278.756,693.546 270.256,688.713 262,683.5C261.5,682.5 261,681.5 260.5,680.5C266.048,672.785 272.714,666.285 280.5,661C286.684,658.832 293.017,658.165 299.5,659C306.013,665.495 311.013,664.495 314.5,656C312.944,651.456 310.277,647.789 306.5,645C309.5,643.926 312.5,643.093 315.5,642.5Z" style="fill:rgb(41,108,30);fill-opacity:0.85;"/>
        </g>
    </g>
</svg>
