<?xml version="1.0" encoding="UTF-8" standalone="no"?>
<!DOCTYPE svg PUBLIC "-//W3C//DTD SVG 1.1//EN" "http://www.w3.org/Graphics/SVG/1.1/DTD/svg11.dtd">
<svg width="100%" height="100%" viewBox="0 0 311 1405" version="1.1" xmlns="http://www.w3.org/2000/svg" xmlns:xlink="http://www.w3.org/1999/xlink" xml:space="preserve" xmlns:serif="http://www.serif.com/" style="fill-rule:evenodd;clip-rule:evenodd;stroke-linejoin:round;stroke-miterlimit:2;">
    <g id="Монтажная-область1" serif:id="Монтажная область1" transform="matrix(0.871551,0,0,0.980711,-291.563,-992.249)">
        <rect x="334.534" y="1011.76" width="355.743" height="1432.52" style="fill:none;"/>
        <clipPath id="_clip1">
            <rect x="334.534" y="1011.76" width="355.743" height="1432.52"/>
        </clipPath>
        <g clip-path="url(#_clip1)">
            <g transform="matrix(1.14738,0,0,1.01967,-23.8633,-45.9741)">
                <path d="M443.5,1048.5C449.565,1048.26 455.565,1048.76 461.5,1050C486.043,1055.55 510.377,1061.89 534.5,1069C562.019,1082.52 581.185,1103.69 592,1132.5C599.456,1155.44 603.956,1178.94 605.5,1203C604.365,1244.1 600.531,1284.93 594,1325.5C588.866,1344.23 582.533,1362.57 575,1380.5C563.745,1402.09 547.912,1419.59 527.5,1433C519.285,1437.78 510.618,1441.44 501.5,1444C513.817,1445.14 518.317,1451.64 515,1463.5C513.328,1466.34 511.161,1468.67 508.5,1470.5C512.84,1475.85 516.674,1481.52 520,1487.5C521.104,1493.23 520.104,1498.56 517,1503.5C514.358,1506.07 511.192,1507.4 507.5,1507.5C502.568,1507.29 497.901,1506.12 493.5,1504C492.299,1503.1 491.465,1501.93 491,1500.5C490.674,1496.47 490.674,1492.47 491,1488.5C489,1486.5 487,1484.5 485,1482.5C478.489,1486.34 472.655,1491 467.5,1496.5C471.237,1517.98 479.404,1537.64 492,1555.5C502.095,1568.02 512.429,1580.35 523,1592.5C527.87,1601.98 531.203,1611.98 533,1622.5C538.333,1649.83 543.667,1677.17 549,1704.5C550.362,1714.12 551.196,1723.79 551.5,1733.5C551.914,1764.17 551.414,1794.84 550,1825.5C550.298,1846.38 546.298,1866.38 538,1885.5C529.68,1904.16 519.347,1921.49 507,1937.5C498.167,1947 489.333,1956.5 480.5,1966C449.667,1988.83 422.833,2015.67 400,2046.5C392.119,2051.71 386.453,2058.71 383,2067.5C361.681,2127.68 355.681,2189.35 365,2252.5C370.385,2279.93 379.719,2305.93 393,2330.5C400,2349.5 407,2368.5 414,2387.5C419.755,2399.91 427.755,2410.58 438,2419.5C441.193,2428.46 438.193,2433.79 429,2435.5C426.268,2435.39 423.768,2434.55 421.5,2433C412.611,2426.11 405.111,2417.94 399,2408.5C390.494,2390.98 383.16,2372.98 377,2354.5C366.229,2331.62 356.562,2308.29 348,2284.5C337.649,2247.82 333.816,2210.65 336.5,2173C338.96,2136.7 345.794,2101.2 357,2066.5C361.716,2051.05 370.383,2038.38 383,2028.5C407.221,1997.61 434.721,1970.11 465.5,1946C495.912,1918.91 515.412,1885.41 524,1845.5C526.375,1803.87 527.042,1762.2 526,1720.5C520.105,1685.69 513.438,1651.02 506,1616.5C504.885,1612.27 503.219,1608.27 501,1604.5C487.614,1589.38 474.947,1573.72 463,1557.5C455.5,1543 449.166,1528 444,1512.5C432.033,1523.82 417.867,1528.32 401.5,1526C394.22,1522.27 391.72,1516.44 394,1508.5C397.13,1503.96 400.464,1499.62 404,1495.5C406.807,1487.58 409.307,1479.58 411.5,1471.5C409.973,1469.81 408.64,1467.97 407.5,1466C397.155,1463.33 388.155,1458.33 380.5,1451C373.129,1443.96 365.462,1437.29 357.5,1431C348.205,1423.38 341.705,1413.88 338,1402.5C330.356,1379.95 326.189,1356.78 325.5,1333C328.192,1281.83 331.025,1230.67 334,1179.5C339.151,1145.2 352.485,1114.54 374,1087.5C393.283,1067.61 416.45,1054.61 443.5,1048.5ZM449.5,1074.5C475.26,1080.52 500.926,1087.02 526.5,1094C548.454,1105.72 562.954,1123.56 570,1147.5C573.793,1161.67 576.793,1176 579,1190.5C578.879,1229.67 576.213,1268.67 571,1307.5C566.742,1331.94 559.075,1355.28 548,1377.5C540.245,1388.59 531.079,1398.42 520.5,1407C509.468,1415.01 497.135,1419.35 483.5,1420C467.814,1420.69 452.147,1420.35 436.5,1419C432.725,1417.61 429.058,1415.95 425.5,1414C415.232,1412.33 405.566,1413.99 396.5,1419C394.179,1421.81 392.512,1424.98 391.5,1428.5C386.274,1423.1 380.608,1418.27 374.5,1414C364.978,1406.46 359.478,1396.63 358,1384.5C349.583,1354.16 348.25,1323.5 354,1292.5C354.342,1254.37 356.675,1216.37 361,1178.5C366.933,1151.3 378.266,1126.64 395,1104.5C410.383,1089.39 428.55,1079.39 449.5,1074.5ZM408.5,1442.5C410.185,1441.16 411.852,1441.32 413.5,1443C411.803,1443.38 410.137,1443.22 408.5,1442.5ZM437.5,1459.5C438.92,1467.01 440.253,1474.68 441.5,1482.5C439.207,1485.41 436.373,1487.74 433,1489.5C435.459,1479.74 436.959,1469.74 437.5,1459.5ZM463.5,1464.5C466.001,1464.51 466.168,1465.18 464,1466.5C463.536,1465.91 463.369,1465.24 463.5,1464.5Z" style="fill:rgb(41,108,30);fill-opacity:0.9;"/>
            </g>
            <g transform="matrix(1.14738,0,0,1.01967,-92.3239,-42.1098)">
                <path d="M822.5,2345.5C826.936,2345.21 831.27,2345.71 835.5,2347C856.334,2357.24 876.001,2369.24 894.5,2383C939.698,2408.58 982.365,2437.58 1022.5,2470C1042.51,2491.36 1064.84,2509.69 1089.5,2525C1111.99,2536.75 1134.33,2548.75 1156.5,2561C1166.91,2566.74 1175.41,2574.57 1182,2584.5C1185.58,2591.27 1184.75,2597.44 1179.5,2603C1175.64,2606.43 1171.3,2609.1 1166.5,2611C1161.46,2610.91 1156.46,2611.07 1151.5,2611.5C1155.61,2612.7 1159.61,2614.2 1163.5,2616C1167.88,2621.99 1167.38,2627.49 1162,2632.5C1164.27,2661.17 1166.93,2689.84 1170,2718.5C1170.99,2731.15 1171.65,2743.82 1172,2756.5C1177.82,2762.03 1177.98,2767.7 1172.5,2773.5C1169.86,2821.95 1167.19,2870.28 1164.5,2918.5C1168.39,2915.39 1172.72,2913.06 1177.5,2911.5C1186.38,2913.53 1189.54,2918.86 1187,2927.5C1178.52,2934.74 1169.85,2941.74 1161,2948.5C1159.32,2955.9 1157.32,2963.23 1155,2970.5C1152.24,2978.8 1146.74,2981.63 1138.5,2979C1136.62,2977.46 1135.12,2975.62 1134,2973.5C1070.93,3036.85 1008.43,3100.68 946.5,3165C932.866,3176.81 918.866,3188.15 904.5,3199C902.929,3202.07 901.429,3205.24 900,3208.5C898.2,3210.32 896.034,3211.48 893.5,3212C876.229,3214.74 870.062,3207.91 875,3191.5C890.789,3179.38 906.289,3166.88 921.5,3154C930.5,3146.33 938.833,3138 946.5,3129C941.098,3128.88 937.264,3126.38 935,3121.5C934.331,3066.12 932.331,3010.79 929,2955.5C906.47,2977.7 883.636,2999.53 860.5,3021C868.208,3024.27 875.375,3028.44 882,3033.5C885.4,3039.98 883.9,3045.14 877.5,3049C874.833,3049.67 872.167,3049.67 869.5,3049C863.046,3045.69 856.546,3042.52 850,3039.5C850.012,3079.01 852.679,3118.35 858,3157.5C862.169,3168.51 865.003,3179.84 866.5,3191.5C865.125,3200.2 860.125,3203.36 851.5,3201C846.393,3196.64 842.893,3191.14 841,3184.5C832.496,3161.99 828.163,3138.65 828,3114.5C826.153,3086.86 824.819,3059.19 824,3031.5C796.619,3023.72 768.786,3018.06 740.5,3014.5C740.02,3059.88 740.52,3105.21 742,3150.5C768.696,3160.59 793.53,3173.93 816.5,3190.5C822.21,3197.07 821.544,3202.9 814.5,3208C811.5,3208.67 808.5,3208.67 805.5,3208C759.797,3184.43 712.13,3165.76 662.5,3152C632.261,3144.29 601.927,3136.95 571.5,3130C565.957,3128.56 560.624,3126.56 555.5,3124C547.452,3116.84 546.452,3108.84 552.5,3100C547.067,3098.07 544.067,3094.23 543.5,3088.5C544.54,3082.19 544.707,3075.86 544,3069.5C541.607,3044.78 538.773,3020.11 535.5,2995.5C535.167,2994.83 534.833,2994.17 534.5,2993.5C525.752,2991.08 520.418,2985.42 518.5,2976.5C519.938,2968.77 524.605,2965.44 532.5,2966.5C528.182,2905.32 522.015,2844.32 514,2783.5C513.333,2770.5 513.333,2757.5 514,2744.5C516.997,2730.17 519.997,2715.84 523,2701.5C527.739,2695.92 533.239,2695.08 539.5,2699C540.46,2700.42 541.293,2701.92 542,2703.5C542.667,2709.83 542.667,2716.17 542,2722.5C538.595,2734.77 536.761,2747.27 536.5,2760C538.635,2788.61 541.801,2817.11 546,2845.5C550.728,2839.6 556.561,2838.1 563.5,2841C566.178,2842.84 567.845,2845.34 568.5,2848.5C581.104,2850.26 593.771,2851.26 606.5,2851.5C604.826,2823.77 602.493,2796.1 599.5,2768.5C599.004,2760.98 602.004,2755.48 608.5,2752C615.029,2751.01 621.529,2749.85 628,2748.5C636.713,2750.59 639.713,2755.93 637,2764.5C633.884,2767.98 630.051,2770.31 625.5,2771.5C625.167,2772.5 624.833,2773.5 624.5,2774.5C627.604,2801.09 629.604,2827.75 630.5,2854.5C660.07,2858.51 688.904,2865.51 717,2875.5C718.825,2854.71 722.325,2834.21 727.5,2814C705.887,2794.72 684.554,2775.06 663.5,2755C654.661,2749.71 645.327,2745.38 635.5,2742C631.032,2739.22 627.865,2735.39 626,2730.5C614.898,2736.76 607.398,2733.93 603.5,2722C604.33,2719.2 605.163,2716.36 606,2713.5C611.272,2707.6 617.439,2702.77 624.5,2699C641.494,2696.52 650.494,2703.68 651.5,2720.5C662.057,2724.11 671.724,2729.28 680.5,2736C700.231,2755.73 720.564,2774.73 741.5,2793C746.652,2794.56 750.652,2797.56 753.5,2802C761.345,2807.42 769.011,2813.09 776.5,2819C782.17,2821.83 787.503,2825.17 792.5,2829C802.917,2833.47 813.251,2838.14 823.5,2843C828.251,2846.7 833.251,2849.87 838.5,2852.5C844.083,2849.71 849.75,2846.88 855.5,2844C862.833,2838 870.167,2832 877.5,2826C890.667,2810.17 903.833,2794.33 917,2778.5C930.533,2765.3 944.366,2752.47 958.5,2740C905.153,2710.33 851.486,2681.16 797.5,2652.5C784.509,2666.99 771.676,2681.66 759,2696.5C747.09,2711.99 735.423,2727.65 724,2743.5C720.584,2745.79 717.084,2747.96 713.5,2750C703.672,2750.17 699.505,2745.33 701,2735.5C711.827,2717.01 723.827,2699.35 737,2682.5C748.833,2668 760.667,2653.5 772.5,2639C752.746,2628.37 732.912,2617.87 713,2607.5C701.312,2621.02 689.812,2634.69 678.5,2648.5C688.62,2654.12 689.62,2660.95 681.5,2669C675.167,2669.33 668.833,2669.67 662.5,2670C659.203,2672.3 656.203,2674.96 653.5,2678C642.814,2682.66 636.147,2679.32 633.5,2668C634.104,2665.42 634.937,2662.92 636,2660.5C652.743,2638.42 670.243,2616.92 688.5,2596C671.501,2588 654.167,2581 636.5,2575C631.191,2571.68 628.358,2566.84 628,2560.5C603.969,2584.86 580.302,2609.53 557,2634.5C549.787,2642.71 542.954,2651.21 536.5,2660C526.223,2664.74 519.889,2661.57 517.5,2650.5C518.496,2644.67 519.996,2639 522,2633.5C524.9,2631.36 528.066,2629.7 531.5,2628.5C548.518,2609.98 565.352,2591.32 582,2572.5C635.745,2519.77 688.912,2466.61 741.5,2413C758.083,2400.42 773.417,2386.42 787.5,2371C792.5,2366.67 797.5,2362.33 802.5,2358C809.736,2354.56 816.402,2350.39 822.5,2345.5ZM826.5,2371.5C828.199,2371.34 829.866,2371.51 831.5,2372C848.845,2381.67 865.512,2392.34 881.5,2404C909.349,2420.09 936.349,2437.42 962.5,2456C929.527,2480.13 897.86,2505.96 867.5,2533.5C846.123,2523.98 824.123,2516.15 801.5,2510C828.657,2482.16 858.157,2457.33 890,2435.5C893.042,2428.91 891.542,2423.75 885.5,2420C882.833,2419.33 880.167,2419.33 877.5,2420C838.776,2442.37 803.776,2469.7 772.5,2502C755.878,2500.01 739.211,2498.01 722.5,2496C713.065,2495.06 703.732,2495.39 694.5,2497C688.687,2502.03 688.02,2507.7 692.5,2514C696.93,2516.09 701.596,2517.42 706.5,2518C721.212,2520.05 735.879,2522.39 750.5,2525C735.63,2540.87 721.13,2557.04 707,2573.5C685.343,2563.95 663.177,2555.78 640.5,2549C673,2515.17 706.167,2482 740,2449.5C751.893,2435.27 765.393,2422.77 780.5,2412C791.836,2400.33 803.502,2389 815.5,2378C819.322,2375.91 822.989,2373.75 826.5,2371.5ZM982.5,2470.5C990.65,2476.42 998.65,2482.58 1006.5,2489C1027.88,2512.07 1051.88,2531.74 1078.5,2548C1100.99,2560.08 1123.33,2572.41 1145.5,2585C1141.6,2586.57 1137.93,2588.57 1134.5,2591C1096.32,2620.52 1059.15,2651.36 1023,2683.5C1002.75,2657.91 981.752,2632.91 960,2608.5C938.386,2586.15 915.219,2565.82 890.5,2547.5C918.978,2518.97 949.645,2493.3 982.5,2470.5ZM779.5,2531.5C802.975,2536.66 825.641,2543.99 847.5,2553.5C827.943,2573.7 809.11,2594.37 791,2615.5C771.417,2604.96 751.584,2594.79 731.5,2585C747.337,2567 763.337,2549.16 779.5,2531.5ZM871.5,2565.5C891.142,2578.3 909.808,2592.47 927.5,2608C957.169,2635.3 983.335,2665.13 1006,2697.5C996.536,2705.3 987.369,2713.46 978.5,2722C977.5,2722.67 976.5,2722.67 975.5,2722C923.15,2689.49 869.816,2658.49 815.5,2629C833.351,2607.14 852.018,2585.98 871.5,2565.5ZM1135.5,2623.5C1137.61,2658.22 1140.44,2692.89 1144,2727.5C1145.04,2739.16 1145.37,2750.82 1145,2762.5C1134.48,2768.01 1123.64,2772.84 1112.5,2777C1105.17,2781.33 1097.83,2785.67 1090.5,2790C1073.42,2802.96 1056.26,2815.79 1039,2828.5C1038.33,2814.83 1038.33,2801.17 1039,2787.5C1049.68,2778.49 1061.18,2770.66 1073.5,2764C1090.07,2754.72 1107.4,2747.05 1125.5,2741C1131.13,2731.76 1128.8,2725.6 1118.5,2722.5C1090.97,2730.93 1064.97,2742.6 1040.5,2757.5C1039.88,2750.86 1039.71,2744.19 1040,2737.5C1037.71,2729.6 1032.54,2726.77 1024.5,2729C1022.38,2730.12 1020.54,2731.62 1019,2733.5C1017.25,2738.68 1016.08,2744.02 1015.5,2749.5C1009.83,2745.33 1004.17,2741.17 998.5,2737C1030.5,2709.67 1062.5,2682.33 1094.5,2655C1107.78,2643.88 1121.44,2633.38 1135.5,2623.5ZM927.5,2804.5C931.126,2799.45 935.126,2794.62 939.5,2790C953.018,2777.65 966.685,2765.48 980.5,2753.5C991.107,2760.11 1001.44,2767.11 1011.5,2774.5C994.557,2785.89 978.057,2797.89 962,2810.5C954.623,2801.23 945.123,2797.73 933.5,2800C931.34,2801.33 929.34,2802.83 927.5,2804.5ZM1143.5,2787.5C1144.79,2788.87 1145.45,2790.7 1145.5,2793C1143.49,2822.13 1142.33,2851.3 1142,2880.5C1140.71,2900.19 1139.21,2919.85 1137.5,2939.5C1105.91,2967.92 1075.08,2997.25 1045,3027.5C1042.07,3002.27 1040.9,2977.1 1041.5,2952C1040.36,2921.9 1039.86,2891.74 1040,2861.5C1073.57,2835.42 1108.07,2810.75 1143.5,2787.5ZM926.5,2805.5C925.241,2809.05 924.407,2812.71 924,2816.5C923.667,2825.17 923.333,2833.83 923,2842.5C897.964,2863.2 875.298,2886.2 855,2911.5C856.305,2900.3 858.138,2889.13 860.5,2878C859.224,2875.13 858.89,2872.3 859.5,2869.5C862.994,2867.92 866.327,2866.09 869.5,2864C877.833,2857 886.167,2850 894.5,2843C905.031,2830.31 915.698,2817.81 926.5,2805.5ZM1013.5,2805.5C1014.4,2819.03 1014.9,2832.7 1015,2846.5C993.061,2863.94 971.561,2881.94 950.5,2900.5C948.841,2885.87 948.341,2871.2 949,2856.5C970.687,2839.64 992.187,2822.64 1013.5,2805.5ZM747.5,2828.5C758.633,2836.24 769.967,2843.74 781.5,2851C792.668,2855.61 803.668,2860.61 814.5,2866C820.323,2871.91 827.323,2875.75 835.5,2877.5C831.813,2891.95 829.313,2906.62 828,2921.5C825.734,2949.83 824.234,2978.16 823.5,3006.5C823,3006.83 822.5,3007.17 822,3007.5C794.899,2999.65 767.399,2993.65 739.5,2989.5C739.632,2964.59 739.298,2940.09 738.5,2916C739.274,2913.59 739.774,2911.09 740,2908.5C755.661,2914.91 771.161,2921.75 786.5,2929C797,2930.5 801.5,2926 800,2915.5C799.215,2913.71 798.049,2912.21 796.5,2911C777.956,2901.23 758.956,2892.23 739.5,2884C740.567,2865.3 743.233,2846.8 747.5,2828.5ZM548.5,2868.5C553.364,2871.62 558.697,2873.45 564.5,2874C578.789,2875.77 593.122,2876.94 607.5,2877.5C608.887,2909.48 609.887,2941.48 610.5,2973.5C592.845,2972.08 575.178,2970.75 557.5,2969.5C554.923,2935.82 551.923,2902.15 548.5,2868.5ZM923.5,2876.5C925.556,2891.29 926.389,2906.29 926,2921.5C899.697,2945.47 874.364,2970.47 850,2996.5C849.79,2973.79 850.79,2951.12 853,2928.5C858.167,2934 864,2934.83 870.5,2931C886.664,2911.34 904.331,2893.17 923.5,2876.5ZM632.5,2880.5C661.084,2884.31 689.084,2890.65 716.5,2899.5C716.251,2907.73 715.918,2915.56 715.5,2923C716.161,2943.51 716.828,2964.01 717.5,2984.5C716.333,2984.83 715.167,2985.17 714,2985.5C687.533,2981.8 661.033,2978.46 634.5,2975.5C633.956,2943.83 633.289,2912.16 632.5,2880.5ZM1015.5,2880.5C1016.99,2914.67 1018.49,2949.01 1020,2983.5C1021.08,3004.46 1023.25,3025.29 1026.5,3046C1003.01,3070.15 979.512,3094.32 956,3118.5C956.188,3058.11 954.688,2997.77 951.5,2937.5C953.235,2934.26 955.568,2931.42 958.5,2929C977.398,2912.59 996.398,2896.43 1015.5,2880.5ZM559.5,2995.5C577.061,2997.77 594.728,2999.44 612.5,3000.5C613.915,3031.73 617.415,3062.73 623,3093.5C624.772,3100.81 626.939,3107.98 629.5,3115C610.209,3111.48 590.876,3107.81 571.5,3104C567.978,3101.66 564.311,3099.49 560.5,3097.5C562.297,3095.87 563.464,3093.87 564,3091.5C565.324,3085.57 566.158,3079.57 566.5,3073.5C564.879,3047.42 562.546,3021.42 559.5,2995.5ZM635.5,3003.5C662.577,3004.92 689.744,3007.59 717,3011.5C718.509,3054.89 719.676,3098.55 720.5,3142.5C696.462,3134.99 672.462,3127.49 648.5,3120C649.561,3118.15 650.227,3116.15 650.5,3114C646.826,3104.14 644.326,3093.97 643,3083.5C639.827,3056.74 637.327,3030.08 635.5,3003.5Z" style="fill:rgb(41,108,30);fill-opacity:0.89;"/>
            </g>
        </g>
    </g>
</svg>
