<?xml version="1.0" encoding="UTF-8" standalone="no"?>
<!DOCTYPE svg PUBLIC "-//W3C//DTD SVG 1.1//EN" "http://www.w3.org/Graphics/SVG/1.1/DTD/svg11.dtd">
<svg width="100%" height="100%" viewBox="0 0 597 329" version="1.1" xmlns="http://www.w3.org/2000/svg" xmlns:xlink="http://www.w3.org/1999/xlink" xml:space="preserve" xmlns:serif="http://www.serif.com/" style="fill-rule:evenodd;clip-rule:evenodd;stroke-linejoin:round;stroke-miterlimit:2;">
    <g transform="matrix(1,0,0,1,-1667.33,0)">
        <g id="Монтажная-область5" serif:id="Монтажная область5" transform="matrix(0.971792,0,0,0.981299,63.4301,488.795)">
            <rect x="1650.45" y="-498.11" width="614.283" height="334.631" style="fill:none;"/>
            <g transform="matrix(1.02903,0,0,1.01906,187.869,-811.224)">
                <path d="M1480.5,314.5C1493.88,314.148 1503.05,320.481 1508,333.5C1509.34,339.813 1508,345.48 1504,350.5C1495.97,356.03 1487.8,361.363 1479.5,366.5C1481.77,368.875 1484.6,370.208 1488,370.5C1490.48,369.031 1493.14,368.031 1496,367.5C1498.4,367.685 1500.57,368.185 1502.5,369C1512.31,359.521 1522.97,351.188 1534.5,344C1539.24,341.565 1544.24,339.899 1549.5,339C1572.59,336.724 1595.59,333.724 1618.5,330C1643.42,327.149 1668.42,325.482 1693.5,325C1716.97,318.743 1740.63,317.076 1764.5,320C1782.91,322.282 1801.24,324.949 1819.5,328C1824.21,329.19 1828.55,331.19 1832.5,334C1837.21,338.766 1842.38,342.933 1848,346.5C1854.38,328.078 1867.21,318.578 1886.5,318C1892.33,319.163 1897.16,321.997 1901,326.5C1905.03,333.221 1908.53,340.221 1911.5,347.5C1920.06,348.845 1928.56,350.512 1937,352.5C1946.53,346.647 1956.36,341.147 1966.5,336C1992.7,327.602 2007.36,337.102 2010.5,364.5C2009.64,384.219 2000.64,398.886 1983.5,408.5C1987.78,418.497 1990.94,428.83 1993,439.5C1994.56,455.579 1991.23,470.579 1983,484.5C1975.9,492.602 1967.4,498.768 1957.5,503C1939.94,508.946 1921.94,512.779 1903.5,514.5C1903.21,516.288 1903.55,517.955 1904.5,519.5C1908.65,523.787 1911.82,528.787 1914,534.5C1919.84,550.514 1926.51,566.18 1934,581.5C1935.57,587.461 1935.57,593.461 1934,599.5C1932.97,602.539 1931.14,605.039 1928.5,607C1914.84,610.331 1901.51,614.665 1888.5,620C1884.55,622.28 1880.89,624.947 1877.5,628C1872.37,629.569 1868.54,628.069 1866,623.5C1864.8,605.519 1860.8,588.186 1854,571.5C1853.5,567.848 1853.33,564.182 1853.5,560.5C1850.17,560.833 1846.83,561.167 1843.5,561.5C1845.1,571.639 1848.1,581.306 1852.5,590.5C1851.82,593.36 1850.49,595.86 1848.5,598C1823.7,602.422 1798.7,604.422 1773.5,604C1771.71,603.215 1770.21,602.049 1769,600.5C1768.65,589.486 1768.15,578.486 1767.5,567.5L1692.5,567.5C1692.7,573.311 1693.03,579.144 1693.5,585C1693.3,588.267 1691.97,590.934 1689.5,593C1677.03,596.025 1664.37,598.025 1651.5,599C1647.48,602.351 1642.98,604.851 1638,606.5C1633.76,605.926 1631.09,603.592 1630,599.5C1629.83,588.485 1629.33,577.485 1628.5,566.5C1621.94,564.851 1615.27,563.851 1608.5,563.5C1608.82,580.861 1610.82,598.028 1614.5,615C1614.05,617.568 1613.05,619.902 1611.5,622C1607.82,624.282 1603.82,625.449 1599.5,625.5C1580.06,625.264 1560.72,623.764 1541.5,621C1536.93,619.76 1534.6,616.76 1534.5,612C1534.7,608.767 1535.87,605.933 1538,603.5C1539.23,584.482 1541.73,565.648 1545.5,547C1542.53,544.843 1539.53,542.676 1536.5,540.5C1515.7,542.842 1500.53,534.509 1491,515.5C1488.8,509.909 1486.8,504.242 1485,498.5C1481.76,482.295 1477.76,466.295 1473,450.5C1468.46,427.582 1472.96,406.748 1486.5,388C1480.85,387.34 1475.52,385.673 1470.5,383C1466.32,379.487 1462.16,375.987 1458,372.5C1451.54,373.609 1445.04,373.775 1438.5,373C1432.13,370.761 1430.29,366.594 1433,360.5C1434.42,359.54 1435.92,358.707 1437.5,358C1442.42,357.441 1447.26,356.607 1452,355.5C1451.87,344.716 1453.87,334.382 1458,324.5C1459.94,321.894 1462.44,320.061 1465.5,319C1470.62,317.415 1475.62,315.915 1480.5,314.5ZM1479.5,332.5C1484.23,331.524 1487.89,333.024 1490.5,337C1484.44,342.117 1477.94,346.617 1471,350.5C1470.92,345.436 1471.59,340.436 1473,335.5C1475.29,334.578 1477.46,333.578 1479.5,332.5ZM1880.5,335.5C1883.47,335.307 1885.97,336.307 1888,338.5C1890.4,342.635 1892.24,346.968 1893.5,351.5C1884.02,352.605 1875.18,355.605 1867,360.5C1864.4,351.465 1866.9,344.299 1874.5,339C1876.73,338.059 1878.73,336.892 1880.5,335.5ZM1723.5,337.5C1753.72,336.654 1783.55,339.32 1813,345.5C1816.24,345.103 1819.41,345.936 1822.5,348C1830.75,354.749 1839.42,360.916 1848.5,366.5C1849.48,368.951 1850.31,371.284 1851,373.5C1838.62,384.269 1825.79,394.435 1812.5,404C1794.55,422.957 1789.05,445.123 1796,470.5C1798.53,475.02 1801.03,479.52 1803.5,484C1797.54,486.503 1795.37,491.003 1797,497.5C1798.91,505.079 1803.41,510.579 1810.5,514C1818.87,518.729 1827.87,520.896 1837.5,520.5C1853.59,519.985 1869.59,518.652 1885.5,516.5C1886.42,519.626 1885.92,522.626 1884,525.5C1881.59,529.916 1878.42,533.749 1874.5,537C1869.9,538.867 1865.23,540.534 1860.5,542C1832.45,543.105 1804.45,544.938 1776.5,547.5C1741.51,546.753 1706.51,546.253 1671.5,546C1666.84,544.156 1662.01,543.323 1657,543.5C1649.84,544.221 1642.67,544.888 1635.5,545.5C1621.83,544.38 1608.16,543.213 1594.5,542C1585.6,536.632 1576.1,532.798 1566,530.5C1562.75,530.892 1559.75,531.892 1557,533.5C1555.11,532.804 1553.27,531.97 1551.5,531C1547.45,527.284 1543.12,523.95 1538.5,521C1533.18,519.657 1528.85,521.157 1525.5,525.5C1512.43,520.244 1504.59,510.577 1502,496.5C1498.38,480.067 1494.38,463.734 1490,447.5C1487.09,430.607 1490.09,414.94 1499,400.5C1512.7,380.787 1530.53,366.287 1552.5,357C1601.26,349.922 1650.26,345.255 1699.5,343C1707.7,341.447 1715.7,339.614 1723.5,337.5ZM1978.5,350.5C1985.59,348.955 1990.09,351.622 1992,358.5C1993.98,373.239 1988.98,384.906 1977,393.5C1972.27,381.699 1965.77,371.032 1957.5,361.5C1963.88,356.479 1970.88,352.812 1978.5,350.5ZM1948.5,384.5C1934.1,381.52 1922.44,385.854 1913.5,397.5C1908.99,387.485 1902.32,379.152 1893.5,372.5C1910.23,367.828 1926.56,368.994 1942.5,376C1945.52,378.177 1947.52,381.011 1948.5,384.5ZM1882.5,386.5C1885.9,388.388 1888.9,390.888 1891.5,394C1886.05,392.589 1881.22,393.755 1877,397.5C1876.18,392.482 1878.01,388.815 1882.5,386.5ZM1858.5,394.5C1858.86,404.733 1861.36,414.4 1866,423.5C1867.5,425 1869,426.5 1870.5,428C1860.12,439.137 1858.79,451.304 1866.5,464.5C1856.16,466.212 1853.82,471.378 1859.5,480C1874.68,483.236 1890.02,485.569 1905.5,487C1913.17,487.667 1920.83,487.667 1928.5,487C1935.23,485.698 1937.4,481.865 1935,475.5C1931.6,473.147 1927.76,471.98 1923.5,472C1929.43,468.067 1933.93,462.9 1937,456.5C1937.8,452.245 1937.63,448.079 1936.5,444C1951.47,440.029 1960.64,430.529 1964,415.5C1971.77,430.35 1974.1,446.016 1971,462.5C1967.96,473.212 1961.12,480.379 1950.5,484C1938.05,487.945 1925.39,490.945 1912.5,493C1887.57,495.96 1862.57,498.127 1837.5,499.5C1828.54,499.123 1820.2,496.623 1812.5,492C1809.39,488.678 1809.89,486.178 1814,484.5C1817.43,477.695 1817.1,471.028 1813,464.5C1808.8,446.117 1813.3,430.284 1826.5,417C1837.05,409.235 1847.72,401.735 1858.5,394.5ZM1938.5,400.5C1944.61,400.944 1947.61,404.277 1947.5,410.5C1946.87,415.086 1944.71,418.752 1941,421.5C1940.03,414.201 1936.2,409.201 1929.5,406.5C1932.05,403.733 1935.05,401.733 1938.5,400.5ZM1898.5,433.5C1901.57,433.183 1904.57,433.516 1907.5,434.5C1910.21,438.212 1913.54,441.212 1917.5,443.5C1920.63,448.012 1919.96,451.845 1915.5,455C1912.98,456.513 1910.31,457.18 1907.5,457C1911.7,454.019 1912.53,450.186 1910,445.5C1906.33,442.271 1902.16,441.105 1897.5,442C1896.15,439.487 1894.15,437.653 1891.5,436.5C1893.87,435.34 1896.21,434.34 1898.5,433.5ZM1879.5,445.5C1880.22,447.091 1881.22,448.591 1882.5,450C1881.55,450.483 1880.55,450.649 1879.5,450.5L1879.5,445.5ZM1892.5,450.5C1893.42,452.82 1894.75,454.987 1896.5,457C1893.52,457.498 1890.52,457.665 1887.5,457.5C1887.7,455.61 1887.04,454.11 1885.5,453C1886.45,452.383 1887.28,452.549 1888,453.5C1889.88,452.947 1891.38,451.947 1892.5,450.5ZM1895.5,535.5C1901.68,554.547 1909.02,573.214 1917.5,591.5C1904.69,594.936 1892.19,599.269 1880,604.5C1878.46,591.892 1875.3,579.726 1870.5,568C1874.97,564.412 1876.64,559.912 1875.5,554.5C1884.16,550.175 1890.82,543.842 1895.5,535.5ZM1565.5,551.5C1567.53,551.338 1569.53,551.505 1571.5,552C1577.55,556.524 1584.21,559.691 1591.5,561.5C1589.74,576.685 1590.74,591.685 1594.5,606.5C1582.26,606.902 1569.93,606.068 1557.5,604C1556.29,595.539 1556.46,587.039 1558,578.5C1559.49,571.891 1560.65,565.225 1561.5,558.5C1562.77,556.174 1564.11,553.841 1565.5,551.5ZM1820.5,562.5L1825.5,562.5C1825.55,569.101 1826.89,575.434 1829.5,581.5C1829,581.833 1828.5,582.167 1828,582.5C1813.94,584.874 1799.77,585.874 1785.5,585.5L1785.5,567.5C1797.43,566.786 1809.1,565.119 1820.5,562.5ZM1650.5,564.5C1658.69,564.275 1666.69,565.275 1674.5,567.5C1674.79,571.106 1674.46,574.606 1673.5,578C1664.56,579.909 1655.56,581.409 1646.5,582.5L1646.5,565.5C1648.1,565.768 1649.43,565.434 1650.5,564.5Z" style="fill:rgb(41,108,30);fill-opacity:0.85;"/>
            </g>
        </g>
    </g>
</svg>
