<?xml version="1.0" encoding="UTF-8" standalone="no"?>
<!DOCTYPE svg PUBLIC "-//W3C//DTD SVG 1.1//EN" "http://www.w3.org/Graphics/SVG/1.1/DTD/svg11.dtd">
<svg width="100%" height="100%" viewBox="0 0 341 336" version="1.1" xmlns="http://www.w3.org/2000/svg" xmlns:xlink="http://www.w3.org/1999/xlink" xml:space="preserve" xmlns:serif="http://www.serif.com/" style="fill-rule:evenodd;clip-rule:evenodd;stroke-linejoin:round;stroke-miterlimit:2;">
    <g id="Монтажная-область1" serif:id="Монтажная область1" transform="matrix(0.950052,0,0,1.03594,-809.303,-98.5264)">
        <rect x="851.852" y="95.108" width="358.718" height="324.302" style="fill:none;"/>
        <g transform="matrix(1.05257,0,0,0.965308,-62.7481,14.6549)">
            <path d="M1075.5,97.5C1095.24,98.583 1114.91,100.416 1134.5,103C1141.57,105.072 1146.41,109.572 1149,116.5C1154.05,133.362 1154.71,150.362 1151,167.5C1148.59,171.916 1145.42,175.749 1141.5,179C1133.03,185.457 1124.03,191.124 1114.5,196C1112.88,196.853 1112.54,197.853 1113.5,199C1115.37,200.366 1117.37,201.533 1119.5,202.5C1131.91,187.946 1147.58,178.446 1166.5,174C1184.71,172.537 1191.87,180.704 1188,198.5C1175.69,219.96 1157.19,231.96 1132.5,234.5C1132.17,235.167 1131.83,235.833 1131.5,236.5C1139.86,241.358 1146.36,248.025 1151,256.5C1159.94,272.711 1166.94,289.711 1172,307.5C1178.12,333.806 1173.79,358.139 1159,380.5C1147.23,391.806 1133.4,399.639 1117.5,404C1093.41,409.132 1069.08,412.632 1044.5,414.5C1010.05,414.291 978.05,405.458 948.5,388C946.093,385.715 943.593,383.549 941,381.5C926.594,383.143 913.928,379.143 903,369.5C895.528,352.614 891.028,334.947 889.5,316.5C889.365,311.011 890.198,305.677 892,300.5C899.211,283.224 909.044,267.724 921.5,254C934.487,243.671 948.82,235.671 964.5,230C970.191,226.487 975.524,222.487 980.5,218C966.443,207.61 952.11,197.61 937.5,188C930.423,182.977 929.756,177.31 935.5,171C937.137,170.399 938.803,169.899 940.5,169.5C956.579,174.805 972.579,179.972 988.5,185C985.742,179.85 986.076,174.85 989.5,170C983.969,157.341 981.136,144.174 981,130.5C981.725,128.051 982.725,125.717 984,123.5C993.973,114.214 1005.47,107.381 1018.5,103C1037.53,99.922 1056.53,98.089 1075.5,97.5ZM1070.5,119.5C1089.56,120.206 1108.56,121.706 1127.5,124C1130.66,131.146 1131.99,138.646 1131.5,146.5C1131.33,150.167 1131.17,153.833 1131,157.5C1130.53,158.931 1129.7,160.097 1128.5,161C1115.4,169.631 1102.24,178.131 1089,186.5C1064.72,177.346 1039.72,171.346 1014,168.5C1012.06,164.89 1009.72,161.557 1007,158.5C1004.83,151.333 1002.67,144.167 1000.5,137C1007.22,130.3 1015.22,125.633 1024.5,123C1039.94,121.227 1055.27,120.06 1070.5,119.5ZM1019.5,192.5C1034.71,194.886 1049.71,198.386 1064.5,203C1050.17,203.667 1035.83,203.667 1021.5,203C1019.49,202.32 1018.15,200.987 1017.5,199C1018.61,196.953 1019.28,194.787 1019.5,192.5ZM1165.5,193.5C1166.24,193.369 1166.91,193.536 1167.5,194C1159.42,203.46 1149.42,209.46 1137.5,212C1145.95,204.369 1155.28,198.202 1165.5,193.5ZM997.5,227.5C1030.65,228.688 1063.31,233.188 1095.5,241C1107.11,247.049 1117.94,254.216 1128,262.5C1137.3,279.107 1144.97,296.441 1151,314.5C1158.32,351.393 1143.82,374.226 1107.5,383C1086.07,387.289 1064.57,390.789 1043,393.5C1012.95,391.484 985.121,382.651 959.5,367C953.25,359.881 945.917,354.215 937.5,350C932.828,342.12 927.661,341.62 922,348.5C921.543,352.882 921.543,357.216 922,361.5C917.438,359.264 914.772,355.597 914,350.5C910.879,339.35 908.713,328.017 907.5,316.5C908,313.5 908.5,310.5 909,307.5C915.329,294.833 922.663,282.833 931,271.5C934.405,268.216 937.905,265.05 941.5,262C952.779,255.527 964.446,249.861 976.5,245C984.274,240.056 991.274,234.222 997.5,227.5ZM1036.5,336.5C1046.78,337.704 1050.61,343.371 1048,353.5C1045.77,356.078 1042.94,357.411 1039.5,357.5C1038.41,350.516 1037.41,343.516 1036.5,336.5Z" style="fill:rgb(41,108,30);fill-opacity:0.86;"/>
        </g>
        <g transform="matrix(1.05257,0,0,0.965308,-62.7481,14.6549)">
            <path d="M1011.5,257.5C1016.28,256.742 1020.28,258.075 1023.5,261.5C1030.51,262.267 1037.51,263.101 1044.5,264C1053.98,266.152 1058.15,271.986 1057,281.5C1054.92,288.355 1050.59,293.022 1044,295.5C1039.73,295.068 1037.23,292.735 1036.5,288.5C1037.35,286.591 1037.68,284.591 1037.5,282.5L1029.5,282.5C1030.67,292.888 1032.17,303.221 1034,313.5C1042.24,315.69 1050.07,318.857 1057.5,323C1069.69,334.298 1072.85,347.798 1067,363.5C1061.91,372.135 1054.41,377.469 1044.5,379.5C1041.8,387.683 1036.47,390.183 1028.5,387C1027.17,385 1025.83,383 1024.5,381C1013.47,379.579 1002.47,377.912 991.5,376C985.558,374.227 981.891,370.393 980.5,364.5C981.555,358.943 984.888,355.443 990.5,354C1000.4,355.654 1010.4,356.654 1020.5,357C1018.88,347.528 1017.22,338.028 1015.5,328.5C995.01,315.207 989.844,297.54 1000,275.5C1001.67,273.833 1003.33,272.167 1005,270.5C1005.09,264.993 1007.25,260.659 1011.5,257.5ZM1036.5,336.5C1037.41,343.516 1038.41,350.516 1039.5,357.5C1042.94,357.411 1045.77,356.078 1048,353.5C1050.61,343.371 1046.78,337.704 1036.5,336.5Z" style="fill:rgb(41,108,30);fill-opacity:0.86;"/>
        </g>
    </g>
</svg>
