<?xml version="1.0" encoding="UTF-8" standalone="no"?>
<!DOCTYPE svg PUBLIC "-//W3C//DTD SVG 1.1//EN" "http://www.w3.org/Graphics/SVG/1.1/DTD/svg11.dtd">
<svg width="100%" height="100%" viewBox="0 0 417 418" version="1.1" xmlns="http://www.w3.org/2000/svg" xmlns:xlink="http://www.w3.org/1999/xlink" xml:space="preserve" xmlns:serif="http://www.serif.com/" style="fill-rule:evenodd;clip-rule:evenodd;stroke-linejoin:round;stroke-miterlimit:2;">
    <g id="Монтажная-область1" serif:id="Монтажная область1" transform="matrix(0.972838,0,0,1,-1006.01,-926.697)">
        <rect x="1034.1" y="926.697" width="428.211" height="417.687" style="fill:none;"/>
        <g transform="matrix(0.102792,0,0,-0.1,-40.722,2048.7)">
            <path d="M13935,11083L13855,11037L13640,11034C13316,11031 13107,10995 12425,10828C12050,10736 12011,10731 11909,10772C11755,10834 11598,10844 11528,10796C11450,10744 11441,10660 11507,10594C11537,10564 11541,10555 11531,10541C11506,10507 11480,10440 11474,10396C11469,10359 11472,10341 11494,10296C11532,10218 11680,10087 11883,9952C11936,9916 11980,9884 11980,9881C11980,9878 11914,9832 11832,9779C11751,9726 11629,9644 11560,9597C11450,9522 11428,9511 11378,9505L11322,9499L11264,9577C11151,9730 11006,9861 10917,9890C10838,9915 10762,9871 10739,9787C10722,9724 10741,9603 10784,9515C10842,9391 10906,9337 11042,9296L11113,9274L11049,9225C10935,9138 10686,8933 10638,8887C10577,8828 10561,8778 10585,8726C10620,8653 10679,8644 10816,8690C10909,8722 11049,8760 11072,8760C11082,8760 11085,8737 11085,8661C11085,8569 11087,8559 11120,8494C11160,8416 11209,8373 11297,8340C11349,8320 11369,8318 11485,8322L11615,8327L11642,8298C11656,8283 11682,8267 11699,8264C11716,8260 11730,8255 11729,8251C11729,8248 11690,8216 11643,8180C11528,8093 11321,7886 11237,7775C11149,7659 11066,7491 11049,7399C11018,7223 11110,7110 11284,7110C11433,7110 11711,7219 11922,7361C11971,7394 12012,7420 12014,7420C12016,7420 12020,7403 12024,7383C12038,7295 12101,7240 12187,7240C12232,7240 12241,7244 12264,7271C12300,7313 12297,7346 12255,7386C12223,7416 12220,7424 12220,7475C12220,7619 12270,7979 12292,7991C12299,7995 12314,8005 12325,8014C12344,8028 12348,8025 12385,7983C12422,7941 12430,7937 12480,7933C12526,7929 12541,7932 12570,7952C12601,7972 12681,8077 12692,8111C12695,8119 12741,8101 12831,8057C12978,7984 13090,7950 13184,7950C13256,7950 13336,7970 13386,7999C13432,8026 13433,8026 13452,7986C13474,7941 13526,7882 13561,7864C13607,7841 13673,7846 13710,7876C13770,7927 13787,7997 13766,8100C13749,8180 13721,8245 13675,8314C13641,8365 13640,8370 13640,8461C13640,8564 13626,8629 13580,8748C13560,8799 13554,8826 13561,8831C13567,8835 13616,8841 13669,8844C13889,8860 14164,8791 14293,8687C14369,8625 14408,8616 14460,8647C14506,8674 14524,8735 14499,8783C14446,8883 13925,9424 13705,9607L13655,9648L13841,9828C14262,10237 14403,10450 14388,10659C14380,10770 14311,10872 14201,10934C14156,10959 14156,10959 14159,11009C14162,11065 14144,11100 14104,11118C14057,11140 14018,11132 13935,11083ZM13530,10826C13530,10815 13090,10540 13073,10540C13067,10540 13055,10559 13045,10583C13036,10606 13014,10651 12995,10682C12976,10714 12965,10742 12969,10744C12981,10752 13235,10797 13335,10809C13415,10819 13443,10822 13513,10828C13522,10829 13530,10828 13530,10826ZM14045,10761C14079,10746 14119,10718 14134,10699C14159,10670 14162,10660 14157,10619C14145,10523 14065,10403 13877,10198C13780,10094 13548,9873 13445,9788C13416,9763 13414,9763 13342,9775C13302,9782 13268,9789 13266,9791C13264,9793 13246,9871 13225,9965L13188,10134L13212,10155C13225,10166 13305,10236 13390,10311C13643,10533 13954,10790 13970,10790C13978,10790 14012,10777 14045,10761ZM12515,10623C12496,10574 12441,10399 12435,10366C12426,10322 12423,10322 12342,10385C12287,10428 12200,10543 12213,10556C12218,10561 12495,10638 12514,10639C12518,10640 12519,10632 12515,10623ZM12809,10595C12846,10537 12884,10444 12877,10427C12871,10412 12641,10275 12634,10283C12627,10289 12665,10436 12692,10508C12716,10574 12756,10640 12770,10640C12776,10640 12793,10620 12809,10595ZM11896,10399C11971,10376 12062,10333 12098,10304C12124,10282 12153,10150 12148,10079L12145,10038L11980,10148C11818,10256 11690,10360 11690,10384C11690,10425 11788,10432 11896,10399ZM12840,10085L12755,10000L12731,10025C12717,10038 12708,10051 12711,10054C12726,10069 12916,10178 12919,10174C12922,10171 12886,10131 12840,10085ZM13029,9898C13074,9678 13088,9605 13085,9602C13083,9599 12925,9798 12907,9827C12902,9836 12916,9858 12951,9895C12980,9925 13006,9950 13011,9950C13015,9950 13023,9926 13029,9898ZM12610,9836C12609,9825 12555,9760 12546,9760C12544,9760 12543,9768 12545,9778C12547,9787 12552,9817 12555,9844L12562,9892L12586,9869C12599,9857 12610,9842 12610,9836ZM12111,9642C12099,9598 12084,9590 12010,9590L11965,9590L12040,9640C12081,9667 12116,9688 12118,9686C12120,9684 12116,9664 12111,9642ZM12774,9635L12790,9610L12755,9610C12717,9610 12715,9612 12730,9641C12744,9666 12754,9665 12774,9635ZM11011,9553C11024,9537 11023,9536 11008,9549C10998,9556 10990,9564 10990,9566C10990,9574 10998,9569 11011,9553ZM13516,9479C13570,9446 13557,9443 13482,9471C13469,9476 13462,9484 13465,9490C13474,9504 13478,9503 13516,9479ZM12902,9384L12940,9377L12902,9348C12838,9296 12836,9296 12812,9346L12790,9390L12828,9390C12848,9390 12882,9387 12902,9384ZM12600,9278C12622,9234 12640,9188 12640,9176C12639,9150 12457,9020 12452,9043C12451,9050 12458,9113 12468,9181C12482,9273 12494,9316 12511,9342C12541,9388 12547,9383 12600,9278ZM12003,9255C11984,9197 11965,9150 11961,9150C11958,9150 11917,9191 11872,9240C11819,9297 11793,9332 11802,9335C11822,9341 11950,9357 11997,9359L12039,9360L12003,9255ZM13421,9271C13487,9248 13570,9208 13570,9199C13570,9186 13529,9141 13480,9100L13431,9059L13401,9117C13376,9167 13348,9290 13362,9290C13365,9290 13391,9282 13421,9271ZM11584,9205C11601,9197 11654,9152 11700,9105L11785,9020L11729,9020C11698,9020 11652,9023 11626,9026L11579,9033L11539,9111C11495,9200 11493,9207 11518,9213C11547,9221 11551,9220 11584,9205ZM13890,9124L13975,9038L13905,9045C13867,9048 13817,9053 13794,9056L13753,9061L13777,9107C13789,9133 13800,9166 13800,9182C13800,9197 13801,9210 13803,9210C13804,9210 13844,9171 13890,9124ZM13124,9128C13197,9013 13211,8970 13174,8970C13166,8970 13105,8952 13039,8929C12973,8907 12917,8890 12915,8892C12913,8894 12911,8930 12909,8973L12905,9050L12990,9114C13037,9150 13078,9179 13083,9179C13087,9180 13105,9156 13124,9128ZM12690,8880C12690,8875 12688,8870 12686,8870C12683,8870 12678,8875 12675,8880C12672,8886 12674,8890 12679,8890C12685,8890 12690,8886 12690,8880ZM11453,8783C11461,8767 11482,8711 11501,8657C11541,8542 11540,8540 11437,8540C11327,8540 11290,8572 11290,8668C11290,8790 11304,8808 11392,8809C11434,8810 11441,8807 11453,8783ZM11816,8797C11821,8783 11753,8624 11745,8632C11742,8635 11729,8668 11716,8706C11703,8744 11689,8783 11685,8793C11679,8808 11685,8810 11744,8810C11790,8810 11812,8806 11816,8797ZM12468,8702C12477,8696 12473,8690 12455,8682C12422,8667 12423,8667 12410,8690C12400,8708 12402,8710 12427,8710C12442,8710 12461,8706 12468,8702ZM12125,8515C12113,8498 11860,8338 11860,8348C11861,8352 11871,8375 11884,8399C11905,8439 11918,8449 12011,8496C12077,8529 12119,8545 12125,8539C12131,8533 12131,8524 12125,8515ZM12630,8513C12630,8508 12625,8498 12620,8490C12613,8478 12608,8478 12598,8488C12588,8498 12588,8503 12600,8510C12618,8522 12630,8523 12630,8513ZM13159,8459C13285,8390 13317,8363 13335,8312C13359,8239 13356,8224 13304,8194C13249,8162 13189,8154 13118,8170C13057,8184 12879,8268 12836,8303L12807,8326L12931,8413C12999,8461 13061,8500 13069,8500C13077,8500 13117,8481 13159,8459ZM12086,8183C12070,8090 12073,8093 11980,8035C11846,7950 11812,7903 11823,7820C11829,7770 11859,7728 11917,7689L11962,7658L11923,7618C11871,7564 11712,7459 11609,7411C11510,7364 11397,7332 11320,7328L11265,7325L11268,7360C11278,7486 11509,7783 11750,7980C11846,8059 12069,8219 12084,8220C12088,8220 12089,8203 12086,8183Z" style="fill:rgb(41,108,30);fill-rule:nonzero;"/>
        </g>
    </g>
</svg>
