<?xml version="1.0" encoding="UTF-8"?>
<svg width="287px" height="91px" viewBox="0 0 287 91" version="1.1" xmlns="http://www.w3.org/2000/svg" xmlns:xlink="http://www.w3.org/1999/xlink">
    <title>нажми </title>
    <defs>
        <filter x="-2.9%" y="-10.1%" width="105.8%" height="120.3%" filterUnits="objectBoundingBox" id="filter-1">
            <feOffset dx="0" dy="0" in="SourceAlpha" result="shadowOffsetOuter1"></feOffset>
            <feGaussianBlur stdDeviation="2" in="shadowOffsetOuter1" result="shadowBlurOuter1"></feGaussianBlur>
            <feColorMatrix values="0 0 0 0 0   0 0 0 0 0   0 0 0 0 0  0 0 0 0.5 0" type="matrix" in="shadowBlurOuter1" result="shadowMatrixOuter1"></feColorMatrix>
            <feMerge>
                <feMergeNode in="shadowMatrixOuter1"></feMergeNode>
                <feMergeNode in="SourceGraphic"></feMergeNode>
            </feMerge>
        </filter>
    </defs>
    <g id="Page-1" stroke="none" stroke-width="1" fill="none" fill-rule="evenodd">
        <g id="iPhone-11" transform="translate(-118.000000, -774.000000)" fill="#FFFFFF" fill-rule="nonzero">
            <g id="нажми-" filter="url(#filter-1)" transform="translate(124.000000, 780.000000)">
                <path d="M215.328882,0.189592514 C214.710787,0.443863771 213.845454,1.56689516 213.598216,2.47803383 C213.289169,3.51630813 213.000724,9.38573631 213.000724,15.1280289 C212.980121,21.2941068 213.392184,23.1587627 215.12285,24.7267688 C217.244976,26.6338032 220.191228,25.7226646 222.560592,22.4171382 L223.425925,21.2093498 L223.755576,22.3111919 C224.559099,24.9386615 225.939511,26.1888285 227.793796,25.9769358 C228.494304,25.8921787 228.86516,25.7226646 229.297827,25.2141221 C230.16316,24.2182263 230.224969,23.3918447 229.503859,21.5695674 C229.174208,20.7008072 228.782748,19.3235046 228.617922,18.5183123 C228.226462,16.5053315 228.226462,9.19503287 228.617922,6.63113103 C228.968176,4.36387898 228.782748,3.57987594 227.731986,2.92300853 C225.692273,1.65165224 223.487735,3.64344375 223.487735,6.77945592 C223.487735,9.44930412 221.695259,14.2592687 219.22288,18.2004732 L218.233928,19.7896686 L218.069103,17.7766878 C217.863071,15.1068396 218.089706,7.9872444 218.460563,5.59285673 C218.83142,3.15609051 218.83142,2.01186986 218.43996,1.24905608 C217.904277,0.189592514 216.482659,-0.297760729 215.328882,0.189592514 Z" id="Path"></path>
                <path d="M201.13439,0.33517282 C200.708399,0.559440147 200.241838,1.08952656 199.97813,1.61961297 C198.801585,3.88267418 197.401902,7.22629615 196.549921,9.75440057 C196.022504,11.263108 195.150238,13.5873331 194.602536,14.9125491 C193.628843,17.2571621 193,19.2347921 193,20.0095338 C193,21.1716463 194.359113,22.3337589 195.434231,22.0891036 C196.833914,21.7832845 198.7813,19.0105248 200.850396,14.3824627 C201.540095,12.8533673 202.067512,11.8951342 202.148653,12.0378497 C202.371791,12.4252206 202.939778,17.4202656 203.142631,20.4988444 C203.345483,23.5570352 203.710618,24.6987598 204.745166,25.4327256 C206.063708,26.3909587 207.828526,26.1055275 208.619651,24.8006995 C209.126783,23.964794 209.126783,23.3327679 208.619651,21.620181 C208.416799,20.8658273 208.051664,18.602766 207.808241,16.5843601 C206.99683,9.46896943 206.165135,4.69819174 205.37401,2.55745816 C204.562599,0.396336637 202.736926,-0.56189649 201.13439,0.33517282 Z" id="Path"></path>
                <path d="M99.5734939,1.26588114 C98.19079,1.774187 97.6011074,2.40956933 96.7674183,4.20981925 C95.4863838,7.0266809 94.9780368,8.91164847 93.9816766,14.5665512 C93.3309924,18.2517687 93.0259842,20.5391451 93.0056503,21.8734479 C92.9853164,23.8007743 92.9853164,23.8431332 93.6360006,24.5208743 C95.0390384,25.9822537 96.6860828,25.1138978 97.1537621,22.6359067 C97.2757653,21.9581656 98.028119,18.6965363 98.8008064,15.3713688 C99.5734939,12.0462013 100.203844,9.12344258 100.203844,8.86928965 C100.203844,8.61513672 100.305514,8.33980438 100.407183,8.27626615 C100.529186,8.21272791 100.610522,8.1915485 100.610522,8.25508674 C100.610522,9.14462199 101.505213,15.9855717 101.728885,16.7903893 C102.318568,18.9295098 103.721606,19.8614039 105.205979,19.1201245 C106.060002,18.6753569 106.73102,17.5740275 107.991721,14.5241924 C108.540736,13.1898895 109.028749,12.0462013 109.08975,11.9826631 C109.150752,11.9191248 109.150752,14.3971159 109.069416,17.4893099 C108.886412,25.0291802 109.110084,26.1305095 110.940134,26.8082507 C111.692487,27.083583 111.855158,27.0624036 112.485508,26.7447125 C113.766543,26.1093301 113.766543,26.151689 113.929214,16.2185452 C114.051217,8.31862497 114.030883,7.0266809 113.746209,5.73473684 C113.339532,3.87094868 113.075191,3.34146341 112.363505,2.96023401 C110.45212,1.92244287 108.19506,3.70151339 106.182005,7.7891397 L105.36865,9.48349257 L105.00264,7.70442205 C104.555295,5.50176332 103.579269,3.04495165 102.806581,2.11305757 C102.481239,1.73182818 101.871223,1.30823996 101.464545,1.18116349 C100.529186,0.927010562 100.468185,0.927010562 99.5734939,1.26588114 Z" id="Path"></path>
                <path d="M75.3570269,2.16212986 C74.6051617,2.44511426 74.0203777,3.35470696 74.0203777,4.22387331 C74.0203777,5.11325284 74.208344,5.51751627 75.5241081,7.45798069 C76.0253515,8.18565486 77.0487236,9.92398757 77.7588185,11.2984832 C79.0328123,13.7038506 79.0745826,13.8453428 78.9283866,14.8560013 C78.8030757,15.7858072 78.5733391,16.1698575 76.9860682,18.0901087 C72.4539919,23.5274517 71.6812415,24.8008815 72.0989444,26.1753772 C72.4122216,27.1658225 73.1432016,27.812644 74.0830331,27.9743494 C75.0437498,28.1158416 75.7956149,27.6711518 76.2759733,26.6604933 C76.4639396,26.2562298 77.0487236,25.3668503 77.5499671,24.7200288 L78.4897986,23.5072386 L78.7613054,24.9221605 C79.0745826,26.5998538 79.6593666,27.2264621 80.8915902,27.2264621 C82.2700097,27.2264621 82.9592194,26.0540981 83.0009897,23.6891571 C83.0218749,23.1231883 83.0845303,22.3146615 83.1680709,21.8699717 L83.3142669,21.081658 L84.0034767,22.1125298 C84.3794093,22.6784986 85.1521596,23.5678781 85.7160585,24.0732074 C86.9691671,25.2253581 87.7419175,25.3062108 88.6608638,24.4168313 C89.7468913,23.3657464 89.4962696,22.617859 86.6767751,18.0294692 C85.9249099,16.8166789 85.2983556,15.7453809 85.2983556,15.6645282 C85.2983556,15.5634623 86.3217277,14.2900325 87.5957215,12.8346842 C90.2063645,9.7622822 91,8.50906559 91,7.37712801 C91,6.24519043 90.1228239,5.39623724 88.9532559,5.39623724 C87.8881135,5.39623724 87.4912958,5.67922164 86.0919911,7.35691484 L84.9850784,8.7111973 L84.8597676,6.60902751 C84.776227,5.23453187 84.6091458,4.26429966 84.4002944,3.83982306 C83.3769223,1.93978498 81.1839822,2.22276937 80.1814952,4.36536551 C79.9726438,4.83026845 79.7429072,5.19410553 79.6802518,5.19410553 C79.6175964,5.19410553 79.1581232,4.58771039 78.6568797,3.86003623 C77.5499671,2.22276937 76.526595,1.69722692 75.3570269,2.16212986 Z" id="Path"></path>
                <path d="M181.111439,2.22519174 C178.922333,3.04713386 176.692688,6.43513917 175.213015,11.1462708 C174.098192,14.8149393 173.713072,18.0826604 174.219809,19.8869236 C174.503582,20.9093394 175.841369,22.3126552 176.956192,22.73365 C177.665624,22.9942658 178.273709,23.0544079 179.915538,22.954171 C182.226261,22.8539342 183.239736,22.5532236 186.036927,21.1900026 C188.894926,19.8067341 189.685437,18.4635604 188.408459,17.1805288 C187.597679,16.3986814 186.604473,16.4187288 183.239736,17.2807657 C181.780332,17.6616657 180.179042,18.0024709 179.672304,18.0425657 L178.760177,18.1027078 L178.800716,16.7996288 C178.861524,14.253613 180.624971,9.20167606 182.084375,7.39741287 C182.428956,6.93632339 182.550573,6.91627602 183.239736,7.09670234 C183.746474,7.21698656 184.111325,7.45755498 184.273481,7.77831288 C184.658601,8.56016026 185.327495,8.981155 186.158544,8.981155 C187.090941,8.981155 187.840913,8.21935499 188.185494,6.97641813 C188.651693,5.29243916 187.800374,3.86907598 185.732885,2.7664707 C184.29375,2.00467068 182.307339,1.78414963 181.111439,2.22519174 Z" id="Path"></path>
                <path d="M61.4175628,3.25142192 C61.0472124,3.45305526 60.5794014,3.83615862 60.3844801,4.1184453 C60.0726061,4.58220199 58.064917,10.8731623 56.6809761,15.7123626 C55.8428146,18.6965361 54.9266847,24.4430864 55.0046532,26.3384399 C55.0631296,27.7297099 55.1216059,27.9716699 55.589417,28.45559 C55.9597674,28.8386933 56.3301178,29 56.7979288,29 C57.7920273,29 58.4157753,28.3144466 58.669173,26.9231766 C58.9615549,25.3504365 59.604795,22.2856096 59.8581927,21.3782596 L60.0726061,20.6120529 L61.5540077,20.7128695 C62.372677,20.7531962 63.4057597,20.9346662 63.8345865,21.0758096 C64.5168109,21.3177696 64.6142715,21.4387496 64.6727479,22.063813 C64.7507164,23.152633 65.5109094,26.5400732 65.8032913,27.1449732 C66.3490708,28.2337933 67.7135197,28.45559 68.5126968,27.6087299 L69,27.1248099 L68.9025394,22.6283863 C68.7271102,14.4219092 68.4152362,10.852999 67.616059,8.31241886 C66.7584055,5.65085872 65.8812598,4.34024198 64.4583345,3.63452527 C63.0159172,2.92880857 62.21674,2.82799189 61.4175628,3.25142192 Z M63.6201731,9.70368894 C64.0295077,12.1837791 64.3218896,14.6840325 64.3218896,15.8736693 C64.3218896,17.1439593 64.2829054,17.244776 63.9515392,17.123796 C63.7371258,17.063306 63.0743935,16.9221627 62.4701376,16.821346 C61.8463896,16.7205293 61.30061,16.5995493 61.2616258,16.5592226 C61.2226415,16.4987326 61.5734998,15.1074626 62.060803,13.4540691 C62.528614,11.7805124 62.996425,10.1069556 63.0549014,9.70368894 C63.2303306,8.75601222 63.4642361,8.75601222 63.6201731,9.70368894 Z" id="Shape"></path>
                <path d="M163.709908,2.15271065 C162.578005,2.53011926 161.857703,3.05429787 160.725799,4.31232656 C157.70053,7.709004 156.609786,10.4137657 156.095285,15.6974861 C155.724844,19.5135065 156.445146,22.3860053 158.070971,23.6650011 C159.532155,24.7972269 160.808119,25.0697998 164.22441,24.9859312 C167.49664,24.9020626 168.319843,24.6923912 169.101885,23.6859683 C169.513486,23.1827568 169.575226,22.0714981 169.266525,21.4634509 C168.875504,20.7086337 168.216942,20.5408966 165.562114,20.5199294 C162.804385,20.4779951 161.466681,20.2263894 160.808119,19.5554408 C160.499418,19.2409336 160.417098,18.863525 160.417098,17.710332 L160.417098,16.2845662 L162.248724,16.1797305 C165.767915,15.970059 168.361003,14.0201146 170.233788,10.1831271 C171.139311,8.31705119 171.242212,6.78644963 170.542489,5.38165094 C169.451746,3.22203503 165.767915,1.46079488 163.709908,2.15271065 Z M165.973715,6.99612108 C166.879238,7.47836541 166.961558,7.709004 166.467637,8.46382121 C165.397473,10.0992585 163.318887,11.6088929 162.125243,11.6088929 C161.425521,11.6088929 161.363781,11.2524515 161.960603,10.2460285 C162.598585,9.11380269 164.677171,6.57677818 164.965292,6.57677818 C165.068192,6.57677818 165.541534,6.76548249 165.973715,6.99612108 Z" id="Shape"></path>
                <path d="M120.612558,4.36548852 C120.26219,4.59334095 119.849993,5.06975968 119.705724,5.46332297 C119.437796,6.16759413 119.066818,13.603869 119.004988,19.1966105 C118.984379,22.1586922 119.004988,22.3658307 119.520235,23.4636652 C120.756827,26.0943251 123.394889,26.8193101 126.383319,25.3279124 C127.70235,24.6857828 129.351139,23.1115296 130.175534,21.7237012 C130.361022,21.4129933 130.567121,21.164427 130.649561,21.164427 C130.71139,21.164427 130.896879,21.7029873 131.041148,22.3451169 C131.515175,24.5614996 132.318959,26.3843191 133.143354,27.2128734 C133.823479,27.8964307 134.050188,28 134.874582,28 C135.637147,28 135.925685,27.8964307 136.420322,27.3992981 C137.182887,26.6121715 137.203497,25.8871865 136.420322,24.1057948 C135.431048,21.8479843 135.14251,20.0251648 135.018851,15.6752547 C134.957022,13.5002997 135.018851,10.7660705 135.121901,9.58538063 C135.348609,7.16185929 135.18373,6.25044956 134.441775,5.50475069 C133.844089,4.90404882 132.422009,4.82119339 131.680054,5.33903982 C131.020538,5.81545855 130.422852,7.20328701 130.422852,8.2804076 C130.422852,9.46109748 129.763336,12.0710435 129.041991,13.7281521 C127.578691,17.1045109 124.961239,21.1851409 124.157454,21.3301379 C123.807086,21.4129933 123.786476,21.2472824 123.910136,19.1551828 C124.239893,13.9974323 124.384162,7.61756416 124.198674,6.80972371 C123.930745,5.60831997 123.31245,4.69691024 122.508665,4.30334695 C121.622441,3.8890698 121.395732,3.8890698 120.612558,4.36548852 Z" id="Path"></path>
                <path d="M42.9871615,4.38917887 C41.9605582,5.02415492 41.8168337,5.76154647 41.9810903,9.81719997 L42.1248147,13.360776 L41.3856604,13.5041577 C40.975019,13.5860901 39.6404347,14.1596169 38.4290429,14.7741098 L36.2321118,15.8801971 L36.1294515,11.1486014 L36.0267911,6.41700562 L35.4518933,5.92541126 C34.733271,5.3109183 33.8914563,5.29043521 33.1523019,5.88444506 C32.0641024,6.7242521 31.9819741,7.23632956 32.0025062,13.2788436 C32.0025062,18.9321788 32.0230383,19.3623239 32.556872,24.995176 C32.9059171,28.4977858 33.172834,29.3990421 33.9941166,29.788221 C34.733271,30.1159506 35.1849764,30.0749844 35.7804063,29.58339 C36.6632852,28.9074478 36.7864776,27.9652252 36.5195607,24.0734365 C36.2526439,20.1406816 36.2321118,20.1816478 37.7104205,19.5261887 C38.9423445,18.9936281 42.3506675,18.3176859 42.514924,18.5839661 C42.5970522,18.7068647 42.7202446,19.6900534 42.7818408,20.7756577 C43.2335463,27.0639689 43.7879121,28.4977858 45.8616507,28.7230999 C46.6829334,28.8255154 46.8471899,28.7640661 47.4426198,28.1905393 C48.0175177,27.6170126 48.0585818,27.4531478 47.9559215,26.67479 C47.8737932,26.2036788 47.7300687,23.2745957 47.6479405,20.1816478 C47.4426198,13.9343028 46.8061258,7.68695773 46.1696317,5.70009718 C45.9027149,4.86029014 44.8761116,4 44.1780213,4 C43.8700403,4 43.3362066,4.18434789 42.9871615,4.38917887 Z" id="Path"></path>
                <path d="M145.675486,24.3051902 C144.117841,25.0456241 143.564467,26.7591998 144.363785,28.3458439 C144.69171,29.0016568 144.753196,29.3189856 144.589234,29.6151592 C144.486757,29.8267117 144.38428,30.4402141 144.38428,30.9479403 C144.38428,32.2595661 145.101617,33 146.372327,33 C148.216907,33 150,30.3979036 150,27.7111862 C150,26.8226655 149.877028,26.1033869 149.651579,25.6591265 C148.872757,24.1782586 147.171645,23.5859115 145.675486,24.3051902 Z" id="Path"></path>
                <path d="M87.1416251,35.1669078 C84.768717,35.7618735 80.3736785,39.4137321 78.2071102,42.6142373 C76.2468817,45.5070017 75.2151826,47.9894449 73.8946076,53.0363955 C73.0486143,56.2369008 72.7597385,60.0939199 73.2136861,62.3096544 C73.7089018,64.8126136 74.9469408,66.8026714 76.5357575,67.6233137 C78.1864762,68.4439561 81.1577699,67.8900225 83.5925799,66.2897699 C85.3052006,65.1613866 87.9050825,62.3301704 89.2050235,60.1349521 C91.123984,56.9344468 91.5572977,55.0469693 90.7732063,53.3441364 C90.3192586,52.3388495 89.885945,51.9490444 88.627272,51.3951108 L87.6368407,50.9642735 L88.3177622,50.1231151 C91.2684219,46.5328047 92.7747027,43.2707512 92.9810425,40.1112781 C93.1254804,37.649351 92.444559,36.0490983 90.9382781,35.2900041 C90.3398926,34.9617472 88.2352263,34.900199 87.1416251,35.1669078 Z M87.9669845,41.116565 C87.5749388,42.2859804 85.3052006,45.8147426 83.7163838,47.7022201 C82.1894691,49.5281493 79.6308551,52.2773013 79.3007113,52.4824619 C78.5785219,52.8927831 80.6212863,47.8253164 82.210103,45.3018411 C83.8814557,42.6142373 88.0288864,38.8597985 88.2352263,39.8240532 C88.2764942,39.9881817 88.1526903,40.5626314 87.9669845,41.116565 Z M85.5528084,56.4830935 C85.3464686,57.2627037 83.0354624,60.463209 81.9831292,61.4274638 C80.5593843,62.6994595 79.1150055,63.4380376 78.6816918,63.0892646 C78.2690121,62.7404916 77.7531626,60.9555944 77.7531626,59.8887593 C77.7531626,59.0476009 77.7737965,59.0065688 78.8467637,58.4936673 C79.4245152,58.2064425 80.0641687,57.8781855 80.2292406,57.7756052 C80.6006523,57.5499286 84.9544229,56.1548365 85.3671025,56.1343205 C85.5321744,56.1138044 85.6147103,56.2574168 85.5528084,56.4830935 Z" id="Shape"></path>
                <path d="M259.798156,36.5769256 C258.987391,37.401105 258.926584,38.2252844 259.048199,44.8187197 C259.129275,49.6813783 259.210352,50.7528115 259.554927,52.1127076 C260.304885,54.9355221 261.11565,55.9863508 262.554757,55.9863508 C262.858794,55.9863508 263.527675,56.1923957 264.034404,56.4396495 C265.149205,56.9959706 266.953157,57.1608065 268.250381,56.8311347 C269.851642,56.419045 272.060977,55.2239849 273.054164,54.2349696 C274.513541,52.8132601 275,51.5563865 275,49.2692886 C275,47.5179073 274.939193,47.291258 274.270312,45.9313619 C272.790665,42.8818981 269.993526,41.60442 265.27082,41.8104649 L263.487137,41.8722783 L263.365522,41.1511213 C263.304715,40.7596361 263.243908,39.8324343 263.243908,39.1318818 C263.243908,36.9890153 262.534488,36 260.994035,36 C260.588652,36 260.18327,36.2060449 259.798156,36.5769256 Z M269.020608,47.0027952 C270.297563,47.5591163 270.82456,49.7019828 269.892181,50.5673712 C269.121954,51.2679237 268.108498,51.7006179 266.912619,51.8036403 C265.331627,51.9478717 264.399248,51.3915506 264.074942,50.1140725 C263.710098,48.6717585 263.791174,47.8887881 264.318171,47.5385118 C265.453242,46.7555414 267.82473,46.5082875 269.020608,47.0027952 Z" id="Shape"></path>
                <path d="M244.625976,38.1011491 C243.85535,38.2006434 241.746268,38.3996319 239.961661,38.5787215 C235.6421,38.9965974 234.851194,39.2353836 234.283365,40.2900227 C233.837213,41.1456733 233.898052,41.7028411 234.607839,42.7375814 C235.216227,43.6529285 236.514124,44.4687814 237.365868,44.4687814 C237.588944,44.4687814 238.116215,44.249894 238.521807,43.9713101 C238.9274,43.6927262 239.45467,43.4738388 239.698026,43.4738388 C240.123898,43.4738388 240.123898,43.4937377 240.0225,48.0903723 C239.900822,53.0053884 240.144177,55.7912276 240.772846,56.7264735 C241.218998,57.3831356 242.273539,58 242.963046,58 C244.281222,58 245.538559,56.7662712 245.538559,55.4529471 C245.538559,55.0947678 245.45744,54.4182068 245.335763,53.9605333 C245.234364,53.5028597 245.112687,50.9558068 245.092407,48.3291585 L245.031568,43.5136365 L248.986096,43.3743446 C253.062302,43.2350526 253.650411,43.1355584 254.400757,42.4390986 C255.33362,41.583448 255.151103,39.852248 254.035724,39.0761928 C252.940624,38.3200365 247.485403,37.7628686 244.625976,38.1011491 Z" id="Path"></path>
                <path d="M216.311914,38.4488632 C215.067122,39.4606593 214.781432,41.2945399 215.148748,45.8687018 C215.801753,53.8576757 216.760855,57.2935669 218.781091,58.7480239 C220.617669,60.0760064 222.78075,59.6755038 225.086676,57.5675951 C226.14781,56.5979571 226.515126,56.3660871 226.555939,56.6190361 C226.71919,57.4832787 226.086591,58.031335 223.229692,59.485792 C217.515893,62.3736269 215.393625,64.7555637 215.026309,68.7184321 C214.822245,70.9317362 215.842566,73.313673 217.454674,74.4097856 C218.209711,74.9367627 218.495401,75 220.046289,75 C221.760429,75 221.862461,74.9789209 224.147981,73.8195711 C226.127404,72.828854 226.698784,72.4283514 227.780324,71.2479225 C228.474143,70.4890754 229.2904,69.3508047 229.555683,68.7395112 C230.167876,67.3482914 231.004539,64.1231911 231.290229,62.0363615 C231.473887,60.6662208 231.596326,60.3711136 232.228925,59.6965828 C233.228839,58.6426285 233.249246,57.5675951 232.330957,56.7244316 C231.575919,56.0288217 231.555513,55.9023472 231.310636,52.1502697 C231.106571,49.3467511 231.106571,49.304593 231.657545,48.0398477 C232.126893,46.9437352 232.208518,46.4589162 232.208518,44.7515102 C232.208518,43.0019459 232.147299,42.6225224 231.698358,41.800438 C230.963726,40.4513764 229.678122,39.5871338 228.412923,39.5871338 C227.555854,39.5871338 227.331383,39.6925293 226.760003,40.2827437 L226.086591,40.9572745 L226.066185,45.0255383 C226.045778,47.2388424 226.025372,49.1781184 226.004965,49.304593 C225.943746,49.9158865 221.923681,54.8694719 221.474739,54.8694719 C221.250269,54.8694719 220.719701,53.0566704 220.229947,50.6325754 C219.862632,48.7986949 219.801412,47.6815033 219.781006,43.8451094 L219.7606,39.2287894 L219.087188,38.6174958 C218.270931,37.8586487 217.128171,37.7954115 216.311914,38.4488632 Z M225.372366,63.9967166 C225.372366,64.333982 223.739852,67.3272123 223.005221,68.2968503 C222.311403,69.2454093 221.352301,69.8356237 220.55645,69.8356237 C219.862632,69.8356237 219.658567,69.5615956 219.658567,68.6130366 C219.658567,67.3482914 221.148236,65.8095181 223.63782,64.5026147 C225.249928,63.6594512 225.372366,63.617293 225.372366,63.9967166 Z" id="Shape"></path>
                <path d="M205.960167,40.1255777 C205.567293,40.2476865 205.050353,40.6140128 204.8229,40.9192848 C204.409348,41.4687744 204.388671,41.712992 204.450703,44.9285237 L204.512736,48.3272185 L203.520212,48.4696788 C202.982595,48.5510846 201.886683,48.8767081 201.080257,49.2023316 L199.632826,49.7721726 L199.488082,49.2430345 C199.405372,48.9377625 199.136563,47.5131599 198.867755,46.0682058 C198.330138,43.0968917 197.999296,42.4252933 196.986094,42.0996699 C196.014248,41.7740464 194.939013,42.2014272 194.360041,43.1375946 C193.843101,43.9313018 193.863779,44.6436031 194.546139,49.4872521 C194.856303,51.624156 194.980368,53.5778968 194.980368,56.1421815 C194.980368,60.2735291 195.145789,60.9451275 196.262379,61.6167259 C197.523712,62.3697301 198.99182,61.9830523 199.612148,60.7212614 C199.860279,60.1921233 199.942989,59.4187675 199.942989,57.3836209 L199.942989,54.7582818 L201.245677,54.6158215 C201.969393,54.5547671 203.065305,54.3512525 203.685633,54.2087922 C204.30596,54.0459805 204.8229,53.9238717 204.8229,53.9442232 C204.843578,53.9645746 204.946966,54.9617965 205.071031,56.1421815 C205.298485,58.4418972 205.629326,59.3780646 206.456429,59.9072027 C207.180145,60.3752864 208.317412,60.354935 208.979095,59.8664998 C210.033652,59.0931441 210.075007,58.8489265 209.950942,53.7814114 C209.826876,47.9608921 209.392647,43.4021637 208.813674,41.5501803 C208.441478,40.3290923 207.200823,39.7185483 205.960167,40.1255777 Z" id="Path"></path>
                <path d="M160.305695,41.4201825 C159.291402,41.9291959 157.41886,44.1688549 156.775174,45.6348135 C156.482589,46.3474322 156.229016,47.4265406 156.092476,48.7296149 C155.624341,53.1885723 156.950725,56.6498634 159.681515,58.115822 C160.890865,58.7469986 163.407093,59.1745699 164.635948,58.9302434 C167.347233,58.4008695 170,56.2019316 170,54.4712861 C170,54.2473202 169.765932,53.7790278 169.492853,53.4328987 C168.829661,52.5981168 167.893391,52.5981168 165.455185,53.4125382 C163.543632,54.0437148 162.860935,54.0640753 161.768619,53.4939803 C161.027404,53.0867696 160.773831,52.0687428 160.871359,49.605118 C160.91037,47.894833 161.007898,47.4469012 161.339494,46.9582483 C161.885652,46.2049085 162.314777,46.1438269 162.938957,46.754643 C163.231542,47.0396905 163.660666,47.324738 163.914239,47.4061801 C164.499409,47.5894249 165.416174,47.1822142 165.806287,46.5713981 C166.449973,45.5330108 165.981837,43.110107 164.909027,42.0717197 C163.738689,40.9518902 161.749113,40.6668427 160.305695,41.4201825 Z" id="Path"></path>
                <path d="M123.010986,42.4066335 C122.422203,42.6148481 121.6913,42.9688131 121.386756,43.1978492 C120.940093,43.5101712 120.594944,43.5934571 119.803132,43.5101712 C118.381931,43.364421 117.651028,43.989065 117.184062,45.7172467 C116.757701,47.2996782 116.473461,52.7757241 116.453158,59.6884511 C116.453158,62.6034565 116.351644,66.6428211 116.229827,68.641682 C115.884678,74.3467639 115.925283,76.5538394 116.371947,77.5116269 C116.574975,77.9488777 117.062244,78.4902359 117.427696,78.719272 C118.016479,79.0524155 118.219508,79.0732369 118.889503,78.8650223 C119.965555,78.5318788 120.290401,77.9280563 120.49343,75.6793378 C120.716762,73.4722623 121.102516,65.5809263 121.183728,61.9371696 C121.204031,60.6045957 121.285242,59.459415 121.346151,59.3761291 C121.427362,59.3136647 121.813117,59.459415 122.239477,59.7092726 C123.274924,60.3547381 125.630057,60.4796669 127.41671,60.0215946 C129.792146,59.3969506 131.314862,58.0435552 132.451822,55.5866221 C132.959394,54.4830844 133,54.1707624 133,51.880401 C133,48.8196453 132.71576,47.8826793 131.050924,45.3424603 C129.812449,43.4268854 128.878517,42.6148481 127.497921,42.2192403 C126.279749,41.8652753 124.208856,41.9485612 123.010986,42.4066335 Z M126.807624,47.8618578 C128.310036,48.9029312 129.081545,51.9428654 128.26943,53.5669398 C128.046099,54.0041906 127.619739,54.6080132 127.315195,54.8995137 C126.827926,55.3784074 126.624898,55.4200504 125.122485,55.3992289 C124.208856,55.3784074 122.970381,55.3367645 122.4019,55.2951216 L121.325848,55.2326572 L121.325848,52.2343659 C121.325848,49.1736103 121.467968,48.4448589 122.097357,48.4448589 C122.300386,48.4448589 122.665837,48.2991086 122.909472,48.1117154 C124.066736,47.2996782 125.812783,47.1747494 126.807624,47.8618578 Z" id="Shape"></path>
                <path d="M172.769056,43.4929709 C172.014765,44.1535643 171.910003,44.7340859 172.05667,47.2363339 C172.245243,50.2590495 173.20906,57.7257576 173.565253,58.9468546 C174.235733,61.1888688 175.786221,62.3499119 177.294803,61.7493724 C177.713853,61.5892285 178.132904,61.2889588 178.258619,61.0687609 C178.551955,60.5282754 178.551955,59.1870704 178.237667,57.7457756 C178.007189,56.5847325 178.132904,56.2444268 178.803385,56.2244088 C178.9291,56.2244088 180.50054,57.6657036 182.302457,59.4072683 C185.927245,62.9304335 186.534869,63.2907572 187.959641,62.8503615 C189.740606,62.289858 190.515849,60.3681315 189.635843,58.6866208 C189.091077,57.6857216 186.05296,54.9232398 183.89485,53.481945 C182.763413,52.7212616 182.302457,52.3008839 182.40722,52.120722 C182.511983,51.9805961 183.119606,51.2599487 183.790087,50.5393013 C184.837714,49.3982762 185.110096,49.2181143 185.71772,49.2181143 C187.247255,49.2181143 188.336786,47.4965677 187.666305,46.1353448 C187.310112,45.4347153 186.953919,45.2345355 185.026286,44.633996 C183.077701,44.0134385 182.281505,44.2336363 180.75197,45.835075 C179.536724,47.056172 177.797664,49.4383122 177.462423,50.2790675 C177.231945,50.8195531 177.19004,50.7194631 176.687179,48.417395 C176.372892,46.9761001 176.289081,46.2554527 176.205271,44.2536543 C176.184319,44.1135284 175.932888,43.7732226 175.639553,43.5129889 C174.864309,42.8323774 173.523347,42.8323774 172.769056,43.4929709 Z" id="Path"></path>
                <path d="M137.061148,43.3891566 C136.056394,44.0036145 135.915728,44.6590361 136.036299,48.0795181 C136.19706,52.7289157 137.141529,56.6409639 138.467805,58.1156627 C139.492655,59.2831325 141.441879,59.713253 142.888725,59.0987952 C143.250437,58.9349398 144.114526,58.2590361 144.797759,57.5831325 L146.02356,56.3542169 L146.324986,57.0506024 C146.988124,58.6891566 148.515351,60 149.741152,60 C151.087523,60 152.192753,58.7096386 151.971707,57.3783133 C151.911422,56.9891566 151.569805,56.2927711 151.228188,55.8421687 C150.866477,55.3915663 150.303814,54.2240964 149.962198,53.2614458 C149.45982,51.7457831 149.359345,51.1722892 149.33925,49.1445783 C149.278964,45.4373494 148.595731,43.9216867 146.887648,43.6759036 C145.822609,43.5325301 144.95852,44.0036145 144.516428,44.9662651 C144.215001,45.6421687 144.174811,46.0927711 144.295382,48.4686747 L144.436047,51.213253 L143.793004,52.360241 C143.109771,53.5686747 142.084921,54.8795181 141.80359,54.8795181 C141.522259,54.8795181 141.200737,52.8927711 141.200737,51.1313253 C141.200737,48.5710843 140.839026,45.7240964 140.417029,44.7204819 C139.995032,43.7578313 139.010372,43 138.186474,43 C137.905142,43 137.402765,43.1843373 137.061148,43.3891566 Z" id="Path"></path>
                <path d="M61.9371882,43.3109303 C60.7931941,43.7522921 58.5654161,45.7068945 57.7224731,47.0309799 C56.7992498,48.5232032 55.6953958,51.9490116 55.2739243,54.7232859 C54.8123127,57.7918015 54.9528032,62.5416953 55.5549053,64.3071426 C56.1570075,66.0305554 56.7591096,66.5559862 58.0837344,66.4719173 C58.6858365,66.4509 59.3080088,66.5559862 59.6090599,66.724124 C59.930181,66.9132791 60.6727737,67.0183652 61.6562072,66.997348 C63.6632144,66.9763308 64.947699,66.3458139 66.7138653,64.5383321 C68.0987003,63.1091605 69.0219236,61.3647305 69.5437455,59.2630075 C70.7479498,54.3239586 69.4433951,46.2743597 67.0951967,44.2567056 C65.6902917,43.0587235 63.6030042,42.6593962 61.9371882,43.3109303 Z M64.6466479,48.6493066 C64.9075589,49.0065995 65.1283297,49.9944093 65.3491004,51.5917187 C65.9311325,55.921268 65.4093107,59.1789386 63.843845,60.860317 C62.8202714,61.9532129 62.1378889,62.0372818 60.8534043,61.1965926 C59.8499007,60.5450585 59.8298307,60.5030241 59.930181,59.6833521 C60.4319328,55.8161819 61.2347357,52.6425802 62.3385896,50.2676333 C63.4223735,47.9137036 63.9040553,47.5774279 64.6466479,48.6493066 Z" id="Shape"></path>
                <path d="M44.5695721,44.1754894 C37.8457917,44.5832132 36.3036403,45.0928679 36.015772,46.9276248 C35.8923999,47.7838448 36.5092605,48.8643128 37.2906172,49.1497194 C37.5784855,49.2720365 38.5654624,49.3535813 39.4701913,49.3535813 L41.1357148,49.3535813 L41.0123427,50.3117321 C40.9506567,50.8621592 40.5599783,53.8385427 40.1692999,56.9372434 C39.7580595,60.0563302 39.4290672,62.9307828 39.4290672,63.3181204 C39.4290672,64.4801331 39.9019937,65.336353 40.7655985,65.7440768 C41.4441451,66.0702558 41.6086413,66.0702558 42.2460639,65.8256215 C42.6573043,65.6829182 43.1507927,65.336353 43.3564129,65.0509464 C44.0349596,64.1539541 45.3303668,57.6711462 45.7416072,53.1657985 L46.1117235,49.1497194 L47.6127509,49.1497194 C49.2165884,49.1497194 51.3139144,48.7216094 52.0747091,48.2119547 C52.5681976,47.8857757 53,47.1111005 53,46.4995149 C53,45.5005917 51.0260461,44.2162618 49.1960264,44.0123999 C48.743662,43.9716275 46.666898,44.0327861 44.5695721,44.1754894 Z" id="Path"></path>
                <path d="M24.6637232,47.2432038 C22.8876329,47.932731 21.0711768,49.7985104 19.9207547,52.1307347 C18.6088698,54.8077226 18.0235673,57.5658313 18.0033845,61.2365496 C17.9832016,63.3456915 18.0437501,63.8324166 18.447407,64.8464272 C18.709784,65.4953939 19.2749037,66.3877232 19.6785606,66.8338879 C20.3244116,67.5031348 20.5666057,67.6248161 21.2326396,67.6248161 C21.6766622,67.6248161 22.1408676,67.523415 22.2619647,67.4017338 C22.4234274,67.2394921 22.9481814,67.3003327 24.1591521,67.6045359 C26.2581679,68.1318214 26.8232876,68.1318214 27.9131612,67.6045359 C31.3644276,65.9212784 33.8671004,58.1945179 32.7166782,52.7594213 C32.2121071,50.3257959 30.799308,48.3788957 28.8213892,47.4257257 C27.8526127,46.9390007 25.6930483,46.8578798 24.6637232,47.2432038 Z M27.9131612,52.4552181 C28.2159039,53.0027838 28.2764524,53.6111901 28.2764524,55.6594915 C28.2764524,57.9511553 28.2159039,58.3567596 27.6911499,59.8777754 C27.3480415,60.8106651 26.8031047,61.8855163 26.4801792,62.2708403 L25.854511,62.9806477 L24.3206148,62.8386862 L22.7867186,62.6967248 L22.6858044,61.2973902 C22.4637931,58.2959189 23.8160437,54.5643601 25.7535968,52.7391411 C26.9443846,51.6237294 27.4287729,51.5628888 27.9131612,52.4552181 Z" id="Shape"></path>
                <path d="M7.21134556,47.0494742 C7.11183755,47.0908353 6.01724943,47.2355993 4.8231533,47.3390021 C1.16125849,47.6492106 0.484604014,48.1869053 0.424899207,50.8546981 C0.404997605,51.7232818 0.26568639,55.3217 0.146276776,58.8787571 C0.00696556078,62.4358142 -0.0328376437,65.6619823 0.026867163,66.0755936 C0.404997605,68.1643306 2.71358346,68.7020253 3.82807319,66.9441773 C4.46492446,65.9101491 4.78335009,63.159634 4.80325169,58.1135762 C4.80325169,55.4457834 4.74354689,52.8813934 4.66394048,52.4471016 L4.50472766,51.6405595 L5.95754462,51.7646429 C6.75360871,51.8473652 8.04721286,51.9921291 8.80347374,52.1162125 C10.8533388,52.4057404 13.5798583,52.3643793 14.3361192,52.0334903 C15.8685425,51.3717122 16.445689,49.8413504 15.6297233,48.6211971 C14.7341512,47.2355993 14.1769063,47.0494742 10.5946179,47.0081131 C8.84327694,46.9874325 7.33075518,47.0081131 7.21134556,47.0494742 Z" id="Path"></path>
            </g>
        </g>
    </g>
</svg>