<?xml version="1.0" encoding="UTF-8" standalone="no"?>
<!DOCTYPE svg PUBLIC "-//W3C//DTD SVG 1.1//EN" "http://www.w3.org/Graphics/SVG/1.1/DTD/svg11.dtd">
<svg width="100%" height="100%" viewBox="0 0 327 339" version="1.1" xmlns="http://www.w3.org/2000/svg" xmlns:xlink="http://www.w3.org/1999/xlink" xml:space="preserve" xmlns:serif="http://www.serif.com/" style="fill-rule:evenodd;clip-rule:evenodd;stroke-linejoin:round;stroke-miterlimit:2;">
    <g id="Монтажная-область1" serif:id="Монтажная область1" transform="matrix(1,0,0,1,-57.5104,-800.005)">
        <rect x="57.51" y="800.005" width="326.608" height="338.518" style="fill:none;"/>
        <g transform="matrix(1,0,0,1,0.510351,0.00521697)">
            <path d="M217.5,811.5C253.583,809.477 286.916,817.977 317.5,837C332.486,848.951 338.652,864.451 336,883.5C335.18,890.269 333.846,896.935 332,903.5C326.726,918.988 322.06,934.655 318,950.5C314.04,964.648 316.706,977.314 326,988.5C337.721,1001.55 350.054,1013.89 363,1025.5C375.26,1046.63 372.426,1065.46 354.5,1082C338.73,1093.34 322.397,1094.34 305.5,1085C298.468,1078.3 291.802,1071.3 285.5,1064C276.833,1058.67 268.167,1053.33 259.5,1048C249.018,1038.53 243.184,1026.7 242,1012.5C241.077,999.393 241.91,986.393 244.5,973.5C243.13,963.567 243.464,953.734 245.5,944C244.833,942 243.5,940.667 241.5,940C230.805,939.651 220.138,940.151 209.5,941.5C203.58,939.608 198.413,940.608 194,944.5C191.426,948.462 189.926,952.795 189.5,957.5C192.806,988.012 196.14,1018.51 199.5,1049C199.637,1077.73 186.637,1098.06 160.5,1110C145.999,1114.91 131.665,1114.58 117.5,1109C112.383,1104.34 109.55,1098.5 109,1091.5C108.689,1085.13 108.023,1078.79 107,1072.5C86.737,1060.05 80.07,1042.39 87,1019.5C91.277,1004.62 97.444,990.617 105.5,977.5C101.442,975.4 97.109,974.067 92.5,973.5C92.258,981.794 88.258,984.294 80.5,981C77.846,976.555 76.346,971.722 76,966.5C67.719,960.131 67.719,954.131 76,948.5C80.733,909.862 97.9,878.029 127.5,853C153.65,830.757 183.65,816.924 217.5,811.5ZM219.5,827.5C251.153,826.246 280.486,833.746 307.5,850C317.629,857.763 321.462,867.93 319,880.5C313.206,901.549 307.206,922.549 301,943.5C294.776,965.051 298.776,984.384 313,1001.5C318.667,1007.83 324.333,1014.17 330,1020.5C337.022,1026.52 343.689,1032.86 350,1039.5C353.217,1055.63 347.051,1066.46 331.5,1072C326.597,1072.94 321.93,1072.27 317.5,1070C310.531,1062.03 303.198,1054.36 295.5,1047C288.496,1042.16 281.163,1037.83 273.5,1034C266.737,1029.66 262.571,1023.49 261,1015.5C259.969,1010.9 259.469,1006.23 259.5,1001.5C260.172,991.801 261.172,982.134 262.5,972.5C261.098,962.711 261.764,953.044 264.5,943.5C262.519,932.018 255.853,924.851 244.5,922C227.49,922.632 210.49,922.966 193.5,923C180.791,929.248 173.625,939.414 172,953.5C173.095,980.585 175.428,1007.59 179,1034.5C179.667,1043.17 179.667,1051.83 179,1060.5C172.319,1084.6 156.485,1095.43 131.5,1093C130.584,1092.63 129.75,1092.13 129,1091.5C128.053,1082.36 126.387,1073.36 124,1064.5C123,1062.83 122,1061.17 121,1059.5C113.616,1055.12 107.949,1049.12 104,1041.5C103.166,1030.34 105.166,1019.67 110,1009.5C114.537,998.759 119.871,988.426 126,978.5C128.749,970.414 126.249,964.581 118.5,961C109.606,958.36 100.606,956.193 91.5,954.5C94.342,919.317 109.008,890.15 135.5,867C153.775,851.193 174.442,839.526 197.5,832C204.905,830.16 212.239,828.66 219.5,827.5Z" style="fill:rgb(41,108,30);fill-opacity:0.83;"/>
        </g>
        <g transform="matrix(1,0,0,1,0.510351,0.00521697)">
            <path d="M258.5,839.5C274.245,837.139 287.745,841.472 299,852.5C306.441,862.854 308.441,874.187 305,886.5C300.404,894.892 293.237,899.392 283.5,900C273.141,900.505 262.807,900.505 252.5,900C249.333,904.458 245.333,905.458 240.5,903C227.314,893.454 222.814,880.62 227,864.5C233.335,850.768 243.835,842.435 258.5,839.5ZM278.5,857.5C278.022,866.515 277.355,875.515 276.5,884.5C280.56,883.99 284.56,883.156 288.5,882C290.444,880.278 291.444,878.111 291.5,875.5C290.972,866.653 286.639,860.653 278.5,857.5ZM247.5,860.5C244.731,863.779 242.564,867.445 241,871.5C240.078,875.496 240.911,878.996 243.5,882C248.11,883.29 252.777,883.624 257.5,883C255.044,880.592 253.211,877.759 252,874.5C250.823,869.475 249.323,864.809 247.5,860.5Z" style="fill:rgb(41,108,30);fill-opacity:0.84;"/>
        </g>
        <g transform="matrix(1,0,0,1,0.510351,0.00521697)">
            <path d="M188.5,888.5C198.641,886.988 206.141,890.655 211,899.5C213.166,906.999 210.666,912.166 203.5,915C200.374,915.759 197.207,916.259 194,916.5C190.901,915.784 187.901,915.784 185,916.5C182.912,915.692 180.912,914.692 179,913.5C174.445,902.008 177.611,893.675 188.5,888.5Z" style="fill:rgb(41,108,30);fill-opacity:0.8;"/>
        </g>
        <g transform="matrix(1,0,0,1,0.510351,0.00521697)">
            <path d="M135.5,891.5C151.027,889.196 159.194,895.863 160,911.5C160.663,917.548 160.33,923.548 159,929.5C157.6,932.902 155.433,935.736 152.5,938C138.73,946.034 124.063,951.034 108.5,953C104.725,951.558 101.892,949.058 100,945.5C95.08,922.503 103.247,905.67 124.5,895C128.333,893.966 131.999,892.8 135.5,891.5ZM138.5,908.5C141.091,909.254 142.924,910.921 144,913.5C144.927,908.438 143.094,906.771 138.5,908.5ZM114.5,925.5C114.249,927.17 113.582,928.67 112.5,930C115.04,931.944 117.707,933.278 120.5,934C118.576,930.936 116.576,928.102 114.5,925.5Z" style="fill:rgb(41,108,30);fill-opacity:0.85;"/>
        </g>
    </g>
</svg>
