<?xml version="1.0" encoding="UTF-8" standalone="no"?>
<!DOCTYPE svg PUBLIC "-//W3C//DTD SVG 1.1//EN" "http://www.w3.org/Graphics/SVG/1.1/DTD/svg11.dtd">
<svg width="100%" height="100%" viewBox="0 0 465 488" version="1.1" xmlns="http://www.w3.org/2000/svg" xmlns:xlink="http://www.w3.org/1999/xlink" xml:space="preserve" xmlns:serif="http://www.serif.com/" style="fill-rule:evenodd;clip-rule:evenodd;stroke-linejoin:round;stroke-miterlimit:2;">
    <g transform="matrix(1,0,0,1,-1391.8,-1366)">
        <g id="Монтажная-область3" serif:id="Монтажная область3" transform="matrix(0.973174,0,0,0.970209,49.5439,40.4703)">
            <rect x="1379.26" y="1366.23" width="477.108" height="502.7" style="fill:none;"/>
            <g transform="matrix(1.02757,0,0,1.03071,-93.0911,425.297)">
                <path d="M1760.5,926.5C1772.36,927.174 1783.69,930.008 1794.5,935C1803.75,938.863 1813.09,942.529 1822.5,946C1830.6,949.962 1837.43,955.462 1843,962.5C1845.23,970.965 1848.57,978.965 1853,986.5C1860.41,993.235 1867.07,1000.57 1873,1008.5C1883.24,1031.86 1886.57,1056.19 1883,1081.5C1878.01,1092.82 1874.01,1104.48 1871,1116.5C1864.1,1130.59 1852.93,1138.59 1837.5,1140.5C1828.26,1137.75 1818.93,1135.42 1809.5,1133.5C1810.85,1142.58 1812.69,1151.58 1815,1160.5C1824.38,1180.96 1832.38,1201.96 1839,1223.5C1840.82,1235.3 1840.99,1247.13 1839.5,1259C1843.1,1290.21 1834.6,1317.71 1814,1341.5C1814.86,1350.61 1811.36,1357.45 1803.5,1362C1792.05,1367.22 1780.05,1368.89 1767.5,1367C1763.72,1366.41 1760.06,1365.41 1756.5,1364C1749.32,1358.91 1741.65,1354.57 1733.5,1351C1731.04,1349.54 1728.87,1347.71 1727,1345.5C1721.04,1335.75 1715.21,1325.92 1709.5,1316C1700.94,1312.22 1692.27,1308.72 1683.5,1305.5C1674.15,1310.35 1665.48,1316.19 1657.5,1323C1650.88,1332.41 1644.38,1341.91 1638,1351.5C1625.95,1367.08 1610.11,1373.25 1590.5,1370C1577.86,1373.67 1565.19,1374 1552.5,1371C1549.32,1369.15 1546.16,1367.32 1543,1365.5C1542.23,1365.64 1541.56,1365.98 1541,1366.5C1537.23,1376.27 1530.73,1383.43 1521.5,1388C1518.07,1388.7 1514.74,1388.37 1511.5,1387C1499.35,1378.67 1488.52,1368.83 1479,1357.5C1466.07,1335.77 1465.07,1313.44 1476,1290.5C1487.75,1268.67 1499.75,1247.01 1512,1225.5C1521.29,1213.87 1530.96,1202.54 1541,1191.5C1543.91,1188.02 1545.41,1184.02 1545.5,1179.5C1544.82,1170.51 1544.32,1161.51 1544,1152.5C1541.12,1144.56 1538.46,1136.56 1536,1128.5C1530.43,1122.26 1524.26,1116.76 1517.5,1112C1496.53,1110.68 1477.53,1104.01 1460.5,1092C1450.45,1084.17 1446.95,1074 1450,1061.5C1453.2,1050.1 1459.2,1040.43 1468,1032.5C1472.28,1014.33 1479.28,997.33 1489,981.5C1495.01,971.816 1503.51,965.65 1514.5,963C1518.17,962.333 1521.83,962.333 1525.5,963C1533.29,965.397 1540.95,968.064 1548.5,971C1561.04,973.576 1573.38,972.909 1585.5,969C1598.93,960.617 1612.93,953.284 1627.5,947C1634.83,945.402 1641.5,946.735 1647.5,951C1666.56,952.388 1684.89,949.388 1702.5,942C1708.5,941 1714.5,940 1720.5,939C1733.83,934.277 1747.16,930.11 1760.5,926.5ZM1756.5,948.5C1762.24,948.211 1767.91,948.711 1773.5,950C1789.32,955.246 1804.65,961.58 1819.5,969C1824.5,973.743 1827.66,979.576 1829,986.5C1830.93,990.759 1833.27,994.759 1836,998.5C1842.57,1005.31 1848.9,1012.31 1855,1019.5C1858.13,1029.69 1860.8,1040.03 1863,1050.5C1865.3,1064.38 1862.96,1077.38 1856,1089.5C1854.84,1095.98 1853.17,1102.31 1851,1108.5C1847.71,1112.88 1843.54,1115.88 1838.5,1117.5C1829.92,1115.02 1821.25,1112.85 1812.5,1111C1801.68,1109.37 1794.18,1113.54 1790,1123.5C1787.96,1144.96 1791.96,1165.29 1802,1184.5C1806.6,1199.65 1811.6,1214.65 1817,1229.5C1816.34,1247.45 1816.34,1265.11 1817,1282.5C1814.24,1294.78 1809.91,1306.45 1804,1317.5C1799.67,1322.83 1795.33,1328.17 1791,1333.5C1789.19,1337.29 1788.02,1341.29 1787.5,1345.5C1781.16,1346.8 1774.82,1346.63 1768.5,1345C1761.02,1340.76 1753.36,1336.76 1745.5,1333C1744.33,1331.83 1743.17,1330.67 1742,1329.5C1737.62,1317.89 1731.12,1307.73 1722.5,1299C1710.47,1292.07 1697.63,1287.24 1684,1284.5C1674.24,1286.63 1665.4,1290.8 1657.5,1297C1651.88,1300.95 1646.54,1305.29 1641.5,1310C1634.96,1318.91 1628.8,1328.07 1623,1337.5C1619.47,1341.37 1615.63,1344.87 1611.5,1348C1604.17,1348.33 1596.83,1348.67 1589.5,1349C1580.63,1351.42 1571.63,1352.42 1562.5,1352C1542.82,1337.87 1528.32,1342.04 1519,1364.5C1518.28,1365.45 1517.45,1365.62 1516.5,1365C1505.13,1357.63 1496.63,1347.8 1491,1335.5C1487.84,1326.2 1487.84,1316.87 1491,1307.5C1493.51,1299.48 1496.84,1291.82 1501,1284.5C1510.59,1268.33 1519.92,1252 1529,1235.5C1539.67,1222.83 1550.33,1210.17 1561,1197.5C1564.31,1191.42 1565.81,1184.92 1565.5,1178C1564.91,1167.5 1564.41,1157 1564,1146.5C1560.61,1139.52 1558.28,1132.19 1557,1124.5C1549.06,1110.56 1537.89,1100.06 1523.5,1093C1508.1,1091.52 1493.43,1087.52 1479.5,1081C1475.54,1078.77 1472.04,1075.93 1469,1072.5C1468.68,1065.29 1470.51,1058.63 1474.5,1052.5C1480.57,1050.39 1483.74,1046.05 1484,1039.5C1486,1036.17 1488,1032.83 1490,1029.5C1490.74,1027.56 1490.58,1025.73 1489.5,1024C1493.36,1012.77 1498.2,1001.94 1504,991.5C1507.5,985.089 1512.83,981.423 1520,980.5C1528.59,984.041 1537.42,986.874 1546.5,989C1559.17,990.94 1571.84,990.94 1584.5,989C1588.64,988.066 1592.64,986.732 1596.5,985C1608.05,977.723 1620.05,971.223 1632.5,965.5C1637.29,968.765 1642.63,970.598 1648.5,971C1668.51,972.265 1687.84,969.265 1706.5,962C1723.89,960.033 1740.56,955.533 1756.5,948.5Z" style="fill:rgb(41,108,30);fill-opacity:0.85;"/>
            </g>
            <g transform="matrix(1.02757,0,0,1.03071,-93.0911,425.297)">
                <path d="M1793.5,976.5C1820.33,976.994 1835,990.661 1837.5,1017.5C1836.57,1034.89 1832.07,1051.22 1824,1066.5C1815.56,1077.72 1804.23,1083.39 1790,1083.5C1768.48,1082.57 1750.15,1074.57 1735,1059.5C1728.64,1051.88 1727.97,1043.88 1733,1035.5C1733.19,1027.78 1733.85,1020.12 1735,1012.5C1737.58,1004.59 1742.41,998.42 1749.5,994C1763.07,985.093 1777.74,979.26 1793.5,976.5ZM1791.5,994.5C1779.38,997.722 1768.05,1002.89 1757.5,1010C1752.75,1013.33 1750.58,1017.83 1751,1023.5C1752.83,1021 1755,1018.83 1757.5,1017C1784.91,1006.45 1804.08,1014.95 1815,1042.5C1817.2,1034.13 1818.7,1025.63 1819.5,1017C1818.42,999.436 1809.09,991.936 1791.5,994.5ZM1773.5,1028.5C1768.9,1029.1 1765.4,1031.43 1763,1035.5C1761.23,1040.77 1761.07,1046.11 1762.5,1051.5C1770.23,1051.55 1773.56,1055.22 1772.5,1062.5C1782.1,1065.72 1791.77,1066.05 1801.5,1063.5C1801.58,1059.1 1801.08,1054.77 1800,1050.5C1796.72,1036.37 1787.88,1029.04 1773.5,1028.5Z" style="fill:rgb(41,108,30);fill-opacity:0.84;"/>
            </g>
            <g transform="matrix(1.02757,0,0,1.03071,-93.0911,425.297)">
                <path d="M1542.5,996.5C1561.15,996.098 1576.98,1002.43 1590,1015.5C1602.18,1031.33 1603.52,1047.99 1594,1065.5C1582.16,1077.89 1567.66,1082.72 1550.5,1080C1542.49,1078.75 1534.83,1076.42 1527.5,1073C1521.5,1069.67 1517.83,1064.67 1516.5,1058C1516.91,1056.86 1517.24,1055.69 1517.5,1054.5C1511.52,1041.71 1511.02,1028.71 1516,1015.5C1522.18,1005.34 1531.02,999.004 1542.5,996.5ZM1543.5,1014.5C1533.19,1018.09 1528.69,1025.43 1530,1036.5C1534.35,1027.81 1540.52,1020.64 1548.5,1015C1546.87,1014.51 1545.2,1014.34 1543.5,1014.5ZM1562.5,1026.5C1555.19,1030.31 1549.69,1035.98 1546,1043.5C1545.89,1048.5 1546.22,1053.5 1547,1058.5C1550.95,1060.76 1555.29,1061.76 1560,1061.5C1568.61,1061.94 1575.44,1058.78 1580.5,1052C1577.23,1052.06 1575.07,1050.56 1574,1047.5C1573.79,1041.36 1572.79,1035.36 1571,1029.5C1568.8,1026.87 1565.97,1025.87 1562.5,1026.5Z" style="fill:rgb(41,108,30);fill-opacity:0.85;"/>
            </g>
            <g transform="matrix(1.02757,0,0,1.03071,-93.0911,425.297)">
                <path d="M1647.5,1046.5C1655.71,1045.23 1659.55,1048.56 1659,1056.5C1656.27,1061.56 1652.1,1063.4 1646.5,1062C1640.97,1056.36 1641.31,1051.19 1647.5,1046.5Z" style="fill:rgb(41,108,30);fill-opacity:0.64;"/>
            </g>
            <g transform="matrix(1.02757,0,0,1.03071,-93.0911,425.297)">
                <path d="M1672.5,1047.5C1682.62,1047.43 1685.62,1051.93 1681.5,1061C1676.96,1063.3 1672.79,1062.8 1669,1059.5C1666.46,1054.36 1667.62,1050.36 1672.5,1047.5Z" style="fill:rgb(41,108,30);fill-opacity:0.62;"/>
            </g>
            <g transform="matrix(1.02757,0,0,1.03071,-93.0911,425.297)">
                <path d="M1652.5,1089.5C1676.29,1087.45 1698.29,1092.61 1718.5,1105C1732.29,1115.81 1741.79,1129.64 1747,1146.5C1754.07,1166.61 1756.4,1187.27 1754,1208.5C1748.54,1222.61 1738.38,1228.11 1723.5,1225C1711.67,1223 1701.83,1217.5 1694,1208.5C1683.8,1193.61 1675.3,1177.77 1668.5,1161C1663.81,1160.27 1659.15,1159.44 1654.5,1158.5C1651.79,1158.94 1649.62,1160.27 1648,1162.5C1643.77,1168.23 1641.6,1174.73 1641.5,1182C1643.27,1194.11 1643.77,1206.28 1643,1218.5C1642.16,1225 1638.5,1228.34 1632,1228.5C1612.19,1224.36 1598.85,1212.69 1592,1193.5C1586.27,1158.69 1596.1,1129.19 1621.5,1105C1631.11,1098.19 1641.45,1093.03 1652.5,1089.5ZM1658.5,1107.5C1634.51,1113.65 1619.35,1128.65 1613,1152.5C1616.94,1153.44 1619.11,1155.94 1619.5,1160C1615.71,1166.25 1612.71,1172.92 1610.5,1180C1613.4,1183.66 1614.07,1187.66 1612.5,1192C1615.86,1197.57 1620.03,1202.4 1625,1206.5C1623.75,1195.27 1623.42,1183.94 1624,1172.5C1624.97,1163.22 1628.64,1155.22 1635,1148.5C1642.18,1140.66 1651.01,1137.83 1661.5,1140C1671.43,1139.67 1679.6,1143.17 1686,1150.5C1691.83,1166.5 1699.5,1181.5 1709,1195.5C1716.07,1203.97 1724.74,1206.97 1735,1204.5C1737.22,1184.04 1734.22,1164.37 1726,1145.5C1722.11,1135.94 1716.27,1127.77 1708.5,1121C1693.24,1111.52 1676.58,1107.02 1658.5,1107.5Z" style="fill:rgb(41,108,30);fill-opacity:0.84;"/>
            </g>
        </g>
    </g>
</svg>
