<?xml version="1.0" encoding="UTF-8"?>
<svg width="18px" height="37px" viewBox="0 0 18 37" version="1.1" xmlns="http://www.w3.org/2000/svg" xmlns:xlink="http://www.w3.org/1999/xlink">
    <title>soundOff_image</title>
    <g id="Page-1" stroke="none" stroke-width="1" fill="none" fill-rule="evenodd">
        <g id="iPhone-11" transform="translate(-113.000000, -754.000000)">
            <g id="soundOff_image" transform="translate(113.000000, 754.000000)">
                <rect id="Rectangle" x="0" y="0" width="18" height="37"></rect>
                <g id="Group" transform="translate(7.500000, 18.500000) scale(-1, 1) rotate(-180.000000) translate(-7.500000, -18.500000) translate(2.000000, 2.000000)" fill="#000000">
                    <path d="M5.53966579,32.8073668 C5.24619307,32.6994921 4.89936167,32.5107116 4.75262531,32.3758683 C4.39245424,32.0657288 3.19188401,30.4071566 2.71165591,29.5846127 L2.32480551,28.9103964 L2.32480551,25.5393147 C2.32480551,21.7097659 2.49822121,20.22649 3.00512864,19.7140856 C3.40531871,19.3095558 3.79216912,19.3230401 4.20569887,19.7410542 L4.55253027,20.0916467 L4.45915258,22.0873271 C4.39245424,23.3683381 4.41913358,24.8381297 4.52585093,26.213531 L4.69926663,28.3305703 L5.48630711,29.3823478 C5.91317653,29.9621738 6.36672528,30.4745782 6.47344264,30.5150312 C6.72689635,30.6094215 7.90078725,29.6520343 8.24761865,29.058724 C8.38101534,28.8294904 8.56777071,28.4114763 8.66114839,28.1417897 C8.84790376,27.5080264 9.23475417,27.2248555 9.86171862,27.2248555 C10.20855,27.2248555 10.4353244,27.3192458 10.6754384,27.575448 C11.4224599,28.3845076 10.8488541,30.0295955 9.27477318,31.580293 C8.75452608,32.0926974 8.08754262,32.6320705 7.79406989,32.7669138 C7.16710544,33.063569 6.26000793,33.0770533 5.53966579,32.8073668 Z" id="Path"></path>
                    <path d="M4.05896251,14.4956512 C3.33862037,13.7674975 3.55205508,12.796626 4.55253027,12.2437686 C5.0594377,11.9605977 5.21951373,11.7448485 5.89983686,10.3964159 C6.67353768,8.81874964 6.88697238,7.95575273 6.43342363,8.1445333 C6.30002694,8.19847061 5.95319554,8.2928609 5.65972281,8.3467982 C5.36625009,8.41421984 4.95272035,8.52209445 4.75262531,8.60300041 C3.71213111,9.00753021 2.61827823,8.60300041 1.36434932,7.34895803 C0.550629497,6.5264141 0.377213797,6.2702119 0.190458428,5.59599556 C-0.156372972,4.40937482 -0.0229762798,3.2901757 0.537289828,2.33278851 C1.20427329,1.2135894 1.84457741,0.52588874 2.44486253,0.24271788 C3.151865,-0.08090596 4.29907655,-0.08090596 5.00607902,0.24271788 C5.60636414,0.512404413 7.34052114,2.40021015 7.6606732,3.12836378 C9.06133847,6.28369622 9.23475417,6.79610064 9.28811285,7.95575273 C9.34147152,8.84571829 9.30145252,9.30418539 9.12803682,9.84355846 C8.79454509,10.8818516 7.82074923,12.756173 7.23380378,13.4843267 C6.95367073,13.8349192 6.66019801,14.2124803 6.59349966,14.3473236 C6.46010297,14.5765571 5.60636414,14.8057907 4.81932365,14.819275 C4.52585093,14.819275 4.27239721,14.7114004 4.05896251,14.4956512 Z" id="Path"></path>
                </g>
            </g>
        </g>
    </g>
</svg>