<?xml version="1.0" encoding="UTF-8"?>
<svg width="30px" height="28px" viewBox="0 0 30 28" version="1.1" xmlns="http://www.w3.org/2000/svg" xmlns:xlink="http://www.w3.org/1999/xlink">
    <title>musicOff_image</title>
    <g id="Page-1" stroke="none" stroke-width="1" fill="none" fill-rule="evenodd">
        <g id="iPhone-11" transform="translate(-242.000000, -754.000000)">
            <g id="musicOff_image" transform="translate(242.000000, 754.000000)">
                <rect id="Rectangle" x="0" y="0" width="30" height="28"></rect>
                <g id="Group" transform="translate(14.000000, 14.000000) scale(-1, 1) rotate(-180.000000) translate(-14.000000, -14.000000) translate(1.000000, 1.000000)" fill="#000000">
                    <path d="M22.8317794,25.7496511 C22.414335,25.3436526 22.4795607,24.823467 23.170953,23.009161 C23.4188106,22.3240384 23.9667065,22.0576019 24.4624217,22.3747883 C25.0103175,22.7173495 25.1146786,23.0852857 24.9190016,23.9987824 C24.7363696,24.9249666 24.3711057,25.6862139 24.018887,25.8765257 C23.6144877,26.0795249 23.1187725,26.0287751 22.8317794,25.7496511 Z" id="Path"></path>
                    <path d="M19.870533,24.1002821 C19.1791407,23.8338455 19.113915,22.9710986 19.7531268,22.4001632 C20.0009844,22.1844764 20.3010226,21.7657905 20.4184288,21.4612915 C20.7706476,20.6239196 21.4098593,20.4209203 21.9838454,20.9918557 C22.4665155,21.4486041 22.4273801,22.2098514 21.8794843,23.0725983 C21.2272274,24.0749072 20.6141059,24.3920935 19.870533,24.1002821 Z" id="Path"></path>
                    <path d="M16.2439845,22.3874757 C15.7482693,21.9180399 15.813495,21.4866665 16.5048873,20.8396063 C16.8701512,20.5097325 17.0919185,20.1925461 17.0919185,20.0022343 C17.0919185,19.3297992 17.8094011,18.7842387 18.3964324,19.0253003 C19.1400053,19.3297992 19.1921858,20.3955454 18.5007935,21.7150406 C18.1877102,22.3240384 18.0442136,22.4636004 17.6398143,22.5777875 C16.8962415,22.7680994 16.5831581,22.730037 16.2439845,22.3874757 Z" id="Path"></path>
                    <path d="M9.9431827,18.8730508 C9.25179037,18.2259907 8.09077305,17.03337 7.37329044,16.2340603 C6.64276269,15.4347507 5.9644155,14.7115658 5.86005439,14.6227536 C5.70351273,14.4958791 5.53392593,14.5339414 5.02516553,14.7750031 C3.31625241,15.5870002 2.48136355,15.4855005 1.3073011,14.3563171 C0.120193506,13.1890713 -0.271160646,12.0345129 0.185419197,10.9941417 C0.446321965,10.3978313 0.863766393,10.0806449 1.88128719,9.71270877 C2.84662743,9.35746005 3.96850933,9.28133532 4.68599194,9.52239696 C5.02516553,9.63658405 5.14257178,9.62389659 5.33824886,9.45895968 C5.63828704,9.19252314 6.2383634,9.2052106 6.68189811,9.48433459 C6.87757518,9.61120914 7.33415503,10.1060199 7.68637376,10.6008306 C8.0385925,11.0829538 8.66475914,11.8822635 9.08220357,12.3643867 C9.51269314,12.8591975 10.0866792,13.54432 10.3606271,13.8868813 C11.0781097,14.7623156 12.4087139,16.1325607 12.7217972,16.3228725 C12.8652937,16.4116847 13.1131513,16.475122 13.2827381,16.4878094 C13.6740923,16.4878094 14.0915367,16.9191829 14.0915367,17.3378689 C14.0915367,17.7565549 13.4001444,18.822301 12.891384,19.1648623 C12.6826618,19.3171118 12.3695784,19.5708608 12.1999916,19.7357977 C11.6390507,20.2813583 11.3259674,20.1544837 9.9431827,18.8730508 Z" id="Path"></path>
                    <path d="M23.2753141,18.7081139 C22.9361405,18.3655527 22.9491857,18.5939269 22.9622308,15.2951887 C22.9622308,14.5085665 23.0405016,13.9249436 23.2100884,13.3920705 C23.6275329,12.1487 23.8101648,11.0575789 23.7971197,9.75077114 C23.7710294,8.5074006 23.4449009,7.09909317 22.414335,3.92722957 C22.036026,2.7219214 21.9316649,1.93529922 22.1273419,1.63080032 C22.1795225,1.54198814 22.2186579,1.2755516 22.2056128,1.04717742 C22.1403871,0.209805425 23.2753141,-0.335755114 23.8623453,0.235180334 C24.0058419,0.374742333 24.3319703,0.907615418 24.579828,1.41511359 C25.0364078,2.31592286 25.0494529,2.39204758 25.0624981,3.92722957 C25.0885884,5.1706001 25.153814,5.72884809 25.4016717,6.54084517 C25.9104321,8.26633897 26.1191543,10.5627682 25.8191161,11.3874528 C25.714755,11.6792642 25.7278001,11.9076384 25.8712967,12.3263244 C26.0147932,12.7703853 26.0408835,13.2271336 25.9365223,14.7115658 C25.7799807,17.4013061 25.4538522,18.4416774 24.6450537,18.8476759 C24.110203,19.1141125 23.640578,19.0633627 23.2753141,18.7081139 Z" id="Path"></path>
                    <path d="M19.8183525,17.2363692 C19.58354,17.0079951 19.5574497,16.8811205 19.6357205,16.4370596 C19.6748559,16.1579356 19.7139913,15.7519371 19.7009462,15.5616253 C19.7009462,15.358626 19.779217,14.9145651 19.8966233,14.5466289 C20.157526,13.6965695 20.1705712,11.7934513 19.9227136,10.8418922 C19.8053073,10.4232062 19.6618108,9.48433459 19.58354,8.74846224 C19.5052691,8.01258988 19.3095921,6.87071899 19.1400053,6.21097136 C18.6051546,4.18097865 18.7225608,2.35398522 19.3748177,2.10023613 C20.1444809,1.82111213 20.9010989,2.34129776 20.8619635,3.12791994 C20.8228281,3.90185466 21.00546,5.20866246 21.2663628,6.02065954 C21.3968142,6.43934554 21.5794461,7.12446807 21.657717,7.54315407 C21.7490329,7.96184006 21.8925295,8.62158769 21.9968906,9.00221133 C22.2708385,10.0172077 22.3882447,13.5950698 22.1925676,14.5973787 C21.9838454,15.6123751 21.4881302,16.8303707 21.1098212,17.2109943 C20.7576024,17.5789305 20.1836163,17.591618 19.8183525,17.2363692 Z" id="Path"></path>
                    <path d="M16.8179706,15.358626 C16.4135713,14.9653149 16.4135713,14.9272525 16.5179324,14.2294425 C16.6875192,13.0748842 16.6222935,11.1590786 16.3744359,10.334394 C16.2570297,9.9283955 15.9569915,9.11639842 15.7091339,8.54546297 C15.4612762,7.96184006 15.2655992,7.30209244 15.2655992,7.07371826 C15.2655992,6.84534408 15.1742832,6.54084517 15.0699221,6.41397063 C14.965561,6.27440863 14.874245,6.033347 14.874245,5.86841009 C14.874245,5.475099 15.4221408,4.94222592 15.8265401,4.94222592 C16.2439845,4.94222592 16.8310158,5.39897428 16.8310158,5.72884809 C16.8310158,5.88109754 16.9092866,6.09678427 17.0136477,6.1982839 C17.2745505,6.4774079 18.2268456,8.76114969 18.5399289,9.82689586 C18.6834254,10.3217066 18.8530122,11.4255151 18.931283,12.288262 C19.0356441,13.6204447 19.022599,13.9503185 18.8530122,14.4578167 C18.6181997,15.1683142 18.2138004,15.5616253 17.6398143,15.6758123 C17.3006407,15.7392496 17.1701894,15.6884998 16.8179706,15.358626 Z" id="Path"></path>
                    <path d="M13.4914603,13.125634 C13.3349187,13.0241344 12.5261201,12.1994498 11.6912312,11.2986406 C10.8563424,10.3851439 9.82577646,9.38283496 9.39528689,9.0656486 C8.58648831,8.45665079 8.44299179,8.15215188 8.74302997,7.59390389 C8.91261677,7.28940498 9.64314452,6.93415626 10.5041237,6.73115699 C10.8693875,6.64234481 11.3390125,6.46472045 11.5607799,6.32515845 C12.4608944,5.79228536 13.2827381,6.17290899 13.5697312,7.23865516 C13.648002,7.54315407 13.8045437,7.99990243 13.9219499,8.24096406 C14.3785297,9.2052106 15.0046964,11.2478908 15.0829672,11.9837631 C15.1612381,12.6815731 15.1351478,12.8084476 14.8872901,13.0495093 C14.5611617,13.3666956 13.8828145,13.404758 13.4914603,13.125634 Z" id="Path"></path>
                </g>
            </g>
        </g>
    </g>
</svg>