<?xml version="1.0" encoding="UTF-8" standalone="no"?>
<!DOCTYPE svg PUBLIC "-//W3C//DTD SVG 1.1//EN" "http://www.w3.org/Graphics/SVG/1.1/DTD/svg11.dtd">
<svg width="100%" height="100%" viewBox="0 0 576 408" version="1.1" xmlns="http://www.w3.org/2000/svg" xmlns:xlink="http://www.w3.org/1999/xlink" xml:space="preserve" xmlns:serif="http://www.serif.com/" style="fill-rule:evenodd;clip-rule:evenodd;stroke-linejoin:round;stroke-miterlimit:2;">
    <g transform="matrix(1,0,0,1,-2138.29,-1152)">
        <g id="Монтажная-область4" serif:id="Монтажная область4" transform="matrix(0.989187,0,0,1,28.8307,-0.676467)">
            <rect x="2132.52" y="1152.68" width="582.039" height="407" style="fill:none;"/>
            <g transform="matrix(1.01093,0,0,1,331.795,-450.532)">
                <path d="M1813.5,1613.5C1833.54,1614.41 1852.87,1618.57 1871.5,1626C1881.13,1630.3 1888.97,1636.8 1895,1645.5C1900.86,1659.42 1906.53,1673.42 1912,1687.5C1918.67,1696.17 1925.33,1704.83 1932,1713.5C1935.91,1718.08 1940.41,1721.92 1945.5,1725C1959.55,1729.35 1973.22,1734.68 1986.5,1741C2003.98,1751.47 2011.82,1766.97 2010,1787.5C2010.35,1789.85 2011.51,1791.68 2013.5,1793C2018.35,1794.73 2023.35,1795.73 2028.5,1796C2048.78,1795.84 2069.11,1796.84 2089.5,1799C2098.37,1799.69 2105.87,1803.19 2112,1809.5C2117.84,1818.51 2123.17,1827.84 2128,1837.5C2132.09,1843.24 2137.59,1847.08 2144.5,1849C2163.08,1852.32 2181.41,1856.65 2199.5,1862C2208.18,1866.17 2213.18,1873.01 2214.5,1882.5C2224.75,1882.75 2234.75,1881.25 2244.5,1878C2266.74,1869.59 2289.4,1862.59 2312.5,1857C2320.98,1855.16 2328.48,1857 2335,1862.5C2345.39,1883.92 2348.89,1906.42 2345.5,1930C2345.49,1936.26 2346.15,1942.43 2347.5,1948.5C2347.42,1955.77 2344.42,1961.6 2338.5,1966C2316.99,1980.73 2293.32,1990.4 2267.5,1995C2257.55,1996.71 2247.55,1998.04 2237.5,1999C2165.26,2004.2 2093.26,2001.87 2021.5,1992C2003.3,1991.34 1985.14,1991.84 1967,1993.5C1955.5,1993.05 1944,1992.55 1932.5,1992C1927.08,1991.43 1921.74,1990.43 1916.5,1989C1911.83,1985.67 1907.17,1982.33 1902.5,1979C1891.21,1980.89 1884.88,1976.06 1883.5,1964.5C1878.48,1962.46 1876.64,1958.79 1878,1953.5C1879.58,1949.33 1881.92,1945.66 1885,1942.5C1897.33,1930.83 1909.67,1919.17 1922,1907.5C1925.43,1903.23 1928.26,1898.56 1930.5,1893.5C1929.22,1891.85 1927.55,1890.69 1925.5,1890C1915.12,1886.49 1904.78,1882.82 1894.5,1879C1885.76,1874.03 1880.59,1866.53 1879,1856.5C1878.13,1846.48 1877.13,1836.48 1876,1826.5C1873.36,1818.73 1868.86,1812.23 1862.5,1807C1852.71,1800.88 1844.54,1793.04 1838,1783.5C1833.51,1771.23 1829.18,1758.89 1825,1746.5C1817.92,1734 1810.59,1721.67 1803,1709.5C1800.77,1703.36 1799.44,1697.03 1799,1690.5C1796.97,1666.4 1799.3,1642.73 1806,1619.5C1808.11,1616.88 1810.61,1614.88 1813.5,1613.5ZM1820.5,1631.5C1834.97,1633.12 1848.97,1636.62 1862.5,1642C1872.06,1645.9 1878.56,1652.73 1882,1662.5C1884.87,1673.13 1888.54,1683.46 1893,1693.5C1903.12,1707.29 1913.62,1720.79 1924.5,1734C1930.72,1739.28 1937.72,1743.28 1945.5,1746C1957.91,1748.91 1969.57,1753.58 1980.5,1760C1983.37,1762.54 1985.87,1765.37 1988,1768.5C1989.2,1776.8 1990.2,1785.13 1991,1793.5C1993.65,1802.15 1999.15,1808.32 2007.5,1812C2013.01,1813.97 2018.68,1815.3 2024.5,1816C2043.84,1816.88 2063.17,1817.88 2082.5,1819C2086.94,1819.53 2091.28,1820.53 2095.5,1822C2101.21,1831.92 2107.04,1841.75 2113,1851.5C2120.32,1860.24 2129.49,1866.08 2140.5,1869C2157.01,1871.92 2173.34,1875.58 2189.5,1880C2190.93,1880.47 2192.1,1881.3 2193,1882.5C2196.07,1896.74 2204.91,1903.74 2219.5,1903.5C2226.91,1902.85 2234.25,1901.68 2241.5,1900C2261.28,1894.07 2280.95,1887.74 2300.5,1881C2306.4,1879.09 2312.4,1878.09 2318.5,1878C2327.07,1894.9 2329.73,1912.73 2326.5,1931.5C2326.52,1937.31 2327.02,1942.97 2328,1948.5C2310.38,1961.22 2290.88,1970.05 2269.5,1975C2257.94,1977.41 2246.27,1979.08 2234.5,1980C2218.15,1980.32 2201.82,1980.99 2185.5,1982C2155.82,1982.32 2126.15,1981.65 2096.5,1980C2067.12,1977.49 2037.79,1974.66 2008.5,1971.5C1985.87,1974.33 1963.21,1974.83 1940.5,1973C1935.1,1972.77 1929.77,1972.11 1924.5,1971C1917.84,1965.58 1910.18,1962.41 1901.5,1961.5C1902.47,1957.84 1902.64,1954.18 1902,1950.5C1910.5,1943.33 1919,1936.17 1927.5,1929C1936.26,1921.24 1943.09,1912.08 1948,1901.5C1951.72,1889.11 1947.89,1879.95 1936.5,1874C1925.91,1870.14 1915.24,1866.47 1904.5,1863C1902.39,1861.86 1900.56,1860.36 1899,1858.5C1896.74,1846.93 1895.08,1835.27 1894,1823.5C1891.75,1814.33 1887.42,1806.33 1881,1799.5C1873.63,1792.46 1865.96,1785.79 1858,1779.5C1855.94,1777.1 1854.27,1774.43 1853,1771.5C1849.6,1759.62 1845.6,1747.95 1841,1736.5C1835.42,1725.67 1829.09,1715.33 1822,1705.5C1817.95,1693.88 1816.11,1681.88 1816.5,1669.5C1816.74,1656.71 1818.07,1644.04 1820.5,1631.5Z" style="fill:rgb(41,108,30);fill-opacity:0.84;"/>
            </g>
            <g transform="matrix(1.01093,0,0,1,331.795,-450.532)">
                <path d="M1876.5,1735.5C1880.19,1734.97 1883.36,1735.97 1886,1738.5C1891.53,1754.38 1900.7,1767.88 1913.5,1779C1922.66,1783.27 1931.49,1788.11 1940,1793.5C1941.86,1796.76 1943.02,1800.26 1943.5,1804C1942.44,1809.82 1941.44,1815.66 1940.5,1821.5C1941.09,1825.6 1942.09,1829.6 1943.5,1833.5C1941.84,1839.44 1938.17,1841.27 1932.5,1839C1928.21,1833.46 1925.87,1827.13 1925.5,1820C1926.76,1814.54 1927.26,1809.04 1927,1803.5C1901.9,1793.6 1883.9,1776.27 1873,1751.5C1871.57,1747.59 1871.23,1743.59 1872,1739.5C1873.4,1737.93 1874.9,1736.6 1876.5,1735.5Z" style="fill:rgb(41,108,30);fill-opacity:0.79;"/>
            </g>
            <g transform="matrix(1.01093,0,0,1,331.795,-450.532)">
                <path d="M1994.5,1882.5C2004.3,1881.56 2013.3,1883.73 2021.5,1889C2032,1900.86 2033.17,1913.7 2025,1927.5C2014.53,1941.32 2000.69,1947.16 1983.5,1945C1979.24,1943.62 1975.74,1941.12 1973,1937.5C1971.14,1931.44 1968.47,1925.77 1965,1920.5C1961.81,1909.76 1964.31,1900.59 1972.5,1893C1979.01,1887.58 1986.34,1884.08 1994.5,1882.5ZM1985.5,1908.5C1996.46,1907.94 1999.46,1912.44 1994.5,1922C1995.15,1923.44 1995.48,1924.94 1995.5,1926.5C1998.69,1925.91 2001.69,1924.74 2004.5,1923C2011.28,1918.33 2013.45,1912.16 2011,1904.5C2001.52,1899.7 1993.02,1901.03 1985.5,1908.5Z" style="fill:rgb(41,108,30);fill-opacity:0.83;"/>
            </g>
            <g transform="matrix(1.01093,0,0,1,331.795,-450.532)">
                <path d="M2158.5,1908.5C2171.92,1907.63 2184.92,1909.47 2197.5,1914C2210.33,1923.84 2212.5,1935.68 2204,1949.5C2185.35,1969.14 2164.52,1971.64 2141.5,1957C2135.07,1952.58 2129.24,1947.41 2124,1941.5C2121.68,1938.53 2120.18,1935.2 2119.5,1931.5C2119.86,1926.63 2122.53,1923.97 2127.5,1923.5C2130.49,1917.68 2135.16,1913.85 2141.5,1912C2147.26,1910.61 2152.93,1909.45 2158.5,1908.5ZM2163.5,1926.5C2159.32,1927.41 2154.99,1928.24 2150.5,1929C2148.38,1929.26 2146.72,1930.26 2145.5,1932C2152.39,1934.25 2159.39,1936.08 2166.5,1937.5C2169.23,1940.1 2169.9,1943.1 2168.5,1946.5C2177.85,1948.11 2185.35,1945.11 2191,1937.5C2192.38,1933.52 2191.21,1930.69 2187.5,1929C2179.61,1927.18 2171.61,1926.35 2163.5,1926.5Z" style="fill:rgb(41,108,30);fill-opacity:0.83;"/>
            </g>
            <g transform="matrix(1.01093,0,0,1,331.795,-450.532)">
                <path d="M2062.5,1929.5C2069.69,1929.61 2076.69,1930.77 2083.5,1933C2089.46,1936.43 2092.13,1941.59 2091.5,1948.5C2092.22,1961.94 2086.22,1966.44 2073.5,1962C2065.96,1960.63 2062.29,1956.13 2062.5,1948.5C2058.69,1949.16 2055.02,1950.33 2051.5,1952C2052.01,1959.17 2048.51,1963 2041,1963.5C2029.11,1961.4 2026.11,1955.06 2032,1944.5C2040.45,1935.86 2050.62,1930.86 2062.5,1929.5Z" style="fill:rgb(41,108,30);fill-opacity:0.81;"/>
            </g>
        </g>
    </g>
</svg>
