<?xml version="1.0" encoding="UTF-8" standalone="no"?>
<!DOCTYPE svg PUBLIC "-//W3C//DTD SVG 1.1//EN" "http://www.w3.org/Graphics/SVG/1.1/DTD/svg11.dtd">
<svg width="100%" height="100%" viewBox="0 0 746 750" version="1.1" xmlns="http://www.w3.org/2000/svg" xmlns:xlink="http://www.w3.org/1999/xlink" xml:space="preserve" xmlns:serif="http://www.serif.com/" style="fill-rule:evenodd;clip-rule:evenodd;stroke-linejoin:round;stroke-miterlimit:2;">
    <g id="Монтажная-область1" serif:id="Монтажная область1" transform="matrix(0.993392,0,0,1,-276.507,-1071.5)">
        <rect x="278.346" y="1071.5" width="750.183" height="749.884" style="fill:none;"/>
        <g transform="matrix(0.100665,0,0,-0.1,-9.3181,2048.5)">
            <path d="M6825,9730C6152,9671 5464,9409 4760,8943C4372,8687 3934,8327 3640,8024C3399,7776 3313,7640 3121,7201C3034,7004 3000,6901 2960,6718C2923,6548 2910,6401 2910,6120C2910,5586 2962,5255 3088,4978C3162,4816 3299,4611 3411,4495C3450,4454 3498,4384 3561,4275C3687,4055 3844,3821 3930,3725C3969,3681 4054,3580 4119,3500C4276,3308 4362,3217 4473,3127C4588,3034 4618,3015 4920,2845C5338,2609 5465,2556 5830,2470C5965,2438 6139,2396 6217,2376C6295,2357 6393,2336 6435,2331C6684,2296 7208,2362 7775,2499C8175,2596 8358,2678 8740,2930C9075,3152 9245,3287 9494,3530C9692,3724 9778,3825 9903,4015C10167,4415 10233,4681 10250,5403C10263,5996 10251,6122 10120,6698C10001,7221 9931,7457 9843,7638C9793,7740 9533,8177 9413,8359C9259,8594 9118,8762 8972,8883C8930,8919 8819,9003 8725,9070C8632,9137 8489,9244 8409,9306C8052,9583 7872,9677 7625,9716C7507,9734 6981,9744 6825,9730ZM7495,9520C7768,9494 7889,9436 8245,9165C8333,9098 8497,8974 8609,8890C8968,8620 9087,8477 9444,7882C9642,7552 9695,7429 9789,7075C9867,6782 9981,6314 9995,6225C10019,6072 10030,5877 10030,5606C10029,4806 9973,4547 9715,4141C9612,3978 9542,3892 9385,3735C9083,3432 8613,3086 8262,2908C7981,2766 7542,2660 6915,2585C6565,2542 6526,2546 6049,2664C5836,2717 5627,2772 5584,2786C5454,2830 5326,2891 5105,3015C4609,3293 4549,3341 4280,3670C4229,3733 4154,3821 4115,3865C4030,3959 3956,4059 3873,4190C3770,4354 3720,4446 3720,4475C3720,4493 3709,4513 3687,4534C3669,4551 3633,4592 3607,4625C3581,4658 3531,4721 3495,4765C3458,4809 3411,4882 3389,4928C3356,4998 3344,5014 3315,5026C3277,5042 3267,5059 3219,5200C3159,5374 3133,5576 3124,5940C3111,6454 3153,6739 3290,7061C3374,7256 3477,7470 3530,7555C3658,7763 3890,8002 4285,8334C4759,8731 5304,9066 5780,9253C6179,9410 6488,9487 6845,9519C6979,9531 7370,9531 7495,9520Z" style="fill:rgb(41,108,30);fill-rule:nonzero;"/>
            <path d="M5225,7955C5173,7904 5184,7882 5405,7587C5468,7502 5520,7430 5520,7427C5520,7425 5495,7419 5463,7415C5381,7405 4972,7322 4625,7245C4460,7208 4280,7174 4225,7168C4111,7157 4071,7142 4047,7101C4014,7045 4036,6959 4091,6929C4141,6903 4299,6926 4705,7020C5205,7136 5566,7207 5675,7211C5699,7212 5735,7203 5765,7189C5875,7138 5987,7166 6030,7256C6080,7358 6004,7450 5871,7450C5837,7450 5815,7456 5796,7471C5782,7482 5690,7582 5592,7693C5367,7947 5332,7980 5285,7980C5260,7980 5241,7972 5225,7955Z" style="fill:rgb(41,108,30);fill-rule:nonzero;"/>
            <path d="M8085,7925C8067,7916 8036,7880 8008,7837C7947,7742 7811,7581 7723,7500C7641,7423 7626,7399 7634,7355C7646,7295 7667,7286 7814,7279C8005,7270 8163,7224 8740,7008C9147,6856 9205,6840 9279,6860C9335,6875 9374,6923 9366,6969C9358,7021 9333,7039 9239,7060C9190,7070 9033,7127 8865,7195C8531,7330 8241,7429 8088,7461L7982,7483L8071,7586C8119,7643 8167,7701 8176,7715C8189,7736 8200,7740 8237,7740C8273,7740 8287,7746 8311,7769C8348,7807 8349,7843 8312,7880C8282,7910 8198,7940 8146,7940C8129,7940 8102,7933 8085,7925Z" style="fill:rgb(41,108,30);fill-rule:nonzero;"/>
            <path d="M6880,6293C6697,6286 6015,6238 5840,6219C5738,6209 5590,6193 5510,6184C5261,6158 5138,6120 5100,6057C5075,6017 5075,5984 5100,5943C5128,5896 5177,5885 5249,5909C5339,5939 5390,5947 5721,5984C6214,6039 6837,6080 7183,6080C7413,6080 7494,6073 7790,6025C7983,5993 8253,5963 8421,5954L8549,5947L8534,5911C8525,5891 8497,5784 8469,5672C8403,5397 8348,5268 8204,5050C8083,4866 7875,4632 7708,4493C7409,4244 6993,4050 6670,4010C6491,3988 6167,4003 6028,4040C5759,4112 5586,4279 5496,4555C5431,4753 5383,5086 5371,5415C5365,5589 5360,5633 5347,5654C5314,5703 5245,5700 5206,5647C5186,5619 5185,5609 5186,5292C5187,4934 5196,4840 5250,4613C5363,4142 5604,3903 6060,3808C6200,3779 6582,3771 6738,3794C7023,3836 7341,3966 7623,4157C8009,4417 8354,4813 8535,5205C8589,5320 8620,5415 8669,5615C8716,5805 8722,5821 8799,5946C8832,5999 8862,6055 8865,6070C8875,6115 8847,6168 8803,6186C8769,6201 8759,6200 8685,6186C8527,6155 8237,6170 7850,6231C7411,6301 7298,6308 6880,6293Z" style="fill:rgb(41,108,30);fill-rule:nonzero;"/>
        </g>
    </g>
</svg>
