<?xml version="1.0" encoding="UTF-8" standalone="no"?>
<!DOCTYPE svg PUBLIC "-//W3C//DTD SVG 1.1//EN" "http://www.w3.org/Graphics/SVG/1.1/DTD/svg11.dtd">
<svg width="100%" height="100%" viewBox="0 0 24 37" version="1.1" xmlns="http://www.w3.org/2000/svg" xmlns:xlink="http://www.w3.org/1999/xlink" xml:space="preserve" xmlns:serif="http://www.serif.com/" style="fill-rule:evenodd;clip-rule:evenodd;stroke-linejoin:round;stroke-miterlimit:2;">
    <g id="Монтажная-область2" serif:id="Монтажная область2" transform="matrix(0.447449,0,0,0.62779,-35.3152,-69.9543)">
        <rect x="78.926" y="111.43" width="52.743" height="57.943" style="fill:none;"/>
        <clipPath id="_clip1">
            <rect x="78.926" y="111.43" width="52.743" height="57.943"/>
        </clipPath>
        <g clip-path="url(#_clip1)">
            <g id="Монтажная-область1" serif:id="Монтажная область1" transform="matrix(2.23489,0,0,1.59289,-4326.11,-284.77)">
                <g transform="matrix(0.760348,0,0,0.595223,451.953,49.7895)">
                    <rect x="1885.87" y="123.005" width="202.488" height="275.182" style="fill:none;"/>
                </g>
                <g transform="matrix(0.119547,0,0,0.138629,1746.4,231.381)">
                    <path d="M2011.5,131.5C2017.33,131.079 2022.33,132.913 2026.5,137C2044.2,137.689 2050.7,146.522 2046,163.5C2041.51,172.977 2035.85,181.644 2029,189.5C2007.13,213.704 1985.63,238.204 1964.5,263C1991.68,282.756 2018.68,302.756 2045.5,323C2050.51,327.849 2053.84,333.683 2055.5,340.5C2067.44,344.82 2070.94,352.82 2066,364.5C2061.04,370.05 2054.87,373.55 2047.5,375C2038.45,383.077 2028.95,383.577 2019,376.5C2009.34,380.061 2001.34,377.728 1995,369.5C1992.53,365.4 1989.7,361.566 1986.5,358C1964.22,349.695 1943.22,339.028 1923.5,326C1917.95,320.446 1912.45,314.946 1907,309.5C1904.57,305.46 1902.91,301.126 1902,296.5C1895.89,291.935 1892.05,285.935 1890.5,278.5C1891.57,270.674 1895.74,265.34 1903,262.5C1919.53,232.964 1939.53,205.964 1963,181.5C1972.62,166.207 1984.12,152.374 1997.5,140C2001.83,136.477 2006.5,133.644 2011.5,131.5Z" style="fill:white;fill-opacity:0.94;"/>
                </g>
            </g>
        </g>
    </g>
</svg>
