<?xml version="1.0" encoding="UTF-8"?>
<svg width="92px" height="58px" viewBox="0 0 92 58" version="1.1" xmlns="http://www.w3.org/2000/svg" xmlns:xlink="http://www.w3.org/1999/xlink">
    <title>стрелка паранойя</title>
    <defs>
        <path d="M58.0070452,49.5130056 C58.6472065,49.2564114 60.1500275,48.2305691 61.3467083,47.2565803 C62.5712696,46.2820569 64.6027294,44.7435608 65.9109327,43.8460157 C69.9459717,41.0256177 73.7306317,37.8973067 76.6252979,34.9742711 C78.1559996,33.4614344 80.2984353,31.3333062 81.3841401,30.2561452 C83.6938597,28.0253793 84,27.5383849 84,26.2821424 C84,24.9745811 83.2483161,23.9230795 81.8570176,23.307681 C81.161095,22.9999818 80.2705547,22.2820526 79.6861546,21.538464 C79.1575159,20.8718002 78.5452352,20.2564018 78.3227367,20.179477 C78.128119,20.1025522 77.7662173,19.5384191 77.5437189,18.9230741 C76.9593189,17.384578 73.8979155,13.1281613 71.3930315,10.3845813 C67.9145119,6.56410739 63.0441471,3.02561986 58.5641113,0.999968995 C56.4768902,0.0512653836 56.1707498,0 53.805269,0 C50.4934866,0 49.129522,0.589739012 48.1001251,2.41022143 C47.7103429,3.10254467 47.265346,3.7179431 47.1259428,3.74354906 C46.9592057,3.76920848 46.5136622,3.87179271 46.0965459,3.94871751 C45.6788831,4.05124828 44.8998652,4.46153172 44.3433458,4.89742112 C42.5622651,6.35893894 42.4507425,8.69228902 44.0924201,10.6922805 C44.6494862,11.3589443 44.7325814,11.6923029 44.5937249,12.666666 C44.3154652,14.3846176 45.0108411,15.820476 46.931325,17.4871623 C47.7939848,18.2564103 49.129522,19.2051139 49.8533252,19.5897379 C50.5771285,19.9999679 51.1336479,20.3589325 51.0778866,20.4358573 C51.0221253,20.4871762 49.4077817,20.6922912 47.5157251,20.8974062 C44.7325814,21.2051054 43.8699217,21.2051054 42.9515006,20.9486715 C41.2540618,20.4871762 27.395198,20.6410258 23.9997736,21.15384 C21.8291839,21.5128046 20.5768513,21.538464 16.0406715,21.3076896 C10.5026474,21.0512558 9.05547829,21.15384 7.58053787,21.8717692 C5.63250129,22.7948668 4.4079946,25.0002406 4.85326479,26.8461151 C4.96456867,27.3844284 5.07592722,27.9232762 5.07592722,28.0510387 C5.10375319,28.1536764 4.46364654,28.4872489 3.65658407,28.7689679 C1.23545133,29.5895348 -0.350792968,31.8716195 0.0665965833,33.923304 C0.317084982,35.1025682 2.5712619,38.2052198 3.68441004,38.923149 C4.18538684,39.2305274 5.27070901,39.6410782 6.10559745,39.7950347 C7.71966772,40.1024132 9.63993299,39.9227972 16.7920273,38.743533 C18.4618042,38.4869388 21.9126618,38.1282415 24.4453171,37.974285 C34.4079985,37.333334 37.2742374,37.1280587 41.2819424,36.6410643 C43.5637813,36.3844701 46.4579009,35.9487945 47.6824622,35.6665409 C48.9070236,35.3848218 49.9648478,35.2052059 50.0200624,35.2565247 C50.0758237,35.3078436 49.4914236,36.0257727 48.7124058,36.8206802 C47.9328413,37.6155877 47.1259428,38.743533 46.9034444,39.3331651 C46.680946,39.9227972 46.1244266,40.7690235 45.6510024,41.2308931 C44.5658442,42.3075196 44.1481814,43.5386372 44.510083,44.7179014 C45.0108411,46.3846946 47.3205606,47.5382994 49.0185461,46.9486673 C49.9648478,46.6150948 50.5492478,46.7947107 51.5786447,47.8462124 C52.3855432,48.6667793 55.3911853,50 56.3653676,50 C56.6436273,50 57.3953112,49.7690652 58.0070452,49.5130056 Z" id="path-1"></path>
        <filter x="-7.1%" y="-12.0%" width="114.3%" height="124.0%" filterUnits="objectBoundingBox" id="filter-2">
            <feOffset dx="0" dy="0" in="SourceAlpha" result="shadowOffsetOuter1"></feOffset>
            <feGaussianBlur stdDeviation="2" in="shadowOffsetOuter1" result="shadowBlurOuter1"></feGaussianBlur>
            <feColorMatrix values="0 0 0 0 0   0 0 0 0 0   0 0 0 0 0  0 0 0 0.5 0" type="matrix" in="shadowBlurOuter1"></feColorMatrix>
        </filter>
    </defs>
    <g id="Page-1" stroke="none" stroke-width="1" fill="none" fill-rule="evenodd">
        <g id="iPhone-11" transform="translate(-160.000000, -735.000000)" fill-rule="nonzero">
            <g id="Path" transform="translate(164.000000, 739.000000)">
                <use fill="black" fill-opacity="1" filter="url(#filter-2)" xlink:href="#path-1"></use>
                <use fill="#FFFFFF" xlink:href="#path-1"></use>
            </g>
        </g>
    </g>
</svg>