<?xml version="1.0" encoding="UTF-8"?>
<svg width="18px" height="33px" viewBox="0 0 18 33" version="1.1" xmlns="http://www.w3.org/2000/svg" xmlns:xlink="http://www.w3.org/1999/xlink">
    <title>soundOn_image</title>
    <g id="Page-1" stroke="none" stroke-width="1" fill="none" fill-rule="evenodd">
        <g id="iPhone-11" transform="translate(-233.000000, -782.000000)">
            <g id="soundOn_image" transform="translate(233.000000, 782.000000)">
                <rect id="Rectangle" x="0" y="0" width="18" height="33"></rect>
                <g id="Group" transform="translate(8.000000, 15.500000) scale(-1, 1) rotate(-180.000000) translate(-8.000000, -15.500000) translate(1.000000, 2.000000)" fill="#000000">
                    <path d="M6.72970445,26.8848783 C6.17440467,26.6668613 5.80420482,26.2308273 5.55299778,25.4620306 C5.12991223,24.2113015 5.06380512,23.5113523 5.23568362,22.0885045 C5.3943407,20.8377755 5.38111928,20.6541823 5.09024796,19.21986 C4.81259807,17.7740631 4.79937665,17.5789953 4.94481231,16.1905713 C5.03736227,15.3758762 5.15635508,13.7809099 5.2224622,12.633452 C5.27534789,11.4974688 5.43400497,9.98282444 5.55299778,9.27140058 C5.68521201,8.57145131 5.75131913,7.96329866 5.71165486,7.92887492 C5.67199059,7.89445119 5.51333351,7.92887492 5.34145501,7.99772239 C4.53494819,8.37638348 2.36663477,7.6764342 1.22959237,6.65519673 C0.185099926,5.71428131 0,5.28972191 0,3.75212842 C0,2.6505689 0.0528856931,2.34075529 0.277649889,1.91619589 C0.621406894,1.26214493 1.20314952,0.757263485 1.94354922,0.458924449 C2.60462039,0.18353457 4.66716242,-0.0803807307 5.27534789,0.022890474 C6.00252617,0.160585414 6.79581157,0.65399228 7.54943269,1.4342636 C8.52781802,2.46697565 8.75258221,3.12102661 8.52781802,4.31438276 C8.43526805,4.79631505 8.31627524,5.78312878 8.26338955,6.50602721 C8.21050386,7.22892565 8.02540393,8.44523095 7.86674685,9.20255311 C7.6684255,10.1664177 7.57587554,11.1761806 7.53621127,12.5875537 C7.50976842,13.6891132 7.43043988,14.9054185 7.35111134,15.2840796 C7.12634715,16.3512154 7.17923284,17.6707919 7.496547,19.300182 C7.74775404,20.6427077 7.76097547,20.9295721 7.62876123,22.1688266 C7.45688273,23.7523184 7.64198266,24.9800983 8.03862536,24.9800983 C8.27661097,24.9800983 9.90284604,24.1654032 10.2994887,23.8555896 C11.0002242,23.2818607 11.7009596,22.3638944 11.7009596,22.0081825 C11.7009596,21.4918265 12.2827022,20.9639959 12.838002,20.9639959 C13.7106159,20.9639959 14.1998086,21.7672164 13.9221587,22.7540301 C13.7106159,23.5228268 12.2033737,25.152217 11.1059956,25.8062679 C9.45331765,26.7816071 7.62876123,27.2291156 6.72970445,26.8848783 Z" id="Path"></path>
                </g>
            </g>
        </g>
    </g>
</svg>