<?xml version="1.0" encoding="UTF-8"?>
<svg width="35px" height="33px" viewBox="0 0 35 33" version="1.1" xmlns="http://www.w3.org/2000/svg" xmlns:xlink="http://www.w3.org/1999/xlink">
    <title>musicOn_image</title>
    <g id="Page-1" stroke="none" stroke-width="1" fill="none" fill-rule="evenodd">
        <g id="iPhone-11" transform="translate(-270.000000, -693.000000)">
            <g id="musicOn_image" transform="translate(270.000000, 693.000000)">
                <rect id="Rectangle" x="0" y="0" width="35" height="33"></rect>
                <g id="Group" transform="translate(16.500000, 16.000000) scale(-1, 1) rotate(-180.000000) translate(-16.500000, -16.000000) translate(2.000000, 1.000000)" fill="#000000">
                    <path d="M20.5038119,29.9354674 C20.195157,29.806773 19.9933442,29.4674877 19.9933442,29.0580056 C19.9933442,28.7070209 21.0261509,26.8234029 21.9402442,25.489661 C22.2726418,25.0099819 23.1273784,24.0389242 23.8277875,23.3369547 C25.3473192,21.816021 25.6203601,21.4416373 26.2139271,20.0727969 C26.8787223,18.5284642 27.1161491,17.2415202 27.1161491,15.0771145 C27.1161491,12.9361077 26.9499503,11.4853709 26.2970265,7.99892275 C26.035857,6.58328441 25.7390735,4.92195676 25.6322314,4.31358326 C25.5253893,3.70520975 25.3354479,2.75755102 25.2048631,2.20767497 C24.8131089,0.593145289 24.8131089,0.499549365 25.0861497,0.230461085 C26.0595997,-0.728897133 27.1755058,1.36531166 27.8759149,5.42503485 C28.0421137,6.39609256 28.3032832,7.9404253 28.469482,8.87638454 C28.9443357,11.6608633 29.0511777,13.1934965 28.9799497,15.7907834 C28.9087216,18.4582672 28.7543942,19.2655321 28.0064997,21.1023521 C27.460418,22.4243945 26.7718802,23.3720532 25.6322314,24.3899089 C24.5163253,25.3609666 23.5547467,26.5309156 22.6169107,28.0284504 C21.5010046,29.8184725 21.1092503,30.1694572 20.5038119,29.9354674 Z" id="Path"></path>
                    <path d="M16.5506552,26.5426151 C16.1826436,26.1799309 16.2538717,25.7470498 16.8118247,24.9748834 C17.0848656,24.5888002 17.6428186,23.606043 18.0583156,22.7987782 C18.4619412,21.9915133 19.2573211,20.5173775 19.8271455,19.5229209 C21.9165015,15.8609803 21.9521156,15.7673844 21.9402442,12.7957138 C21.9283729,9.37946263 21.4653906,7.14485995 20.159543,4.29018427 C19.4710052,2.76925051 19.3879058,2.35976835 19.7321747,2.0555816 C20.3019991,1.54080402 21.1923497,1.97368516 21.9521156,3.13193472 C23.4360332,5.38993638 24.1720564,8.50200084 24.1839278,12.561724 C24.2076704,16.2119651 24.0058576,16.7735406 20.8243381,22.0968088 C20.195157,23.1614624 19.4947479,24.3665099 19.2691924,24.7876916 C19.0436369,25.2088732 18.5925259,25.8289462 18.2601284,26.1682314 C17.7496607,26.683009 17.5953333,26.7766049 17.2273217,26.7766049 C16.9424095,26.7766049 16.7049827,26.6947085 16.5506552,26.5426151 Z" id="Path"></path>
                    <path d="M13.9745741,24.9046865 C13.5946912,24.7525931 13.309779,24.2612145 13.3928784,23.9102298 C13.4403638,23.7464369 13.6065626,23.4890481 13.7846327,23.3486542 C14.2238723,22.98597 14.4612991,22.389296 15.9096028,18.0604845 L17.203579,14.1996527 L17.167965,12.035247 C17.1442223,10.0463336 16.9424095,8.06911969 16.6574973,6.98106708 C16.5743979,6.64178186 16.4794272,6.53648644 16.194515,6.47798899 C15.7908894,6.38439307 15.5415912,5.99830988 15.292293,5.07405014 C15.0429949,4.18488886 15.0786089,3.86900262 15.4703632,3.48291943 C15.9452168,3.01493981 16.5743979,3.01493981 17.2273217,3.48291943 C18.699368,4.53587357 19.5184906,7.29695332 19.5184906,11.2162826 C19.5184906,13.5327817 19.3760345,14.3517461 18.4975552,17.0309294 C16.5981406,22.8572756 15.8146321,24.4952043 14.73434,24.892987 C14.3425857,25.0450804 14.318843,25.0450804 13.9745741,24.9046865 Z" id="Path"></path>
                    <path d="M10.9711248,21.3480414 C10.804926,21.2544454 10.389429,20.8566628 10.0451601,20.4705796 C9.67714854,20.0610974 9.20229488,19.6633147 8.91738269,19.5346203 C8.64434184,19.4176254 7.89644733,18.8677494 7.26726623,18.3061738 C6.63808514,17.7562978 6.06826075,17.3000177 6.00890404,17.3000177 C5.94954733,17.3000177 5.83083392,17.3819141 5.74773453,17.47551 C5.66463514,17.5691059 5.41533697,17.6744014 5.1660388,17.7211993 C4.92861197,17.7679973 4.58434307,17.8732927 4.39440161,17.9668886 C4.16884612,18.0838835 3.82457722,18.1306815 3.37346624,18.095583 C2.26943149,18.0136866 0.832999179,17.0309294 0.251303449,15.9662758 C0.0257479624,15.5567936 -0.0098660619,15.2994048 0.00200527953,14.1996527 C0.00200527953,12.0703454 0.631186375,10.3505203 1.53340832,9.97613664 C2.35253088,9.64855091 3.10042539,9.78894479 3.91954795,10.4558157 L4.41814429,10.8652979 L4.59621441,10.5845101 C4.84551258,10.2218259 5.78334855,9.7772453 6.10387477,9.87084122 C6.36504428,9.95273766 7.7183772,9.29756619 8.24071623,8.81788708 C8.40691501,8.6774932 9.05983879,8.3031095 9.68901988,7.99892275 C10.7574406,7.48414517 10.8642827,7.46074619 11.2560369,7.58944058 C12.1820016,7.88192785 12.300715,8.37330645 11.9564461,10.5845101 C11.81399,11.5087699 11.7665046,12.561724 11.778376,14.445342 C11.8021187,16.8086391 11.81399,17.0777273 12.0514168,17.5925049 C12.2294869,17.9785881 12.2769723,18.2827749 12.2294869,18.5635626 C12.1820016,18.8794489 12.2413583,19.1485372 12.4669138,19.6048173 C12.8111827,20.2950872 12.78744,20.622673 12.3600717,21.1023521 C12.0395455,21.4650363 11.3866217,21.5820312 10.9711248,21.3480414 Z" id="Path"></path>
                </g>
            </g>
        </g>
    </g>
</svg>