<?xml version="1.0" encoding="UTF-8" standalone="no"?>
<!DOCTYPE svg PUBLIC "-//W3C//DTD SVG 1.1//EN" "http://www.w3.org/Graphics/SVG/1.1/DTD/svg11.dtd">
<svg width="100%" height="100%" viewBox="0 0 603 1109" version="1.1" xmlns="http://www.w3.org/2000/svg" xmlns:xlink="http://www.w3.org/1999/xlink" xml:space="preserve" xmlns:serif="http://www.serif.com/" style="fill-rule:evenodd;clip-rule:evenodd;stroke-linejoin:round;stroke-miterlimit:2;">
    <g id="Монтажная-область2" serif:id="Монтажная область2" transform="matrix(1,0,0,1,-488.481,-2.28048)">
        <rect x="488.481" y="2.28" width="602.858" height="1108.31" style="fill:none;"/>
        <clipPath id="_clip1">
            <rect x="488.481" y="2.28" width="602.858" height="1108.31"/>
        </clipPath>
        <g clip-path="url(#_clip1)">
            <g id="Монтажная-область1" serif:id="Монтажная область1" transform="matrix(0.969157,0,0,1.00542,-344.586,-513.362)">
                <rect x="356.048" y="510.873" width="1126.21" height="1111.3" style="fill:none;"/>
                <g>
                    <g transform="matrix(1.03182,0,0,0.994608,-47.123,9.61402)">
                        <path d="M969.5,511.5C998.894,510.565 1027.56,514.732 1055.5,524C1066.84,528.003 1078.18,532.003 1089.5,536C1104.82,537.489 1120.15,538.823 1135.5,540C1153.18,542.225 1169.18,548.558 1183.5,559C1200,572.684 1215.83,587.184 1231,602.5C1242.17,616.333 1254.67,628.833 1268.5,640C1272.05,641.941 1275.71,643.607 1279.5,645C1291.35,647.129 1302.69,650.795 1313.5,656C1323.71,665.721 1333.71,675.721 1343.5,686C1347.93,689.481 1352.93,691.814 1358.5,693C1378.38,693.589 1397.38,697.923 1415.5,706C1424.87,712.378 1431.7,720.878 1436,731.5C1441.07,745.363 1445.73,759.363 1450,773.5C1454.81,811.679 1456.81,850.012 1456,888.5C1450.81,913.207 1441.48,936.207 1428,957.5C1410.23,968.942 1392.73,980.775 1375.5,993C1359.82,1002.05 1345.98,999.879 1334,986.5C1326.4,973.126 1321.4,958.793 1319,943.5C1318.48,915.151 1318.98,886.817 1320.5,858.5C1319.95,848.63 1318.28,838.963 1315.5,829.5C1307.59,828.925 1302.26,824.925 1299.5,817.5C1296.16,820.171 1292.5,822.337 1288.5,824C1275.37,827.871 1263.03,833.371 1251.5,840.5C1251.17,841.5 1250.83,842.5 1250.5,843.5C1252.33,853.433 1252.83,863.433 1252,873.5C1245.45,883.883 1237.62,893.216 1228.5,901.5C1227.67,903.167 1226.83,904.833 1226,906.5C1221.61,909.187 1217.11,911.687 1212.5,914C1208.62,918.214 1205.12,922.714 1202,927.5C1200.07,939.495 1200.07,951.495 1202,963.5C1205.93,987.718 1210.93,1011.72 1217,1035.5C1222.56,1051.96 1229.23,1067.96 1237,1083.5C1242.68,1099.45 1244.01,1115.78 1241,1132.5C1236.79,1148.8 1232.79,1165.14 1229,1181.5C1227.87,1197.26 1228.54,1212.93 1231,1228.5C1233.89,1234.28 1236.22,1240.28 1238,1246.5C1242.67,1263.17 1247.33,1279.84 1252,1296.5C1255.22,1305.38 1260.38,1312.88 1267.5,1319C1276.87,1324.69 1285.37,1331.53 1293,1339.5C1300.97,1350.84 1304.47,1363.51 1303.5,1377.5C1303.11,1400.03 1302.11,1422.53 1300.5,1445C1301.71,1456.06 1301.71,1467.06 1300.5,1478C1300.92,1483.45 1302.42,1488.61 1305,1493.5C1308.17,1496.67 1311.33,1499.83 1314.5,1503C1324.71,1508.6 1335.04,1513.94 1345.5,1519C1348.52,1521.86 1350.35,1525.36 1351,1529.5C1355.6,1564.83 1341.44,1588.66 1308.5,1601C1289.04,1607.75 1269.04,1610.42 1248.5,1609C1238.09,1607.87 1228.76,1604.2 1220.5,1598C1214.46,1591.63 1208.79,1584.96 1203.5,1578C1200.98,1576.16 1198.14,1574.99 1195,1574.5C1180.43,1578.53 1166.59,1584.37 1153.5,1592C1135.98,1599.97 1117.64,1603.3 1098.5,1602C1095.76,1601.2 1093.09,1600.2 1090.5,1599C1081.74,1591.28 1071.74,1585.61 1060.5,1582C1051.24,1579.35 1041.91,1577.02 1032.5,1575C1024.81,1571.98 1019.98,1566.48 1018,1558.5C1017.01,1553.72 1016.51,1548.89 1016.5,1544C1019.33,1525.19 1022.16,1506.36 1025,1487.5C1026.51,1462.52 1026.85,1437.52 1026,1412.5C1024.24,1397.48 1020.91,1382.81 1016,1368.5C1014.88,1362.71 1014.05,1356.88 1013.5,1351C1014.37,1339.8 1015.54,1328.64 1017,1317.5C1020.65,1298.93 1023.65,1280.27 1026,1261.5C1026.67,1246.17 1026.67,1230.83 1026,1215.5C1024.98,1186.95 1023.64,1158.29 1022,1129.5C1019.44,1120.27 1015.11,1111.93 1009,1104.5C1003.96,1092.93 998.795,1081.43 993.5,1070C981.599,1073.93 969.599,1077.93 957.5,1082C944.172,1084.92 934.338,1080.42 928,1068.5C926.356,1063.92 925.022,1059.26 924,1054.5C923.592,1052.59 922.425,1051.59 920.5,1051.5C905.604,1057.95 895.771,1068.95 891,1084.5C890.566,1133.5 889.899,1182.5 889,1231.5C888.304,1241.34 886.638,1251.01 884,1260.5C883.737,1275.87 882.904,1291.2 881.5,1306.5C881.581,1322.58 884.081,1338.25 889,1353.5C893.787,1365.07 899.12,1376.41 905,1387.5C908.164,1396.9 907.83,1406.23 904,1415.5C900.95,1426.77 895.45,1436.61 887.5,1445C881.173,1448.42 875.673,1452.92 871,1458.5C869,1465.5 869,1472.5 871,1479.5C878.872,1491.11 887.538,1502.11 897,1512.5C901.654,1518.73 903.821,1525.57 903.5,1533C902.146,1539.72 901.313,1546.55 901,1553.5C894.968,1567.05 886.801,1579.22 876.5,1590C870.906,1593.77 864.739,1595.61 858,1595.5C852.162,1595.06 846.328,1594.56 840.5,1594C828.18,1591.1 815.847,1588.27 803.5,1585.5C784.896,1592.3 766.896,1600.47 749.5,1610C743.668,1612.28 737.668,1613.94 731.5,1615C713.489,1616.58 695.489,1616.58 677.5,1615C654.804,1612.93 632.138,1610.6 609.5,1608C599.457,1604.44 592.623,1597.61 589,1587.5C581.558,1571.85 579.224,1555.52 582,1538.5C585.638,1529.19 591.805,1522.03 600.5,1517C615.225,1507.99 631.225,1503.65 648.5,1504C659.276,1498.04 665.443,1501.21 667,1513.5C685.713,1508.23 702.88,1499.89 718.5,1488.5C719.298,1486.92 719.798,1485.26 720,1483.5C720.344,1461.09 720.844,1438.76 721.5,1416.5C720.826,1405.5 719.992,1394.5 719,1383.5C718.271,1378.98 716.937,1374.65 715,1370.5C709.074,1366.58 703.741,1361.91 699,1356.5C695.91,1352.32 693.91,1347.65 693,1342.5C692.333,1324.5 692.333,1306.5 693,1288.5C695.686,1264.36 698.186,1240.19 700.5,1216C699.94,1210.84 699.44,1205.67 699,1200.5C689.806,1173.92 680.806,1147.25 672,1120.5C668.696,1107.68 666.363,1094.68 665,1081.5C663.65,1063.19 662.65,1044.85 662,1026.5C659.851,1015.42 658.351,1004.25 657.5,993C659.846,974.426 662.679,955.926 666,937.5C667.769,925.109 665.769,913.442 660,902.5C658.278,900.556 656.111,899.556 653.5,899.5C644.316,900.425 635.982,903.592 628.5,909C609.534,925.631 590.867,942.631 572.5,960C559.334,968.418 546,976.584 532.5,984.5C515.759,1006.41 496.759,1026.24 475.5,1044C458.401,1057.89 441.401,1057.89 424.5,1044C418.258,1038.43 412.758,1032.26 408,1025.5C404.638,1016.4 404.971,1007.4 409,998.5C418.162,979.35 428.162,960.684 439,942.5C445.294,934.538 451.96,926.871 459,919.5C471,900.167 483,880.833 495,861.5C505.859,847.795 517.192,834.462 529,821.5C534,817.167 539,812.833 544,808.5C549.254,799.661 554.254,790.661 559,781.5C562.333,777.5 565.667,773.5 569,769.5C569.11,762.978 568.61,756.478 567.5,750C569.241,732.443 574.408,715.943 583,700.5C586.083,695.412 589.917,690.912 594.5,687C603.013,680.909 611.346,674.576 619.5,668C622.339,666.08 625.339,664.413 628.5,663C637.716,660.681 647.049,659.015 656.5,658C668.075,653.213 679.408,647.88 690.5,642C703.33,636.749 716.663,635.082 730.5,637C751.127,639.995 771.793,642.829 792.5,645.5C806.095,645.476 819.428,643.642 832.5,640C840.795,636.37 846.295,630.203 849,621.5C851.755,606.481 855.755,591.814 861,577.5C867.996,560.838 879.496,548.338 895.5,540C918.665,526.237 943.332,516.737 969.5,511.5ZM973.5,537.5C999.152,536.998 1024.15,540.831 1048.5,549C1058.84,552.67 1069.18,556.337 1079.5,560C1096.4,562.574 1113.4,564.241 1130.5,565C1149.9,568.031 1166.56,576.365 1180.5,590C1196.25,604.029 1210.75,619.195 1224,635.5C1232.9,645.068 1242.4,653.901 1252.5,662C1256.01,664.254 1259.67,666.254 1263.5,668C1275.53,671.337 1287.53,674.67 1299.5,678C1308.08,687.584 1317.08,696.917 1326.5,706C1335.28,713.053 1345.28,717.386 1356.5,719C1374.14,718.602 1390.8,722.269 1406.5,730C1409.29,733.081 1411.46,736.581 1413,740.5C1417.2,752.103 1421.2,763.77 1425,775.5C1427.08,784.049 1428.41,792.716 1429,801.5C1430.35,828.825 1431.02,856.158 1431,883.5C1427.17,904.654 1419.34,924.154 1407.5,942C1391.83,951.502 1376.49,961.502 1361.5,972C1359.55,972.991 1357.55,973.325 1355.5,973C1352.1,969.032 1349.6,964.532 1348,959.5C1346.33,953.167 1344.67,946.833 1343,940.5C1343.22,909.836 1343.22,879.169 1343,848.5C1341.42,838.415 1339.42,828.415 1337,818.5C1334.97,810.479 1329.81,805.979 1321.5,805C1317.88,793.659 1310.21,789.659 1298.5,793C1290.92,796.124 1283.59,799.791 1276.5,804C1259.84,808.332 1244.84,815.832 1231.5,826.5C1230.08,828.336 1228.91,830.336 1228,832.5C1227.72,837.197 1227.22,841.863 1226.5,846.5C1228.05,853.435 1228.55,860.435 1228,867.5C1219.04,878.468 1208.87,887.968 1197.5,896C1189.43,902.398 1183.26,910.231 1179,919.5C1174.95,901.112 1163.78,889.612 1145.5,885C1127.15,882.438 1109.48,877.438 1092.5,870C1084.97,867.772 1077.3,867.105 1069.5,868C1053.36,871.827 1037.03,874.494 1020.5,876C1003.85,879.493 988.185,885.493 973.5,894C960.596,898.058 947.93,902.725 935.5,908C916.664,912.376 897.997,917.376 879.5,923C860.686,932.238 842.353,942.238 824.5,953C809.515,963.792 799.515,977.958 794.5,995.5C789.511,995.318 786.345,997.651 785,1002.5C783.761,1017.77 790.927,1025.77 806.5,1026.5C823.201,1022.99 839.868,1019.16 856.5,1015C866.581,1014.25 876.581,1012.92 886.5,1011C898.23,1007.2 909.897,1003.2 921.5,999C939.249,998.208 956.915,996.542 974.5,994C1000.87,986.407 1027.54,980.074 1054.5,975C1061.13,973.78 1067.8,973.447 1074.5,974C1085.63,980.966 1097.63,982.966 1110.5,980C1121.46,977.126 1132.46,974.459 1143.5,972C1157.11,966.385 1167.61,957.218 1175,944.5C1178.13,984.825 1186.13,1024.16 1199,1062.5C1206.18,1076.71 1212.18,1091.38 1217,1106.5C1217.78,1114.55 1217.44,1122.55 1216,1130.5C1211.7,1145.43 1207.7,1160.43 1204,1175.5C1203.33,1190.83 1203.33,1206.17 1204,1221.5C1204.52,1226.59 1205.52,1231.59 1207,1236.5C1214.55,1256.02 1220.55,1276.02 1225,1296.5C1230.02,1313.38 1239.19,1327.54 1252.5,1339C1258.34,1342.75 1264.01,1346.75 1269.5,1351C1277.01,1358.14 1280.34,1366.97 1279.5,1377.5C1278.07,1410.33 1276.74,1443.16 1275.5,1476C1274.74,1496.47 1282.74,1512.47 1299.5,1524C1307.76,1529.8 1316.76,1533.96 1326.5,1536.5C1325.86,1544.34 1324.36,1552 1322,1559.5C1319.92,1563.58 1317.09,1567.08 1313.5,1570C1291.4,1581.91 1268.06,1585.57 1243.5,1581C1242.17,1580.33 1240.83,1579.67 1239.5,1579C1232.5,1571.33 1225.5,1563.67 1218.5,1556C1207.46,1548.55 1195.46,1546.55 1182.5,1550C1178.5,1551.33 1174.5,1552.67 1170.5,1554C1158.26,1559.96 1145.92,1565.62 1133.5,1571C1123.47,1574.74 1113.14,1576.41 1102.5,1576C1084.49,1563.17 1064.49,1555 1042.5,1551.5C1042.33,1545.82 1042.5,1540.16 1043,1534.5C1056.65,1475.56 1055.65,1416.89 1040,1358.5C1039.34,1347.1 1040.01,1335.77 1042,1324.5C1045.33,1305.55 1048.33,1286.55 1051,1267.5C1051.47,1224.8 1050.47,1182.13 1048,1139.5C1047.35,1130.63 1045.69,1121.96 1043,1113.5C1038.25,1105.66 1033.25,1098 1028,1090.5C1024.33,1081.83 1020.67,1073.17 1017,1064.5C1010.6,1050.38 999.77,1044.88 984.5,1048C974.5,1051.67 964.5,1055.33 954.5,1059C952.833,1059.67 951.167,1059.67 949.5,1059C941.701,1025.88 923.701,1018.88 895.5,1038C883.484,1048.68 874.651,1061.51 869,1076.5C867.602,1126.8 866.602,1177.14 866,1227.5C864.958,1239 862.958,1250.34 860,1261.5C859.777,1277.37 858.943,1293.2 857.5,1309C856.818,1327.41 859.651,1345.24 866,1362.5C871.331,1375.16 877.164,1387.49 883.5,1399.5C881.967,1408.6 879.134,1417.26 875,1425.5C869.544,1429.29 864.377,1433.45 859.5,1438C848.565,1446.86 843.899,1458.36 845.5,1472.5C844.958,1479.33 846.458,1485.66 850,1491.5C854,1497.5 858,1503.5 862,1509.5C868.042,1515.87 873.708,1522.54 879,1529.5C879.212,1536.17 878.879,1542.84 878,1549.5C872.549,1557.29 866.715,1564.79 860.5,1572C843.076,1571.06 826.076,1567.73 809.5,1562C805.5,1561.33 801.5,1561.33 797.5,1562C785.787,1565.35 774.454,1569.68 763.5,1575C753.748,1580.54 743.748,1585.54 733.5,1590C729.558,1590.99 725.558,1591.66 721.5,1592C685.995,1591.99 650.661,1589.32 615.5,1584C609.415,1573.65 605.748,1562.49 604.5,1550.5C605.834,1545 609.167,1541.16 614.5,1539C623.432,1533.35 633.099,1530.35 643.5,1530C648.703,1537.77 656.037,1541.6 665.5,1541.5C694.095,1537.87 718.762,1526.2 739.5,1506.5C744.268,1500.37 746.768,1493.37 747,1485.5C747.667,1458.5 747.667,1431.5 747,1404.5C747.425,1388.47 744.425,1373.13 738,1358.5C733.033,1352.53 727.699,1346.86 722,1341.5C720.908,1338.96 720.241,1336.29 720,1333.5C719.333,1318.83 719.333,1304.17 720,1289.5C723.153,1266.26 725.319,1242.93 726.5,1219.5C726.569,1207.95 725.069,1196.62 722,1185.5C712.741,1160.72 704.075,1135.72 696,1110.5C693.794,1100.93 692.127,1091.26 691,1081.5C689.733,1052.55 687.233,1023.72 683.5,995C686.5,973.999 689.5,952.999 692.5,932C692.289,916.318 688.123,901.818 680,888.5C673.335,879.334 664.335,875.001 653,875.5C634.039,877.065 617.539,884.232 603.5,897C588.135,912.033 572.468,926.7 556.5,941C543.833,948.333 531.167,955.667 518.5,963C499.507,985.66 478.84,1006.66 456.5,1026C453.398,1028.04 450.065,1029.04 446.5,1029C440.023,1025.02 434.689,1019.86 430.5,1013.5C438.523,994.665 448.023,976.665 459,959.5C465.955,950.21 473.288,941.21 481,932.5C493,913.167 505,893.833 517,874.5C530.257,856.575 545.59,840.575 563,826.5C569.089,817.995 574.422,808.995 579,799.5C584.494,792.513 589.494,785.18 594,777.5C594.918,774.402 595.418,771.235 595.5,768C593.775,759.235 593.275,750.402 594,741.5C596.071,733.619 598.738,725.952 602,718.5C603.886,714.56 606.386,711.06 609.5,708C619.223,700.611 629.223,693.611 639.5,687C647.585,686.144 655.585,684.811 663.5,683C678.382,676.059 693.382,669.392 708.5,663C715.167,662.333 721.833,662.333 728.5,663C746.493,665.565 764.493,668.232 782.5,671C802.61,673.092 822.276,671.092 841.5,665C857.219,658.281 867.719,646.781 873,630.5C875.655,615.888 879.321,601.555 884,587.5C889.5,575.333 898.333,566.5 910.5,561C930.378,549.709 951.378,541.876 973.5,537.5ZM826.5,991.5C829.965,984.439 834.965,978.606 841.5,974C856.684,964.572 872.351,955.906 888.5,948C906.859,942.619 925.359,937.785 944,933.5C965.725,926.37 986.892,917.87 1007.5,908C1012.77,906.131 1018.11,904.465 1023.5,903C1042.57,900.431 1061.57,897.764 1080.5,895C1093.38,898.738 1106.05,903.071 1118.5,908C1126.14,909.774 1133.81,911.44 1141.5,913C1148.9,916.515 1151.74,922.348 1150,930.5C1146.83,936.333 1142.33,940.833 1136.5,944C1127.17,946.333 1117.83,948.667 1108.5,951C1104.22,952.244 1099.89,952.577 1095.5,952C1090.41,948.289 1084.74,945.956 1078.5,945C1057.22,944.6 1036.22,946.933 1015.5,952C998.533,956.492 981.533,960.825 964.5,965C948.869,966.749 933.202,968.082 917.5,969C904.105,973.132 890.771,977.465 877.5,982C860.239,983.876 843.239,987.043 826.5,991.5Z" style="fill:rgb(41,108,30);fill-opacity:0.89;"/>
                    </g>
                    <g transform="matrix(1.03182,0,0,0.994608,-47.123,9.61402)">
                        <path d="M1005.5,562.5C1017.53,563.184 1027.86,567.684 1036.5,576C1047.47,589.816 1061.8,596.649 1079.5,596.5C1090.97,594.759 1102.3,595.259 1113.5,598C1120.28,601.469 1126.78,605.302 1133,609.5C1136.69,618.464 1133.85,623.798 1124.5,625.5C1111.08,622.479 1097.58,621.812 1084,623.5C1057.12,624.638 1035.28,614.804 1018.5,594C1015.51,591.252 1012.01,589.419 1008,588.5C998.988,589.501 990.988,592.835 984,598.5C982.033,606.422 976.866,610.422 968.5,610.5C957.414,608.889 953.248,602.556 956,591.5C962.401,579.768 971.901,571.601 984.5,567C991.47,564.669 998.47,563.169 1005.5,562.5Z" style="fill:rgb(41,108,30);fill-opacity:0.88;"/>
                    </g>
                    <g transform="matrix(1.03182,0,0,0.994608,-47.123,9.61402)">
                        <path d="M1189.5,689.5C1212.96,691.147 1232.79,700.48 1249,717.5C1260.67,734.502 1268.17,753.168 1271.5,773.5C1269.98,791.534 1260.31,802.7 1242.5,807C1215.85,811.438 1190.19,819.105 1165.5,830C1146.52,836.591 1127.19,838.091 1107.5,834.5C1067.55,842.778 1040.05,828.111 1025,790.5C1022.04,776.276 1024.38,762.943 1032,750.5C1039.46,735.035 1051.3,724.535 1067.5,719C1082.15,717.49 1096.81,716.157 1111.5,715C1121.95,712.407 1132.28,709.407 1142.5,706C1148.45,704.927 1154.45,704.26 1160.5,704C1170.1,698.863 1179.77,694.029 1189.5,689.5ZM1192.5,716.5C1192.39,717.117 1192.06,717.617 1191.5,718C1197.26,721.754 1202.42,726.254 1207,731.5C1210.84,736.838 1212.67,742.838 1212.5,749.5C1211.69,760.866 1210.69,772.199 1209.5,783.5C1220.5,781 1231.5,778.5 1242.5,776C1244.48,773.503 1244.98,770.669 1244,767.5C1241.4,759.025 1238.4,750.692 1235,742.5C1225.93,725.865 1211.76,717.198 1192.5,716.5ZM1145.5,731.5C1143.72,732.6 1141.72,733.434 1139.5,734C1142.96,734.817 1146.3,734.483 1149.5,733C1148.44,731.812 1147.1,731.312 1145.5,731.5ZM1176.5,737.5C1175.55,742.286 1172.88,745.786 1168.5,748C1161.19,750.651 1153.86,753.318 1146.5,756C1136.06,757.462 1125.73,759.462 1115.5,762C1113.32,762.163 1111.49,762.996 1110,764.5C1110.9,776.475 1115.74,786.642 1124.5,795C1129.9,795.227 1135.23,795.894 1140.5,797C1143.66,798.48 1145.5,800.98 1146,804.5C1152.36,804.507 1158.52,803.007 1164.5,800C1169.91,793.584 1175.75,787.417 1182,781.5C1184.35,776.445 1185.68,771.111 1186,765.5C1186.78,758.833 1187.11,752.166 1187,745.5C1184.1,741.975 1180.6,739.308 1176.5,737.5ZM1085.5,742.5C1081.64,743.327 1077.64,744.161 1073.5,745C1063.52,752.434 1056.02,761.934 1051,773.5C1050.33,777.167 1050.33,780.833 1051,784.5C1060.17,805.423 1076.17,814.756 1099,812.5C1095.12,806.2 1091.45,799.534 1088,792.5C1079.55,775.285 1080.72,758.952 1091.5,743.5C1089.6,742.534 1087.6,742.201 1085.5,742.5Z" style="fill:rgb(41,108,30);fill-opacity:0.91;"/>
                    </g>
                    <g transform="matrix(1.03182,0,0,0.994608,-47.123,9.61402)">
                        <path d="M895.5,729.5C920.959,729.305 939.126,740.639 950,763.5C951.647,768.754 952.98,774.087 954,779.5C954.667,790.833 954.667,802.167 954,813.5C951.927,822.905 946.76,830.072 938.5,835C901.569,853.519 862.402,862.352 821,861.5C806.521,861.849 792.354,860.016 778.5,856C771.2,853.2 766.533,848.034 764.5,840.5C742.402,829.242 731.902,811.242 733,786.5C738.808,758.1 755.142,749.1 782,759.5C794.365,754.199 807.198,750.366 820.5,748C837.136,739.605 854.802,735.271 873.5,735C880.885,732.829 888.218,730.996 895.5,729.5ZM898.5,753.5C897.737,754.268 896.737,754.768 895.5,755C896.282,757.74 896.782,760.574 897,763.5C900.52,769.394 902.854,775.727 904,782.5C907.384,798.478 903.55,812.312 892.5,824C902.81,821.897 912.81,818.563 922.5,814C925.735,812.64 928.235,810.473 930,807.5C930.667,799.167 930.667,790.833 930,782.5C927.022,764.69 916.522,755.023 898.5,753.5ZM859.5,766.5C858.791,767.404 857.791,767.737 856.5,767.5C851.74,787.093 839.406,798.593 819.5,802C818.874,802.75 818.374,803.584 818,804.5C817.289,813.37 819.623,821.37 825,828.5C829.153,830.104 833.32,831.771 837.5,833.5C838.167,833.167 838.833,832.833 839.5,832.5C835.788,823.8 838.122,817.3 846.5,813C854.278,811.844 861.945,810.178 869.5,808C873.275,806.558 876.108,804.058 878,800.5C880.207,789.419 878.207,779.086 872,769.5C867.972,767.994 863.806,766.994 859.5,766.5ZM801.5,778.5C798.309,779.092 795.309,780.259 792.5,782C789.402,782.918 786.235,783.418 783,783.5C776.106,782.303 769.273,781.136 762.5,780C758.519,785.94 757.019,792.44 758,799.5C762.466,811.631 770.632,820.131 782.5,825C785.844,830.17 790.51,832.004 796.5,830.5C788.432,812.069 790.099,794.736 801.5,778.5Z" style="fill:rgb(41,108,30);fill-opacity:0.9;"/>
                    </g>
                    <g transform="matrix(1.03182,0,0,0.994608,-47.123,9.61402)">
                        <path d="M1138.5,1050.5C1145.55,1051.05 1150.05,1054.71 1152,1061.5C1155.93,1080.41 1156.43,1099.41 1153.5,1118.5C1153.67,1119.5 1153.83,1120.5 1154,1121.5C1156.49,1123.81 1158.49,1126.48 1160,1129.5C1162.56,1136.63 1164.23,1143.96 1165,1151.5C1166.41,1165.81 1166.74,1180.14 1166,1194.5C1160.53,1202.95 1154.19,1203.61 1147,1196.5C1144.46,1178.58 1142.46,1160.58 1141,1142.5C1140.53,1140.75 1139.86,1139.09 1139,1137.5C1131.6,1135.26 1127.77,1130.26 1127.5,1122.5C1130.35,1103.45 1130.02,1084.45 1126.5,1065.5C1126.91,1057.44 1130.91,1052.44 1138.5,1050.5Z" style="fill:rgb(41,108,30);fill-opacity:0.86;"/>
                    </g>
                    <g transform="matrix(1.03182,0,0,0.994608,-47.123,9.61402)">
                        <path d="M1107.5,1389.5C1117.98,1389.15 1122.14,1394.15 1120,1404.5C1112.84,1419.61 1112.17,1434.94 1118,1450.5C1121.73,1459.01 1125.06,1467.68 1128,1476.5C1128.5,1486.16 1128.67,1495.83 1128.5,1505.5C1137.83,1504.83 1147.16,1504.17 1156.5,1503.5C1164.85,1502.53 1172.01,1504.86 1178,1510.5C1181.75,1517.99 1180.25,1524.16 1173.5,1529C1159.98,1529.53 1146.48,1530.37 1133,1531.5C1111.82,1533.16 1102.32,1523.49 1104.5,1502.5C1104.52,1497.12 1104.86,1491.78 1105.5,1486.5C1102.85,1476.86 1099.35,1467.53 1095,1458.5C1087.21,1436.66 1089.21,1415.66 1101,1395.5C1102.49,1392.69 1104.66,1390.69 1107.5,1389.5Z" style="fill:rgb(41,108,30);fill-opacity:0.87;"/>
                    </g>
                </g>
            </g>
        </g>
    </g>
</svg>
