<?xml version="1.0" encoding="UTF-8" standalone="no"?>
<!DOCTYPE svg PUBLIC "-//W3C//DTD SVG 1.1//EN" "http://www.w3.org/Graphics/SVG/1.1/DTD/svg11.dtd">
<svg width="100%" height="100%" viewBox="0 0 267 64" version="1.1" xmlns="http://www.w3.org/2000/svg" xmlns:xlink="http://www.w3.org/1999/xlink" xml:space="preserve" xmlns:serif="http://www.serif.com/" style="fill-rule:evenodd;clip-rule:evenodd;stroke-linejoin:round;stroke-miterlimit:2;">
    <g id="Монтажная-область2" serif:id="Монтажная область2" transform="matrix(1,0,0,1,-19.8182,-17.0711)">
        <rect x="19.818" y="17.071" width="266.659" height="63.233" style="fill:none;"/>
        <clipPath id="_clip1">
            <rect x="19.818" y="17.071" width="266.659" height="63.233"/>
        </clipPath>
        <g clip-path="url(#_clip1)">
            <g id="Монтажная-область1" serif:id="Монтажная область1" transform="matrix(1,0,0,1,-365.005,-709.922)">
                <rect x="365.823" y="709.993" width="1864.22" height="445.898" style="fill:none;"/>
                <g id="Untitled" transform="matrix(0.14115,0,0,0.141395,333.344,626.543)">
                    <g>
                        <path d="M1639.5,785.12C1633.44,785.632 1626.3,788.054 1618.79,791.47C1608.67,796.072 1597.63,802.793 1587.66,810.797C1572.54,822.916 1555.88,845.654 1542.18,870.019C1528.5,894.334 1517.78,920.292 1515.33,939.456C1514.8,942.792 1514.23,949.985 1513.88,955.953C1512.23,983.702 1524.02,1024.85 1543.21,1061.21C1560.46,1093.52 1586.47,1116.07 1613.68,1120.64C1624.64,1122.44 1634.09,1122.39 1644.4,1119.68C1654.68,1116.97 1665.67,1111.75 1680.22,1103.39C1707.63,1087.57 1724.45,1065.67 1739.17,1026.84C1749.62,999.473 1750.37,951.035 1741.58,912.813C1741.58,912.806 1741.59,912.752 1741.58,912.744C1735.24,885.823 1718.68,848.061 1705.83,832.401C1701.51,827.05 1697.76,823.229 1693.41,820.598C1689.03,817.952 1684.31,816.751 1678.7,816.25C1675.23,815.948 1672.68,815.817 1670.15,816.319C1667.57,816.828 1665.5,817.995 1663.38,819.425C1659.67,821.927 1656.56,825.299 1656.48,829.985C1656.4,834.404 1658.83,838.406 1662.21,842.617C1668.16,850.02 1681.75,875.753 1685.81,887.482C1687.21,891.619 1688.11,894.254 1688.92,896.731C1682.49,893.419 1676.03,891.343 1666.07,889.276C1666.07,889.276 1666.01,889.277 1666,889.276C1649.85,885.967 1612.87,882.17 1594.7,881.891C1590.97,881.839 1589.85,881.801 1587.46,881.753C1588.25,880.145 1588.96,878.6 1590.08,876.576C1593.35,870.64 1597.68,863.629 1600.5,860.01C1608.46,849.808 1614.36,844.764 1629.77,835.093C1637.57,830.25 1644.33,825.49 1649.58,821.288C1654.82,817.089 1658.57,813.64 1660.41,810.245C1663.32,804.9 1662.43,798.894 1659.45,794.3C1656.47,789.712 1651.36,786.241 1645.16,785.258C1643.39,784.978 1641.52,784.949 1639.5,785.12ZM1589.46,919.578C1599.11,919.889 1611.83,920.626 1626.45,921.924C1644.31,923.429 1654.84,924.701 1662.14,926.687C1669.38,928.66 1673.59,931.236 1679.74,936.143C1679.76,936.158 1679.79,936.198 1679.81,936.212C1684.34,939.702 1690.82,946.253 1693.75,950.086C1696.56,953.772 1697.62,955.347 1698.17,957.057C1698.74,958.823 1698.97,961.637 1699.2,967.549C1699.56,974.026 1699.2,985.348 1698.51,992.328C1698.52,992.322 1698.58,992.335 1698.58,992.328C1698.31,994.942 1697.83,999.297 1697.48,1002.75C1695.45,1003.48 1693.24,1004.24 1691.82,1004.75C1666.6,1013.48 1624.99,1012.7 1599.74,1003.03C1587.24,998.235 1580.31,993.51 1574.82,986.53C1572.27,983.185 1567.77,977.862 1564.95,974.52C1564.92,974.484 1564.85,974.486 1564.82,974.451C1562.36,971.729 1561.47,970.368 1561.09,969.343C1560.7,968.314 1560.54,966.787 1560.61,963.2L1560.61,963.131C1560.63,955.65 1565.45,929.772 1568.13,922.684C1568.63,921.354 1569.05,920.853 1569.3,920.613C1569.54,920.39 1569.82,920.198 1570.75,919.992C1570.77,919.989 1570.81,919.926 1570.82,919.923C1573.22,919.368 1579.8,919.266 1589.46,919.578ZM1580.35,1034.92C1592.82,1041.21 1603.58,1044.95 1619.48,1048.17C1638,1051.97 1652.1,1052.66 1671.94,1050.65C1674.38,1050.42 1675.79,1050.35 1677.39,1050.24C1677.25,1050.43 1677.26,1050.45 1677.12,1050.65C1677.11,1050.67 1677.06,1050.71 1677.05,1050.72C1670.99,1059.07 1662.15,1066.47 1647.57,1075.23C1647.57,1075.23 1647.58,1075.29 1647.57,1075.29C1642.32,1078.47 1638.4,1080.62 1635.56,1081.92C1632.69,1083.24 1631.06,1083.52 1630.39,1083.51L1630.32,1083.51C1626.34,1083.49 1619.21,1080.75 1612.17,1076.05C1605.2,1071.41 1598.43,1065.09 1594.29,1059.07C1591.26,1054.64 1586.58,1046.68 1582.83,1039.75C1581.84,1037.91 1581.18,1036.54 1580.35,1034.92Z" style="fill:white;fill-rule:nonzero;"/>
                        <path d="M1518.11,956.223C1516.53,982.692 1528.02,1023.32 1546.95,1059.21C1563.81,1090.77 1588.97,1112.17 1614.38,1116.44C1635.54,1119.92 1649.23,1116.29 1678.09,1099.7C1704.55,1084.43 1720.67,1063.66 1735.2,1025.34C1745.16,999.231 1746.07,951.256 1737.44,913.74C1731.26,887.492 1714.65,849.798 1702.56,835.066C1694.15,824.666 1688.84,821.406 1678.35,820.468C1671.6,819.881 1669.64,820.296 1665.72,822.939C1659.19,827.345 1659.05,831.916 1665.5,839.951C1672.07,848.126 1685.5,873.709 1689.8,886.118C1696.74,906.683 1697.03,905.762 1687.08,900.557C1681.02,897.42 1675.05,895.507 1665.18,893.458C1649.51,890.249 1612.38,886.418 1594.64,886.145C1587.96,886.052 1582,885.953 1581.43,885.863C1579.87,885.615 1590.94,865.368 1597.16,857.407C1605.39,846.864 1611.96,841.256 1627.5,831.508C1642.85,821.973 1654.22,812.773 1656.69,808.208C1660.8,800.64 1654.6,791.072 1644.51,789.472C1633.56,787.737 1609.69,798.582 1590.32,814.13C1561.61,837.143 1524.1,903.735 1519.5,940.121C1519.03,943.07 1518.46,950.354 1518.11,956.223ZM1564.17,921.21C1565.42,917.903 1566.96,916.454 1569.83,915.821C1576.03,914.386 1597.34,915.104 1626.8,917.719C1662.6,920.736 1669.72,922.71 1682.4,932.82C1687.33,936.625 1693.86,943.222 1697.12,947.486C1702.67,954.773 1702.98,955.549 1703.44,967.349C1703.82,974.179 1703.48,985.49 1702.77,992.751L1701.42,1005.84L1693.23,1008.77C1666.87,1017.89 1624.59,1017.11 1598.22,1007.01C1585.3,1002.06 1577.53,996.836 1571.47,989.104C1569.06,985.941 1564.51,980.626 1561.69,977.277C1556.73,971.776 1556.23,970.366 1556.36,963.133C1556.39,954.674 1561.15,929.195 1564.17,921.21ZM1580.39,1030.29C1593.45,1037.08 1603.81,1040.66 1620.33,1044C1638.53,1047.73 1651.98,1048.41 1671.53,1046.43C1686.18,1045.01 1686.44,1045.17 1680.51,1053.18C1673.98,1062.18 1664.59,1070 1649.77,1078.89C1639.13,1085.31 1633.78,1087.84 1630.29,1087.77C1619.37,1087.73 1599.87,1074.73 1590.75,1061.44C1584.37,1052.08 1572.19,1029.6 1572.51,1027.59C1572.5,1026.75 1575.55,1027.71 1580.39,1030.29Z" style="fill:white;fill-rule:nonzero;"/>
                        <path d="M1807.39,818.571C1799.21,825.197 1795.9,832.707 1791.26,855.457C1776.24,930.113 1774.26,1018.24 1786.85,1052.26C1795.24,1074.57 1810.26,1086.27 1830.36,1086.27C1854.21,1086.27 1872.32,1074.57 1902.8,1039.89L1922.46,1017.58L1924.23,1048.06C1926.44,1088.26 1931.52,1105.93 1944.55,1118.74C1952.5,1126.91 1955.15,1128.24 1963.1,1128.24C1970.61,1128.24 1973.93,1126.91 1979.01,1121.83C1986.74,1114.1 1986.96,1109.46 1981.22,1086.71C1974.59,1061.31 1972.16,1036.13 1972.16,996.817C1972.16,960.152 1977.02,894.994 1981.22,874.673C1984.97,855.899 1980.33,842.426 1967.08,834.474C1953.61,826.081 1933.51,830.498 1927.1,842.867C1925.56,846.181 1923.35,857.224 1922.46,867.605C1920.7,890.135 1905.68,938.064 1892.2,965.232C1884.69,980.031 1878.51,987.982 1859.73,1007.2C1846.92,1020.45 1835.22,1031.05 1833.67,1031.05C1823.29,1031.05 1828.59,927.021 1842.73,853.469C1846.48,834.032 1844.49,824.977 1835,818.129C1828.15,813.491 1813.35,813.712 1807.39,818.571Z" style="fill:white;fill-rule:nonzero;"/>
                        <path d="M1842.51,729.892C1821.08,737.844 1816.66,764.791 1834.33,777.381C1840.96,782.019 1844.49,782.461 1886.68,784.007C1936.38,785.553 1943.22,784.449 1948.3,773.405C1952.06,764.791 1951.18,759.931 1944.55,752.422C1935.94,742.703 1886.68,728.346 1862.38,728.567C1853.33,728.567 1844.27,729.23 1842.51,729.892Z" style="fill:white;fill-rule:nonzero;"/>
                        <path d="M2130.15,795.52C2095.03,809.877 2066.53,835.057 2049.97,867.304C2034.06,897.564 2031.41,922.744 2041.57,942.623C2045.99,950.795 2064.77,968.023 2075.81,973.766C2080.89,976.196 2084.87,979.067 2084.42,979.951C2083.54,982.159 2060.57,1020.81 2044.67,1047.32C2029.65,1072.06 2027.44,1080.23 2032.96,1091.71C2042.68,1112.03 2069.63,1110.71 2083.32,1089.28C2086.41,1084.65 2095.69,1067.86 2104.3,1052.18C2117.78,1027.22 2143.18,989.448 2148.7,985.914C2149.8,985.472 2151.35,1002.48 2152.01,1024.13C2154.44,1088.62 2158.42,1107.62 2171.01,1114.02C2176.75,1116.89 2179.18,1117.11 2185.58,1115.13C2200.16,1110.27 2200.6,1107.84 2202.15,1022.36C2202.81,980.392 2204.8,934.45 2206.35,920.314C2209.88,888.508 2207.89,870.176 2196.19,834.394C2181.39,788.01 2168.14,780.28 2130.15,795.52ZM2151.35,863.77C2153.56,873.931 2155.55,889.613 2155.55,898.669L2155.55,915.455L2137.43,927.161C2120.21,938.205 2118.88,938.647 2111.37,936.438C2107.17,935.113 2099.89,930.916 2095.25,927.161C2087.52,920.756 2086.85,919.431 2088.18,912.363C2090.61,899.773 2101.87,879.232 2113.14,867.304C2122.41,857.144 2144.06,842.346 2146.27,844.554C2146.71,844.996 2148.92,853.61 2151.35,863.77Z" style="fill:white;fill-rule:nonzero;"/>
                        <path d="M1176.64,804.165C1163.39,812.337 1144.61,845.91 1126.94,893.619C1090.5,991.908 1072.17,1083.13 1084.31,1106.32C1091.6,1120.24 1106.84,1125.54 1122.08,1119.13C1131.58,1115.16 1136.44,1105.66 1136.66,1090.86C1136.66,1084.45 1139.53,1067.23 1142.62,1052.65L1148.59,1026.14L1170.68,1024.82C1182.82,1023.93 1202.48,1023.27 1214.41,1023.05L1235.83,1022.83L1234.51,1028.79C1233.85,1032.33 1232.3,1038.73 1230.97,1043.59C1226.78,1060.16 1224.79,1089.76 1227.22,1098.81C1232.74,1119.57 1252.4,1126.64 1267.64,1113.39C1276.47,1105.44 1276.25,1106.32 1283.32,1058.83C1298.78,955.022 1280.89,869.985 1234.51,826.031C1208.22,801.072 1191.88,794.888 1176.64,804.165ZM1208.67,883.017C1225.67,907.534 1234.95,930.726 1237.16,954.138L1238.48,968.716L1206.46,968.937C1188.79,969.158 1171.78,969.821 1168.91,970.704L1163.39,972.029L1167.8,955.905C1176.42,925.204 1196.08,870.427 1198.51,870.427C1199.17,870.427 1203.81,876.17 1208.67,883.017Z" style="fill:white;fill-rule:nonzero;"/>
                        <path d="M1444.56,813.662C1436.17,822.055 1435.5,825.589 1433.52,886.993C1432.41,916.59 1431.53,924.983 1428.88,926.971C1425.56,929.621 1397.51,934.481 1386.25,934.481L1379.84,934.481L1378.52,890.747C1377.86,866.23 1375.87,843.48 1374.32,838.621C1367.25,816.313 1339.2,814.987 1328.82,836.412C1326.17,841.713 1325.73,857.837 1326.17,926.75C1326.39,1001.63 1324.85,1046.68 1320.65,1084.68C1319.32,1095.94 1319.77,1097.71 1325.29,1104.11C1329.93,1109.63 1332.8,1111.18 1339.42,1111.18C1350.69,1111.18 1356.21,1106.54 1361.29,1092.85C1366.15,1079.82 1371.89,1047.79 1373.88,1021.73C1376.09,992.571 1376.09,992.35 1386.69,990.804C1391.77,990.141 1403.04,987.932 1411.43,985.944C1420.04,983.957 1427.11,982.852 1427.33,983.294C1427.55,983.736 1428.22,1006.04 1428.66,1032.77C1429.76,1085.34 1431.09,1091.52 1441.47,1097.04C1456.49,1104.77 1470.84,1095.94 1474.16,1076.94C1477.69,1058.17 1485.2,994.338 1487.63,964.299C1488.96,948.396 1491.39,930.726 1493.37,924.983C1496.24,916.369 1496.69,907.092 1496.02,877.495C1495.36,844.805 1494.7,839.284 1490.06,828.902C1482.99,813 1474.6,806.373 1461.79,806.373C1453.39,806.373 1450.74,807.478 1444.56,813.662Z" style="fill:white;fill-rule:nonzero;"/>
                        <path d="M934.339,811.895C887.514,819.626 871.39,829.123 871.39,849.665C871.39,855.187 872.715,862.255 874.482,865.568C876.47,869.764 877.795,886.993 878.9,926.75C880.446,990.362 886.409,1090.86 889.281,1102.79C895.024,1125.98 922.633,1133.71 935.885,1115.6C942.07,1106.98 944.941,1070.76 943.174,1022.61L941.628,981.306L957.973,978.876C1015.62,970.041 1046.1,957.672 1069.96,933.818C1086.96,916.59 1095.14,900.908 1096.24,882.133C1098.45,848.56 1077.25,827.577 1028.21,814.767C1005.9,809.024 960.844,807.699 934.339,811.895ZM1008.11,866.23C1022.47,868.439 1043.67,876.17 1043.67,879.262C1043.67,880.145 1040.58,885.005 1037.05,890.085C1028.43,901.791 1008.11,915.044 991.325,919.682C974.097,924.541 936.99,930.063 934.781,928.075C933.898,927.192 933.014,913.498 932.572,897.815L932.131,869.323L946.487,866.893C965.262,863.58 990.441,863.359 1008.11,866.23Z" style="fill:white;fill-rule:nonzero;"/>
                        <path d="M729.147,822.055C705.734,828.682 682.542,880.145 664.872,963.857C646.098,1051.99 639.692,1112.06 646.981,1126.42C657.142,1145.64 682.984,1144.09 691.377,1123.55C692.923,1119.79 696.899,1100.14 700.212,1080.04L706.397,1043.15L732.018,1040.72C746.154,1039.18 760.732,1037.63 764.487,1036.97L771.334,1036.08L772.88,1074.96C774.426,1116.48 775.972,1122.44 786.574,1130.84C797.176,1139.23 814.625,1135.26 820.589,1122.89C827.657,1108.75 825.448,995.442 817.055,945.524C808.22,892.956 797.397,869.323 770.892,843.48C760.511,833.541 750.792,824.706 749.246,823.822C743.724,820.951 735.331,820.068 729.147,822.055ZM749.688,900.908C758.523,918.136 769.788,967.391 769.788,988.153L769.788,996.988L758.302,995.442C751.897,994.779 739.97,994.117 731.797,994.117C716.999,994.117 716.778,993.896 716.778,988.374C716.778,971.146 739.528,888.98 743.504,891.41C744.608,892.294 747.479,896.49 749.688,900.908Z" style="fill:white;fill-rule:nonzero;"/>
                        <path d="M403.798,835.087C395.405,840.167 392.534,844.805 390.104,858.721C389,864.684 387.674,924.983 387.454,993.233C386.791,1112.95 387.012,1117.36 391.208,1124.65C393.638,1128.85 399.16,1133.93 403.798,1136.14C411.087,1139.89 413.075,1139.89 421.247,1137.24C436.267,1132.61 437.813,1127.97 440.463,1076.94C442.23,1044.7 442.23,1014.44 440.463,964.74C439.138,927.192 438.476,896.048 439.138,895.607C439.801,894.944 451.065,895.386 464.097,896.711C477.129,898.036 502.75,899.141 520.862,899.141L553.772,899.141L552.447,916.148C551.784,925.646 550.68,944.199 550.017,957.672C549.134,970.925 546.262,1012.23 543.391,1049.34C536.765,1132.38 537.869,1138.57 557.748,1144.53C564.374,1146.52 567.466,1146.3 573.651,1143.43C586.462,1137.24 588.891,1130.4 591.1,1093.95C592.204,1076.06 594.634,1044.48 596.18,1023.93C597.947,1003.17 600.598,966.507 601.923,942.211C603.248,917.915 605.236,891.852 606.561,884.342C609.433,867.997 605.899,858.279 594.634,851.653C588.229,847.677 581.823,847.235 520.199,846.131L452.832,844.805L439.138,837.737C423.456,829.565 413.959,828.902 403.798,835.087Z" style="fill:white;fill-rule:nonzero;"/>
                    </g>
                </g>
            </g>
        </g>
    </g>
</svg>
