<?xml version="1.0" encoding="UTF-8" standalone="no"?>
<!DOCTYPE svg PUBLIC "-//W3C//DTD SVG 1.1//EN" "http://www.w3.org/Graphics/SVG/1.1/DTD/svg11.dtd">
<svg width="100%" height="100%" viewBox="0 0 612 826" version="1.1" xmlns="http://www.w3.org/2000/svg" xmlns:xlink="http://www.w3.org/1999/xlink" xml:space="preserve" xmlns:serif="http://www.serif.com/" style="fill-rule:evenodd;clip-rule:evenodd;stroke-linejoin:round;stroke-miterlimit:2;">
    <g transform="matrix(1,0,0,1,0,-531)">
        <g id="Монтажная-область2" serif:id="Монтажная область2" transform="matrix(0.971836,0,0,1.00958,293.535,-5.74886)">
            <rect x="-302.041" y="531.657" width="628.869" height="817.726" style="fill:none;"/>
            <g transform="matrix(1.02898,0,0,0.990513,-290.792,-651.187)">
                <path d="M-0.5,1738.5L-0.5,1707.5C3.121,1691.76 10.788,1678.26 22.5,1667C31.93,1660.11 41.596,1659.78 51.5,1666C56.506,1670.53 60.673,1675.69 64,1681.5C70.218,1694.6 75.885,1707.94 81,1721.5C86.493,1734.99 94.993,1746.16 106.5,1755C107.793,1755.49 109.127,1755.66 110.5,1755.5C109.27,1748.33 109.27,1741.16 110.5,1734C109.796,1730.87 109.296,1727.71 109,1724.5C104.69,1714.54 100.356,1704.54 96,1694.5C93.518,1679.79 90.852,1665.12 88,1650.5C87.017,1637.74 87.684,1625.08 90,1612.5C93.399,1599.97 97.399,1587.64 102,1575.5C102.971,1553.66 99.304,1532.66 91,1512.5C87.045,1506.88 82.712,1501.54 78,1496.5C73.939,1486.89 72.606,1476.89 74,1466.5C77.195,1448.26 78.029,1429.93 76.5,1411.5C77.476,1388.45 80.976,1365.78 87,1343.5C93.219,1322.56 104.386,1304.73 120.5,1290C129.833,1283.33 139.167,1276.67 148.5,1270C165.905,1265.95 183.572,1263.95 201.5,1264C207.298,1266.23 211.965,1269.9 215.5,1275C233.311,1284.24 251.978,1286.24 271.5,1281C280.898,1278.14 289.231,1273.47 296.5,1267C297.311,1251.2 297.811,1235.37 298,1219.5C302.403,1206.21 311.57,1201.04 325.5,1204C334,1208.5 340.5,1215 345,1223.5C349.273,1231.71 353.273,1240.04 357,1248.5C359.5,1251 362,1253.5 364.5,1256C376.007,1262.59 387.674,1268.92 399.5,1275C416.493,1289.83 425.326,1308.66 426,1331.5C427.139,1334.58 428.472,1337.58 430,1340.5C434.078,1344.98 437.411,1349.98 440,1355.5C443.939,1366.99 447.272,1378.65 450,1390.5C456.337,1400.84 461.337,1411.84 465,1423.5C465.667,1430.17 465.667,1436.83 465,1443.5C460.609,1463.62 461.275,1483.62 467,1503.5C468.963,1514.41 464.463,1520.58 453.5,1522C447.698,1526.8 442.198,1531.97 437,1537.5C436.333,1538.83 436.333,1540.17 437,1541.5C450.98,1569.23 444.814,1591.4 418.5,1608C416.09,1609.56 414.756,1611.73 414.5,1614.5C415,1617.5 415.5,1620.5 416,1623.5C419.022,1630.21 422.022,1636.87 425,1643.5C426.145,1649.73 424.312,1654.9 419.5,1659C414.482,1660.23 409.815,1662.23 405.5,1665C383.004,1668.1 360.67,1672.1 338.5,1677C327.343,1678.11 316.343,1677.28 305.5,1674.5C302.419,1675.03 299.419,1675.86 296.5,1677C288.315,1680.59 280.648,1684.92 273.5,1690C269.338,1690.54 265.172,1691.04 261,1691.5C256.853,1690.88 252.686,1690.54 248.5,1690.5C248.912,1696.55 249.745,1702.55 251,1708.5C255.334,1718.5 258.667,1728.84 261,1739.5C269.797,1742.32 277.631,1746.82 284.5,1753C294.023,1757.34 304.023,1759.84 314.5,1760.5C330.737,1757.64 347.07,1755.47 363.5,1754C371.051,1751.56 378.384,1748.56 385.5,1745C404.713,1739.15 424.213,1734.65 444,1731.5C447.139,1732.43 450.306,1732.59 453.5,1732C457.224,1722.62 460.724,1713.12 464,1703.5C468.588,1689.58 477.422,1679.42 490.5,1673C500.856,1666.1 512.189,1663.1 524.5,1664C545.398,1668.57 559.898,1680.73 568,1700.5C572.154,1709.47 575.154,1718.81 577,1728.5C576.874,1741.01 574.207,1753.01 569,1764.5C561.318,1783.49 549.818,1799.66 534.5,1813C516.5,1819.67 498.5,1826.33 480.5,1833C468.056,1834.78 455.722,1837.11 443.5,1840C432.157,1844.67 420.823,1849.34 409.5,1854C397.415,1852.44 385.249,1851.28 373,1850.5C361.826,1850.82 350.659,1851.32 339.5,1852C327.928,1854.54 316.261,1856.54 304.5,1858C302.395,1859.19 300.728,1860.86 299.5,1863C300.946,1869.07 303.113,1874.9 306,1880.5C307.54,1884.42 309.707,1887.92 312.5,1891C334.822,1890.06 357.155,1889.06 379.5,1888C387.389,1889.85 395.389,1890.85 403.5,1891C408.913,1892.02 414.246,1893.35 419.5,1895C441.386,1891.22 456.219,1899.72 464,1920.5C469.943,1944.12 462.109,1961.62 440.5,1973C423.697,1976.37 407.03,1980.37 390.5,1985C376.492,1986.03 362.492,1986.7 348.5,1987C339.239,1990.2 329.906,1993.2 320.5,1996C311.211,1997.4 301.878,1998.4 292.5,1999C280.177,2003.41 267.51,2006.25 254.5,2007.5C239.464,2005.86 224.464,2004.02 209.5,2002C201.695,1998.93 194.695,1994.6 188.5,1989C173.432,1990.39 162.932,1984.22 157,1970.5C155.205,1964.27 153.872,1957.94 153,1951.5C145.667,1942.17 138.333,1932.83 131,1923.5C126.667,1916.17 122.333,1908.83 118,1901.5C112.786,1898.48 107.286,1895.98 101.5,1894C99.333,1891.83 97.167,1889.67 95,1887.5C85.748,1872.67 76.748,1857.67 68,1842.5C60.177,1834.35 53.51,1825.35 48,1815.5C41.556,1810.69 35.389,1805.52 29.5,1800C21.446,1791.94 14.946,1782.78 10,1772.5C6.167,1761.14 2.667,1749.81 -0.5,1738.5ZM321.5,1231.5C324.471,1234.75 326.971,1238.42 329,1242.5C334.323,1259.48 344.49,1272.65 359.5,1282C368.661,1286.75 377.661,1291.75 386.5,1297C390.391,1301.89 393.891,1307.06 397,1312.5C399.163,1321.8 401.163,1331.14 403,1340.5C407.225,1349.95 412.225,1358.95 418,1367.5C421,1378.5 424,1389.5 427,1400.5C431.606,1409.38 435.939,1418.38 440,1427.5C440.667,1431.83 440.667,1436.17 440,1440.5C438.086,1448.56 436.92,1456.73 436.5,1465C437.698,1477.5 438.531,1490 439,1502.5C427.828,1510 419.161,1519.67 413,1531.5C410.921,1541.49 412.921,1550.49 419,1558.5C420.325,1562.43 420.658,1566.43 420,1570.5C416.5,1579.33 410.333,1585.5 401.5,1589C389.941,1600.41 386.774,1613.91 392,1629.5C393.402,1633.21 394.902,1636.87 396.5,1640.5C396.167,1640.83 395.833,1641.17 395.5,1641.5C373.39,1647.28 351.057,1651.94 328.5,1655.5C321.315,1654.25 314.148,1652.91 307,1651.5C292.45,1654.36 278.95,1659.86 266.5,1668C261.12,1668.6 255.787,1668.26 250.5,1667C246.655,1658.91 240.322,1655.91 231.5,1658C225.35,1661.97 222.35,1667.63 222.5,1675C223.761,1685.44 224.928,1695.94 226,1706.5C231.242,1722.32 235.909,1738.32 240,1754.5C243.644,1762.24 249.811,1765.74 258.5,1765C269.822,1775.34 283.156,1781.67 298.5,1784C307.787,1785.48 317.121,1785.82 326.5,1785C340.046,1782.42 353.713,1780.75 367.5,1780C378.366,1776.57 389.033,1772.57 399.5,1768C409.5,1765.33 419.5,1762.67 429.5,1760C440.394,1758 451.394,1757 462.5,1757C470.368,1753.46 475.868,1747.63 479,1739.5C482.638,1726.24 487.638,1713.58 494,1701.5C501.246,1696.29 509.079,1692.29 517.5,1689.5C531.072,1691.91 540.239,1699.57 545,1712.5C548.027,1718.89 550.193,1725.55 551.5,1732.5C547.02,1752.46 538.52,1770.46 526,1786.5C523.108,1789.06 519.941,1791.22 516.5,1793C504.5,1797.67 492.5,1802.33 480.5,1807C454.787,1809.84 430.453,1817.18 407.5,1829C397.746,1827.61 387.913,1826.44 378,1825.5C366.505,1826.12 355.005,1826.62 343.5,1827C328.251,1830.1 312.917,1832.76 297.5,1835C277.369,1844.72 271.869,1859.88 281,1880.5C285.203,1891.09 291.036,1900.59 298.5,1909C303.495,1912.83 309.162,1914.67 315.5,1914.5C334.546,1914.97 353.546,1913.97 372.5,1911.5C381.031,1913.64 389.698,1914.81 398.5,1915C404.833,1916.67 411.167,1918.33 417.5,1920C422.833,1920.33 428.167,1920.67 433.5,1921C438.87,1926.44 441.037,1932.94 440,1940.5C439.128,1942.61 437.628,1943.95 435.5,1944.5C430.847,1941.84 425.847,1940.34 420.5,1940C408.985,1939.27 397.485,1939.43 386,1940.5C375.892,1939.02 365.726,1938.19 355.5,1938C340.537,1932.99 325.37,1932.16 310,1935.5C303.005,1935.82 295.839,1935.49 288.5,1934.5C281.523,1936.45 279.356,1940.79 282,1947.5C283.214,1949.05 284.714,1950.22 286.5,1951C294.039,1951.94 301.539,1952.77 309,1953.5C324.367,1950.12 339.534,1950.95 354.5,1956C368.194,1956.67 381.861,1957.67 395.5,1959C384.906,1961.76 374.239,1962.59 363.5,1961.5C357.787,1961.52 352.12,1962.02 346.5,1963C336.239,1966.53 325.906,1969.86 315.5,1973C306.146,1973.85 296.813,1974.85 287.5,1976C276.853,1979.54 266.02,1982.37 255,1984.5C242.917,1982.34 230.751,1980.84 218.5,1980C215.382,1978.94 212.382,1977.61 209.5,1976C205.033,1971.6 200.033,1967.93 194.5,1965C190.897,1963.29 187.23,1963.12 183.5,1964.5C181.617,1964.12 180.117,1963.12 179,1961.5C177.638,1953.31 175.638,1945.31 173,1937.5C158.471,1921.96 145.804,1904.96 135,1886.5C127.483,1880.41 119.483,1875.08 111,1870.5C102.748,1857 94.748,1843.33 87,1829.5C79.177,1821.35 72.51,1812.35 67,1802.5C58.026,1794.19 49.026,1785.86 40,1777.5C26.307,1758.41 20.307,1737.08 22,1713.5C23.599,1702.01 28.599,1692.34 37,1684.5C40.659,1687.81 43.326,1691.81 45,1696.5C51.564,1713.53 58.897,1730.2 67,1746.5C76.231,1763.07 89.731,1774.57 107.5,1781C123.783,1783.72 132.949,1776.88 135,1760.5C135.667,1748.83 135.667,1737.17 135,1725.5C134.294,1720.01 132.961,1714.68 131,1709.5C127.061,1701.95 123.394,1694.29 120,1686.5C117.985,1673.77 115.651,1661.11 113,1648.5C112.162,1638.12 112.495,1627.79 114,1617.5C116.926,1605.39 120.259,1593.39 124,1581.5C124.803,1575.51 123.803,1569.85 121,1564.5C120.953,1542.59 115.953,1521.92 106,1502.5C102.045,1496.88 97.712,1491.54 93,1486.5C92.015,1482.74 91.515,1478.9 91.5,1475C93.049,1461.61 94.716,1448.27 96.5,1435C96.043,1434.59 95.709,1434.09 95.5,1433.5C94.587,1401.31 99.42,1369.98 110,1339.5C115.065,1327.88 122.231,1317.71 131.5,1309C140.167,1302.67 148.833,1296.33 157.5,1290C170.106,1287.79 182.773,1286.45 195.5,1286C207.509,1297.46 221.842,1304.12 238.5,1306C258.74,1308.37 278.073,1305.37 296.5,1297C302.5,1293 308.5,1289 314.5,1285C319.045,1280.07 321.545,1274.24 322,1267.5C322.642,1255.49 322.476,1243.49 321.5,1231.5Z" style="fill:rgb(41,108,30);fill-opacity:0.85;"/>
            </g>
            <g transform="matrix(1.02898,0,0,0.990513,-290.792,-651.187)">
                <path d="M329.5,1288.5C334.439,1287.35 337.939,1289.02 340,1293.5C340.667,1300.5 340.667,1307.5 340,1314.5C339.394,1317.55 337.894,1320.05 335.5,1322C326.17,1323.5 316.837,1325.17 307.5,1327C303.833,1327.67 300.167,1327.67 296.5,1327C292.139,1324.77 290.639,1321.27 292,1316.5C293.214,1314.95 294.714,1313.78 296.5,1313C306.072,1310.92 315.739,1309.42 325.5,1308.5C325.334,1303.16 325.501,1297.82 326,1292.5C326.69,1290.65 327.856,1289.32 329.5,1288.5Z" style="fill:rgb(41,108,30);fill-opacity:0.78;"/>
            </g>
            <g transform="matrix(1.02898,0,0,0.990513,-290.792,-651.187)">
                <path d="M304.5,1354.5C315.707,1353.28 326.374,1355.12 336.5,1360C341.167,1362.33 345.833,1364.67 350.5,1367C356.54,1372.71 362.874,1378.04 369.5,1383C374.506,1387.53 378.673,1392.69 382,1398.5C394.604,1405.37 400.104,1416.04 398.5,1430.5C397.821,1445.22 394.321,1459.22 388,1472.5C382.119,1481.87 373.619,1487.37 362.5,1489C341.752,1493.81 321.085,1493.65 300.5,1488.5C298.084,1488.87 295.75,1489.54 293.5,1490.5C289.27,1489.77 286.937,1487.27 286.5,1483C287.198,1479.82 288.532,1476.99 290.5,1474.5C288,1463.83 285.5,1453.17 283,1442.5C279.058,1431.68 275.725,1420.68 273,1409.5C271.517,1400.21 271.184,1390.88 272,1381.5C276.963,1365.37 287.796,1356.37 304.5,1354.5ZM310.5,1373.5C303.611,1373.69 297.777,1376.36 293,1381.5C291.001,1391.54 291.335,1401.54 294,1411.5C301.172,1430.19 305.338,1449.53 306.5,1469.5C318.822,1470.42 331.156,1470.59 343.5,1470C352.212,1469.24 360.546,1467.07 368.5,1463.5C371.138,1459.89 372.971,1455.89 374,1451.5C375.599,1444.57 376.766,1437.57 377.5,1430.5C377.372,1426.73 376.705,1423.06 375.5,1419.5C373.424,1417.71 371.257,1416.05 369,1414.5C368.727,1419.23 368.061,1423.9 367,1428.5C360.749,1446.38 348.249,1453.55 329.5,1450C325.725,1448.56 322.892,1446.06 321,1442.5C318.711,1433.3 318.044,1423.96 319,1414.5C319.667,1413.17 320.333,1411.83 321,1410.5C329.749,1401.71 340.249,1396.54 352.5,1395C341.091,1382.8 327.091,1375.63 310.5,1373.5Z" style="fill:rgb(41,108,30);fill-opacity:0.85;"/>
            </g>
            <g transform="matrix(1.02898,0,0,0.990513,-290.792,-651.187)">
                <path d="M174.5,1389.5C193.417,1386.87 206.584,1394.2 214,1411.5C217.031,1426.99 220.698,1442.32 225,1457.5C230.103,1467.38 236.437,1476.38 244,1484.5C247.234,1490.75 246.068,1496.25 240.5,1501C225.474,1504.51 210.474,1508.17 195.5,1512C184.455,1516.57 173.289,1520.74 162,1524.5C152.509,1522.92 146.175,1517.59 143,1508.5C138.405,1494.12 135.071,1479.45 133,1464.5C129.984,1453.78 125.984,1443.45 121,1433.5C118.391,1427.93 118.058,1422.26 120,1416.5C135.218,1401.49 153.385,1392.49 174.5,1389.5ZM176.5,1408.5C168.017,1410.05 159.683,1412.55 151.5,1416C146.104,1418.23 141.771,1421.73 138.5,1426.5C143.351,1436.88 147.518,1447.55 151,1458.5C153.754,1474.7 157.254,1490.7 161.5,1506.5C167.554,1502.81 173.888,1499.64 180.5,1497C193.052,1492.76 205.385,1488.26 217.5,1483.5C213.919,1478.67 210.585,1473.67 207.5,1468.5C202.886,1477.56 195.386,1481.9 185,1481.5C172.159,1480.66 164.159,1473.99 161,1461.5C158.35,1446.78 162.183,1433.95 172.5,1423C177.062,1421.45 181.396,1419.45 185.5,1417C188.842,1415.65 192.175,1415.32 195.5,1416C191.119,1409.01 184.786,1406.51 176.5,1408.5Z" style="fill:rgb(41,108,30);fill-opacity:0.86;"/>
            </g>
            <g transform="matrix(1.02898,0,0,0.990513,-290.792,-651.187)">
                <path d="M327.5,1536.5C338.71,1535.83 349.71,1537 360.5,1540C369.276,1543.78 375.776,1549.94 380,1558.5C397.227,1590.83 389.06,1613.99 355.5,1628C339.667,1633.49 323.334,1636.15 306.5,1636C283.139,1636.51 259.806,1635.84 236.5,1634C225.701,1633.36 217.535,1628.53 212,1619.5C211.503,1617.19 211.337,1614.86 211.5,1612.5C202.562,1612.73 197.396,1608.4 196,1599.5C193.207,1589.89 194.54,1580.89 200,1572.5C209.178,1557.82 222.345,1548.99 239.5,1546C255.489,1545.07 271.489,1544.4 287.5,1544C300.91,1541.16 314.243,1538.66 327.5,1536.5ZM328.5,1559.5C316.651,1561.7 304.651,1563.87 292.5,1566C277.152,1565 261.819,1565.33 246.5,1567C232.513,1568.35 222.347,1575.18 216,1587.5C215.176,1590.88 215.343,1594.22 216.5,1597.5C220.201,1599.86 221.201,1603.02 219.5,1607C223.488,1609.33 227.821,1610.66 232.5,1611C251.35,1611.91 270.184,1613.08 289,1614.5C303.52,1613.55 318.02,1612.39 332.5,1611C337.658,1610.28 342.658,1608.95 347.5,1607C355.366,1604.17 361.533,1599.34 366,1592.5C366.519,1580.73 362.686,1570.56 354.5,1562C345.987,1559.8 337.32,1558.97 328.5,1559.5Z" style="fill:rgb(41,108,30);fill-opacity:0.85;"/>
            </g>
            <g transform="matrix(1.02898,0,0,0.990513,-290.792,-651.187)">
                <path d="M150.5,1637.5C153.792,1638.06 156.292,1639.72 158,1642.5C161.389,1656.89 164.222,1671.39 166.5,1686C165.424,1692.41 161.757,1694.74 155.5,1693C153.951,1691.79 152.785,1690.29 152,1688.5C149.754,1677.09 147.087,1665.76 144,1654.5C143.333,1650.83 143.333,1647.17 144,1643.5C145.436,1640.56 147.603,1638.56 150.5,1637.5Z" style="fill:rgb(41,108,30);fill-opacity:0.76;"/>
            </g>
            <g transform="matrix(1.02898,0,0,0.990513,-290.792,-651.187)">
                <path d="M519.5,1746.5C528.476,1746.11 531.309,1750.11 528,1758.5C518.875,1773.63 506.542,1785.29 491,1793.5C485.147,1791.97 483.147,1788.31 485,1782.5C491.697,1775.47 498.697,1768.8 506,1762.5C509.341,1756.13 513.841,1750.79 519.5,1746.5Z" style="fill:rgb(41,108,30);fill-opacity:0.76;"/>
            </g>
            <g transform="matrix(1.02898,0,0,0.990513,-290.792,-651.187)">
                <path d="M128.5,1817.5C133.74,1816.54 137.907,1818.21 141,1822.5C146.501,1832.17 152.501,1841.51 159,1850.5C162.44,1857.05 165.606,1863.71 168.5,1870.5C179.054,1872.54 186.554,1878.54 191,1888.5C192.584,1895.75 194.917,1902.75 198,1909.5C205.298,1916.31 212.965,1922.64 221,1928.5C221.904,1938.23 217.737,1941.06 208.5,1937C198.506,1932 190.006,1925.17 183,1916.5C179.691,1907.93 176.691,1899.26 174,1890.5C168.562,1888.48 163.228,1886.14 158,1883.5C149.016,1864.2 138.016,1846.2 125,1829.5C123.593,1824.64 124.76,1820.64 128.5,1817.5Z" style="fill:rgb(41,108,30);fill-opacity:0.81;"/>
            </g>
        </g>
    </g>
</svg>
