<?xml version="1.0" encoding="UTF-8"?>
<svg width="556px" height="1003px" viewBox="0 0 556 1003" version="1.1" xmlns="http://www.w3.org/2000/svg" xmlns:xlink="http://www.w3.org/1999/xlink">
    <title>Group 2</title>
    <defs>
        <rect id="path-1" x="0" y="0" width="96" height="374"></rect>
    </defs>
    <g id="Page-1" stroke="none" stroke-width="1" fill="none" fill-rule="evenodd">
        <g id="iPhone-11" transform="translate(15.000000, 70.000000)">
            <g id="Group-2" transform="translate(-15.000000, -70.000000)">
                <g id="rex_image" transform="translate(48.000000, 816.000000) scale(-1, 1) translate(-48.000000, -816.000000) translate(0.000000, 629.000000)">
                    <rect id="Rectangle" x="0" y="0" width="96" height="374"></rect>
                    <g id="Clipped">
                        <mask id="mask-2" fill="white">
                            <use xlink:href="#path-1"></use>
                        </mask>
                        <g id="Rectangle"></g>
                        <g id="Group" mask="url(#mask-2)">
                            <g transform="translate(-116.375798, 2.252562)">
                                <g transform="translate(117.934920, -0.000000)" fill-opacity="0.91">
                                    <path d="M93.9917297,0 L93.9917297,6.39460129 C90.0232555,6.23405113 86.0570699,6.34824044 82.0908843,6.73716922 C77.5777176,7.34808202 73.0782826,8.03321788 68.5880021,8.79257678 C63.3996912,9.15935284 58.2113804,9.54006 53.0253582,9.93446987 C49.9723336,10.289827 47.1504601,11.2793915 44.557449,12.9033919 C38.6070263,16.4811713 33.6109598,21.0868829 29.566961,26.7202983 C27.2073896,31.3107085 26.9785272,36.0306094 28.8803738,40.8797726 C29.8782139,43.3021846 31.6702066,44.7866456 34.2586405,45.3331556 C35.7668438,45.6679587 37.293356,45.8972508 38.8358887,46.0182915 C43.6809059,46.0274266 48.5259232,45.9132373 53.3686518,45.6757235 C57.4149392,45.1365216 60.3123373,46.6600354 62.0654234,50.2432959 C62.4178715,51.577027 62.8755963,52.86965 63.4385978,54.1257324 C64.3334499,56.7794919 63.5324314,58.7207102 61.0355425,59.9493871 C56.0898258,61.1963344 51.1303774,62.4135924 46.1594858,63.603445 C43.0538229,64.6105947 40.003087,65.7524878 37.0049894,67.0291243 C35.6775874,67.9357874 34.4577508,68.9634912 33.3431908,70.1122356 C35.1603584,71.379737 35.3136962,72.7865492 33.8009156,74.3372401 C31.9265325,74.7643081 30.0956332,74.5747538 28.3082178,73.7662935 C25.0995668,76.1688366 22.3143113,78.9847449 19.9547398,82.2163024 C18.9935177,83.7647094 18.6136061,85.4410084 18.8104277,87.240632 C21.1196495,90.860433 22.8750242,94.7428695 24.0742632,98.8879415 C24.1886944,99.3058743 24.4564634,99.5730773 24.8752816,99.6872666 C26.5528431,99.8402803 28.2326932,99.8402803 29.9102547,99.6872666 C33.5812077,98.8468333 37.2819129,98.2758868 41.0100816,97.974427 C43.9646953,98.6001844 46.901,99.3241446 49.8212844,100.144024 C53.3205907,101.048403 55.419259,103.295649 56.1150007,106.881193 C57.5568339,110.80017 57.7101717,114.760255 56.5727255,118.756881 C55.6389669,120.394356 54.645704,121.993006 53.5975142,123.552832 C53.1375007,127.03789 52.9086383,130.538934 52.9109269,134.058249 C52.0252294,137.990928 49.5832675,139.817957 45.5873298,139.539335 C41.202326,139.386322 36.8150336,139.272132 32.4277412,139.196767 C29.9514499,138.781118 27.777257,137.753415 25.9051625,136.113656 C25.0927009,139.525633 23.3762328,142.380365 20.7557582,144.677854 C19.6823935,145.32645 18.5380815,145.822031 17.3228221,146.162315 C16.1693555,148.087547 14.4895054,148.772683 12.287849,148.217723 C12.6013905,149.503494 12.3725281,150.684212 11.6012618,151.757591 C14.1073052,153.502404 16.8536541,154.683122 19.8403086,155.29746 C20.7992421,155.171852 21.7146917,154.906933 22.5866575,154.498135 C25.0354853,153.200944 27.4751586,151.906038 29.9102547,150.615698 C32.0226547,149.645089 34.2357542,149.265981 36.5472646,149.473805 C38.5520993,150.156657 39.6575047,151.565753 39.8657695,153.69881 C39.9733349,156.441637 39.8955216,159.18218 39.6369071,161.92044 C39.1036577,163.126279 39.0258445,164.343537 39.4080447,165.574498 C39.4469513,168.125487 39.4835693,170.674192 39.5224759,173.225182 C39.4652603,178.372836 39.3508291,183.511354 39.1791823,188.640738 C39.7719359,191.328755 40.4585232,193.991649 41.238944,196.63399 C44.3674932,206.682649 47.4937537,216.731308 50.6223028,226.779967 C53.0070492,233.592502 56.2866475,239.911738 60.4633865,245.735393 C61.4864015,246.984624 62.5918069,248.163057 63.7818915,249.275261 C67.407072,251.501953 70.9910574,253.785739 74.5384248,256.12662 C76.8957076,258.097527 79.1843317,260.152935 81.4042971,262.292842 C85.7755691,265.540386 89.9706171,269.00489 93.9917297,272.68407 L93.9917297,282.961107 C90.1651502,280.019591 86.5033516,276.861114 83.006334,273.483395 C78.5343625,270.16277 74.2615013,266.58636 70.190039,262.7496 C66.2604714,260.294529 62.3698104,257.782365 58.518056,255.213105 C54.6868993,251.184506 51.4462075,246.731123 48.7914036,241.852956 C46.9101545,237.794668 45.1570685,233.683853 43.5275681,229.520511 C42.4610693,225.188168 41.165708,220.926623 39.6369071,216.731308 C37.6732676,208.516529 35.4624568,200.372548 32.9998972,192.294796 C32.2309195,188.275332 32.0775817,184.242166 32.5421724,180.190729 C32.5970994,176.150712 32.6337174,172.115261 32.6566036,168.086663 C32.3339076,166.762067 31.953996,165.469444 31.5122915,164.204226 C31.7983696,162.870495 32.2194764,161.575588 32.7710348,160.32179 C32.9243726,159.104532 32.9243726,157.88499 32.7710348,156.667732 C29.4983023,158.967504 25.950935,160.755709 22.1289327,162.034629 C18.6731103,162.614711 15.3935119,162.082589 12.287849,160.435979 C9.8069805,158.930964 7.28949398,157.485327 4.73538948,156.096785 C3.48808934,155.149014 2.3071593,154.12131 1.18802211,153.013674 C-0.93582106,149.782116 -0.212615842,147.46179 3.36221501,146.048126 C2.44447675,144.666435 2.06227652,143.14315 2.21790296,141.480554 C2.430745,136.650346 4.87270693,134.976331 9.54150011,136.456224 C10.8139751,137.116238 11.9582872,137.954388 12.9744363,138.968389 C14.3727856,139.176213 15.7459601,139.100848 17.0939597,138.74001 C17.810299,137.88359 18.382455,136.931252 18.8104277,135.885278 C19.3436772,133.905235 19.8792152,131.927476 20.4124646,129.947433 C21.9916153,126.841484 24.319146,126.117524 27.3927681,127.777837 C28.4615556,128.91973 29.5280544,130.061623 30.5968419,131.203516 C31.2468111,131.642003 31.9333984,132.023395 32.6566036,132.345409 C37.1560386,132.459598 41.6577622,132.498423 46.1594858,132.459598 C46.0816726,128.988243 46.2716284,125.562564 46.7316419,122.18256 C46.9078659,121.371816 47.2145415,120.611316 47.6470915,119.898774 C48.6197567,118.491962 49.5352064,117.044042 50.3934404,115.559581 C50.6566322,112.57924 50.0844762,109.763331 48.6769723,107.109572 C46.3036691,106.76472 44.015045,106.118408 41.8111,105.168353 C40.4379256,105.01534 39.0647511,105.01534 37.6915766,105.168353 C33.9977373,105.995084 30.2581255,106.488382 26.4773185,106.652814 C23.1748339,106.66195 20.5429162,105.367043 18.5815653,102.770378 C17.4830258,99.8585506 16.3387137,96.9672773 15.1486292,94.0919905 C14.5764731,92.9478136 13.8898859,91.8835692 13.0888675,90.8946898 C12.0177914,89.1293231 11.6355912,87.2246454 11.9445554,85.1852244 C12.3839712,81.8326263 13.7205277,78.9025286 15.9496476,76.3926476 C13.88302,74.2892805 13.615251,71.9689538 15.1486292,69.4270998 C16.3410023,67.5521113 17.9064212,66.0676503 19.8403086,64.9737167 C22.3806814,64.3799323 24.6326875,64.9508789 26.5917497,66.6865564 C28.9742074,65.0719195 31.2239249,63.2814312 33.3431908,61.3196588 C34.3707831,60.8446313 35.3640459,60.3125091 36.3184022,59.7210085 C35.7302258,59.1340755 35.1580697,58.5631289 34.6019341,58.0081689 C29.6974126,59.0815484 25.0835464,60.869753 20.7557582,63.3750664 C19.7350319,64.3182701 18.5518132,64.9668654 17.2083909,65.3162847 C14.6497091,64.7773111 13.7342595,63.2540257 14.4620419,60.7487123 C17.3136676,55.6581529 21.0898974,51.3966079 25.7907313,47.9595097 C21.9046475,42.7241583 20.3415173,36.8623643 21.0990519,30.3743562 C21.5705084,27.8377548 22.4859581,25.4776902 23.8454008,23.294619 C26.2782082,19.7826126 29.0611751,16.5474011 32.1988788,13.5885278 C36.4328334,9.98996587 41.0856062,7.02104384 46.1594858,4.68176166 C47.6493801,4.16083004 49.1758924,3.78012288 50.736734,3.53986857 C56.0554965,3.35396838 61.3948565,3.12558976 66.7571028,2.85473272 C71.9362592,2.03439673 77.1222814,1.27298241 82.3197467,0.570946544 C86.2012532,0.211935357 90.0919142,0.0216959687 93.9917297,0 Z M30.5968419,50.9284317 C31.5237347,51.2504456 32.4391843,51.5930135 33.3431908,51.9561355 C31.7480198,52.5247983 30.1459829,52.9815555 28.5370802,53.3264072 C29.3564076,52.6230011 30.0429949,51.8236759 30.5968419,50.9284317 Z M44.7863114,56.8662758 C45.5690208,55.4023689 45.2646338,54.2239352 43.8708617,53.3264072 C42.9554121,53.136853 42.0399624,52.9450149 41.1245128,52.7554607 C46.0038594,52.3649332 50.8854946,52.2895683 55.7717071,52.5270821 C56.1745049,52.997542 56.2500295,53.4931236 56.0005695,54.0115431 C52.2678236,55.0004225 48.5305004,55.9504775 44.7863114,56.8662758 Z M21.4423455,70.1122356 C21.9366883,70.2378439 21.8977817,70.4662225 21.3279143,70.7973715 C21.2203489,70.5507226 21.2592555,70.322344 21.4423455,70.1122356 Z" id="Shape" fill="#296C1E"></path>
                                </g>
                                <g transform="translate(180.857448, 17.407961)" fill-opacity="0.91">
                                    <path d="M31.0692013,17.0772107 L31.0692013,30.7799278 C28.9934193,32.881011 26.4759327,34.1370934 23.5167418,34.5481749 C20.2897818,34.7971076 17.085708,34.6463777 13.9045205,34.0914177 C7.95180922,32.18674 4.32891725,28.1907994 3.03355601,22.1015403 C2.72688038,20.1219544 2.95574279,18.218647 3.72014324,16.3920748 C4.06343686,15.7450782 4.56006829,15.2501818 5.20774891,14.9076138 C3.31963402,13.4800191 1.75421513,11.7671795 0.51606949,9.76909493 C-0.543563472,7.03494612 0.0285925546,4.71324909 2.23253757,2.80354709 C8.26763934,-0.972236599 14.2569686,-0.93409737 20.1982368,2.9177364 C20.6925796,2.57859415 21.1869224,2.23602622 21.6858425,1.89003262 C24.203329,1.58560392 25.2332099,2.68935778 24.775485,5.20152257 C24.5374681,5.71446095 24.2696991,6.20935741 23.9744666,6.68598359 C24.5740861,7.31151262 25.1462421,7.95873762 25.6909347,8.62720184 C27.4897932,11.4586399 29.2817859,14.2752334 31.0692013,17.0772107 Z M10.4715844,6.34341566 C13.0943476,6.21301147 15.3074471,7.08838671 17.1085943,8.96976976 C15.6827815,12.2513421 14.5750874,15.6391105 13.7900893,19.1326183 C13.0325547,18.0345739 12.2315363,16.9687308 11.387034,15.9353176 C14.0143745,15.1761871 15.0442553,13.5014867 14.4766765,10.910988 C13.9891996,10.2678738 13.3392304,9.96344513 12.5313461,9.99747354 C11.5701239,10.3573982 10.5768611,10.4715876 9.55613472,10.3400415 C8.35918431,9.6679232 7.44373466,8.71649788 6.80978579,7.48530875 C8.01131344,6.95866766 9.23115009,6.5779605 10.4715844,6.34341566 Z M21.2281177,14.1082887 C23.8691899,17.2852636 25.7000892,20.9014106 26.7208155,24.956273 C26.2997087,26.0138944 25.5375969,26.7750803 24.4321914,27.2400592 C22.9422971,27.7066367 21.4180735,27.8968761 19.8549432,27.8110057 C19.4658771,23.1616738 19.9236019,18.5941015 21.2281177,14.1082887 Z M11.6158964,24.1569478 C12.7785175,24.2699953 13.3895801,24.8788526 13.4467957,25.9839768 C12.7602085,25.4511695 12.1491458,24.8420837 11.6158964,24.1569478 Z" id="Shape" fill="#296C1E"></path>
                                </g>
                                <g transform="translate(157.936790, 298.719232)" fill-opacity="0.9">
                                    <path d="M53.9898593,0 L53.9898593,11.4189309 C50.9528551,13.275649 47.7487813,14.8377588 44.377638,16.1006925 C43.4621884,16.6328147 42.5467387,17.1672207 41.6312891,17.6993429 C37.7429167,21.3534008 33.2411931,24.0185792 28.1284069,25.6925945 C24.645121,28.1796376 21.5165718,31.0709109 18.745048,34.370982 C17.4817275,35.5174426 16.1840776,36.6205113 14.854387,37.6824719 C13.5521599,40.00965 12.0256476,42.1792469 10.2771388,44.1912625 C16.0902441,47.6626175 22.2695291,50.327796 28.8149941,52.1845141 C32.98029,53.0774745 37.0998134,54.1417189 41.1735643,55.3818148 C45.4098075,57.4577764 49.6826687,59.4743596 53.9898593,61.4338482 L53.9898593,68.9703425 C52.1932894,68.4564906 50.4379147,67.8078954 48.7260238,67.0291243 C45.2404493,65.02396 41.6541753,63.1969311 37.9694905,61.5480375 C29.302471,59.6296571 20.912375,56.8891137 12.7946253,53.3264072 C8.29061309,51.2504456 4.2855209,48.4733616 0.779348771,44.9905877 C-0.177296106,43.5152618 -0.252820701,41.9919764 0.55048636,40.4230153 C1.87788834,39.1692167 3.44101861,38.7512838 5.24216578,39.1669329 C6.75494632,37.3513229 8.0915028,35.4101047 9.24725797,33.3432782 C13.4743467,29.5065174 17.6327767,25.5852565 21.7202594,21.5817794 C22.635709,20.9720085 23.5511586,20.3645213 24.4666083,19.7547504 C27.0687739,18.7887089 29.5862604,17.6468158 32.0190678,16.3290712 C34.5479975,14.3376096 37.1432972,12.4352157 39.8003898,10.6196057 C42.8511257,9.09632034 45.9041503,7.57531875 48.9548862,6.05203337 C50.6873747,4.05828804 52.3672248,2.04170484 53.9898593,0 Z" id="Path" fill="#296C1E"></path>
                                </g>
                                <g transform="translate(0.000000, 353.055109)" fill-opacity="0.89">
                                    <path d="M70.7185421,0.0182341536 C71.7337758,-0.0479956456 72.7256655,0.0661936633 73.6937535,0.36080208 C78.461873,2.69939913 82.96291,5.43994254 87.1966357,8.58243232 C97.540759,14.4243574 107.305631,21.0473373 116.491024,28.4513721 C121.070561,33.3295393 126.181059,37.5157194 131.824806,41.012196 C136.971921,43.6956448 142.084708,46.4361882 147.158587,49.2338263 C149.541045,50.5447195 151.486376,52.3329241 152.994579,54.6007238 C153.813906,56.146847 153.62395,57.5559431 152.422423,58.8257282 C151.539014,59.6090669 150.545751,60.2188378 149.447211,60.6527571 C148.293745,60.6322031 147.149433,60.6687436 146.014275,60.7669465 C146.9549,61.0410008 147.870349,61.3835687 148.760624,61.7946502 C149.763042,63.1626382 149.64861,64.4187206 148.417331,65.5628974 C148.936848,72.1105124 149.545622,78.6581274 150.24823,85.2034585 C150.474804,88.0924481 150.625853,90.9860051 150.705955,93.881846 C152.037934,95.1447798 152.074552,96.4396865 150.820386,97.7642825 C150.216189,108.829227 149.605127,119.866765 148.989487,130.879182 C149.879761,130.168925 150.870736,129.636802 151.964698,129.280532 C153.996996,129.74414 154.720201,130.961398 154.138891,132.93459 C152.198138,134.588051 150.213901,136.186701 148.188468,137.730541 C147.803979,139.420542 147.346255,141.094558 146.815294,142.75487 C146.183633,144.650413 144.92489,145.296724 143.039064,144.696088 C142.608803,144.344385 142.265509,143.924169 142.009183,143.440006 C127.574831,157.907791 113.27093,172.485199 99.0974811,187.174511 C95.977171,189.871663 92.7730972,192.461476 89.4852598,194.939384 C89.125717,195.640507 88.7824234,196.364467 88.455379,197.108981 C88.0434266,197.52463 87.5477107,197.789549 86.9677733,197.908306 C83.0150906,198.534064 81.6036961,196.974238 82.7338187,193.226545 C86.3473273,190.458596 89.8946947,187.603863 93.3759208,184.662347 C95.4356825,182.910683 97.342793,181.008289 99.0974811,178.952881 C97.8611663,178.925476 96.9837079,178.354529 96.4655634,177.240041 C96.3124544,164.592434 95.8547296,151.956245 95.0923889,139.329191 C89.9361188,144.399196 84.7102745,149.384701 79.4153138,154.28799 C81.1793852,155.034788 82.8196421,155.987127 84.3358556,157.142723 C85.1139878,158.622617 84.7706942,159.80105 83.3059747,160.682592 C82.6955987,160.835605 82.0854515,160.835605 81.4750755,160.682592 C79.9979975,159.926658 78.5103918,159.202698 77.0122584,158.512995 C77.0150048,167.536234 77.6253808,176.520649 78.8431577,185.461672 C79.7972851,187.97612 80.4458812,190.56365 80.7884882,193.226545 C80.4738024,195.213439 79.3294904,195.935115 77.3555521,195.396142 C76.1867517,194.400411 75.3857333,193.144328 74.9524967,191.627894 C73.0062508,186.487092 72.01459,181.156735 71.9772854,175.641391 C71.5545765,169.329006 71.2492741,163.00977 71.0618358,156.685966 C64.7953541,154.90918 58.4254266,153.616557 51.9518245,152.803529 C51.8419705,163.167351 51.9564017,173.519754 52.2951181,183.863021 C58.404829,186.167362 64.0883981,189.213932 69.3453677,192.998166 C70.652172,194.498614 70.4997497,195.830061 68.8876429,196.994792 C68.2010556,197.147806 67.5144684,197.147806 66.8278812,196.994792 C56.3681824,191.611908 45.4589979,187.348079 34.1005564,184.205589 C27.179986,182.44479 20.2376736,180.768491 13.274077,179.18126 C12.0054927,178.852395 10.7849695,178.395637 9.61227847,177.810988 C7.77039379,176.175797 7.54153138,174.348768 8.92569124,172.329901 C7.68228176,171.88913 6.99569453,171.012157 6.86592954,169.703547 C7.10394645,168.262478 7.14216647,166.816841 6.98036074,165.364353 C6.432693,159.718834 5.78409692,154.084733 5.03503025,148.464336 C4.95881907,148.311322 4.88237902,148.160592 4.80616784,148.007578 C2.80407947,147.454902 1.58332737,146.162279 1.14436927,144.125142 C1.47347342,142.359775 2.54157429,141.599274 4.34844302,141.841356 C3.36021513,127.869152 1.94882064,113.938056 0.114488421,100.048069 C-0.038162807,97.0791467 -0.038162807,94.1102246 0.114488421,91.1413026 C0.800389066,87.868637 1.4869763,84.5959714 2.17425012,81.321022 C3.25882908,80.0466694 4.51757234,79.8548313 5.9504799,80.7500755 C6.17018781,81.0743731 6.3608302,81.4169411 6.52263592,81.7777793 C6.67528715,83.2234159 6.67528715,84.6713364 6.52263592,86.116973 C5.74335941,88.9191787 5.32362575,91.7739114 5.26389266,94.6811712 C5.75251391,101.215083 6.4770923,107.723874 7.43808557,114.207543 C8.52014704,112.860109 9.85510149,112.517541 11.4431778,113.179839 C12.0560713,113.600056 12.4375849,114.171002 12.5874898,114.892679 C15.4720716,115.294625 18.3710718,115.523004 21.2842614,115.577815 C20.9011457,109.244876 20.3672097,102.925639 19.6822245,96.6223894 C19.5687088,94.9049822 20.255296,93.6488998 21.7419862,92.8541422 C23.2362289,92.6280474 24.7238346,92.3631282 26.2048032,92.0548171 C28.1988814,92.5321284 28.8854687,93.7516702 28.2645649,95.708875 C27.5514297,96.5036325 26.6742001,97.0357547 25.6326472,97.3075253 C25.556436,97.5359039 25.479996,97.7642825 25.4037848,97.9926611 C26.1141737,104.065249 26.5718986,110.153823 26.7769593,116.262951 C33.5444208,117.178749 40.1434395,118.777399 46.5735578,121.058902 C46.9912317,116.31091 47.7922501,111.629148 48.9766131,107.013617 C44.0302098,102.610477 39.147888,98.1205532 34.3294188,93.5392781 C32.306504,92.3311552 30.1703022,91.3422758 27.9212713,90.5703561 C26.8987141,89.9354635 26.1739068,89.0607734 25.7470784,87.944002 C23.2062479,89.3736521 21.4897799,88.7273406 20.5976742,86.0027837 C20.78763,85.3633236 20.9782724,84.7147283 21.1698302,84.0615655 C22.3763928,82.7141316 23.7877873,81.6110629 25.4037848,80.7500755 C29.2930726,80.1836965 31.3528343,81.8188874 31.5830699,85.6602158 C33.9991704,86.4846626 36.2115833,87.66538 38.2200798,89.2000844 C42.735764,93.7059945 47.3892234,98.0451882 52.1806869,102.217666 C53.359786,102.573936 54.2752357,103.259072 54.9270358,104.273073 C56.7224614,105.510885 58.4769207,106.805792 60.1908713,108.15551 C61.4885211,108.801821 62.7090444,109.564606 63.8526698,110.439296 C66.2367296,111.460148 68.6017937,112.526676 70.9474046,113.636596 C72.0347299,114.481597 73.1790419,115.205558 74.3803407,115.806193 C75.6580796,115.169017 76.9550428,114.522705 78.2710017,113.864975 C79.9492498,112.494703 81.6277267,111.124432 83.3059747,109.75416 C86.3194061,106.138926 89.3326086,102.521409 92.34604,98.9061756 C95.443235,95.8915779 98.6090887,92.9614802 101.84383,90.1135988 C89.634707,83.3376052 77.352348,76.675801 64.9969819,70.1304698 C62.0238303,73.4396759 59.086839,76.7899903 56.1857791,80.179129 C53.4600277,83.7167137 50.78989,87.2931229 48.1755947,90.912924 C47.3938007,91.435911 46.5927823,91.9314926 45.7725394,92.397385 C43.5232796,92.4362094 42.5696099,91.3308569 42.9117592,89.085895 C45.3896526,84.8631744 48.1360015,80.830008 51.150806,76.9818283 C53.8589349,73.6703384 56.5672927,70.3588484 59.2754216,67.0473584 C54.7544735,64.6196937 50.2152165,62.2217182 45.6581082,59.853432 C42.9831643,62.9411109 40.3512466,66.0630466 37.762355,69.2169553 C40.0784426,70.5004431 40.307305,72.0602691 38.4489422,73.898717 C36.9995566,73.9740819 35.5499421,74.0517306 34.1005564,74.1270956 C33.3459971,74.6523664 32.6594098,75.2598535 32.0407947,75.9541245 C29.595171,77.0183689 28.0693453,76.2555843 27.4635465,73.6703384 C27.6017794,73.0811215 27.7924218,72.510175 28.0357025,71.9574987 C31.8675459,66.9148988 35.8726381,62.0047586 40.0509791,57.2270779 C36.160547,55.4000489 32.193446,53.8013986 28.1501337,52.4311269 C26.9351032,51.6729099 26.286736,50.5675574 26.2048032,49.119637 C20.7050107,54.6829401 15.288524,60.3170406 9.95557208,66.0196547 C8.30478752,67.8946431 6.74097066,69.8358614 5.26389266,71.8433094 C2.91187367,72.9258241 1.46225916,72.2018638 0.915506859,69.6737125 C1.14345382,68.3422652 1.48674744,67.0473584 1.94538771,65.791276 C2.6090887,65.3025458 3.33366709,64.9234373 4.11958061,64.649383 C8.01436112,60.419811 11.8670309,56.158266 15.6771324,51.8601804 C27.9773426,39.8177759 40.1452704,27.6771685 52.1806869,15.4337908 C55.9759122,12.5607878 59.4852884,9.36348719 62.7083578,5.8418889 C63.8526698,4.85300949 64.9969819,3.86184629 66.1412939,2.87296687 C67.7973423,2.08734443 69.3229392,1.13500559 70.7185421,0.0182341536 Z M71.6339918,5.95607821 C72.022829,5.91953763 72.4043427,5.958362 72.7783038,6.07026752 C76.7479224,8.27868875 80.5623722,10.7154886 84.2214244,13.3783833 C90.5950137,17.0529952 96.7742988,21.0107967 102.75928,25.2540714 C95.2129994,30.7648475 87.9656134,36.6638671 81.0173506,42.9534143 C76.1249589,40.7792498 71.0899858,38.9910453 65.9124315,37.5865168 C72.127648,31.228456 78.8790891,25.557815 86.1667549,20.5723097 C86.8629543,19.0672947 86.5196607,17.888861 85.136874,17.0324412 C84.526498,16.8794275 83.9163508,16.8794275 83.3059747,17.0324412 C74.4435067,22.1412708 66.4333224,28.3828585 59.2754216,35.7594878 C55.4712706,35.3050144 51.6568208,34.8482571 47.8323011,34.3892161 C45.6729842,34.1745402 43.5370113,34.2499052 41.4241536,34.6175947 C40.0937764,35.7663392 39.9411251,37.0612459 40.9664287,38.5000312 C41.9802892,38.9773425 43.0481612,39.2810861 44.1705025,39.4135457 C47.5375263,39.8817219 50.8942513,40.4161278 54.2404486,41.012196 C50.8372645,44.6365647 47.5187596,48.3294469 44.2849337,52.088559 C39.3284605,49.9075432 34.2554963,48.0416899 29.0655834,46.4932829 C36.5036117,38.7672342 44.0942913,31.1919155 51.8373933,23.7696104 C54.5592539,20.5197827 57.6488965,17.6650499 61.1063209,15.2054122 C63.7007052,12.5402338 66.3706141,9.95270402 69.1165053,7.44053923 C69.9912174,6.96322792 70.8304559,6.4699301 71.6339918,5.95607821 Z M107.336528,28.5655614 C109.201757,29.9175628 111.032656,31.3243751 112.829226,32.7905658 C117.722304,38.0592605 123.215002,42.5514679 129.307319,46.2649042 C134.454435,49.0237179 139.567221,51.8396263 144.641101,54.7149131 C143.748537,55.0734675 142.908612,55.5302248 142.123614,56.0851848 C133.385647,62.8269216 124.878832,69.8701182 116.605456,77.2102069 C111.970992,71.3659981 107.165339,65.6565327 102.187124,60.0818106 C97.2404915,54.9775485 91.938436,50.3346112 86.2811861,46.1507149 C92.7987298,39.635073 99.8172534,33.7725938 107.336528,28.5655614 Z M60.8774585,42.496657 C66.2500036,43.6750907 71.437399,45.349106 76.4401024,47.5209866 C71.9642402,52.1342347 67.6540745,56.8548207 63.5093762,61.6804609 C59.0275636,59.2733503 54.4885354,56.9507398 49.8920628,54.7149131 C53.5165568,50.604098 57.1783553,46.5298234 60.8774585,42.496657 Z M81.9328003,50.26153 C86.4281157,53.1847763 90.7000615,56.4209014 94.7490953,59.9676213 C101.539214,66.2023576 107.527628,73.0148917 112.714795,80.4075076 C110.548841,82.1888608 108.450859,84.0524303 106.421078,86.0027837 C106.192216,86.1557974 105.963353,86.1557974 105.734491,86.0027837 C93.7535438,78.5781948 81.547396,71.4984577 69.1165053,64.7635723 C73.2019282,59.7712157 77.4741028,54.9387241 81.9328003,50.26153 Z M142.352477,63.5074899 C142.835376,71.4367955 143.483057,79.3546821 144.297807,87.2588661 C144.535824,89.9217608 144.611349,92.5846555 144.52667,95.2521177 C142.119037,96.5104839 139.638169,97.6135526 137.088641,98.5636077 C135.41108,99.5524871 133.73123,100.54365 132.053668,101.53253 C128.144698,104.492317 124.217419,107.422414 120.267254,110.325106 C120.113916,107.203171 120.113916,104.083519 120.267254,100.961583 C122.711505,98.9038918 125.343422,97.1156872 128.163007,95.5946857 C131.955257,93.4753321 135.921443,91.7236681 140.063853,90.3419774 C141.352348,88.231759 140.819099,86.8249467 138.461816,86.116973 C132.161234,88.0422048 126.210811,90.7073832 120.610548,94.1102246 C120.468653,92.5937906 120.429746,91.0705052 120.496116,89.5426523 C119.972022,87.7384612 118.788803,87.0921497 116.948749,87.601434 C116.463561,87.8572181 116.042454,88.199786 115.690006,88.6291378 C115.289497,89.8121391 115.021728,91.0316809 114.888987,92.2831957 C113.591338,91.3308569 112.295976,90.3808018 110.998326,89.428463 C118.321924,83.1868754 125.645521,76.9430039 132.969118,70.7014163 C136.008411,68.1618461 139.134671,65.7638706 142.352477,63.5074899 Z M94.7490953,104.84402 C95.5789504,103.690708 96.4944,102.587639 97.4954442,101.53253 C100.589206,98.7120538 103.717069,95.932686 106.878803,93.1967102 C109.306347,94.7062928 111.671182,96.3049432 113.973538,97.9926611 C110.095922,100.593894 106.319692,103.334437 102.644848,106.214291 C100.95653,104.097222 98.7823375,103.297896 96.1222697,103.816316 C95.6279269,104.120059 95.1702021,104.462627 94.7490953,104.84402 Z M144.183376,100.961583 C144.478609,101.274462 144.629658,101.692395 144.641101,102.217666 C144.181087,108.870335 143.915607,115.532139 143.840082,122.200795 C143.54485,126.69757 143.201556,131.187493 142.810202,135.675133 C135.580438,142.165653 128.52461,148.863998 121.640429,155.772451 C120.969862,150.010459 120.702093,144.262169 120.83941,138.529866 C120.578507,131.655669 120.464076,124.76777 120.496116,117.861601 C128.179028,111.905487 136.074781,106.271386 144.183376,100.961583 Z M94.5202329,105.072398 C94.2320951,105.883142 94.0412238,106.719008 93.9480768,107.584563 C93.8718657,109.564606 93.7954256,111.542365 93.7192144,113.522407 C87.9894151,118.249845 82.8020197,123.502553 78.1565705,129.280532 C78.4552359,126.722691 78.8747407,124.171702 79.4153138,121.629848 C79.1232853,120.974401 79.0468453,120.32809 79.1864513,119.68863 C79.9860966,119.327792 80.748895,118.909859 81.4750755,118.432547 C83.3821859,116.833897 85.2895253,115.235247 87.1966357,113.636596 C89.6067858,110.738472 92.0480611,107.883739 94.5202329,105.072398 Z M114.431263,105.072398 C114.637239,108.162361 114.75167,111.284297 114.774556,114.435922 C109.753544,118.418845 104.833002,122.52966 100.012931,126.768367 C99.633248,123.427188 99.5188168,120.076873 99.6696371,116.719708 C104.632976,112.869244 109.553518,108.986808 114.431263,105.072398 Z M53.5538613,110.325106 C56.1017866,112.092757 58.6957131,113.805597 61.3351833,115.463625 C63.8911187,116.516451 66.4086052,117.658344 68.8876429,118.889305 C70.2203087,120.239022 71.8223456,121.115996 73.6937535,121.515659 C72.8499378,124.81573 72.2777818,128.166044 71.9772854,131.564318 C71.4586832,138.034284 71.1153896,144.50425 70.9474046,150.9765 C70.8329734,151.051865 70.7185421,151.129514 70.6041109,151.204879 C64.4017107,149.412107 58.1079945,148.041835 51.7229621,147.094064 C51.7531719,141.405153 51.6767318,135.809876 51.4940996,130.308236 C51.6712391,129.757843 51.7856704,129.186897 51.8373933,128.595396 C55.4216075,130.059303 58.9689748,131.621413 62.4794954,133.277158 C64.8825507,133.619725 65.9124315,132.592022 65.5691379,130.194046 C65.3894809,129.785249 65.1226273,129.442681 64.7681195,129.166342 C60.5240949,126.935083 56.1757091,124.879676 51.7229621,123.00012 C51.9671582,118.72944 52.5773054,114.504435 53.5538613,110.325106 Z M8.01024159,119.460251 C9.12342836,120.172792 10.3439516,120.590725 11.6720402,120.716334 C14.9422552,121.120564 18.2225401,121.387767 21.5131238,121.515659 C21.830556,128.819207 22.0594184,136.127323 22.1997111,143.440006 C18.1591452,143.115708 14.115833,142.811965 10.0700033,142.526492 C9.48022486,134.8347 8.79363762,127.145192 8.01024159,119.460251 Z M93.8336456,121.28728 C94.3041868,124.665 94.4948291,128.090679 94.4058017,131.564318 C88.3860337,137.038553 82.5882622,142.748019 77.0122584,148.692714 C76.9641973,143.506236 77.1930597,138.328893 77.6988457,133.162968 C78.8813778,134.419051 80.2163322,134.608605 81.7039379,133.733915 C85.4032699,129.243991 89.4465821,125.094352 93.8336456,121.28728 Z M27.2346841,122.200795 C33.7764872,123.070917 40.1846347,124.518838 46.4591266,126.539988 C46.4021399,128.419544 46.3259287,130.207749 46.2302642,131.906886 C46.3815422,136.590931 46.5341935,141.272693 46.687989,145.952171 C46.4209066,146.027536 46.154053,146.105185 45.8869706,146.180549 C39.8296692,145.335549 33.7648153,144.572764 27.6924089,143.896763 C27.5679078,136.664012 27.4152565,129.431262 27.2346841,122.200795 Z M114.888987,122.200795 C115.229992,130.004492 115.573286,137.847014 115.918868,145.723792 C116.16604,150.510608 116.662671,155.267735 117.406474,159.997456 C112.030496,165.512799 106.652687,171.032711 101.271674,176.554906 C101.3147,162.763121 100.971407,148.982755 100.241793,135.218376 C100.638869,134.478429 101.172805,133.829834 101.84383,133.277158 C106.168872,129.529464 110.517258,125.838866 114.888987,122.200795 Z M10.5277281,148.464336 C14.5467809,148.982755 18.5900931,149.364147 22.6574359,149.606229 C22.9812762,156.738493 23.7822946,163.81823 25.0604912,170.84544 C25.4660354,172.514888 25.9619802,174.152363 26.5480969,175.75558 C22.1331121,174.951688 17.7085151,174.113538 13.274077,173.243416 C12.4680236,172.70901 11.6287852,172.213428 10.7565905,171.758955 C11.1678563,171.386697 11.4349387,170.92994 11.557609,170.388683 C11.8606228,169.034398 12.051494,167.664126 12.129765,166.277868 C11.758779,160.321753 11.224843,154.383909 10.5277281,148.464336 Z M27.9212713,150.291365 C34.1181788,150.615662 40.3356839,151.225433 46.5735578,152.118394 C46.9189112,162.027742 47.1859936,171.998752 47.3745762,182.035992 C41.8731816,180.320869 36.3804838,178.608029 30.8964827,176.897474 C31.1393057,176.474973 31.2917281,176.018216 31.3542075,175.527202 C30.513367,173.275389 29.941211,170.952778 29.6377394,168.561654 C28.911559,162.450242 28.339403,156.361668 27.9212713,150.291365 Z" id="Shape" fill="#296C1E"></path>
                                </g>
                            </g>
                        </g>
                    </g>
                </g>
                <g id="random1_image" transform="translate(251.000000, 699.000000)">
                    <rect id="Rectangle" x="0" y="0" width="197" height="198"></rect>
                    <g id="Group" transform="translate(98.500000, 99.500000) scale(-1, 1) rotate(-180.000000) translate(-98.500000, -99.500000) translate(5.000000, 4.000000)" fill="#296C1E" fill-rule="nonzero">
                        <path d="M159.667149,188.785416 L155.866307,186.599629 L145.651543,186.457078 C130.258131,186.314527 120.32843,184.603912 87.926249,176.668557 C70.1098002,172.296984 68.2568896,172.059399 63.4108155,174.007599 C56.0941939,176.953659 48.6350407,177.42883 45.3093035,175.14801 C41.6034822,172.677121 41.1758874,168.685685 44.3115824,165.549557 C45.7368983,164.124044 45.9269404,163.69639 45.4518351,163.031151 C44.2640719,161.415569 43.0287981,158.231924 42.7437349,156.141172 C42.5061823,154.38304 42.6487139,153.527732 43.6939455,151.389463 C45.4993457,147.683129 52.5309041,141.45839 62.1755417,135.043582 C64.6935998,133.332967 66.7840631,131.81242 66.7840631,131.669868 C66.7840631,131.527317 63.6483681,129.341531 59.7525047,126.823125 C55.9041518,124.304719 50.1078671,120.408317 46.8296405,118.175014 C41.6034822,114.611232 40.5582505,114.088544 38.182724,113.803441 L35.5221344,113.518338 L32.7665236,117.224672 C27.3978337,124.494787 20.5088069,130.719527 16.2803697,132.097522 C12.5270378,133.28545 8.91623753,131.194697 7.82349534,127.203262 C7.01581633,124.209685 7.9185164,118.460116 9.96146919,114.278612 C12.7170799,108.386492 15.7577539,105.820569 22.2191859,103.872368 L25.5924336,102.826992 L22.5517597,100.498655 C17.1355592,96.3646673 5.30543725,86.623663 3.0249318,84.4378766 C0.126789472,81.6343681 -0.633379009,79.2585134 0.506873712,76.7876245 C2.16974226,73.3188766 4.97286354,72.8912227 11.4818062,75.0770091 C15.9002854,76.5975561 22.5517597,78.4032057 23.6445018,78.4032057 C24.1196071,78.4032057 24.2621387,77.3103125 24.2621387,73.6990133 C24.2621387,69.3274406 24.3571598,68.8522697 25.9250073,65.7636586 C27.8254285,62.0573252 30.1534445,60.0140902 34.3343711,58.446026 C36.8049187,57.4956842 37.7551293,57.40065 43.2663508,57.5907183 L49.4427197,57.8283038 L50.725504,56.4503081 C51.3906514,55.7375517 52.6259252,54.9772782 53.4336042,54.8347269 C54.2412832,54.6446585 54.9064306,54.407073 54.8589201,54.2170046 C54.8589201,54.0744534 53.0060094,52.5539063 50.7730145,50.8432909 C45.3093035,46.7093037 35.4746238,36.8732652 31.4837393,31.5988677 C27.3028127,26.0868848 23.3594387,18.1040129 22.5517597,13.7324403 C21.0789332,5.36943166 25.449902,0 33.7167342,0 C40.7958032,0 54.0037305,5.17936328 64.0284524,11.9267907 C66.3564684,13.4948548 68.3044001,14.7302992 68.3994212,14.7302992 C68.4944422,14.7302992 68.6844843,13.9225086 68.8745265,12.9721668 C69.5396739,8.79066245 72.5328373,6.17722226 76.6187429,6.17722226 C78.7567167,6.17722226 79.1843115,6.36729064 80.2770537,7.65025219 C81.9874327,9.64597015 81.8449012,11.2140343 79.8494589,13.114718 C78.3291219,14.5402309 78.1865903,14.9203676 78.1865903,17.3437394 C78.1865903,24.186201 80.5621168,41.292355 81.6073485,41.8625601 C81.9399222,42.0526285 82.6525802,42.5277994 83.175196,42.9554533 C84.0778961,43.6206926 84.2679382,43.4781413 86.0258278,41.4824234 C87.7837174,39.4867054 88.1638017,39.296637 90.5393282,39.1065686 C92.7248125,38.9165003 93.4374705,39.0590516 94.8152759,40.0093934 C96.2881023,40.9597353 100.088945,45.9490302 100.611561,47.5646114 C100.754092,47.9447482 102.939577,47.0894405 107.215524,44.9986883 C114.199572,41.5299405 119.520751,39.9143592 123.986741,39.9143592 C127.407499,39.9143592 131.208342,40.8647011 133.583868,42.2426969 C135.769353,43.5256584 135.816863,43.5256584 136.719563,41.6249746 C137.764795,39.4867054 140.235343,36.6831968 141.898211,35.8278891 C144.083696,34.734996 147.219391,34.9725814 148.97728,36.3980943 C151.827912,38.8214661 152.635591,42.1476627 151.63787,47.0419234 C150.830191,50.8432909 149.499896,53.9319021 147.314412,57.2105816 C145.699054,59.6339534 145.651543,59.8715389 145.651543,64.1955945 C145.651543,69.0898552 144.986396,72.1784663 142.800911,77.8330005 C141.850701,80.2563723 141.565637,81.5393339 141.898211,81.7769194 C142.183274,81.9669877 144.51129,82.2520903 147.029348,82.3946416 C157.481665,83.1549151 170.547061,79.8762356 176.675919,74.9344578 C180.286719,71.9883979 182.13963,71.5607441 184.610178,73.033774 C186.795662,74.3167356 187.650852,77.2152783 186.463088,79.4960988 C183.94503,84.2478083 159.192044,109.954556 148.739727,118.650185 L146.364201,120.598385 L155.20116,129.151462 C175.203093,148.585954 181.902077,158.707095 181.189419,168.638168 C180.809335,173.912565 177.531109,178.759309 172.30495,181.705369 C170.166977,182.893296 170.166977,182.893296 170.309508,185.269151 C170.45204,187.930108 169.59685,189.593206 167.696429,190.448514 C165.463434,191.49389 163.610523,191.113753 159.667149,188.785416 Z M140.425385,176.573523 C140.425385,176.050835 119.520751,162.983634 118.713072,162.983634 C118.428009,162.983634 117.857883,163.886458 117.382778,165.026869 C116.955183,166.119762 115.909951,168.258031 115.007251,169.731061 C114.104551,171.251608 113.581935,172.582087 113.771977,172.677121 C114.342104,173.057258 126.409778,175.195527 131.160831,175.765732 C134.961674,176.240903 136.291969,176.383454 139.617706,176.668557 C140.0453,176.716074 140.425385,176.668557 140.425385,176.573523 Z M164.893308,173.484911 C166.508666,172.772155 168.409087,171.441676 169.121745,170.538852 C170.309508,169.160856 170.45204,168.685685 170.214487,166.737484 C169.644361,162.175843 165.843518,156.473792 156.911539,146.732787 C152.303017,141.79101 141.280574,131.289732 136.38699,127.250779 C135.009184,126.062851 134.914163,126.062851 131.493405,126.633056 C129.592984,126.965676 127.977626,127.298296 127.882605,127.39333 C127.787584,127.488364 126.932394,131.194697 125.934673,135.661304 L124.176783,143.691693 L125.317036,144.689552 C125.934673,145.21224 129.735515,148.538437 133.773911,152.102219 C145.794075,162.651014 160.569849,174.862907 161.330018,174.862907 C161.710102,174.862907 163.32546,174.245185 164.893308,173.484911 Z M92.2021967,166.927552 C91.2994966,164.599215 88.6864175,156.283723 88.4013543,154.715659 C87.9737595,152.624907 87.8312279,152.624907 83.982875,155.618484 C81.3697959,157.661719 77.2363797,163.126185 77.8540166,163.743907 C78.0915693,163.981493 91.2519861,167.640309 92.1546862,167.687826 C92.3447283,167.735343 92.3922388,167.355206 92.2021967,166.927552 Z M106.170293,165.597074 C107.928182,162.841082 109.733582,158.421993 109.401009,157.614202 C109.115945,156.901446 98.1885235,150.391604 97.8559498,150.77174 C97.5233761,151.056843 99.3287762,158.041856 100.611561,161.463087 C101.751813,164.599215 103.652234,167.735343 104.317382,167.735343 C104.602445,167.735343 105.410124,166.785001 106.170293,165.597074 Z M62.7931786,156.283723 C66.3564684,155.19083 70.6799266,153.147595 72.3903057,151.769599 C73.6255795,150.724223 75.0033848,144.451967 74.7658322,141.078253 L74.6233006,139.130052 L66.7840631,144.356933 C59.0873573,149.488779 53.0060094,154.430557 53.0060094,155.570967 C53.0060094,157.519168 57.6620414,157.851787 62.7931786,156.283723 Z M107.643119,141.363356 L103.604724,137.324403 L102.464471,138.51233 C101.799324,139.130052 101.371729,139.747774 101.514261,139.890326 C102.226919,140.603082 111.253919,145.782445 111.396451,145.592377 C111.538982,145.449826 109.828603,143.549142 107.643119,141.363356 Z M116.622609,132.477659 C118.760583,122.023898 119.42573,118.55515 119.283199,118.412599 C119.188178,118.270048 111.681514,127.72595 110.826324,129.103945 C110.588772,129.531599 111.253919,130.576975 112.916788,132.335108 C114.294593,133.760621 115.529867,134.948548 115.76742,134.948548 C115.957462,134.948548 116.337546,133.808138 116.622609,132.477659 Z M96.7156971,129.531599 C96.6681865,129.008911 94.1026179,125.9203 93.6750231,125.9203 C93.5800021,125.9203 93.5324916,126.300437 93.6275126,126.775608 C93.7225337,127.203262 93.9600863,128.628774 94.1026179,129.911736 L94.4351916,132.192556 L95.5754443,131.099663 C96.1930812,130.529458 96.7156971,129.816702 96.7156971,129.531599 Z M73.0079426,120.313283 C72.4378162,118.222531 71.7251583,117.842394 68.209379,117.842394 L66.0714052,117.842394 L69.6346949,120.218249 C71.5826267,121.50121 73.2454952,122.499069 73.3405163,122.404035 C73.4355373,122.309001 73.2454952,121.358659 73.0079426,120.313283 Z M104.507424,119.980663 L105.267592,118.792736 L103.604724,118.792736 C101.799324,118.792736 101.704303,118.88777 102.416961,120.265766 C103.082108,121.453693 103.557213,121.406176 104.507424,119.980663 Z M20.7463595,116.084261 C21.3639964,115.323988 21.3164859,115.276471 20.6038279,115.894193 C20.1287226,116.226813 19.7486384,116.60695 19.7486384,116.701984 C19.7486384,117.08212 20.1287226,116.844535 20.7463595,116.084261 Z M139.760237,112.567997 C142.325806,110.999932 141.708169,110.857381 138.144879,112.18786 C137.527242,112.425445 137.194669,112.805582 137.3372,113.090685 C137.764795,113.755924 137.954837,113.708407 139.760237,112.567997 Z M110.588772,108.053873 L112.394172,107.721253 L110.588772,106.343257 C107.548098,103.872368 107.453077,103.872368 106.312824,106.248223 L105.267592,108.338975 L107.072993,108.338975 C108.023203,108.338975 109.638561,108.196424 110.588772,108.053873 Z M96.2405918,103.017061 C97.2858234,100.926308 98.141013,98.740522 98.141013,98.1703169 C98.0935024,96.9348725 89.446586,90.7576502 89.2090333,91.8505434 C89.1615228,92.183163 89.4940965,95.17674 89.9692018,98.4079024 C90.6343492,102.779475 91.2044756,104.82271 92.0121546,106.058155 C93.4374705,108.243941 93.7225337,108.006355 96.2405918,103.017061 Z M67.8768053,101.924167 C66.9741053,99.1681759 66.0714052,96.9348725 65.8813631,96.9348725 C65.7388315,96.9348725 63.7908997,98.8830733 61.6529259,101.211411 C59.1348678,103.919885 57.899594,105.582984 58.3271888,105.725535 C59.2773994,106.010637 65.3587472,106.770911 67.5917421,106.865945 L69.5871844,106.913462 L67.8768053,101.924167 Z M135.246737,102.684441 C138.382432,101.591548 142.325806,99.6908639 142.325806,99.2632101 C142.325806,98.6454879 140.377874,96.5072186 138.049858,94.5590177 L135.721842,92.6108169 L134.296526,95.3668083 C133.108763,97.7426631 131.778468,103.587266 132.443616,103.587266 C132.586147,103.587266 133.821421,103.207129 135.246737,102.684441 Z M47.9698932,99.5483127 C48.7775722,99.1681759 51.2956303,97.0299067 53.4811147,94.7966032 L57.5195098,90.7576502 L54.8589201,90.7576502 C53.3860937,90.7576502 51.2006093,90.9002015 49.9653355,91.0427528 L47.7323406,91.3753724 L45.8319194,95.0817058 C43.7414561,99.3107272 43.646435,99.6433468 44.8341982,99.9284494 C46.2120036,100.308586 46.4020457,100.261069 47.9698932,99.5483127 Z M157.529176,95.699428 L161.567571,91.6129579 L158.241833,91.9455776 C156.436433,92.0881288 154.060907,92.3257143 152.968165,92.4682656 L151.020233,92.7058511 L152.160486,94.8916374 C152.730612,96.1270819 153.253228,97.695146 153.253228,98.4554195 C153.253228,99.1681759 153.300738,99.7858981 153.395759,99.7858981 C153.44327,99.7858981 155.343691,97.9327314 157.529176,95.699428 Z M121.13611,95.8894964 C124.604378,90.4250305 125.269526,88.3817955 123.511636,88.3817955 C123.131552,88.3817955 120.233409,87.5264878 117.097714,86.4335946 C113.962019,85.3882185 111.30143,84.5804279 111.206409,84.6754621 C111.111388,84.7704963 111.016367,86.4811117 110.921346,88.5243468 L110.731303,92.183163 L114.769698,95.2242571 C117.002693,96.9348725 118.950625,98.3128682 119.188178,98.3128682 C119.37822,98.3603853 120.233409,97.219975 121.13611,95.8894964 Z M100.516539,84.105257 C100.516539,83.8676715 100.421518,83.630086 100.326497,83.630086 C100.183966,83.630086 99.9464131,83.8676715 99.8038815,84.105257 C99.6613499,84.3903596 99.756371,84.5804279 99.9939236,84.5804279 C100.278987,84.5804279 100.516539,84.3903596 100.516539,84.105257 Z M41.7460138,79.4960988 C42.126098,78.7358253 43.1238192,76.074868 44.0265192,73.508945 C45.9269404,68.0444791 45.8794299,67.9494449 40.9858453,67.9494449 C35.759687,67.9494449 34.0017974,69.4699919 34.0017974,74.031633 C34.0017974,79.8287185 34.6669448,80.6840262 38.8478715,80.7315433 C40.8433137,80.7790604 41.1758874,80.6365091 41.7460138,79.4960988 Z M58.9923362,80.1613382 C59.2298889,79.4960988 55.9991728,71.9408808 55.6190886,72.3210176 C55.476557,72.4635689 54.8589201,74.031633 54.2412832,75.8372826 C53.6236463,77.6429322 52.9584989,79.4960988 52.7684568,79.9712698 C52.4833936,80.6840262 52.7684568,80.7790604 55.571578,80.7790604 C57.7570624,80.7790604 58.8022941,80.588992 58.9923362,80.1613382 Z M89.9692018,75.6472142 C90.3967966,75.3621116 90.2067544,75.0770091 89.3515649,74.6968723 C87.7837174,73.9841159 87.8312279,73.9841159 87.2135911,75.0770091 C86.7384858,75.9323168 86.8335068,76.027351 88.0212701,76.027351 C88.733928,76.027351 89.6366281,75.8372826 89.9692018,75.6472142 Z M73.67309,66.7615176 C73.1029636,65.9537269 61.0827995,58.3509919 61.0827995,58.8261628 C61.1303101,59.0162312 61.6054154,60.1091243 62.2230522,61.2495346 C63.2207734,63.1502184 63.8384103,63.6253893 68.2568896,65.8586928 C71.3925845,67.4267569 73.3880268,68.1870304 73.67309,67.9019278 C73.9581532,67.6168253 73.9581532,67.1891714 73.67309,66.7615176 Z M97.6659077,66.6664834 C97.6659077,66.4288979 97.428355,65.9537269 97.1908024,65.5735902 C96.8582287,65.0033851 96.620676,65.0033851 96.1455707,65.478556 C95.6704654,65.9537269 95.6704654,66.1913124 96.2405918,66.5239321 C97.0957813,67.0941372 97.6659077,67.1416543 97.6659077,66.6664834 Z M122.798978,64.1005603 C128.785305,60.8218808 130.305642,59.5389192 131.160831,57.1155474 C132.301084,53.6467995 132.158552,52.9340431 129.688005,51.5085303 C127.074926,49.9879832 124.224294,49.6078465 120.851046,50.36812 C117.952904,51.0333593 109.49603,55.0247953 107.453077,56.6878936 L106.075271,57.7807867 L111.966577,61.9147739 C115.197293,64.1955945 118.142946,66.0487611 118.52303,66.0487611 C118.903115,66.0487611 120.803536,65.1459363 122.798978,64.1005603 Z M71.8201793,50.9858422 C71.0600108,46.5667525 71.2025424,46.7093037 66.7840631,43.9533123 C60.4176521,39.9143592 58.8022941,37.6810558 59.3249099,33.737137 C59.6099731,31.3612823 61.035289,29.3655643 63.7908997,27.5123976 L65.9288736,26.0393677 L64.0759629,24.1386839 C61.6054154,21.5727608 54.0512411,16.5834659 49.1576565,14.3026454 C44.454114,12.069342 39.0854241,10.5487949 35.4271133,10.3587266 L32.8140341,10.2161753 L32.9565657,11.8792736 C33.431671,17.8664275 44.4066035,31.9790045 55.8566412,41.3398721 C60.4176521,45.0937225 71.0125003,52.6964576 71.7251583,52.7439747 C71.9152004,52.7439747 71.9627109,51.9361841 71.8201793,50.9858422 Z" id="Shape"></path>
                    </g>
                </g>
                <g id="happy_image" transform="translate(130.000000, 0.000000)">
                    <rect id="Rectangle" x="56" y="0" width="370" height="372"></rect>
                    <g id="Group" transform="translate(211.000000, 213.000000) scale(-1, 1) rotate(-180.000000) translate(-211.000000, -213.000000) translate(0.000000, -0.000000)" fill="#296C1E" fill-rule="nonzero">
                        <path d="M224.96146,425.621127 C186.289924,422.231444 146.756467,407.178955 106.303627,380.406208 C84.0085963,365.698433 58.8404943,345.015624 41.9468367,327.607593 C28.0986345,313.359435 23.1569523,305.545929 12.1243597,280.324393 C7.1252161,269.0063 5.17152782,263.088718 2.87307101,252.574957 C0.746998463,242.808075 0,234.362595 0,218.218513 C0,187.539013 2.98799385,168.522319 10.2281328,152.608046 C14.4802779,143.300782 22.3524925,131.523071 28.7881715,124.858611 C31.0291669,122.503069 33.7873151,118.481411 37.4073846,112.219116 C44.6475235,99.5796218 53.6689665,86.1357959 58.6106486,80.6203801 C60.851644,78.0924812 65.7358647,72.2898042 69.470857,67.6936244 C78.4923,56.6627929 83.4339821,51.4346383 89.8121998,46.263936 C96.4202631,40.920877 98.1441057,39.8292843 115.497455,30.0624022 C139.516328,16.5036718 146.813929,13.4587027 167.787347,8.51780938 C175.544639,6.67933745 185.542926,4.26634305 190.024917,3.1172981 C194.506907,2.0257054 200.138127,0.819208197 202.551506,0.531946959 C216.8594,-1.47888171 246.969184,2.31296663 279.549809,10.1839246 C302.534377,15.7567926 313.049817,20.4678769 335.00008,34.9458433 C354.249656,47.7002422 364.018097,55.4562957 378.325991,69.4171918 C389.703352,80.5629279 394.645034,86.3656049 401.827711,97.2815319 C416.997526,120.262431 420.78998,135.544729 421.766824,177.025252 C422.513823,211.094434 421.824286,218.333418 414.29684,251.425912 C407.458931,281.473438 403.436631,295.032168 398.380026,305.431025 C395.506955,311.291154 380.566986,336.397786 373.671616,346.854095 C364.822557,360.355374 356.720497,370.007351 348.331129,376.959073 C345.91775,379.027354 339.539532,383.853343 334.138158,387.702644 C328.794246,391.551944 320.577263,397.699335 315.98035,401.261374 C295.466623,417.175647 285.123567,422.576158 270.930596,424.816795 C264.150149,425.850936 233.925442,426.425458 224.96146,425.621127 Z M263.460612,413.556155 C279.147579,412.062397 286.100411,408.730166 306.556677,393.160607 C311.613282,389.311306 321.036955,382.187228 327.472634,377.361239 C348.101284,361.849132 354.939193,353.633461 375.45292,319.449373 C386.830281,300.490132 389.875736,293.423505 395.27711,273.08541 C399.7591,256.251901 406.309702,229.364249 407.114162,224.250999 C408.493236,215.460805 409.125312,204.257617 409.125312,188.688058 C409.06785,142.72626 405.850011,127.846128 391.024964,104.520515 C385.106438,95.1557988 381.084139,90.2149055 372.062696,81.1949026 C354.709347,63.7868716 327.702479,43.9083939 307.533521,33.6818938 C291.386862,25.5236747 266.161298,19.4337364 230.132988,15.1248178 C210.021491,12.6543712 207.780495,12.8841802 180.371398,19.6635454 C168.132116,22.7085145 156.122679,25.8683881 153.651838,26.6727196 C146.181853,29.2006185 138.826791,32.7052056 126.127817,39.8292843 C97.6269529,55.8010091 94.1792677,58.558717 78.7221457,77.4605065 C75.7916132,81.0799981 71.4820067,86.1357959 69.2410113,88.6636948 C64.3567906,94.064206 60.1046455,99.8094308 55.3353477,107.335675 C49.4168214,116.757844 46.5437504,122.043451 46.5437504,123.709566 C46.5437504,124.743706 45.9116747,125.892751 44.6475235,127.099248 C43.6132179,128.075937 41.5446068,130.431479 40.0506099,132.327403 C38.556613,134.223327 35.6835419,137.842819 33.6149308,140.370718 C31.4888583,142.898617 28.7881715,147.092631 27.5240203,149.735434 C25.6277934,153.757091 24.9382564,154.676327 23.2718752,155.365754 C21.0883412,156.28499 20.513727,157.261678 17.7555788,165.362445 C14.3078936,175.359136 12.8138967,186.96449 12.2967439,207.877109 C11.5497455,237.407564 13.9631251,253.781454 21.8353397,272.281078 C26.662099,283.484266 32.5806253,295.779047 35.6260805,300.662488 C42.9811423,312.612556 56.3121918,326.343643 79.0094528,345.417789 C106.246166,368.226332 137.56264,387.472835 164.914276,398.216405 C187.841383,407.236408 205.596961,411.660231 226.110688,413.498703 C233.810519,414.18813 256.277934,414.18813 263.460612,413.556155 Z" id="Shape"></path>
                        <path d="M134.636384,320.88167 C131.673472,318.032626 132.300242,316.803626 144.892617,300.323859 C148.482299,295.575451 151.445211,291.553271 151.445211,291.38568 C151.445211,291.273953 150.020734,290.938771 148.197404,290.715317 C143.52512,290.15668 120.220679,285.52 100.44894,281.218501 C91.0473932,279.151548 80.7911601,277.252185 77.657311,276.917003 C71.1616967,276.302503 68.8825338,275.464549 67.515036,273.17414 C65.6347266,270.045778 66.8882662,265.241507 70.0221152,263.565598 C72.8710689,262.113144 81.8737624,263.398007 105.007266,268.649187 C133.496803,275.129367 154.066248,279.095684 160.276967,279.319138 C161.644465,279.375002 163.695711,278.87223 165.405084,278.090139 C171.672782,275.241094 178.054438,276.805276 180.504538,281.833001 C183.353492,287.53109 179.023082,292.670543 171.444865,292.670543 C169.507577,292.670543 168.254037,293.005725 167.171435,293.843679 C166.373728,294.458179 161.131653,300.044541 155.547704,306.245402 C142.727412,320.434761 140.733145,322.278261 138.055128,322.278261 C136.630652,322.278261 135.548049,321.831352 134.636384,320.88167 Z" id="Path"></path>
                        <path d="M296.318942,321.409187 C295.281988,320.887742 293.496123,318.801965 291.883084,316.310619 C288.368962,310.806484 280.5342,301.478423 275.464647,296.785424 C270.740746,292.324177 269.876618,290.933659 270.337486,288.384375 C271.028789,284.908079 272.238569,284.386635 280.707025,283.981067 C291.710258,283.459622 300.812409,280.794462 334.052541,268.279796 C357.499221,259.47318 360.840517,258.546168 365.103549,259.704933 C368.329628,260.574007 370.576361,263.355044 370.115493,266.020204 C369.654625,269.032994 368.214411,270.075883 362.799207,271.292586 C359.976388,271.871969 350.931846,275.17445 341.25361,279.114252 C322.012355,286.935918 305.305876,292.671807 296.491768,294.525831 L290.385261,295.800473 L295.512422,301.768115 C298.277633,305.070596 301.042843,308.431015 301.56132,309.242151 C302.310231,310.458854 302.943925,310.690608 305.075441,310.690608 C307.149349,310.690608 307.955869,311.038237 309.338474,312.370817 C311.46999,314.572471 311.527599,316.658249 309.396083,318.801965 C307.667826,320.540113 302.828708,322.278261 299.833063,322.278261 C298.853718,322.278261 297.298287,321.872693 296.318942,321.409187 Z" id="Path"></path>
                        <path d="M229.630506,225.590579 C219.073137,225.189099 179.72819,222.436088 169.632345,221.346355 C163.74791,220.772811 155.209711,219.855141 150.594468,219.338951 C136.229523,217.847737 129.133587,215.668271 126.941347,212.054944 C125.499083,209.760769 125.499083,207.868074 126.941347,205.516544 C128.556682,202.820888 131.383518,202.18999 135.537237,203.566495 C140.729385,205.287127 143.671603,205.745962 162.767171,207.868074 C191.208607,211.022565 227.149812,213.374095 247.110739,213.374095 C260.379563,213.374095 265.052496,212.972615 282.128896,210.219604 C293.26317,208.384264 308.839615,206.663632 318.531626,206.147443 L325.916015,205.745962 L325.050656,203.681204 C324.531442,202.534116 322.916107,196.397197 321.300771,189.973506 C317.493196,174.20105 314.320216,166.802334 306.012779,154.299078 C299.032224,143.745872 287.032591,130.324945 277.398272,122.352686 C260.1488,108.071444 236.149536,96.9446931 217.515492,94.6505177 C207.188886,93.3887212 188.497151,94.249037 180.478167,96.3711492 C164.959412,100.500665 154.978949,110.078847 149.7868,125.908658 C146.036915,137.264826 143.267769,156.363836 142.575483,175.233429 C142.229339,185.213092 141.940887,187.736685 141.19091,188.941127 C139.287122,191.751492 135.306475,191.579429 133.056544,188.539646 C131.902733,186.933724 131.845043,186.36018 131.902733,168.17884 C131.960424,147.64597 132.479638,142.254657 135.594928,129.235212 C142.113958,102.221297 156.017378,88.5135985 182.324264,83.0649319 C190.400939,81.4016547 212.438725,80.9428196 221.438449,82.2619705 C237.880253,84.6708546 256.225844,92.1269247 272.494576,103.081612 C294.763124,117.993753 314.666359,140.706089 325.108347,163.189008 C328.223636,169.784762 330.012043,175.233429 332.838879,186.704306 C335.550334,197.601639 335.896478,198.519309 340.338649,205.688608 C342.242437,208.72839 343.973153,211.940236 344.146225,212.800551 C344.72313,215.381499 343.107795,218.421281 340.569411,219.45366 C338.607933,220.313976 338.031028,220.256621 333.761928,219.45366 C324.646823,217.675674 307.916566,218.53599 285.590328,222.034607 C260.264182,226.049414 253.745151,226.450895 229.630506,225.590579 Z" id="Path"></path>
                    </g>
                </g>
            </g>
        </g>
    </g>
</svg>