<?xml version="1.0" encoding="UTF-8" standalone="no"?>
<!DOCTYPE svg PUBLIC "-//W3C//DTD SVG 1.1//EN" "http://www.w3.org/Graphics/SVG/1.1/DTD/svg11.dtd">
<svg width="100%" height="100%" viewBox="0 0 298 253" version="1.1" xmlns="http://www.w3.org/2000/svg" xmlns:xlink="http://www.w3.org/1999/xlink" xml:space="preserve" xmlns:serif="http://www.serif.com/" style="fill-rule:evenodd;clip-rule:evenodd;stroke-linejoin:round;stroke-miterlimit:2;">
    <g transform="matrix(-1,-1.22465e-16,1.22465e-16,-1,698.258,1325.54)">
        <g id="Монтажная-область3" serif:id="Монтажная область3">
            <rect x="400.621" y="1072.6" width="297.274" height="252.885" style="fill:none;"/>
            <g transform="matrix(1,0,0,1,-1024.38,-122.403)">
                <path d="M1568.5,1206.5C1574.27,1205.77 1579.61,1206.94 1584.5,1210C1590.5,1217.67 1596.5,1225.33 1602.5,1233C1608.73,1235.9 1613.73,1240.23 1617.5,1246C1628.01,1253.09 1638.34,1260.42 1648.5,1268C1654.08,1272.91 1658.91,1278.41 1663,1284.5C1671.62,1278.87 1679.95,1279.21 1688,1285.5C1692.2,1290.98 1693.2,1296.98 1691,1303.5C1688.9,1307.93 1686.4,1312.1 1683.5,1316C1685.12,1321.68 1684.62,1327.18 1682,1332.5C1676.33,1339.5 1670,1345.83 1663,1351.5C1658.97,1358.88 1653.97,1365.55 1648,1371.5C1632.44,1387.73 1616.27,1403.23 1599.5,1418C1595.06,1419.94 1590.39,1420.94 1585.5,1421C1578.74,1428.79 1570.24,1433.29 1560,1434.5C1548.62,1432.79 1542.29,1426.12 1541,1414.5C1534.87,1408.42 1532.87,1401.08 1535,1392.5C1541.38,1378.24 1549.88,1365.41 1560.5,1354C1536.94,1357.26 1513.28,1359.92 1489.5,1362C1481.11,1362.83 1472.78,1362.5 1464.5,1361C1456.01,1357.86 1452.17,1351.7 1453,1342.5C1441.85,1336.26 1439.52,1327.59 1446,1316.5C1449.13,1314.69 1451.97,1312.52 1454.5,1310C1450.06,1298.65 1453.39,1290.65 1464.5,1286C1493.52,1287.84 1522.52,1290.34 1551.5,1293.5C1560.21,1292.32 1568.88,1290.82 1577.5,1289C1559.85,1277.35 1543.35,1264.19 1528,1249.5C1520.63,1234.58 1524.96,1225.24 1541,1221.5C1547.3,1222.32 1552.63,1224.98 1557,1229.5C1555.25,1218.85 1559.09,1211.18 1568.5,1206.5Z" style="fill:white;fill-opacity:0.95;"/>
            </g>
        </g>
    </g>
</svg>
