<?xml version="1.0" encoding="UTF-8" standalone="no"?>
<!DOCTYPE svg PUBLIC "-//W3C//DTD SVG 1.1//EN" "http://www.w3.org/Graphics/SVG/1.1/DTD/svg11.dtd">
<svg width="100%" height="100%" viewBox="0 0 706 1150" version="1.1" xmlns="http://www.w3.org/2000/svg" xmlns:xlink="http://www.w3.org/1999/xlink" xml:space="preserve" xmlns:serif="http://www.serif.com/" style="fill-rule:evenodd;clip-rule:evenodd;stroke-linejoin:round;stroke-miterlimit:2;">
    <g id="Монтажная-область6" serif:id="Монтажная область6" transform="matrix(1,0,0,1,1688.07,642.586)">
        <rect x="-1688.07" y="-642.586" width="705.069" height="1149.88" style="fill:none;"/>
        <g transform="matrix(1,0,0,1,-2109.52,-1097.59)">
            <path d="M675.5,467.5C691.09,468.93 699.256,477.597 700,493.5C702.583,526.836 695.25,557.836 678,586.5C674.625,592.085 671.125,597.585 667.5,603C677.799,602.47 688.132,601.47 698.5,600C722.865,594.492 747.198,588.826 771.5,583C791.394,579.786 811.394,577.453 831.5,576C816.846,539.951 828.846,523.284 867.5,526C877.213,527.354 886.213,530.687 894.5,536C904.961,543.649 916.128,550.149 928,555.5C933.684,544.148 941.85,534.981 952.5,528C960.618,524.443 968.952,523.776 977.5,526C991.233,531.699 1004.23,538.699 1016.5,547C1022.8,551.437 1027.3,557.271 1030,564.5C1030.74,568.261 1030.4,571.928 1029,575.5C1025.53,582.937 1021.7,590.103 1017.5,597C1010.83,600.333 1004.17,603.667 997.5,607C974.137,615.353 950.804,623.686 927.5,632C943.026,651.891 952.359,674.391 955.5,699.5C956.351,706.136 953.518,710.136 947,711.5C940.396,710.23 936.396,706.23 935,699.5C933.581,698.54 932.081,697.707 930.5,697C924.786,696.368 919.119,696.701 913.5,698C899.012,702.205 884.679,706.872 870.5,712C849.157,721.781 827.491,730.781 805.5,739C784.26,744.977 762.927,750.31 741.5,755C751.788,768.401 760.954,782.567 769,797.5C769.785,795.714 770.951,794.214 772.5,793C792.985,781.227 814.985,774.393 838.5,772.5C859.96,773.263 878.96,780.429 895.5,794C913.959,809.458 931.459,825.958 948,843.5C965.868,870.899 980.868,899.899 993,930.5C1000.61,942.441 1008.61,954.108 1017,965.5C1025.72,982.994 1032.05,1001.33 1036,1020.5C1041.45,1053.86 1047.12,1087.2 1053,1120.5C1057.33,1157.08 1058.66,1193.75 1057,1230.5C1052.28,1248.11 1042.11,1261.61 1026.5,1271C1055.32,1297.12 1065.48,1329.29 1057,1367.5C1055.13,1372.08 1052.63,1376.25 1049.5,1380C1058.29,1391.67 1060.79,1404.5 1057,1418.5C1055.32,1423.71 1053.15,1428.71 1050.5,1433.5C1067.12,1444.28 1080.95,1457.95 1092,1474.5C1102.68,1491.85 1105.01,1510.18 1099,1529.5C1094.1,1537.22 1087.27,1539.55 1078.5,1536.5C1075.7,1542.6 1072.03,1548.1 1067.5,1553C1056.55,1561.61 1045.72,1561.45 1035,1552.5C1028.61,1556.3 1022.11,1556.47 1015.5,1553C1010.95,1549.74 1006.95,1545.91 1003.5,1541.5C998.258,1546.45 992.258,1547.62 985.5,1545C970.245,1538.68 962.912,1527.18 963.5,1510.5C963.849,1490.4 967.849,1471.07 975.5,1452.5C963.072,1445.01 955.572,1434.01 953,1419.5C950.722,1406.07 951.055,1392.74 954,1379.5C955.377,1377.25 956.877,1375.08 958.5,1373C949.268,1364.4 942.102,1354.23 937,1342.5C933.996,1332.82 930.996,1323.16 928,1313.5C921.348,1318.03 915.348,1317.36 910,1311.5C908.707,1307.42 909.874,1304.25 913.5,1302C918.112,1300.36 922.446,1298.19 926.5,1295.5C927.812,1288.1 931.979,1285.44 939,1287.5C941.833,1285.33 944.667,1283.17 947.5,1281C939.991,1281.04 932.658,1282.37 925.5,1285C910.387,1290.72 895.387,1296.72 880.5,1303C862.633,1309.91 844.133,1313.74 825,1314.5C812.032,1313.65 799.199,1312.15 786.5,1310C800.748,1320.91 812.915,1333.75 823,1348.5C827.519,1358.32 829.686,1368.65 829.5,1379.5C831.903,1379.39 833.736,1380.39 835,1382.5C835.333,1387.5 835.667,1392.5 836,1397.5C842.049,1404.55 847.716,1411.88 853,1419.5C861.913,1437.74 861.58,1455.74 852,1473.5C849.63,1475.37 847.13,1477.04 844.5,1478.5C870.128,1482.32 893.795,1491.16 915.5,1505C924.679,1511.69 929.679,1520.69 930.5,1532C929.428,1541.57 924.094,1546.41 914.5,1546.5C914.943,1555.84 913.443,1564.84 910,1573.5C904.972,1578.95 898.806,1580.79 891.5,1579C887.111,1577.97 883.111,1576.14 879.5,1573.5C877.115,1577.75 874.115,1581.58 870.5,1585C863.689,1588.36 857.022,1588.03 850.5,1584C845.658,1580.32 841.325,1576.16 837.5,1571.5C825.781,1579.09 813.115,1581.26 799.5,1578C789.99,1573.49 784.49,1565.99 783,1555.5C782.333,1540.83 782.333,1526.17 783,1511.5C783.287,1509.11 783.787,1506.78 784.5,1504.5C772.43,1499.63 761.097,1493.47 750.5,1486C740.638,1477.44 735.138,1466.6 734,1453.5C733.209,1444.08 733.709,1434.75 735.5,1425.5C706.364,1427.56 680.364,1419.72 657.5,1402C652.323,1396.81 648.823,1390.65 647,1383.5C644.749,1359.35 648.416,1336.35 658,1314.5C652.246,1311.37 646.746,1307.87 641.5,1304C632.47,1294.64 623.137,1285.64 613.5,1277C599.769,1267.61 585.769,1258.61 571.5,1250C561.892,1240.86 551.225,1233.2 539.5,1227C536.317,1223.28 534.65,1218.95 534.5,1214C537.108,1199.25 539.108,1184.41 540.5,1169.5C540.344,1151.91 537.177,1134.91 531,1118.5C521.252,1101.75 509.585,1086.41 496,1072.5C485.608,1057.77 475.608,1042.77 466,1027.5C455.858,1017.03 446.858,1005.7 439,993.5C433.862,981.67 432.196,969.336 434,956.5C440.355,912.434 453.355,870.434 473,830.5C481.614,813.786 492.78,798.953 506.5,786C513.743,780.048 522.076,776.882 531.5,776.5C535.361,771.094 540.195,770.094 546,773.5C546.333,773.167 546.667,772.833 547,772.5C547.818,749.148 547.485,725.815 546,702.5C543.826,679.437 541.326,656.437 538.5,633.5C539.183,630.553 539.517,627.72 539.5,625C536.372,623.212 535.039,620.545 535.5,617C536.418,611.576 537.751,606.243 539.5,601C535.013,595.845 530.513,590.678 526,585.5C512.89,565.707 513.556,546.374 528,527.5C543.966,510.1 563.466,498.766 586.5,493.5C598.897,495.221 607.563,501.887 612.5,513.5C629.188,492.015 650.188,476.682 675.5,467.5ZM677.5,540.5C677.666,532.493 677.5,524.493 677,516.5C676.679,507.851 672.346,502.518 664,500.5C659.74,501.462 656.074,503.462 653,506.5C643.477,521.214 635.81,536.881 630,553.5C626.52,562.392 626.853,571.058 631,579.5C635.368,582.42 640.201,583.253 645.5,582C652.047,578.976 658.38,575.476 664.5,571.5C660.281,580.27 655.781,588.937 651,597.5C650.764,599.764 650.264,601.931 649.5,604C639.034,603.822 629.534,606.655 621,612.5C617.304,618.788 618.971,623.121 626,625.5C631.685,622.202 637.852,620.368 644.5,620C664.581,619.261 684.581,617.595 704.5,615C731.103,609.016 757.769,603.349 784.5,598C802.655,596.046 820.822,594.213 839,592.5C848.012,596.743 853.846,594.077 856.5,584.5C855.835,580.156 853.502,577.156 849.5,575.5C843.856,565.789 842.189,555.622 844.5,545C854.856,541.742 865.189,541.742 875.5,545C885.166,550.164 894.5,555.831 903.5,562C909.864,565.182 916.198,568.349 922.5,571.5C925.636,582 931.469,584 940,577.5C942.896,564.882 949.063,554.049 958.5,545C962.894,542.626 967.56,541.959 972.5,543C984.237,547.701 995.237,553.701 1005.5,561C1008.69,562.695 1011.03,565.195 1012.5,568.5C1010.37,574.596 1007.37,580.096 1003.5,585C997.5,587.667 991.5,590.333 985.5,593C960.81,601.337 936.144,609.67 911.5,618C894.776,620.232 878.11,622.898 861.5,626C838.367,633.133 814.7,637.133 790.5,638C760.581,645.866 730.248,650.366 699.5,651.5C688.243,652.376 677.243,654.543 666.5,658C658.917,661.735 657.583,667.068 662.5,674C664.351,674.837 666.184,675.671 668,676.5C683.9,670.378 700.4,667.878 717.5,669C744.505,666.4 771.172,661.733 797.5,655C820.039,654.559 842.039,650.892 863.5,644C879.119,641.063 894.786,638.563 910.5,636.5C920.158,649.641 928.158,663.808 934.5,679C924.029,677.96 913.696,678.96 903.5,682C890.363,685.934 877.363,690.268 864.5,695C843.488,704.449 822.154,713.115 800.5,721C775.982,727.296 751.315,732.963 726.5,738C710.092,742.539 694.092,748.205 678.5,755C669.309,752.915 662.143,755.748 657,763.5C655.333,770.842 658.166,775.175 665.5,776.5C681.217,773.979 696.217,769.146 710.5,762C716.377,759.812 722.377,758.478 728.5,758C727.398,760.401 727.231,762.901 728,765.5C753.717,801.266 773.384,840.266 787,882.5C792.682,887.998 798.015,887.665 803,881.5C803.474,874.82 803.307,868.154 802.5,861.5C818.592,861.253 832.925,866.086 845.5,876C863.168,889.673 876.334,906.84 885,927.5C886.31,931.07 887.143,934.737 887.5,938.5C879.73,939.433 876.23,943.766 877,951.5C878.167,954 880,955.833 882.5,957C886.722,956.96 890.889,957.126 895,957.5C899.701,957.134 903.034,954.801 905,950.5C906.208,934.331 902.541,919.331 894,905.5C880.781,881.281 861.948,862.781 837.5,850C822.499,843.374 807.165,842.041 791.5,846C786.253,833.337 780.586,820.837 774.5,808.5C783.698,807.379 792.365,804.545 800.5,800C817.536,792.548 835.203,790.215 853.5,793C864.616,795.891 874.616,800.891 883.5,808C899.993,822.493 915.826,837.66 931,853.5C937.396,862.901 943.396,872.568 949,882.5C958.25,901.918 966.916,921.584 975,941.5C982.222,953.388 990.222,964.721 999,975.5C1005.04,987.3 1009.71,999.633 1013,1012.5C1018.8,1049.98 1025.47,1087.31 1033,1124.5C1037.19,1159.09 1038.53,1193.75 1037,1228.5C1031.04,1245.23 1019.21,1254.4 1001.5,1256C987.099,1259.35 973.599,1264.85 961,1272.5C954.114,1265.91 945.948,1263.74 936.5,1266C926.665,1268.06 916.999,1270.72 907.5,1274C885.885,1283.54 863.551,1290.87 840.5,1296C830.833,1296.67 821.167,1296.67 811.5,1296C794.695,1292.97 778.028,1289.3 761.5,1285C750.539,1283.51 739.539,1283.18 728.5,1284C721.484,1285.34 714.817,1287.67 708.5,1291C702.158,1295.5 700.325,1301.33 703,1308.5C710.224,1313.24 716.39,1312.07 721.5,1305C737.551,1300.3 753.551,1300.47 769.5,1305.5C766.606,1308.97 765.773,1312.97 767,1317.5C783.349,1329.52 797.349,1343.85 809,1360.5C811.101,1367.71 811.768,1375.04 811,1382.5C808.818,1389.03 805.985,1395.19 802.5,1401C804.807,1408.38 809.474,1410.38 816.5,1407C817.667,1405.83 818.833,1404.67 820,1403.5C824.699,1411.56 830.365,1418.89 837,1425.5C841.432,1433.06 843.599,1441.23 843.5,1450C842.709,1454.13 841.876,1458.3 841,1462.5C838.534,1465.13 836.701,1468.13 835.5,1471.5C835.856,1474.69 837.523,1476.85 840.5,1478C834.795,1477 829.128,1477.34 823.5,1479C816.615,1485.12 816.949,1490.78 824.5,1496C849.481,1497.53 873.148,1503.86 895.5,1515C896.167,1515.67 896.833,1516.33 897.5,1517C892.278,1521.5 891.111,1527 894,1533.5C895.866,1535.52 897.033,1537.85 897.5,1540.5C896.93,1547.39 896.263,1554.23 895.5,1561C890.89,1559.87 886.557,1557.87 882.5,1555C880.84,1552.09 879.674,1548.92 879,1545.5C872.163,1539.58 866.496,1540.58 862,1548.5C861.254,1553.46 861.754,1558.29 863.5,1563C863.066,1565.63 862.233,1568.13 861,1570.5C856.768,1567.94 853.601,1564.44 851.5,1560C854.757,1552.33 855.257,1544.5 853,1536.5C849.548,1527.52 843.381,1524.69 834.5,1528C830.87,1531.76 828.703,1536.26 828,1541.5C827.723,1547.26 827.556,1552.93 827.5,1558.5C819.994,1563.41 811.994,1564.57 803.5,1562C800.527,1559.55 799.027,1556.39 799,1552.5C798.134,1538.46 798.468,1524.46 800,1510.5C800.249,1509.38 800.749,1508.38 801.5,1507.5C805.37,1506.97 809.037,1505.8 812.5,1504C815.911,1498.37 814.577,1494.37 808.5,1492C788.24,1490.29 770.74,1482.45 756,1468.5C749.747,1456.17 747.913,1443.17 750.5,1429.5C756.482,1430.17 759.816,1427.51 760.5,1421.5C765.245,1417.74 765.578,1413.57 761.5,1409C742.466,1408 723.133,1406.67 703.5,1405C689.864,1401.6 677.697,1395.43 667,1386.5C664.075,1381.94 662.909,1376.94 663.5,1371.5C663.816,1359.68 665.316,1348.01 668,1336.5C669.363,1331.44 671.529,1326.78 674.5,1322.5C686.199,1323.79 693.533,1318.79 696.5,1307.5C692.263,1293.76 684.263,1290.76 672.5,1298.5C663.631,1294.23 655.631,1288.73 648.5,1282C630.388,1262.88 609.721,1247.21 586.5,1235C577.394,1226.28 567.394,1218.78 556.5,1212.5C556.167,1211.83 555.833,1211.17 555.5,1210.5C563.12,1176.5 560.954,1143.16 549,1110.5C546,1105.17 543,1099.83 540,1094.5C530.045,1081.54 519.712,1068.88 509,1056.5C495.287,1033.75 479.621,1012.41 462,992.5C455.857,984.406 452.69,975.239 452.5,965C456.372,918.051 469.539,873.884 492,832.5C497.507,823.485 503.507,814.818 510,806.5C513.912,801.917 518.412,798.083 523.5,795C528.811,793.928 534.145,792.928 539.5,792C540,791.5 540.5,791 541,790.5C542.825,791.103 544.659,791.77 546.5,792.5C545.305,806.333 543.972,820.167 542.5,834C543.394,848.581 550.728,854.081 564.5,850.5C599.279,855.111 632.945,863.945 665.5,877C675.4,881.531 684.9,886.698 694,892.5C696.645,900.818 701.311,907.818 708,913.5C708.333,918.167 708.667,922.833 709,927.5C711.927,937.143 717.594,939.476 726,934.5C727.66,931.23 727.994,927.897 727,924.5C737.346,920.343 738.846,914.176 731.5,906C729.608,905.027 727.608,904.36 725.5,904C717.728,897.908 711.894,890.408 708,881.5C696.202,872.347 683.368,864.847 669.5,859C635.357,845.604 600.023,837.104 563.5,833.5C566.473,801.478 568.139,769.978 568.5,739C566.316,703.191 562.649,667.524 557.5,632C558.362,626.433 558.362,619.933 557.5,612.5C566.202,612.445 569.702,608.112 568,599.5C567.535,598.069 566.701,596.903 565.5,596C553.333,589.167 543.833,579.667 537,567.5C533.508,556.655 535.508,546.989 543,538.5C553.179,527.989 565.013,519.822 578.5,514C584.079,511.296 588.912,512.13 593,516.5C596.115,521.844 598.448,527.511 600,533.5C599.616,539.14 599.616,544.806 600,550.5C602.973,557.147 607.14,562.98 612.5,568C620.692,570.99 625.358,568.157 626.5,559.5C624.583,551.665 622.583,543.832 620.5,536C621.795,531.374 623.962,527.207 627,523.5C640.279,506.213 656.946,493.547 677,485.5C679.188,485.354 680.521,486.354 681,488.5C684.393,506.212 683.227,523.546 677.5,540.5ZM659.5,530.5C661.086,539.729 659.253,548.396 654,556.5C652.292,558.543 650.292,560.21 648,561.5C647.808,558.053 648.475,554.72 650,551.5C653.179,544.478 656.345,537.478 659.5,530.5ZM575.5,559.5C577.253,562.287 577.586,565.287 576.5,568.5C575.516,565.572 575.183,562.572 575.5,559.5ZM934.5,1092.5C936.14,1093.32 937.807,1094.15 939.5,1095C934.987,1103.78 933.321,1102.95 934.5,1092.5ZM1082.5,1508.5C1076.7,1502.98 1071.2,1503.32 1066,1509.5C1064.48,1518.06 1062.15,1526.4 1059,1534.5C1054.02,1543.98 1049.86,1543.81 1046.5,1534C1048.12,1528.32 1047.62,1522.82 1045,1517.5C1039.02,1513.05 1033.69,1513.72 1029,1519.5C1027.34,1524.12 1027,1528.79 1028,1533.5C1024.77,1538.99 1022.1,1538.65 1020,1532.5C1018.68,1527.9 1017.68,1523.23 1017,1518.5C1013.38,1512.41 1008.55,1511.24 1002.5,1515C999.963,1520.93 996.13,1525.76 991,1529.5C985.921,1527.42 982.588,1523.75 981,1518.5C980.382,1499.21 983.548,1480.54 990.5,1462.5C993.632,1460.2 996.298,1457.37 998.5,1454C1003.96,1453.11 1007.63,1450.11 1009.5,1445C1008.72,1441.05 1006.39,1438.55 1002.5,1437.5C987.243,1442.96 976.743,1437.96 971,1422.5C967.411,1410.66 966.744,1398.66 969,1386.5C970.775,1384.61 972.775,1382.94 975,1381.5C975.977,1379.26 976.477,1376.93 976.5,1374.5C984.879,1374.31 988.046,1370.31 986,1362.5C984.316,1360.93 982.316,1359.93 980,1359.5C974.019,1361.47 968.686,1360.47 964,1356.5C952.554,1340.99 946.387,1323.66 945.5,1304.5C956.102,1297.07 967.102,1290.24 978.5,1284C986.155,1280.39 994.155,1277.89 1002.5,1276.5C1026.01,1287.86 1039.84,1306.53 1044,1332.5C1046.78,1344.93 1045.61,1356.93 1040.5,1368.5C1030.75,1369.33 1027.58,1374.33 1031,1383.5C1037.69,1390.37 1041.85,1398.54 1043.5,1408C1043.02,1415.28 1041.02,1422.11 1037.5,1428.5C1026.98,1428.86 1021.65,1434.36 1021.5,1445C1021.59,1450.28 1023.26,1454.95 1026.5,1459C1029.79,1461.07 1032.96,1460.91 1036,1458.5C1036.85,1456.06 1037.85,1453.73 1039,1451.5C1057.21,1462.38 1070.88,1477.38 1080,1496.5C1081.47,1500.38 1082.3,1504.38 1082.5,1508.5Z" style="fill:rgb(41,108,30);fill-opacity:0.83;"/>
        </g>
        <g transform="matrix(1,0,0,1,-2109.52,-1097.59)">
            <path d="M567.5,528.5C574.34,527.67 579.84,530.003 584,535.5C593.024,548.927 596.358,563.593 594,579.5C592.567,584.598 589.4,588.098 584.5,590C578.154,589.494 571.821,589.494 565.5,590C561.942,588.108 559.442,585.275 558,581.5C555.383,565.598 556.383,549.931 561,534.5C562.494,531.686 564.66,529.686 567.5,528.5ZM575.5,559.5C575.183,562.572 575.516,565.572 576.5,568.5C577.586,565.287 577.253,562.287 575.5,559.5Z" style="fill:rgb(41,108,30);fill-opacity:0.84;"/>
        </g>
        <g transform="matrix(1,0,0,1,-2109.52,-1097.59)">
            <path d="M942.5,1001.5C949.374,1000.53 953.207,1003.53 954,1010.5C956.618,1024.28 958.452,1038.12 959.5,1052C958.801,1055.8 958.135,1059.63 957.5,1063.5C964.911,1066.66 967.077,1071.99 964,1079.5C961.819,1082.34 959.653,1085.18 957.5,1088C960.183,1094.67 963.683,1100.84 968,1106.5C972.445,1113.5 970.945,1118.5 963.5,1121.5C962.205,1120.9 960.872,1120.4 959.5,1120C955.47,1116.07 951.804,1111.91 948.5,1107.5C945.377,1111.58 942.377,1115.75 939.5,1120C931.854,1125.25 925.354,1124.09 920,1116.5C918.395,1109.24 917.228,1101.9 916.5,1094.5C911.21,1096.57 906.71,1095.57 903,1091.5C902.21,1088.37 902.543,1085.37 904,1082.5C908.406,1080.37 912.573,1077.87 916.5,1075C912.011,1065.86 907.678,1056.69 903.5,1047.5C904.757,1040.7 908.757,1038.2 915.5,1040C916.931,1040.47 918.097,1041.3 919,1042.5C922.338,1048.51 926.172,1054.18 930.5,1059.5C934.737,1057.78 938.237,1058.78 941,1062.5C942.015,1058.24 942.515,1053.9 942.5,1049.5C941.537,1036.96 940.204,1024.46 938.5,1012C938.04,1007.76 939.374,1004.26 942.5,1001.5ZM934.5,1092.5C933.321,1102.95 934.987,1103.78 939.5,1095C937.807,1094.15 936.14,1093.32 934.5,1092.5Z" style="fill:rgb(41,108,30);fill-opacity:0.83;"/>
        </g>
        <g transform="matrix(1,0,0,1,-2109.52,-1097.59)">
            <path d="M615.5,1011.5C621.347,1010.84 625.513,1013.17 628,1018.5C632.302,1057.16 652.802,1083.32 689.5,1097C699.551,1100.76 709.884,1103.43 720.5,1105C737.794,1106.85 755.127,1107.52 772.5,1107C767.202,1104.34 761.869,1101.67 756.5,1099C750.458,1095.25 748.958,1090.09 752,1083.5C755.681,1080.64 759.848,1079.81 764.5,1081C771.374,1084.94 778.374,1088.6 785.5,1092C790.713,1096.72 796.047,1101.22 801.5,1105.5C806.099,1098.51 811.099,1091.68 816.5,1085C821.971,1080.36 827.137,1080.53 832,1085.5C833.706,1091.42 831.706,1095.42 826,1097.5C823.302,1101.37 820.802,1105.37 818.5,1109.5C829.756,1114.39 839.589,1121.39 848,1130.5C850.332,1138.17 847.498,1141.67 839.5,1141C832.007,1134.92 823.674,1130.42 814.5,1127.5C811.201,1128.21 807.867,1128.54 804.5,1128.5C803.451,1136.15 801.118,1143.31 797.5,1150C792.968,1152.04 789.468,1150.88 787,1146.5C786.611,1139.83 786.778,1133.16 787.5,1126.5C762.068,1127.21 736.734,1126.04 711.5,1123C680.176,1117.43 654.009,1102.93 633,1079.5C618.831,1060.84 611.165,1039.84 610,1016.5C611.73,1014.6 613.563,1012.93 615.5,1011.5Z" style="fill:rgb(41,108,30);fill-opacity:0.83;"/>
        </g>
    </g>
</svg>
