<?xml version="1.0" encoding="UTF-8" standalone="no"?>
<!DOCTYPE svg PUBLIC "-//W3C//DTD SVG 1.1//EN" "http://www.w3.org/Graphics/SVG/1.1/DTD/svg11.dtd">
<svg width="100%" height="100%" viewBox="0 0 218 225" version="1.1" xmlns="http://www.w3.org/2000/svg" xmlns:xlink="http://www.w3.org/1999/xlink" xml:space="preserve" xmlns:serif="http://www.serif.com/" style="fill-rule:evenodd;clip-rule:evenodd;stroke-linejoin:round;stroke-miterlimit:2;">
    <g id="Монтажная-область1" serif:id="Монтажная область1" transform="matrix(0.724054,0,0,0.772438,-692.959,-541.977)">
        <rect x="957.054" y="701.646" width="300.324" height="290.339" style="fill:none;"/>
        <g transform="matrix(0.138111,0,0,-0.12946,-918.363,1926.71)">
            <path d="M14763,9325C14724,9308 14708,9284 14679,9200C14667,9164 14655,9132 14651,9129C14648,9125 14622,9119 14594,9115L14542,9108L14531,9143C14514,9195 14469,9232 14422,9234C14344,9236 14295,9172 14306,9086C14313,9037 14296,9019 14284,9064C14281,9077 14265,9101 14249,9116C14206,9157 14144,9157 14102,9117C14063,9080 14056,9038 14076,8971C14091,8919 14091,8917 14068,8891C14055,8877 14044,8864 14044,8862C14043,8861 14022,8865 13997,8872C13957,8882 13946,8882 13915,8867C13847,8835 13834,8752 13887,8690C13910,8662 13911,8657 13900,8606L13889,8552L13842,8547C13756,8537 13714,8457 13758,8385C13777,8355 13794,8343 13863,8316C13892,8304 13900,8296 13900,8276C13900,8263 13902,8245 13906,8237C13909,8228 13900,8218 13880,8210C13838,8193 13820,8164 13820,8114C13820,8042 13874,8000 13967,8000C13993,8000 14003,7994 14016,7968C14032,7937 14032,7936 14002,7911C13939,7859 13940,7778 14004,7739C14046,7714 14078,7715 14134,7745L14181,7770L14226,7744C14275,7715 14274,7719 14259,7666C14236,7581 14279,7510 14354,7510C14405,7510 14434,7529 14461,7581L14481,7621L14635,7615L14658,7550C14686,7469 14716,7440 14773,7440C14846,7440 14882,7481 14895,7580C14903,7638 14911,7650 14946,7650C14962,7650 14973,7638 14990,7598C15019,7530 15045,7502 15088,7494C15135,7485 15183,7509 15203,7553C15222,7592 15225,7675 15210,7715L15200,7742L15242,7735C15266,7731 15307,7721 15333,7713C15469,7669 15549,7795 15465,7919C15432,7968 15431,7974 15437,8035C15443,8100 15443,8100 15479,8110C15535,8125 15572,8169 15578,8228C15585,8310 15539,8369 15455,8384C15428,8389 15419,8398 15406,8430C15397,8452 15390,8472 15390,8474C15390,8477 15406,8488 15426,8501C15474,8530 15500,8575 15500,8628C15500,8719 15455,8765 15335,8795C15297,8805 15262,8816 15258,8819C15254,8823 15268,8847 15290,8874C15324,8914 15330,8929 15330,8967C15330,9005 15325,9017 15296,9046C15267,9075 15255,9080 15214,9080C15180,9080 15151,9072 15122,9055L15078,9030L15025,9062L14973,9093L14966,9162C14958,9246 14941,9290 14905,9318C14873,9344 14812,9347 14763,9325ZM14710,8547C14741,8519 14803,8442 14819,8412C14838,8376 14823,8315 14785,8275C14754,8241 14750,8240 14679,8241L14605,8241L14572,8283C14539,8324 14538,8326 14542,8406C14544,8471 14550,8495 14566,8517C14607,8572 14668,8585 14710,8547Z" style="fill:white;fill-rule:nonzero;"/>
        </g>
    </g>
</svg>
