<?xml version="1.0" encoding="UTF-8" standalone="no"?>
<!DOCTYPE svg PUBLIC "-//W3C//DTD SVG 1.1//EN" "http://www.w3.org/Graphics/SVG/1.1/DTD/svg11.dtd">
<svg width="100%" height="100%" viewBox="0 0 594 1248" version="1.1" xmlns="http://www.w3.org/2000/svg" xmlns:xlink="http://www.w3.org/1999/xlink" xml:space="preserve" xmlns:serif="http://www.serif.com/" style="fill-rule:evenodd;clip-rule:evenodd;stroke-linejoin:round;stroke-miterlimit:2;">
    <g id="Page-1">
        <g id="iPhone-11">
            <g id="Group-2">
                <g id="pumpkin-image-new-" serif:id="pumpkin-image(new)" transform="matrix(1,0,0,1,45,114)">
                    <rect id="Rectangle" x="0" y="0" width="248" height="310" style="fill:none;"/>
                    <g id="Group" transform="matrix(1,0,0,1,4.03613,4.18751)">
                        <g id="Shape">
                            <path d="M54.154,0.02C70.116,-0.432 80.981,6.766 86.748,21.613C90.349,31.282 91.615,41.147 90.547,51.203C100.825,45.265 111.359,39.731 122.141,34.609C132.764,29.47 143.894,25.936 155.535,24.012C161.05,24.512 162.782,27.311 160.735,32.409C159.843,33.289 158.843,34.021 157.735,34.609C154.976,35.588 152.308,36.788 149.736,38.208C148.805,38.475 147.869,38.475 146.937,38.208C145.933,37.66 144.997,37.06 144.137,36.408C133.791,40.059 123.793,44.521 114.143,49.804C104.617,54.898 95.282,60.296 86.148,65.998C84.393,69.773 82.86,73.64 81.549,77.595C81.295,79.334 81.162,81.07 81.149,82.793C89.525,79.946 98.122,78.011 106.944,76.995C125.409,75.103 143.674,76.703 161.734,81.793C170.273,83.997 178.403,87.196 186.13,91.39C199.664,100.255 211.861,110.716 222.723,122.78C225.707,127.103 228.374,131.637 230.722,136.375C233.933,145.888 236.201,155.617 237.521,165.566C237.789,170.096 237.789,174.631 237.521,179.162C236.329,203.522 229.798,226.314 217.924,247.539C211.625,256.768 203.959,264.702 194.928,271.331C192.709,272.507 190.445,273.575 188.13,274.53C184.222,275.446 180.355,276.51 176.532,277.729C169.333,280.928 162.134,284.127 154.936,287.326C145.829,289.909 136.563,290.645 127.141,289.525C119.194,289.853 111.263,290.385 103.345,291.125C95.814,290.345 88.28,289.545 80.749,288.726C78.483,288.746 76.284,289.146 74.15,289.925C69.131,288.822 67.598,285.887 69.551,281.128C72.426,277.945 76.026,276.482 80.349,276.73C88.061,277.753 95.794,278.553 103.545,279.129C111.135,278.565 118.734,278.165 126.341,277.929C131.876,278.161 137.407,278.225 142.938,278.129C145.929,277.713 148.861,277.05 151.736,276.13C157.963,273.683 164.094,271.02 170.133,268.132C175.528,266.289 180.995,264.69 186.53,263.334C198.612,256.452 207.478,246.655 213.125,233.944C217.736,224.319 221.336,214.322 223.923,203.953C224.859,195.672 225.927,187.407 227.123,179.162C227.739,171.48 227.207,163.883 225.523,156.369C223.923,150.771 222.324,145.173 220.724,139.574C218.592,136.108 216.457,132.645 214.325,129.178C204.931,119.245 194.6,110.516 183.33,102.986C174.26,97.608 164.53,93.877 154.136,91.79C135.435,87.132 116.638,86.732 97.746,90.59C89.031,92.25 80.766,95.185 72.95,99.388C66.285,103.786 59.619,108.185 52.954,112.583C50.032,114.815 47.299,117.282 44.755,119.981C37.138,128.422 29.806,137.087 22.759,145.972C20.404,150.679 18.272,155.477 16.36,160.368C13.512,177.174 12.312,194.105 12.761,211.151C14.422,224.847 16.688,238.442 19.56,251.938C21.125,255.205 22.991,258.268 25.159,261.135C30.556,267.065 36.089,272.863 41.756,278.529C45.763,281.332 50.029,283.731 54.554,285.727C60.409,288.454 66.408,290.853 72.55,292.924C75.75,295.456 75.75,297.991 72.55,300.522C71.777,300.622 71.044,300.822 70.351,301.122C58.968,298.926 48.236,294.996 38.156,289.326C36.29,287.994 34.424,286.658 32.557,285.327C26.331,279.101 20.398,272.639 14.761,265.933C12.005,262.29 9.872,258.292 8.362,253.937C5.574,240.278 3.174,226.546 1.163,212.751C0.295,197.775 0.829,182.848 2.763,167.965C3.342,162.183 4.675,156.585 6.762,151.171C8.793,146.976 10.926,142.845 13.161,138.775C20.192,129.878 27.525,121.212 35.157,112.783C37.769,110.036 40.502,107.437 43.356,104.986C50.311,100.031 57.377,95.233 64.552,90.59C61.804,91.146 59.004,91.278 56.153,90.99C54.316,90.406 52.849,89.343 51.754,87.791C51.039,87.583 50.372,87.715 49.754,88.191C37.874,96.129 26.276,104.462 14.961,113.183C14.928,114.315 14.861,115.514 14.761,116.782C14.011,118.825 12.545,119.889 10.361,119.981C7.763,119.737 5.163,119.405 2.563,118.981C-0.297,116.946 -0.763,114.479 1.163,111.584C15.287,99.759 30.017,88.763 45.355,78.594C35.243,61.452 32.111,43.122 35.957,23.612C36.562,18.954 37.095,14.291 37.557,9.617C37.745,8.917 38.012,8.253 38.356,7.618C39.986,6.17 41.652,4.77 43.356,3.419C46.915,1.987 50.514,0.856 54.154,0.02ZM55.753,10.017C66.535,10.201 73.667,15.399 77.149,25.612C81.195,36.624 81.395,47.684 77.749,58.801C69.818,63.499 61.952,68.298 54.154,73.196C51.218,69.057 49.019,64.527 47.555,59.601C44.615,50.484 43.548,41.155 44.355,31.61C45.72,25.524 46.786,19.394 47.555,13.216C48.04,12.596 48.64,12.128 49.354,11.816C51.525,11.156 53.658,10.557 55.753,10.017ZM72.95,73.596C73.189,73.692 73.322,73.892 73.35,74.196C73.045,76.379 72.845,78.578 72.75,80.794C71.583,78.586 69.783,77.851 67.351,78.594C65.602,79.87 63.736,80.934 61.752,81.793C61.086,82.061 60.419,82.061 59.753,81.793C64.312,79.25 68.711,76.519 72.95,73.596ZM70.151,87.192C71.971,85.952 72.971,84.221 73.15,81.993C73.483,83.393 74.35,84.261 75.75,84.592C73.923,85.572 72.056,86.44 70.151,87.192Z" style="fill:rgb(41,108,30);fill-opacity:0.9;"/>
                        </g>
                        <g id="Shape1" serif:id="Shape" transform="matrix(1,0,0,1,127.518,109.155)">
                            <path d="M26.217,0.43C33.004,-0.93 38.671,0.937 43.214,6.028C45.462,8.943 47.194,12.142 48.413,15.625C49.025,20.051 48.489,24.318 46.814,28.42C44.15,31.444 41.151,34.043 37.815,36.218C36.024,36.998 34.156,37.534 32.216,37.817C31.684,38.217 31.148,38.617 30.616,39.017C32.592,40.652 33.792,42.72 34.216,45.215C33.536,48.954 31.4,50.089 27.817,48.614C25.805,46.735 23.938,44.735 22.218,42.616C16.743,42.844 11.544,41.776 6.621,39.417C1.094,33.899 -0.974,27.301 0.422,19.623C0.786,15.229 2.586,11.562 5.821,8.627C8.488,6.896 11.152,5.16 13.82,3.429C17.931,2.141 22.062,1.141 26.217,0.43ZM27.817,10.426C26.809,12.598 25.077,13.665 22.618,13.625C22.226,19.259 23.358,24.594 26.017,29.62C28.329,28.724 30.66,27.857 33.016,27.021C34.804,25.633 36.467,24.102 38.015,22.422C38.487,20.843 38.623,19.243 38.415,17.624C37.171,15.449 35.772,13.381 34.216,11.426C32.22,10.494 30.085,10.162 27.817,10.426ZM12.22,16.424C9.652,21.411 9.852,26.209 12.82,30.82C14.043,31.567 15.311,31.835 16.619,31.619C14.483,26.689 13.016,21.623 12.22,16.424Z" style="fill:rgb(41,108,30);fill-opacity:0.9;"/>
                        </g>
                        <g id="Shape2" serif:id="Shape" transform="matrix(1,0,0,1,55.3534,135.576)">
                            <path d="M16.397,0C22.242,0.176 27.974,1.04 33.594,2.599C39.057,6.862 43.524,11.996 46.992,17.994C51.463,26.315 50.799,34.181 44.992,41.586C42.624,43.202 40.293,44.869 37.993,46.585C29.895,48.512 22.163,47.449 14.797,43.386C12.817,42.986 10.817,42.722 8.798,42.586C3.237,38.395 0.304,32.797 0,25.792C0.289,21.281 0.889,16.819 1.8,12.396C5.274,6.586 10.14,2.455 16.397,0ZM22.796,10.397C23.988,12.776 23.721,14.975 21.996,16.994C24.317,23.168 27.316,28.967 30.994,34.389C31.192,35.177 31.259,35.976 31.194,36.788C32.111,36.684 32.978,36.82 33.794,37.188C35.465,36.084 37.065,34.885 38.593,33.589C40.061,31.042 40.329,28.375 39.393,25.592C37.13,20.077 33.731,15.343 29.195,11.396C27.08,10.932 24.947,10.601 22.796,10.397ZM10.798,15.995C10.349,19.118 9.949,22.249 9.598,25.392C9.732,27.995 10.532,30.326 11.998,32.389C12.597,31.458 13.397,30.726 14.397,30.19C15.704,30.058 16.903,29.99 17.997,29.99C15.471,25.34 13.072,20.673 10.798,15.995ZM20.396,33.989C20.223,35.057 20.623,35.52 21.596,35.388C21.142,34.929 20.742,34.465 20.396,33.989Z" style="fill:rgb(41,108,30);fill-opacity:0.89;"/>
                        </g>
                        <g id="Shape3" serif:id="Shape" transform="matrix(1,0,0,1,92.2258,170.764)">
                            <path d="M102.703,0C107.486,0.092 111.421,1.959 114.5,5.598C120.575,14.219 124.311,23.816 125.698,34.389C126.73,42.298 125.395,49.764 121.699,56.781C111.709,71.421 98.311,81.753 81.506,87.771C61.798,92.826 42.601,91.358 23.917,83.373C17.298,80.162 11.499,75.827 6.52,70.377C3.416,66.166 1.283,61.504 0.121,56.382C-0.328,49.572 0.472,42.91 2.521,36.388C3.412,32.777 5.612,31.514 9.119,32.589C10.723,33.861 11.523,35.528 11.519,37.588C13.551,37.888 15.55,38.355 17.518,38.987C19.322,40.087 21.053,41.287 22.717,42.586C24.229,43.474 25.828,44.142 27.516,44.585C31.719,44.877 35.919,45.213 40.114,45.585C51.584,44.701 62.85,42.634 73.908,39.387C80.531,34.229 85.13,27.631 87.705,19.594C88.825,16.315 89.757,12.98 90.505,9.597C92.548,3.751 96.616,0.552 102.703,0ZM102.703,10.397C101.679,10.685 100.947,11.352 100.503,12.396C98.631,21.077 95.432,29.21 90.905,36.788C87.653,40.971 83.986,44.769 79.907,48.184C77.335,49.36 74.668,50.296 71.908,50.983C66.949,52.083 62.018,53.283 57.111,54.582C46.189,56.354 35.259,56.354 24.317,54.582C20.313,52.947 16.646,50.747 13.319,47.984C12.735,49.132 12.603,50.332 12.919,51.583C14.21,51.895 15.41,52.427 16.518,53.183C18.458,56.833 17.458,59.301 13.519,60.58C14.954,62.815 16.686,64.815 18.718,66.578C27.732,73.672 37.998,77.807 49.512,78.974C64.757,81.385 79.023,78.722 92.304,70.977C101.683,65.731 109.081,58.469 114.5,49.184C117.548,36.436 115.416,24.572 108.102,13.596C106.83,11.58 105.03,10.513 102.703,10.397Z" style="fill:rgb(41,108,30);fill-opacity:0.9;"/>
                        </g>
                    </g>
                </g>
                <g id="people_image" transform="matrix(1,0,0,1,0,667)">
                    <rect id="Rectangle1" serif:id="Rectangle" x="0" y="0" width="460" height="581" style="fill:none;"/>
                    <g id="Group1" serif:id="Group" transform="matrix(1,7.65714e-16,7.65714e-16,-1,10,574)">
                        <g id="Shape4" serif:id="Shape" transform="matrix(1,0,0,1,133.598,296.223)">
                            <path d="M131.841,274.343C114.204,271.22 94.581,258.27 88.396,245.701C85.8,240.521 85.8,240.368 85.8,230.161C85.876,220.41 85.953,219.572 88.32,213.402C89.694,209.821 91.985,205.251 93.359,203.118L95.802,199.385L83.586,190.244C76.79,185.292 65.337,177.294 58.16,172.495C50.906,167.772 44.34,162.973 43.653,161.83C39.453,155.507 45.485,148.727 52.204,152.232C59,155.736 78.699,168.457 90.763,177.065C98.093,182.322 104.201,186.283 104.354,185.978C104.507,185.673 103.056,180.493 101.224,174.475C99.315,168.457 96.337,158.402 94.581,152.232C90.305,137.149 87.938,131.359 77.936,112.467C73.278,103.707 69.155,94.946 68.697,93.118C68.086,90.452 67.17,89.081 64.268,86.643C56.404,80.092 48.768,72.17 32.811,54.268C14.104,33.167 6.621,24.102 2.651,17.398C-0.709,11.685 -0.862,9.095 2.116,6.124C4.483,3.763 6.545,3.382 9.294,4.753C11.431,5.819 35.559,30.12 52.204,48.021C64.345,61.048 65.185,61.809 65.414,59.829C65.566,58.61 65.108,51.145 64.345,43.146C62.436,23.645 62.436,7.419 64.268,4.143C67.17,-1.265 73.889,-1.418 76.638,3.915C77.63,5.819 79.157,17.093 82.364,47.336C82.822,50.916 83.128,59.524 83.128,66.456L83.128,79.025L85.495,81.311C89.083,84.739 90.229,87.405 89.694,91.366C89.312,94.489 89.618,95.404 93.054,101.421C98.398,110.791 104.049,122.903 106.339,129.759C107.332,132.959 109.622,142.176 111.379,150.327C116.342,173.104 118.327,181.407 118.938,181.407C121.305,181.407 130.925,151.698 133.521,136.463C134.896,128.236 135.659,126.56 138.561,125.341C142.913,123.513 147.036,126.331 147.799,131.664C148.563,137.225 142.989,162.973 138.026,176.837C136.728,180.417 135.506,183.845 135.354,184.531C134.972,185.521 135.659,185.902 138.484,186.283C157.344,189.177 170.171,203.803 170.171,222.695C170.171,230.922 165.055,246.767 157.649,261.241C152.457,271.449 142.836,276.324 131.841,274.343ZM139.859,258.042C142.684,256.899 145.509,252.1 150.93,239.302C157.267,224.371 156.809,214.621 149.403,207.536C145.814,204.032 140.088,201.747 134.972,201.671C130.238,201.594 127.871,202.813 120.923,209.136C118.098,211.726 116.494,212.64 114.662,212.64C110.997,212.64 109.775,211.878 108.324,208.679L107.026,205.784L105.041,212.411C101.682,223.457 101.224,226.123 101.605,232.141C101.911,236.94 102.369,238.388 104.201,241.054C109.088,247.986 124.741,256.823 135.048,258.575C136.117,258.727 137.034,258.956 137.186,259.032C137.263,259.032 138.484,258.651 139.859,258.042ZM108.554,203.499C108.783,202.661 108.63,201.975 108.248,201.975C107.866,201.975 107.561,202.661 107.561,203.499C107.561,204.337 107.714,205.022 107.866,205.022C108.019,205.022 108.324,204.337 108.554,203.499Z" style="fill:rgb(41,108,30);fill-rule:nonzero;"/>
                        </g>
                        <g id="Shape5" serif:id="Shape" transform="matrix(1,0,0,1,0,243.911)">
                            <path d="M87.688,314.009C78.143,311.419 69.821,304.106 64.782,293.594C61.04,285.748 59.666,280.492 58.521,269.294C57.452,259.162 58.291,250.63 60.887,244.841C62.644,240.727 67.149,235.699 70.05,234.557C71.501,233.947 72.493,232.729 73.028,230.976L73.791,228.31L63.789,217.036C58.215,210.866 49.129,200.887 43.555,194.869C31.873,182.299 26.757,175.977 25.841,172.853C24.39,167.826 27.521,163.636 32.637,163.636C35.08,163.636 35.92,164.245 40.348,169.121C43.097,172.168 50.961,180.471 57.91,187.632C64.858,194.716 72.722,202.943 75.242,205.838L79.976,211.17L78.067,205.076C77.075,201.801 73.944,187.936 71.195,174.301C65.469,145.963 63.636,138.269 59.819,127.071C56.917,118.615 53.328,102.77 53.328,98.657C53.328,96.6 51.801,94.543 42.944,84.793C15.762,55.007 1.79,35.278 0.186,24.46C-1.265,14.786 5.989,8.692 14.083,12.501C17.518,14.177 19.275,17.452 18.664,21.261C18.206,23.927 18.587,24.613 23.78,31.621C29.888,39.696 37.6,48.989 50.656,64.073L59.055,73.671L59.666,67.424C63.025,30.174 68.065,5.188 72.875,1.455C76.922,-1.744 83.87,0.693 83.87,5.264C83.87,6.102 83.03,13.796 82.038,22.251C79.06,46.552 78.602,51.656 77.456,71.462C76.845,81.746 76.006,91.192 75.471,92.41C75.013,93.705 73.562,95.762 72.264,97.133L69.897,99.571L71.959,104.142C75.471,111.988 82.19,130.042 84.175,136.898C87.23,147.563 88.986,157.085 90.818,172.244C91.734,180.09 92.727,186.489 93.032,186.489C93.262,186.489 95.705,180.928 98.377,174.225C101.05,167.445 103.951,161.046 104.867,159.979C108.074,156.247 114.488,157.923 115.557,162.798C115.786,164.017 115.099,167.749 113.648,172.396C110.594,182.223 107.921,192.964 105.554,204.391C102.5,219.245 102.5,218.94 104.715,219.55C108.227,220.388 118.077,227.625 122.81,232.805C128.613,239.051 132.736,245.831 135.943,254.363C138.158,260.228 138.387,261.523 138.387,269.522C138.463,279.806 136.631,286.662 131.973,293.823C124.414,305.478 114.259,312.334 101.355,314.39C95.094,315.457 92.803,315.381 87.688,314.009ZM105.554,295.727C110.441,294.051 116.855,288.033 119.527,282.624C121.436,278.739 121.665,277.444 121.665,270.589C121.665,263.123 121.589,262.818 118.458,256.42C114.641,248.726 107.234,240.346 101.584,237.299L97.69,235.242L94.636,236.766C92.88,237.756 90.589,238.289 89.062,238.137C86.848,237.909 86.542,238.137 86.084,240.194C85.779,241.489 85.55,243.927 85.473,245.679C85.397,249.868 82.877,252.839 79.289,253.144C76.693,253.296 76.616,253.449 76.006,257.41C75.395,261.676 76.464,273.712 77.838,279.044C78.907,283.005 81.732,288.49 84.175,291.461C88.604,296.641 97.537,298.469 105.554,295.727Z" style="fill:rgb(41,108,30);fill-rule:nonzero;"/>
                        </g>
                        <g id="Shape6" serif:id="Shape" transform="matrix(1,0,0,1,222.834,159.268)">
                            <path d="M137.055,268.466C131.023,266.714 122.548,262.219 116.592,257.496C103.078,246.679 96.969,236.014 96.969,222.988C96.969,219.484 97.275,215.37 97.657,213.771C98.344,211.105 98.191,210.876 95.824,209.733C93.075,208.438 91.625,205.924 91.625,202.573C91.625,197.621 94.908,193.127 101.856,188.632L105.674,186.271L102.849,185.661C98.802,184.823 93.457,182.005 81.317,174.235C67.65,165.398 57.189,157.628 55.051,154.733C51.31,149.477 54.135,143.155 60.32,143.155C64.214,143.155 69.253,145.668 70.398,148.182C71.009,149.477 74.75,152.143 81.317,156.029C90.632,161.589 97.275,165.246 98.038,165.246C98.649,165.246 78.721,124.415 73.529,114.969C58.182,87.317 48.408,71.243 46.347,70.101C39.093,66.14 18.401,47.705 8.552,36.507C2.062,29.194 0.076,25.385 0,20.662C0,14.796 5.574,11.14 10.384,13.882C11.3,14.415 13.362,16.548 14.965,18.681C17.638,22.109 22.753,27.137 41.613,44.886L47.721,50.599L48.103,28.508C48.561,4.436 48.943,2.76 53.066,0.856C55.891,-0.439 57.571,-0.287 59.785,1.465C64.977,5.579 67.039,19.595 65.741,42.372C65.283,50.676 64.519,58.979 64.137,60.807C63.297,64.083 63.374,64.235 68.108,71.853C85.058,99.353 95.977,119.997 106.132,143.916C109.568,152.067 112.698,159.076 113.004,159.38C113.309,159.761 113.767,150.163 113.996,138.051C114.378,115.35 114.76,112.227 117.738,109.103C121.021,105.599 127.587,107.428 128.58,112.074C128.809,113.065 129.343,121.52 129.878,130.89C130.718,146.583 130.412,171.34 129.343,179.415C128.885,182.538 128.962,182.614 131.634,183.528C136.521,185.128 143.316,190.308 147.058,195.184C164.314,217.884 168.589,258.03 154.769,267.171C152.25,268.847 150.723,269.228 146.294,269.38C143.316,269.456 139.193,269.075 137.055,268.466ZM147.134,252.316C148.279,248.279 147.516,234.491 145.912,228.092C144.156,221.465 139.269,210.571 136.139,206.534C132.703,201.963 128.504,199.526 124.304,199.526C122.243,199.526 119.952,199.83 119.188,200.287C117.127,201.354 113.767,209.581 112.622,216.132C110.789,226.873 112.698,232.206 121.632,240.966C127.893,247.136 134.23,251.25 140.797,253.307C145.53,254.754 146.523,254.602 147.134,252.316Z" style="fill:rgb(41,108,30);fill-rule:nonzero;"/>
                        </g>
                        <g id="Shape7" serif:id="Shape" transform="matrix(1,0,0,1,280.289,0)">
                            <path d="M138.011,248.947C129.765,247.728 115.487,239.348 110.066,232.569C106.706,228.455 104.034,222.818 102.888,217.79C101.972,213.524 102.201,197.756 103.27,193.414C103.804,191.509 103.575,191.281 98.918,189.757C90.214,186.862 75.019,176.807 61.352,164.923C52.953,157.61 51.349,153.649 55.243,149.764C58.832,146.184 61.123,146.946 69.674,154.487C82.425,165.761 105.942,176.731 113.425,174.826L115.181,174.369L112.662,171.475C102.506,159.591 98.536,154.716 92.962,147.403C85.785,137.804 63.871,105.429 60.13,98.725C58.298,95.602 52.266,89.051 39.133,75.872C16.608,53.476 3.628,38.165 0.65,30.699C-1.946,24.3 3.705,17.749 9.202,20.72C10.195,21.253 15.616,26.662 21.266,32.756C37.911,50.734 38.904,51.648 38.064,49.515C37.682,48.449 34.781,41.593 31.65,34.28C25.771,20.492 21.953,9.598 21.953,6.475C21.953,3.58 25.465,0 28.291,0C31.879,0.076 33.177,1.447 36.002,8.075C37.377,11.427 44.859,26.586 52.647,41.897C62.039,60.561 67.536,72.292 69.293,77.624C71.736,85.318 72.041,85.852 78.226,92.479C81.738,96.288 84.716,100.097 84.869,100.935C85.098,101.773 85.403,103.296 85.632,104.363C86.09,106.115 102.048,129.653 106.859,135.671L108.997,138.261L107.393,134.072C106.553,131.786 104.873,127.673 103.575,125.007C100.827,119.141 100.75,115.865 103.117,113.656C105.255,111.676 109.378,111.447 111.822,113.123C115.868,115.941 127.932,140.851 132.743,156.239L135.262,164.162L139.767,166.828C150.075,172.846 158.321,184.882 161.375,198.441C162.902,205.373 163.208,221.599 161.833,228.531C158.779,244.376 151.068,250.927 138.011,248.947ZM145.188,232.188C147.173,228.988 148.09,223.732 148.013,214.819C148.013,201.184 144.73,191.966 137.4,184.882L133.659,181.225L131.063,182.977C121.366,189.529 118.999,193.109 118.388,202.631C117.395,216.876 121.977,224.113 136.866,231.274C143.127,234.321 143.738,234.397 145.188,232.188Z" style="fill:rgb(41,108,30);fill-rule:nonzero;"/>
                        </g>
                    </g>
                </g>
                <g id="random1_image" transform="matrix(1,0,0,1,397,424)">
                    <rect id="Rectangle2" serif:id="Rectangle" x="0" y="0" width="197" height="198" style="fill:none;"/>
                    <g id="Group2" serif:id="Group" transform="matrix(1,7.65714e-16,7.65714e-16,-1,5,195)">
                        <path id="Shape8" serif:id="Shape" d="M159.667,188.785L155.866,186.6L145.652,186.457C130.258,186.315 120.328,184.604 87.926,176.669C70.11,172.297 68.257,172.059 63.411,174.008C56.094,176.954 48.635,177.429 45.309,175.148C41.603,172.677 41.176,168.686 44.312,165.55C45.737,164.124 45.927,163.696 45.452,163.031C44.264,161.416 43.029,158.232 42.744,156.141C42.506,154.383 42.649,153.528 43.694,151.389C45.499,147.683 52.531,141.458 62.176,135.044C64.694,133.333 66.784,131.812 66.784,131.67C66.784,131.527 63.648,129.342 59.753,126.823C55.904,124.305 50.108,120.408 46.83,118.175C41.603,114.611 40.558,114.089 38.183,113.803L35.522,113.518L32.767,117.225C27.398,124.495 20.509,130.72 16.28,132.098C12.527,133.285 8.916,131.195 7.823,127.203C7.016,124.21 7.919,118.46 9.961,114.279C12.717,108.386 15.758,105.821 22.219,103.872L25.592,102.827L22.552,100.499C17.136,96.365 5.305,86.624 3.025,84.438C0.127,81.634 -0.633,79.259 0.507,76.788C2.17,73.319 4.973,72.891 11.482,75.077C15.9,76.598 22.552,78.403 23.645,78.403C24.12,78.403 24.262,77.31 24.262,73.699C24.262,69.327 24.357,68.852 25.925,65.764C27.825,62.057 30.153,60.014 34.334,58.446C36.805,57.496 37.755,57.401 43.266,57.591L49.443,57.828L50.726,56.45C51.391,55.738 52.626,54.977 53.434,54.835C54.241,54.645 54.906,54.407 54.859,54.217C54.859,54.074 53.006,52.554 50.773,50.843C45.309,46.709 35.475,36.873 31.484,31.599C27.303,26.087 23.359,18.104 22.552,13.732C21.079,5.369 25.45,0 33.717,0C40.796,0 54.004,5.179 64.028,11.927C66.356,13.495 68.304,14.73 68.399,14.73C68.494,14.73 68.684,13.923 68.875,12.972C69.54,8.791 72.533,6.177 76.619,6.177C78.757,6.177 79.184,6.367 80.277,7.65C81.987,9.646 81.845,11.214 79.849,13.115C78.329,14.54 78.187,14.92 78.187,17.344C78.187,24.186 80.562,41.292 81.607,41.863C81.94,42.053 82.653,42.528 83.175,42.955C84.078,43.621 84.268,43.478 86.026,41.482C87.784,39.487 88.164,39.297 90.539,39.107C92.725,38.917 93.437,39.059 94.815,40.009C96.288,40.96 100.089,45.949 100.612,47.565C100.754,47.945 102.94,47.089 107.216,44.999C114.2,41.53 119.521,39.914 123.987,39.914C127.407,39.914 131.208,40.865 133.584,42.243C135.769,43.526 135.817,43.526 136.72,41.625C137.765,39.487 140.235,36.683 141.898,35.828C144.084,34.735 147.219,34.973 148.977,36.398C151.828,38.821 152.636,42.148 151.638,47.042C150.83,50.843 149.5,53.932 147.314,57.211C145.699,59.634 145.652,59.872 145.652,64.196C145.652,69.09 144.986,72.178 142.801,77.833C141.851,80.256 141.566,81.539 141.898,81.777C142.183,81.967 144.511,82.252 147.029,82.395C157.482,83.155 170.547,79.876 176.676,74.934C180.287,71.988 182.14,71.561 184.61,73.034C186.796,74.317 187.651,77.215 186.463,79.496C183.945,84.248 159.192,109.955 148.74,118.65L146.364,120.598L155.201,129.151C175.203,148.586 181.902,158.707 181.189,168.638C180.809,173.913 177.531,178.759 172.305,181.705C170.167,182.893 170.167,182.893 170.31,185.269C170.452,187.93 169.597,189.593 167.696,190.449C165.463,191.494 163.611,191.114 159.667,188.785ZM140.425,176.574C140.425,176.051 119.521,162.984 118.713,162.984C118.428,162.984 117.858,163.886 117.383,165.027C116.955,166.12 115.91,168.258 115.007,169.731C114.105,171.252 113.582,172.582 113.772,172.677C114.342,173.057 126.41,175.196 131.161,175.766C134.962,176.241 136.292,176.383 139.618,176.669C140.045,176.716 140.425,176.669 140.425,176.574ZM164.893,173.485C166.509,172.772 168.409,171.442 169.122,170.539C170.31,169.161 170.452,168.686 170.214,166.737C169.644,162.176 165.844,156.474 156.912,146.733C152.303,141.791 141.281,131.29 136.387,127.251C135.009,126.063 134.914,126.063 131.493,126.633C129.593,126.966 127.978,127.298 127.883,127.393C127.788,127.488 126.932,131.195 125.935,135.661L124.177,143.692L125.317,144.69C125.935,145.212 129.736,148.538 133.774,152.102C145.794,162.651 160.57,174.863 161.33,174.863C161.71,174.863 163.325,174.245 164.893,173.485ZM92.202,166.928C91.299,164.599 88.686,156.284 88.401,154.716C87.974,152.625 87.831,152.625 83.983,155.618C81.37,157.662 77.236,163.126 77.854,163.744C78.092,163.981 91.252,167.64 92.155,167.688C92.345,167.735 92.392,167.355 92.202,166.928ZM106.17,165.597C107.928,162.841 109.734,158.422 109.401,157.614C109.116,156.901 98.189,150.392 97.856,150.772C97.523,151.057 99.329,158.042 100.612,161.463C101.752,164.599 103.652,167.735 104.317,167.735C104.602,167.735 105.41,166.785 106.17,165.597ZM62.793,156.284C66.356,155.191 70.68,153.148 72.39,151.77C73.626,150.724 75.003,144.452 74.766,141.078L74.623,139.13L66.784,144.357C59.087,149.489 53.006,154.431 53.006,155.571C53.006,157.519 57.662,157.852 62.793,156.284ZM107.643,141.363L103.605,137.324L102.464,138.512C101.799,139.13 101.372,139.748 101.514,139.89C102.227,140.603 111.254,145.782 111.396,145.592C111.539,145.45 109.829,143.549 107.643,141.363ZM116.623,132.478C118.761,122.024 119.426,118.555 119.283,118.413C119.188,118.27 111.682,127.726 110.826,129.104C110.589,129.532 111.254,130.577 112.917,132.335C114.295,133.761 115.53,134.949 115.767,134.949C115.957,134.949 116.338,133.808 116.623,132.478ZM96.716,129.532C96.668,129.009 94.103,125.92 93.675,125.92C93.58,125.92 93.532,126.3 93.628,126.776C93.723,127.203 93.96,128.629 94.103,129.912L94.435,132.193L95.575,131.1C96.193,130.529 96.716,129.817 96.716,129.532ZM73.008,120.313C72.438,118.223 71.725,117.842 68.209,117.842L66.071,117.842L69.635,120.218C71.583,121.501 73.245,122.499 73.341,122.404C73.436,122.309 73.245,121.359 73.008,120.313ZM104.507,119.981L105.268,118.793L103.605,118.793C101.799,118.793 101.704,118.888 102.417,120.266C103.082,121.454 103.557,121.406 104.507,119.981ZM20.746,116.084C21.364,115.324 21.316,115.276 20.604,115.894C20.129,116.227 19.749,116.607 19.749,116.702C19.749,117.082 20.129,116.845 20.746,116.084ZM139.76,112.568C142.326,111 141.708,110.857 138.145,112.188C137.527,112.425 137.195,112.806 137.337,113.091C137.765,113.756 137.955,113.708 139.76,112.568ZM110.589,108.054L112.394,107.721L110.589,106.343C107.548,103.872 107.453,103.872 106.313,106.248L105.268,108.339L107.073,108.339C108.023,108.339 109.639,108.196 110.589,108.054ZM96.241,103.017C97.286,100.926 98.141,98.741 98.141,98.17C98.094,96.935 89.447,90.758 89.209,91.851C89.162,92.183 89.494,95.177 89.969,98.408C90.634,102.779 91.204,104.823 92.012,106.058C93.437,108.244 93.723,108.006 96.241,103.017ZM67.877,101.924C66.974,99.168 66.071,96.935 65.881,96.935C65.739,96.935 63.791,98.883 61.653,101.211C59.135,103.92 57.9,105.583 58.327,105.726C59.277,106.011 65.359,106.771 67.592,106.866L69.587,106.913L67.877,101.924ZM135.247,102.684C138.382,101.592 142.326,99.691 142.326,99.263C142.326,98.645 140.378,96.507 138.05,94.559L135.722,92.611L134.297,95.367C133.109,97.743 131.778,103.587 132.444,103.587C132.586,103.587 133.821,103.207 135.247,102.684ZM47.97,99.548C48.778,99.168 51.296,97.03 53.481,94.797L57.52,90.758L54.859,90.758C53.386,90.758 51.201,90.9 49.965,91.043L47.732,91.375L45.832,95.082C43.741,99.311 43.646,99.643 44.834,99.928C46.212,100.309 46.402,100.261 47.97,99.548ZM157.529,95.699L161.568,91.613L158.242,91.946C156.436,92.088 154.061,92.326 152.968,92.468L151.02,92.706L152.16,94.892C152.731,96.127 153.253,97.695 153.253,98.455C153.253,99.168 153.301,99.786 153.396,99.786C153.443,99.786 155.344,97.933 157.529,95.699ZM121.136,95.889C124.604,90.425 125.27,88.382 123.512,88.382C123.132,88.382 120.233,87.526 117.098,86.434C113.962,85.388 111.301,84.58 111.206,84.675C111.111,84.77 111.016,86.481 110.921,88.524L110.731,92.183L114.77,95.224C117.003,96.935 118.951,98.313 119.188,98.313C119.378,98.36 120.233,97.22 121.136,95.889ZM100.517,84.105C100.517,83.868 100.422,83.63 100.326,83.63C100.184,83.63 99.946,83.868 99.804,84.105C99.661,84.39 99.756,84.58 99.994,84.58C100.279,84.58 100.517,84.39 100.517,84.105ZM41.746,79.496C42.126,78.736 43.124,76.075 44.027,73.509C45.927,68.044 45.879,67.949 40.986,67.949C35.76,67.949 34.002,69.47 34.002,74.032C34.002,79.829 34.667,80.684 38.848,80.732C40.843,80.779 41.176,80.637 41.746,79.496ZM58.992,80.161C59.23,79.496 55.999,71.941 55.619,72.321C55.477,72.464 54.859,74.032 54.241,75.837C53.624,77.643 52.958,79.496 52.768,79.971C52.483,80.684 52.768,80.779 55.572,80.779C57.757,80.779 58.802,80.589 58.992,80.161ZM89.969,75.647C90.397,75.362 90.207,75.077 89.352,74.697C87.784,73.984 87.831,73.984 87.214,75.077C86.738,75.932 86.834,76.027 88.021,76.027C88.734,76.027 89.637,75.837 89.969,75.647ZM73.673,66.762C73.103,65.954 61.083,58.351 61.083,58.826C61.13,59.016 61.605,60.109 62.223,61.25C63.221,63.15 63.838,63.625 68.257,65.859C71.393,67.427 73.388,68.187 73.673,67.902C73.958,67.617 73.958,67.189 73.673,66.762ZM97.666,66.666C97.666,66.429 97.428,65.954 97.191,65.574C96.858,65.003 96.621,65.003 96.146,65.479C95.67,65.954 95.67,66.191 96.241,66.524C97.096,67.094 97.666,67.142 97.666,66.666ZM122.799,64.101C128.785,60.822 130.306,59.539 131.161,57.116C132.301,53.647 132.159,52.934 129.688,51.509C127.075,49.988 124.224,49.608 120.851,50.368C117.953,51.033 109.496,55.025 107.453,56.688L106.075,57.781L111.967,61.915C115.197,64.196 118.143,66.049 118.523,66.049C118.903,66.049 120.804,65.146 122.799,64.101ZM71.82,50.986C71.06,46.567 71.203,46.709 66.784,43.953C60.418,39.914 58.802,37.681 59.325,33.737C59.61,31.361 61.035,29.366 63.791,27.512L65.929,26.039L64.076,24.139C61.605,21.573 54.051,16.583 49.158,14.303C44.454,12.069 39.085,10.549 35.427,10.359L32.814,10.216L32.957,11.879C33.432,17.866 44.407,31.979 55.857,41.34C60.418,45.094 71.013,52.696 71.725,52.744C71.915,52.744 71.963,51.936 71.82,50.986Z" style="fill:rgb(41,108,30);fill-rule:nonzero;"/>
                    </g>
                </g>
                <g id="flower_image" transform="matrix(1,0,0,1,307,0)">
                    <rect id="Rectangle3" serif:id="Rectangle" x="0" y="0" width="263" height="287" style="fill:none;"/>
                    <g transform="matrix(1,0,0,1,-423.32,-322.467)">
                        <g id="Clipped">
                            <g id="Group3" serif:id="Group">
                                <g>
                                    <g transform="matrix(1,0,0,1,432.295,324.628)">
                                        <path id="Shape9" serif:id="Shape" d="M124.708,0.128C129.966,-0.437 134.646,0.871 138.747,4.051C139.783,5.47 140.654,6.997 141.359,8.629C143.396,16.945 145.573,25.228 147.889,33.478C148.067,34.674 148.612,35.654 149.521,36.42C156.239,36.884 162.769,36.012 169.111,33.805C170.149,33.121 171.129,32.357 172.05,31.516C171.538,27.2 173.17,24.039 176.947,22.034C191.11,21.961 205.258,22.398 219.392,23.342C225.536,24.221 231.198,26.292 236.369,29.554C239.112,32.959 240.418,36.883 240.287,41.325C240.033,50.827 235.462,57.039 226.574,59.961C223.492,70.717 221.533,81.725 220.698,92.984C224.034,93.729 226.973,95.254 229.513,97.561C234.312,103.137 237.251,109.568 238.328,116.852C237.904,119.577 237.799,122.302 238.002,125.026C239.132,127.938 240.438,130.771 241.92,133.527C243.089,139.635 244.284,145.739 245.511,151.836C245.485,158.542 242.651,163.664 237.022,167.203C233.842,169.343 230.362,170.542 226.574,170.8C231.296,195.817 221.501,204.209 197.19,195.976C193.93,194.563 190.883,192.819 188.048,190.744C185.103,187.251 182.055,183.873 178.906,180.609C176.957,182.457 174.781,183.982 172.376,185.186C171.508,186.924 170.638,188.668 169.764,190.418C170.873,192.57 171.526,194.859 171.723,197.284C170.576,207.417 169.487,217.553 168.458,227.691C171.634,241.868 169.784,255.382 162.908,268.234C157.53,274.849 150.565,278.119 142.012,278.044C135.903,277.791 129.917,276.81 124.055,275.1C120.247,273.085 116.547,270.905 112.954,268.561C109.919,264.215 106.436,260.291 102.506,256.79C100.147,256.045 97.97,254.955 95.976,253.52C93.147,251.123 90.316,248.725 87.487,246.327C85.451,245.635 83.492,244.763 81.61,243.712C77.96,243.774 74.477,243.12 71.162,241.75C66.087,233.399 60.754,225.225 55.164,217.228C45.046,197.053 49.726,181.25 69.203,169.819C71.544,169.117 73.937,168.681 76.386,168.511C78.058,166.24 80.017,164.279 82.263,162.626C84.257,162.509 86.216,162.182 88.14,161.645C85.58,156.77 84.927,151.647 86.181,146.278C79.513,130.271 80.275,114.685 88.467,99.523C90.123,97.645 91.973,96.01 94.017,94.619C97.792,93.274 101.492,91.748 105.118,90.041C100.184,86.785 99.531,82.861 103.159,78.271C97.499,74.784 91.841,71.296 86.181,67.808C83.635,64.381 80.37,61.983 76.386,60.615C74.378,58.516 73.725,56.118 74.427,53.422C70.628,49.398 66.275,46.128 61.367,43.613C60.3,43.29 59.212,43.182 58.102,43.286C57.282,50.514 57.608,57.707 59.082,64.866C59.555,66.467 60.208,67.993 61.041,69.443C65.176,73.149 69.312,76.854 73.448,80.56C76.069,87.293 73.892,91.435 66.918,92.984C64.478,92.752 62.41,91.772 60.714,90.041C52.109,89.15 43.62,87.624 35.248,85.464C30.135,84.898 25.02,84.352 19.902,83.829C18.609,83.913 17.521,84.35 16.637,85.137C16.202,87.753 16.202,90.368 16.637,92.984C19.558,99.706 22.823,106.245 26.432,112.601C26.045,118.927 25.609,125.248 25.126,131.565C27.854,130.64 30.684,130.204 33.615,130.257C40.475,130.748 47.332,131.293 54.184,131.892C59.115,134.194 64.121,136.373 69.203,138.431C73.452,138.317 77.044,139.734 79.978,142.682C81.825,149.644 79.104,153.131 71.815,153.144C69.176,153.031 66.564,152.704 63.979,152.163C52.338,146.984 40.148,145.241 27.412,146.932C15.345,152.216 9.033,148.184 8.475,134.835C8.961,129.032 9.614,123.256 10.434,117.506C6.615,110.62 3.241,103.536 0.313,96.254C-0.533,87.773 0.337,79.49 2.924,71.405C5.004,68.784 7.725,67.476 11.087,67.481C22.455,68.722 33.774,70.247 45.043,72.059C42.156,60.571 41.829,49.019 44.063,37.401C49.618,28.499 57.345,25.993 67.244,29.881C74.814,33.752 81.453,38.874 87.161,45.248C88.591,49.739 91.094,53.553 94.67,56.692C100.166,60.152 105.717,63.531 111.321,66.827C112.506,63.135 112.506,59.43 111.321,55.711C108.839,47.732 106.663,39.667 104.791,31.516C104.415,28.646 104.632,25.813 105.444,23.015C107.722,17.581 110.334,12.35 113.28,7.321C116.489,3.815 120.298,1.417 124.708,0.128ZM127.32,14.514C128.254,14.763 128.798,15.417 128.952,16.476C130.858,24.818 133.034,33.1 135.482,41.325C139.244,48.332 145.121,51.602 153.113,51.133C162.651,51.452 171.466,49.164 179.559,44.267C181.977,42.065 184.153,39.668 186.089,37.074C197.198,37.075 208.299,37.51 219.392,38.382C221.481,38.641 223.329,39.403 224.942,40.671C225.06,41.971 224.949,43.278 224.615,44.594C219.002,43.018 215.193,44.98 213.188,50.479C211.372,59.205 209.413,67.924 207.311,76.636C206.912,79.903 206.586,83.173 206.332,86.445C200.066,85.297 193.754,84.97 187.395,85.464C181.302,88.918 179.888,93.822 183.15,100.177C184.182,101.185 185.379,101.948 186.742,102.466C197.887,102.3 208.771,103.826 219.392,107.043C224.054,112.975 225.471,119.624 223.636,126.988C224.615,130.91 226.137,134.616 228.207,138.104C229.147,143.109 229.8,148.122 230.166,153.144C228.971,153.907 227.769,154.67 226.574,155.433C216.306,153.294 211.518,157.435 212.209,167.857C212.402,173.221 212.837,178.562 213.515,183.878C204.408,183.737 197.552,179.814 192.945,172.108C190.224,169.819 187.504,167.53 184.783,165.242C180.502,162.654 176.366,162.654 172.376,165.242C170.982,167.477 169.24,169.439 167.152,171.127C160.772,173.76 156.745,178.446 155.072,185.186C154.636,188.892 154.636,192.597 155.072,196.303C156.317,197.682 156.861,199.317 156.704,201.207C155.834,210.799 154.963,220.39 154.092,229.979C157.057,240.152 156.295,250.07 151.807,259.733C149.937,261.704 147.652,262.903 144.95,263.329C137.355,263.903 130.389,262.159 124.055,258.098C118.699,250.986 112.17,245.318 104.465,241.096C97.766,234.253 89.712,229.784 80.304,227.691C76.277,221.369 72.251,215.049 68.224,208.727C62.806,199.409 64.438,191.453 73.121,184.859C75.313,185.375 77.49,185.157 79.651,184.205C86.094,180.59 90.339,175.25 92.384,168.184C98.449,176.838 106.83,181.743 117.525,182.897C123.532,183.22 129.191,181.912 134.503,178.974C144.683,173.36 153.498,166.058 160.949,157.068C163.198,154.089 164.94,150.82 166.173,147.259C169.055,135.039 169.055,122.832 166.173,110.64C157.187,90.931 141.841,82.103 120.137,84.156C126.228,73.835 127.86,62.827 125.034,51.133C122.882,43.62 120.814,36.1 118.831,28.573C120.776,23.244 123.605,18.558 127.32,14.514ZM126.667,99.523C137.398,99.718 145.342,104.514 150.501,113.909C153.142,124.411 152.925,134.873 149.848,145.297C143.932,153.188 136.64,159.4 127.973,163.934C122.444,167.027 117.002,166.918 111.648,163.607C116.624,162.328 119.889,159.276 121.443,154.452C121.19,150.994 119.448,148.705 116.219,147.586C113.532,147.295 110.92,147.622 108.383,148.567C106.951,148.681 105.753,148.244 104.791,147.259C97.574,136.008 96.05,124.019 100.22,111.294C100.733,110.126 101.494,109.145 102.506,108.351C107.76,106.7 112.767,104.52 117.525,101.812C120.609,100.835 123.657,100.072 126.667,99.523Z" style="fill:rgb(41,108,30);fill-opacity:0.88;"/>
                                    </g>
                                    <g transform="matrix(1,0,0,1,672.131,482.35)">
                                        <path id="Shape10" serif:id="Shape" d="M268.178,0L268.178,18.31C256.855,17.85 245.539,18.177 234.223,19.291C221.346,21.04 208.508,23.002 195.696,25.176C180.893,26.226 166.089,27.316 151.293,28.445C142.582,29.463 134.53,32.296 127.132,36.946C110.154,47.191 95.899,60.378 84.361,76.508C77.628,89.652 76.975,103.166 82.402,117.051C85.249,123.987 90.362,128.238 97.747,129.802C102.05,130.761 106.406,131.418 110.807,131.764C124.631,131.79 138.455,131.463 152.272,130.783C163.817,129.239 172.084,133.602 177.086,143.862C178.091,147.68 179.397,151.382 181.004,154.978C183.557,162.577 181.271,168.135 174.147,171.653C160.036,175.223 145.886,178.709 131.703,182.116C122.842,184.999 114.137,188.269 105.583,191.924C101.796,194.521 98.315,197.463 95.135,200.752C100.32,204.382 100.757,208.41 96.441,212.85C91.093,214.073 85.869,213.53 80.769,211.215C71.614,218.094 63.667,226.157 56.935,235.41C54.193,239.843 53.109,244.643 53.67,249.796C60.259,260.161 65.267,271.277 68.689,283.146C69.015,284.342 69.779,285.108 70.974,285.435C75.761,285.873 80.554,285.873 85.34,285.435C95.814,283.028 106.373,281.393 117.01,280.53C125.441,282.322 133.818,284.395 142.151,286.742C152.135,289.332 158.123,295.766 160.108,306.033C164.222,317.254 164.659,328.593 161.414,340.037C158.75,344.725 155.916,349.303 152.925,353.769C151.612,363.748 150.959,373.772 150.966,383.849C148.439,395.109 141.472,400.341 130.07,399.543C117.559,399.105 105.041,398.778 92.523,398.562C85.458,397.372 79.254,394.429 73.913,389.734C71.595,399.504 66.697,407.678 59.221,414.256C56.158,416.113 52.893,417.532 49.426,418.507C46.135,424.019 41.342,425.981 35.06,424.392C35.954,428.073 35.301,431.454 33.101,434.527C40.251,439.523 48.087,442.904 56.609,444.663C59.345,444.304 61.957,443.545 64.444,442.374C71.432,438.66 78.392,434.953 85.34,431.258C91.367,428.479 97.682,427.393 104.277,427.988C109.997,429.944 113.151,433.978 113.745,440.086C114.052,447.939 113.83,455.786 113.092,463.627C111.571,467.079 111.349,470.565 112.439,474.089C112.55,481.394 112.655,488.691 112.766,495.996C112.603,510.735 112.276,525.448 111.786,540.135C113.478,547.832 115.437,555.456 117.663,563.022C126.59,591.794 135.51,620.567 144.436,649.339C151.24,668.845 160.598,686.939 172.515,703.614C175.434,707.191 178.588,710.565 181.983,713.75C192.327,720.125 202.552,726.665 212.674,733.367C219.4,739.011 225.93,744.896 232.264,751.023C244.736,760.322 256.705,770.242 268.178,780.776L268.178,810.202C257.26,801.78 246.812,792.736 236.835,783.065C224.075,773.557 211.884,763.317 200.267,752.331C189.055,745.301 177.954,738.108 166.964,730.752C156.033,719.217 146.787,706.465 139.212,692.498C133.845,680.877 128.843,669.107 124.193,657.186C121.15,644.781 117.454,632.579 113.092,620.567C107.49,597.045 101.182,573.727 94.156,550.598C91.962,539.089 91.524,527.541 92.85,515.94C93.006,504.372 93.111,492.818 93.176,481.282C92.255,477.49 91.171,473.789 89.911,470.166C90.727,466.347 91.929,462.639 93.503,459.049C93.94,455.564 93.94,452.072 93.503,448.587C84.165,455.172 74.043,460.292 63.139,463.954C53.278,465.615 43.921,464.091 35.06,459.376C27.981,455.067 20.798,450.928 13.511,446.952C9.952,444.238 6.583,441.296 3.39,438.124C-2.67,428.871 -0.607,422.227 9.593,418.18C6.975,414.223 5.884,409.862 6.328,405.101C6.935,391.271 13.903,386.478 27.224,390.715C30.855,392.605 34.12,395.005 37.019,397.908C41.009,398.503 44.927,398.287 48.773,397.254C50.817,394.802 52.449,392.075 53.67,389.08C55.192,383.411 56.72,377.748 58.241,372.078C62.747,363.185 69.388,361.112 78.157,365.866C81.207,369.136 84.25,372.405 87.299,375.675C89.154,376.931 91.113,378.023 93.176,378.945C106.014,379.272 118.858,379.383 131.703,379.272C131.481,369.332 132.023,359.523 133.335,349.845C133.838,347.524 134.713,345.346 135.947,343.306C138.722,339.278 141.334,335.132 143.783,330.882C144.534,322.348 142.902,314.285 138.886,306.687C132.114,305.699 125.584,303.849 119.296,301.129C115.378,300.69 111.46,300.69 107.542,301.129C97.003,303.496 86.333,304.908 75.545,305.379C66.123,305.405 58.613,301.697 53.017,294.262C49.883,285.925 46.618,277.646 43.222,269.414C41.59,266.137 39.631,263.09 37.345,260.259C34.289,255.204 33.199,249.75 34.08,243.911C35.334,234.311 39.148,225.922 45.508,218.735C39.611,212.712 38.847,206.069 43.222,198.791C46.624,193.422 51.091,189.171 56.609,186.039C63.857,184.339 70.282,185.974 75.872,190.944C82.67,186.32 89.088,181.194 95.135,175.577C98.067,174.216 100.901,172.693 103.624,170.999C101.946,169.319 100.313,167.684 98.727,166.095C84.733,169.168 71.569,174.288 59.221,181.462C56.308,184.162 52.932,186.02 49.099,187.02C41.799,185.477 39.187,181.115 41.263,173.942C49.4,159.366 60.174,147.164 73.586,137.322C62.499,122.332 58.039,105.548 60.2,86.971C61.545,79.708 64.157,72.95 68.036,66.699C74.977,56.644 82.918,47.38 91.87,38.908C103.951,28.604 117.226,20.103 131.703,13.405C135.954,11.914 140.309,10.824 144.763,10.136C159.938,9.603 175.172,8.95 190.472,8.174C205.249,5.825 220.046,3.645 234.876,1.635C245.95,0.607 257.051,0.062 268.178,0ZM87.299,145.823C89.944,146.745 92.556,147.726 95.135,148.766C90.584,150.394 86.013,151.702 81.422,152.689C83.76,150.675 85.719,148.387 87.299,145.823ZM127.785,162.825C130.018,158.634 129.15,155.259 125.173,152.689C122.561,152.147 119.949,151.597 117.337,151.055C131.259,149.936 145.187,149.721 159.128,150.401C160.278,151.748 160.493,153.167 159.781,154.651C149.131,157.483 138.468,160.203 127.785,162.825ZM61.18,200.752C62.59,201.112 62.479,201.766 60.853,202.714C60.546,202.008 60.657,201.354 61.18,200.752Z" style="fill:rgb(41,108,30);fill-opacity:0.91;"/>
                                    </g>
                                </g>
                            </g>
                        </g>
                    </g>
                </g>
            </g>
        </g>
    </g>
</svg>
