<?xml version="1.0" encoding="UTF-8" standalone="no"?>
<!DOCTYPE svg PUBLIC "-//W3C//DTD SVG 1.1//EN" "http://www.w3.org/Graphics/SVG/1.1/DTD/svg11.dtd">
<svg width="100%" height="100%" viewBox="0 0 420 1638" version="1.1" xmlns="http://www.w3.org/2000/svg" xmlns:xlink="http://www.w3.org/1999/xlink" xml:space="preserve" xmlns:serif="http://www.serif.com/" style="fill-rule:evenodd;clip-rule:evenodd;stroke-linejoin:round;stroke-miterlimit:2;">
    <g id="Монтажная-область1" serif:id="Монтажная область1" transform="matrix(1,0,0,0.98905,-1022.88,-769.395)">
        <rect x="1022.88" y="777.913" width="419.466" height="1655.76" style="fill:none;"/>
        <g transform="matrix(-1,0,0,1,2470.08,0)">
            <g transform="matrix(1,0,0,1.01107,0.883476,-20.465)">
                <path d="M1439.5,799.5L1439.5,827.5C1422.16,826.797 1404.83,827.297 1387.5,829C1367.78,831.675 1348.12,834.675 1328.5,838C1305.83,839.606 1283.16,841.273 1260.5,843C1247.16,844.556 1234.83,848.889 1223.5,856C1197.5,871.666 1175.67,891.833 1158,916.5C1147.69,936.6 1146.69,957.267 1155,978.5C1159.36,989.107 1167.19,995.607 1178.5,998C1185.09,999.466 1191.76,1000.47 1198.5,1001C1219.67,1001.04 1240.84,1000.54 1262,999.5C1279.68,997.139 1292.34,1003.81 1300,1019.5C1301.54,1025.34 1303.54,1031 1306,1036.5C1309.91,1048.12 1306.41,1056.62 1295.5,1062C1273.89,1067.46 1252.22,1072.79 1230.5,1078C1216.93,1082.41 1203.6,1087.41 1190.5,1093C1184.7,1096.97 1179.37,1101.47 1174.5,1106.5C1182.44,1112.05 1183.11,1118.21 1176.5,1125C1168.31,1126.87 1160.31,1126.04 1152.5,1122.5C1138.48,1133.02 1126.31,1145.35 1116,1159.5C1111.8,1166.28 1110.14,1173.62 1111,1181.5C1121.09,1197.35 1128.76,1214.35 1134,1232.5C1134.5,1234.33 1135.67,1235.5 1137.5,1236C1144.83,1236.67 1152.17,1236.67 1159.5,1236C1175.54,1232.32 1191.71,1229.82 1208,1228.5C1220.91,1231.24 1233.74,1234.41 1246.5,1238C1261.79,1241.96 1270.96,1251.8 1274,1267.5C1280.3,1284.66 1280.97,1302 1276,1319.5C1271.92,1326.67 1267.58,1333.67 1263,1340.5C1260.99,1355.76 1259.99,1371.09 1260,1386.5C1256.13,1403.72 1245.46,1411.72 1228,1410.5C1208.84,1409.83 1189.67,1409.33 1170.5,1409C1159.68,1407.18 1150.18,1402.68 1142,1395.5C1138.45,1410.44 1130.95,1422.94 1119.5,1433C1114.81,1435.84 1109.81,1438.01 1104.5,1439.5C1099.46,1447.93 1092.12,1450.93 1082.5,1448.5C1083.87,1454.13 1082.87,1459.3 1079.5,1464C1090.45,1471.64 1102.45,1476.81 1115.5,1479.5C1119.69,1478.95 1123.69,1477.79 1127.5,1476C1138.2,1470.32 1148.86,1464.65 1159.5,1459C1168.73,1454.75 1178.4,1453.09 1188.5,1454C1197.26,1456.99 1202.09,1463.16 1203,1472.5C1203.47,1484.51 1203.13,1496.51 1202,1508.5C1199.67,1513.78 1199.33,1519.11 1201,1524.5C1201.17,1535.67 1201.33,1546.83 1201.5,1558C1201.25,1580.54 1200.75,1603.04 1200,1625.5C1202.59,1637.27 1205.59,1648.93 1209,1660.5C1222.67,1704.5 1236.33,1748.5 1250,1792.5C1260.42,1822.33 1274.75,1850 1293,1875.5C1297.47,1880.97 1302.3,1886.13 1307.5,1891C1323.34,1900.75 1339,1910.75 1354.5,1921C1364.8,1929.63 1374.8,1938.63 1384.5,1948C1403.6,1962.22 1421.93,1977.39 1439.5,1993.5L1439.5,2038.5C1422.78,2025.62 1406.78,2011.79 1391.5,1997C1371.96,1982.46 1353.29,1966.8 1335.5,1950C1318.33,1939.25 1301.33,1928.25 1284.5,1917C1267.76,1899.36 1253.6,1879.86 1242,1858.5C1233.78,1840.73 1226.12,1822.73 1219,1804.5C1214.34,1785.53 1208.68,1766.87 1202,1748.5C1193.42,1712.53 1183.76,1676.87 1173,1641.5C1169.64,1623.9 1168.97,1606.24 1171,1588.5C1171.24,1570.81 1171.4,1553.14 1171.5,1535.5C1170.09,1529.7 1168.43,1524.04 1166.5,1518.5C1167.75,1512.66 1169.59,1506.99 1172,1501.5C1172.67,1496.17 1172.67,1490.83 1172,1485.5C1157.7,1495.57 1142.2,1503.4 1125.5,1509C1110.4,1511.54 1096.07,1509.21 1082.5,1502C1071.66,1495.41 1060.66,1489.08 1049.5,1483C1044.05,1478.85 1038.89,1474.35 1034,1469.5C1024.72,1455.35 1027.88,1445.19 1043.5,1439C1039.49,1432.95 1037.82,1426.28 1038.5,1419C1039.43,1397.85 1050.1,1390.52 1070.5,1397C1076.06,1399.89 1081.06,1403.56 1085.5,1408C1091.61,1408.91 1097.61,1408.58 1103.5,1407C1106.63,1403.25 1109.13,1399.08 1111,1394.5C1113.33,1385.83 1115.67,1377.17 1118,1368.5C1124.9,1354.9 1135.07,1351.73 1148.5,1359C1153.17,1364 1157.83,1369 1162.5,1374C1165.34,1375.92 1168.34,1377.59 1171.5,1379C1191.16,1379.5 1210.83,1379.67 1230.5,1379.5C1230.16,1364.3 1230.99,1349.3 1233,1334.5C1233.77,1330.95 1235.11,1327.62 1237,1324.5C1241.25,1318.34 1245.25,1312 1249,1305.5C1250.15,1292.45 1247.65,1280.12 1241.5,1268.5C1231.13,1266.99 1221.13,1264.16 1211.5,1260C1205.5,1259.33 1199.5,1259.33 1193.5,1260C1177.36,1263.62 1161.02,1265.78 1144.5,1266.5C1130.07,1266.54 1118.57,1260.87 1110,1249.5C1105.2,1236.75 1100.2,1224.09 1095,1211.5C1092.5,1206.49 1089.5,1201.83 1086,1197.5C1081.32,1189.77 1079.65,1181.43 1081,1172.5C1082.92,1157.82 1088.76,1144.99 1098.5,1134C1089.47,1124.79 1088.3,1114.63 1095,1103.5C1100.21,1095.29 1107.05,1088.79 1115.5,1084C1126.6,1081.4 1136.44,1083.9 1145,1091.5C1155.41,1084.43 1165.24,1076.59 1174.5,1068C1178.99,1065.92 1183.33,1063.59 1187.5,1061C1184.93,1058.43 1182.43,1055.93 1180,1053.5C1158.57,1058.2 1138.41,1066.03 1119.5,1077C1115.04,1081.13 1109.87,1083.97 1104,1085.5C1092.82,1083.14 1088.82,1076.47 1092,1065.5C1104.46,1043.21 1120.96,1024.55 1141.5,1009.5C1124.52,986.576 1117.69,960.909 1121,932.5C1123.06,921.393 1127.06,911.059 1133,901.5C1143.63,886.122 1155.79,871.956 1169.5,859C1188,843.243 1208.33,830.243 1230.5,820C1237.01,817.719 1243.68,816.052 1250.5,815C1273.74,814.186 1297.07,813.186 1320.5,812C1343.13,808.408 1365.79,805.074 1388.5,802C1405.46,800.428 1422.46,799.595 1439.5,799.5ZM1162.5,1022.5C1166.55,1023.91 1170.55,1025.41 1174.5,1027C1167.53,1029.49 1160.53,1031.49 1153.5,1033C1157.08,1029.92 1160.08,1026.42 1162.5,1022.5ZM1224.5,1048.5C1227.92,1042.09 1226.59,1036.93 1220.5,1033C1216.5,1032.17 1212.5,1031.33 1208.5,1030.5C1229.82,1028.79 1251.15,1028.46 1272.5,1029.5C1274.26,1031.56 1274.59,1033.73 1273.5,1036C1257.19,1040.33 1240.86,1044.49 1224.5,1048.5ZM1122.5,1106.5C1124.66,1107.05 1124.49,1108.05 1122,1109.5C1121.53,1108.42 1121.7,1107.42 1122.5,1106.5Z" style="fill:rgb(41,108,30);fill-opacity:0.91;"/>
            </g>
            <g transform="matrix(1,0,0,1.01107,0.883476,-20.465)">
                <path d="M1439.5,950.5L1439.5,1010.5C1430.43,1019.7 1419.43,1025.2 1406.5,1027C1392.4,1028.09 1378.4,1027.43 1364.5,1025C1338.49,1016.66 1322.66,999.163 1317,972.5C1315.66,963.832 1316.66,955.498 1320,947.5C1321.5,944.667 1323.67,942.5 1326.5,941C1318.25,934.749 1311.41,927.249 1306,918.5C1301.37,906.528 1303.87,896.362 1313.5,888C1339.87,871.467 1366.04,871.634 1392,888.5C1394.16,887.015 1396.32,885.515 1398.5,884C1409.5,882.667 1414,887.5 1412,898.5C1410.96,900.746 1409.79,902.913 1408.5,905C1411.12,907.739 1413.62,910.573 1416,913.5C1423.86,925.898 1431.69,938.231 1439.5,950.5ZM1349.5,903.5C1360.96,902.929 1370.63,906.762 1378.5,915C1372.27,929.369 1367.43,944.203 1364,959.5C1360.69,954.692 1357.19,950.025 1353.5,945.5C1364.98,942.176 1369.48,934.843 1367,923.5C1364.87,920.684 1362.03,919.351 1358.5,919.5C1354.3,921.076 1349.96,921.576 1345.5,921C1340.27,918.057 1336.27,913.891 1333.5,908.5C1338.75,906.194 1344.08,904.527 1349.5,903.5ZM1396.5,937.5C1408.04,951.411 1416.04,967.245 1420.5,985C1418.66,989.631 1415.33,992.964 1410.5,995C1403.99,997.043 1397.33,997.876 1390.5,997.5C1388.8,977.142 1390.8,957.142 1396.5,937.5ZM1354.5,981.5C1359.58,981.995 1362.25,984.661 1362.5,989.5C1359.5,987.167 1356.83,984.5 1354.5,981.5Z" style="fill:rgb(41,108,30);fill-opacity:0.91;"/>
            </g>
            <g transform="matrix(1,0,0,1.01107,0.883476,-20.465)">
                <path d="M1439.5,2107.5L1439.5,2157.5C1426.23,2165.63 1412.23,2172.47 1397.5,2178C1393.5,2180.33 1389.5,2182.67 1385.5,2185C1368.51,2201 1348.84,2212.67 1326.5,2220C1311.28,2230.89 1297.61,2243.55 1285.5,2258C1279.98,2263.02 1274.31,2267.85 1268.5,2272.5C1262.81,2282.69 1256.14,2292.19 1248.5,2301C1273.9,2316.2 1300.9,2327.87 1329.5,2336C1347.7,2339.91 1365.7,2344.57 1383.5,2350C1402.01,2359.09 1420.68,2367.92 1439.5,2376.5L1439.5,2409.5C1431.65,2407.25 1423.98,2404.41 1416.5,2401C1401.27,2392.22 1385.6,2384.22 1369.5,2377C1331.63,2368.6 1294.97,2356.6 1259.5,2341C1239.82,2331.91 1222.32,2319.75 1207,2304.5C1202.82,2298.04 1202.49,2291.37 1206,2284.5C1211.8,2279.01 1218.63,2277.18 1226.5,2279C1233.11,2271.05 1238.95,2262.55 1244,2253.5C1262.47,2236.7 1280.64,2219.53 1298.5,2202C1302.5,2199.33 1306.5,2196.67 1310.5,2194C1321.87,2189.77 1332.87,2184.77 1343.5,2179C1354.55,2170.28 1365.89,2161.95 1377.5,2154C1390.83,2147.33 1404.17,2140.67 1417.5,2134C1425.07,2125.27 1432.41,2116.44 1439.5,2107.5Z" style="fill:rgb(41,108,30);fill-opacity:0.9;"/>
            </g>
        </g>
    </g>
</svg>
