<?xml version="1.0" encoding="UTF-8" standalone="no"?>
<!DOCTYPE svg PUBLIC "-//W3C//DTD SVG 1.1//EN" "http://www.w3.org/Graphics/SVG/1.1/DTD/svg11.dtd">
<svg width="100%" height="100%" viewBox="0 0 745 371" version="1.1" xmlns="http://www.w3.org/2000/svg" xmlns:xlink="http://www.w3.org/1999/xlink" xml:space="preserve" xmlns:serif="http://www.serif.com/" style="fill-rule:evenodd;clip-rule:evenodd;stroke-linejoin:round;stroke-miterlimit:2;">
    <g transform="matrix(1,0,0,1,-84.3463,-121.148)">
        <g transform="matrix(0.1,0,0,-0.1,0,2048)">
            <path d="M3391,19260C3348,19250 3311,19223 3282,19179C3261,19150 3259,19135 3262,19075C3264,19027 3273,18989 3290,18955C3323,18885 3429,18784 3529,18725C3576,18697 3615,18670 3617,18664C3619,18657 3610,18650 3596,18646C3556,18636 3482,18552 3445,18475C3388,18356 3366,18268 3365,18155C3365,17987 3411,17900 3535,17839C3593,17811 3606,17808 3672,17812C3798,17818 3906,17882 3979,17991C4089,18155 4088,18344 3978,18565C3898,18724 3813,18817 3660,18914C3582,18964 3520,19017 3520,19034C3520,19040 3575,19041 3668,19037C3879,19028 4010,19013 4128,18985C4185,18971 4242,18960 4255,18960C4316,18960 4358,19009 4344,19063C4337,19094 4290,19137 4243,19157C4169,19187 3885,19250 3772,19259C3637,19271 3440,19272 3391,19260ZM3693,18368C3704,18320 3741,18288 3793,18280L3835,18275L3833,18227C3830,18170 3793,18093 3745,18045C3716,18017 3702,18010 3671,18010C3607,18010 3587,18035 3582,18119C3580,18158 3583,18212 3590,18238C3606,18304 3659,18412 3673,18407C3679,18405 3688,18387 3693,18368Z" style="fill:white;fill-rule:nonzero;"/>
        </g>
        <g transform="matrix(0.1,0,0,-0.1,0,2048)">
            <path d="M1342,19246C1263,19231 1209,19200 1172,19150C1159,19133 1134,19114 1115,19106C1097,19098 1074,19080 1065,19066C1045,19036 1019,18906 996,18725C987,18654 970,18540 960,18472C928,18273 880,17885 880,17825C880,17726 928,17670 1011,17670C1051,17670 1063,17675 1089,17701C1117,17728 1120,17738 1120,17790L1120,17848L1190,17812C1254,17779 1268,17776 1368,17772C1455,17768 1492,17772 1559,17789C1742,17835 1880,17932 1942,18058C1974,18122 1975,18129 1975,18245C1975,18361 1974,18368 1943,18431C1910,18498 1843,18570 1783,18601L1752,18618L1772,18676C1845,18889 1762,19144 1595,19226C1528,19258 1444,19265 1342,19246ZM1515,19007C1578,18944 1588,18804 1537,18704C1508,18646 1498,18640 1432,18640C1389,18640 1301,18623 1241,18605C1218,18597 1218,18598 1224,18646C1227,18673 1232,18737 1236,18788C1241,18862 1246,18883 1259,18887C1300,18900 1320,18915 1335,18946C1353,18985 1425,19040 1458,19040C1472,19040 1496,19026 1515,19007ZM1685,18396C1779,18356 1787,18195 1698,18113C1646,18064 1583,18045 1470,18045C1367,18045 1363,18046 1315,18078C1270,18108 1259,18111 1208,18108C1176,18106 1150,18105 1150,18107C1150,18117 1192,18345 1195,18348C1196,18349 1209,18346 1224,18340C1287,18316 1465,18345 1536,18390C1571,18413 1638,18415 1685,18396Z" style="fill:white;fill-rule:nonzero;"/>
        </g>
        <g transform="matrix(0.1,0,0,-0.1,0,2048)">
            <path d="M5405,18864C5345,18845 5239,18772 5223,18739C5201,18692 5198,18672 5190,18470C5184,18335 5173,18212 5156,18110C5118,17881 5100,17728 5098,17612L5095,17509L5128,17479C5179,17433 5261,17446 5288,17504C5312,17558 5352,17740 5374,17895L5396,18054L5476,18055C5612,18057 5699,18120 5765,18263C5809,18358 5824,18440 5818,18549C5809,18694 5748,18795 5636,18850C5574,18880 5474,18886 5405,18864ZM5590,18605C5598,18595 5603,18560 5604,18516C5604,18454 5600,18434 5572,18377C5554,18341 5527,18301 5512,18290C5487,18270 5484,18269 5475,18285C5470,18295 5455,18315 5443,18330C5423,18354 5421,18365 5426,18426C5431,18488 5445,18573 5455,18608C5461,18627 5574,18624 5590,18605Z" style="fill:white;fill-rule:nonzero;"/>
        </g>
        <g transform="matrix(0.1,0,0,-0.1,0,2048)">
            <path d="M6015,18847C5968,18800 5960,18759 5953,18555C5948,18391 5950,18367 5970,18290C5998,18180 6011,18151 6049,18107C6109,18039 6199,18034 6290,18095L6339,18128L6346,18095C6367,17982 6479,17934 6543,18010L6568,18039L6563,18252C6558,18442 6560,18476 6579,18571C6607,18714 6606,18743 6573,18780C6518,18840 6426,18822 6394,18745C6386,18725 6371,18655 6361,18587C6341,18455 6323,18414 6237,18301L6196,18247L6181,18281C6165,18321 6160,18596 6174,18732L6183,18819L6152,18849C6109,18893 6060,18892 6015,18847Z" style="fill:white;fill-rule:nonzero;"/>
        </g>
        <g transform="matrix(0.1,0,0,-0.1,0,2048)">
            <path d="M7985,18846C7896,18824 7774,18753 7695,18676C7636,18618 7614,18588 7577,18510C7443,18229 7487,17979 7682,17914C7761,17888 7914,17893 8025,17925C8256,17992 8336,18068 8263,18150C8228,18189 8200,18190 8095,18158C8038,18140 7980,18130 7893,18125C7747,18117 7730,18123 7730,18180L7730,18219L7761,18208C7809,18191 7902,18206 7972,18241C8159,18334 8265,18454 8285,18592C8302,18710 8229,18826 8122,18849C8059,18862 8050,18862 7985,18846ZM8070,18620C8070,18609 8049,18579 8023,18555C7949,18484 7810,18423 7810,18462C7810,18486 7909,18568 7980,18604C8064,18646 8070,18647 8070,18620Z" style="fill:white;fill-rule:nonzero;"/>
        </g>
        <g transform="matrix(0.1,0,0,-0.1,0,2048)">
            <path d="M6784,18816C6751,18783 6748,18776 6753,18737C6759,18691 6810,18634 6852,18626C6865,18624 6902,18617 6934,18611C6966,18605 6995,18599 6997,18596C7002,18592 6963,18414 6924,18255C6889,18119 6883,18033 6904,17993C6926,17950 6957,17930 7003,17930C7051,17930 7086,17963 7095,18016C7104,18068 7155,18280 7191,18410C7207,18468 7222,18527 7225,18541C7230,18567 7232,18567 7307,18568C7390,18568 7488,18593 7548,18630C7592,18657 7613,18708 7599,18748C7584,18792 7555,18806 7470,18813C7429,18817 7372,18824 7345,18829C7317,18834 7188,18841 7057,18845L6821,18853L6784,18816Z" style="fill:white;fill-rule:nonzero;"/>
        </g>
        <g transform="matrix(0.1,0,0,-0.1,0,2048)">
            <path d="M4611,18780C4438,18744 4289,18593 4240,18403C4209,18281 4202,18148 4224,18082C4257,17985 4350,17908 4475,17875C4565,17852 4782,17855 4837,17879C4914,17915 4931,17987 4876,18048L4842,18085L4658,18090C4474,18095 4439,18102 4426,18136C4415,18165 4420,18170 4459,18170C4522,18170 4689,18217 4777,18260C4872,18307 4923,18359 4945,18434C4990,18584 4931,18719 4801,18765C4747,18784 4663,18790 4611,18780ZM4734,18564C4757,18555 4754,18525 4727,18495C4711,18475 4676,18460 4590,18434C4527,18416 4471,18400 4467,18400C4451,18400 4495,18462 4541,18505C4573,18535 4600,18551 4626,18555C4648,18559 4670,18563 4675,18565C4692,18571 4718,18570 4734,18564Z" style="fill:white;fill-rule:nonzero;"/>
        </g>
        <g transform="matrix(0.1,0,0,-0.1,0,2048)">
            <path d="M2995,18722C2925,18677 2906,18629 2890,18458C2884,18390 2874,18313 2869,18286C2854,18206 2858,17865 2874,17826C2917,17723 3052,17725 3080,17830C3096,17888 3130,18204 3131,18295C3131,18385 3150,18504 3174,18569C3187,18603 3188,18619 3180,18645C3154,18723 3059,18763 2995,18722Z" style="fill:white;fill-rule:nonzero;"/>
        </g>
        <g transform="matrix(0.1,0,0,-0.1,0,2048)">
            <path d="M2351,18661C2326,18636 2310,18579 2310,18512C2310,18483 2297,18379 2280,18282C2214,17891 2224,17793 2329,17774C2349,17770 2378,17758 2394,17747C2438,17716 2521,17713 2592,17740C2634,17756 2662,17776 2703,17820C2772,17894 2794,17954 2793,18065C2792,18256 2712,18372 2559,18404L2495,18417L2499,18512C2502,18609 2494,18641 2461,18667C2436,18686 2373,18683 2351,18661ZM2545,18150C2556,18138 2565,18109 2568,18077C2572,18031 2569,18020 2548,17996C2524,17968 2524,17968 2491,17985C2458,18002 2458,18002 2465,18058C2472,18116 2485,18149 2504,18162C2520,18173 2525,18172 2545,18150Z" style="fill:white;fill-rule:nonzero;"/>
        </g>
        <g transform="matrix(0.1,0,0,-0.1,0,2048)">
            <path d="M5626,17114C5605,17106 5582,17095 5575,17090C5566,17083 5554,17083 5535,17090C5486,17108 5438,17081 5413,17021C5398,16986 5388,16762 5373,16167L5367,15900L5394,15792C5409,15733 5426,15667 5432,15645C5453,15562 5521,15533 5571,15586L5595,15612L5595,15948C5595,16280 5595,16285 5615,16280C5626,16277 5676,16275 5725,16275C5806,16275 5820,16278 5863,16303C5917,16335 5972,16405 5990,16463C6022,16572 5986,16827 5918,16967C5852,17101 5742,17157 5626,17114ZM5749,16851C5790,16755 5820,16567 5800,16529C5774,16481 5754,16480 5665,16518L5600,16545L5600,16627C5600,16708 5600,16710 5630,16725C5669,16745 5680,16768 5680,16833C5680,16891 5684,16900 5710,16900C5721,16900 5735,16882 5749,16851Z" style="fill:white;fill-rule:nonzero;"/>
        </g>
        <g transform="matrix(0.1,0,0,-0.1,0,2048)">
            <path d="M4923,17095C4826,17046 4748,16922 4674,16700L4635,16585L4635,16415C4636,16227 4643,16190 4693,16134C4744,16075 4811,16047 4912,16042C4992,16038 5005,16040 5055,16065C5213,16142 5303,16397 5286,16720C5278,16874 5262,16952 5227,17013C5189,17077 5131,17109 5043,17116C4983,17121 4969,17118 4923,17095ZM5073,16840C5077,16815 5079,16716 5077,16620C5073,16426 5054,16339 5004,16285C4981,16261 4973,16258 4930,16262C4903,16265 4869,16275 4854,16285L4827,16302L4833,16409C4845,16616 4879,16724 4970,16839C5004,16882 5016,16891 5038,16888C5061,16885 5066,16879 5073,16840Z" style="fill:white;fill-rule:nonzero;"/>
        </g>
        <g transform="matrix(0.1,0,0,-0.1,0,2048)">
            <path d="M908,17095C856,17066 852,17034 846,16582C840,16127 840,16125 900,16100C924,16090 936,16090 960,16100C1008,16120 1023,16160 1029,16284C1034,16381 1037,16394 1057,16407C1077,16421 1081,16419 1114,16373C1133,16347 1177,16271 1211,16206C1245,16140 1284,16076 1298,16063C1344,16020 1409,16040 1430,16105C1453,16174 1395,16318 1263,16516C1197,16615 1186,16590 1363,16747C1427,16805 1487,16865 1495,16880C1532,16951 1489,17032 1417,17032C1367,17032 1333,17008 1178,16857L1050,16734L1050,17042L1016,17076C979,17113 951,17118 908,17095Z" style="fill:white;fill-rule:nonzero;"/>
        </g>
        <g transform="matrix(0.1,0,0,-0.1,0,2048)">
            <path d="M2515,17101C2441,17098 2376,17090 2363,17082C2285,17038 2295,16907 2377,16885C2393,16881 2441,16875 2485,16871L2565,16865L2572,16745C2579,16607 2568,16418 2545,16312C2522,16201 2525,16144 2555,16115C2585,16084 2637,16082 2673,16110C2700,16132 2730,16211 2751,16315C2757,16348 2765,16483 2769,16615L2775,16855L2855,16862C3001,16875 3045,16899 3045,16970C3045,17041 2994,17068 2820,17090C2689,17107 2655,17108 2515,17101Z" style="fill:white;fill-rule:nonzero;"/>
        </g>
        <g transform="matrix(0.1,0,0,-0.1,0,2048)">
            <path d="M3380,17078C3315,17053 3239,16979 3197,16903C3156,16826 3131,16713 3123,16570C3115,16401 3130,16349 3210,16268C3276,16202 3334,16180 3442,16180C3549,16180 3630,16224 3630,16282C3630,16334 3599,16352 3457,16380C3379,16396 3320,16446 3320,16497C3320,16517 3324,16529 3330,16525C3362,16505 3526,16566 3605,16626C3676,16679 3770,16844 3770,16914C3770,16971 3735,17037 3687,17068C3651,17092 3637,17095 3541,17097C3452,17100 3426,17097 3380,17078ZM3600,16915C3600,16891 3563,16825 3528,16785C3494,16745 3400,16693 3354,16688C3328,16685 3325,16688 3328,16710C3339,16796 3384,16874 3443,16910C3485,16936 3600,16939 3600,16915Z" style="fill:white;fill-rule:nonzero;"/>
        </g>
        <g transform="matrix(0.1,0,0,-0.1,0,2048)">
            <path d="M4045,17076C4028,17069 4008,17050 4001,17034C3975,16978 3948,16269 3969,16191C3986,16132 4019,16100 4065,16100C4105,16100 4150,16136 4150,16167C4150,16177 4152,16300 4154,16440C4156,16580 4161,16732 4165,16776L4173,16858L4324,16862C4483,16866 4527,16878 4550,16919C4564,16945 4562,17002 4547,17020C4512,17063 4502,17065 4301,17071C4193,17074 4098,17079 4090,17083C4082,17086 4061,17083 4045,17076Z" style="fill:white;fill-rule:nonzero;"/>
        </g>
        <g transform="matrix(0.1,0,0,-0.1,0,2048)">
            <path d="M6558,17067C6517,17033 6511,17010 6506,16888C6503,16826 6494,16741 6485,16700C6469,16625 6386,16440 6369,16440C6353,16440 6333,16500 6325,16565C6319,16625 6330,16780 6351,16917C6365,17007 6353,17046 6303,17066C6260,17085 6227,17075 6191,17035C6150,16988 6136,16897 6136,16670C6135,16506 6137,16477 6157,16415C6194,16297 6270,16230 6365,16230C6431,16230 6480,16260 6533,16330C6558,16363 6581,16387 6583,16383C6585,16378 6595,16351 6605,16321C6616,16288 6637,16253 6661,16229C6695,16195 6706,16190 6746,16190C6840,16190 6881,16280 6824,16362C6770,16439 6715,16741 6726,16899C6733,17005 6723,17043 6678,17074C6645,17097 6590,17094 6558,17067Z" style="fill:white;fill-rule:nonzero;"/>
        </g>
        <g transform="matrix(0.1,0,0,-0.1,0,2048)">
            <path d="M1863,17051C1810,17018 1757,16894 1704,16680C1632,16384 1609,16169 1644,16116C1669,16076 1702,16064 1740,16080C1784,16098 1800,16128 1831,16244C1860,16357 1859,16356 1962,16359L2010,16360L2007,16251C2005,16148 2006,16140 2029,16116C2081,16060 2171,16096 2185,16178C2196,16249 2193,16554 2180,16614C2173,16647 2144,16725 2114,16787C2084,16849 2056,16920 2050,16946C2037,17004 2024,17030 1996,17052C1968,17075 1903,17075 1863,17051ZM1964,16666C1971,16648 1981,16619 1985,16601L1992,16570L1946,16570C1921,16570 1900,16571 1900,16573C1900,16580 1932,16685 1937,16693C1945,16706 1949,16701 1964,16666Z" style="fill:white;fill-rule:nonzero;"/>
        </g>
        <g transform="matrix(0.1,0,0,-0.1,0,2048)">
            <path d="M7544,17021C7500,16994 7490,16955 7490,16815L7490,16692L7450,16614C7413,16540 7299,16398 7286,16411C7270,16426 7262,16603 7271,16715C7294,16968 7294,16964 7268,16994C7220,17048 7141,17030 7106,16956C7083,16907 7066,16705 7073,16555C7082,16360 7128,16204 7188,16164C7253,16120 7318,16151 7455,16289C7499,16334 7537,16370 7540,16370C7543,16370 7551,16355 7558,16338C7564,16320 7588,16284 7610,16259C7677,16180 7754,16159 7804,16205C7825,16224 7830,16238 7830,16277C7830,16325 7827,16332 7766,16419C7723,16481 7710,16553 7702,16778L7695,16982L7662,17011C7624,17045 7588,17048 7544,17021Z" style="fill:white;fill-rule:nonzero;"/>
        </g>
        <g transform="matrix(0.1,0,0,-0.1,0,2048)">
            <path d="M8104,17026C7999,16980 8008,16831 8117,16801C8190,16781 8270,16840 8270,16914C8270,16958 8236,17009 8195,17026C8153,17043 8144,17043 8104,17026Z" style="fill:white;fill-rule:nonzero;"/>
        </g>
        <g transform="matrix(0.1,0,0,-0.1,0,2048)">
            <path d="M8093,16445C8026,16416 7999,16319 8040,16253C8077,16192 8156,16172 8217,16210C8268,16241 8283,16272 8278,16335C8273,16396 8253,16425 8203,16446C8163,16463 8134,16463 8093,16445Z" style="fill:white;fill-rule:nonzero;"/>
        </g>
    </g>
</svg>
