<?xml version="1.0" encoding="UTF-8"?>
<svg width="200px" height="106px" viewBox="0 0 200 106" version="1.1" xmlns="http://www.w3.org/2000/svg" xmlns:xlink="http://www.w3.org/1999/xlink">
    <title>Group</title>
    <defs>
        <filter x="-2.7%" y="-2.8%" width="105.4%" height="105.7%" filterUnits="objectBoundingBox" id="filter-1">
            <feOffset dx="0" dy="0" in="SourceAlpha" result="shadowOffsetOuter1"></feOffset>
            <feGaussianBlur stdDeviation="2" in="shadowOffsetOuter1" result="shadowBlurOuter1"></feGaussianBlur>
            <feColorMatrix values="0 0 0 0 0   0 0 0 0 0   0 0 0 0 0  0 0 0 0.5 0" type="matrix" in="shadowBlurOuter1" result="shadowMatrixOuter1"></feColorMatrix>
            <feMerge>
                <feMergeNode in="shadowMatrixOuter1"></feMergeNode>
                <feMergeNode in="SourceGraphic"></feMergeNode>
            </feMerge>
        </filter>
    </defs>
    <g id="Page-1" stroke="none" stroke-width="1" fill="none" fill-rule="evenodd">
        <g id="iPhone-11" transform="translate(-111.000000, -55.000000)" fill="#FFFFFF" fill-rule="nonzero">
            <g id="текста-паранойя-заголовки" filter="url(#filter-1)" transform="translate(33.000000, 61.000000)">
                <g id="Group" transform="translate(84.000000, 0.000000)">
                    <path d="M63.3550823,0.21611026 C62.2462311,0.469891653 61.2921033,1.15510141 60.5442735,2.27173954 C60.0027415,3.00770559 59.951167,3.38837768 60.0285287,4.91106603 C60.0801032,6.12921672 60.3121884,7.09358602 60.7505714,7.95644275 C61.6015502,9.73291251 64.3349973,12.2961046 66.913721,13.7934148 C68.1257211,14.5040027 69.1314233,15.1892125 69.1829978,15.3414813 C69.2345723,15.5191283 69.0024872,15.6967752 68.6414658,15.7982878 C67.6099764,16.0520692 65.7017208,18.1838329 64.7475931,20.1379496 C63.2777206,23.1579482 62.7104014,25.3912245 62.6846141,28.2589542 C62.6846141,32.5224816 63.870827,34.7303797 67.0684444,36.2784462 C68.5641041,36.9890341 68.8993382,37.0651686 70.6012958,36.963656 C73.8504877,36.8113872 76.6355093,35.1871862 78.5179775,32.4209691 C81.3545736,28.2589542 81.3287864,23.4624859 78.4921903,17.8539171 C76.4292114,13.8187929 74.2372962,11.458626 70.291849,8.99694647 C68.2804445,7.7280395 66.6816358,6.38299812 66.6816358,5.95156975 C66.6816358,5.79930091 68.0999339,5.77392277 70.4981469,5.87543533 C75.9392539,6.10383858 79.3173819,6.48451067 82.3602758,7.19509857 C83.8301483,7.55039252 85.3000208,7.82955206 85.6352549,7.82955206 C87.2082763,7.82955206 88.2913403,6.58602323 87.930319,5.21560371 C87.7498083,4.42888139 86.5378082,3.3376214 85.3258081,2.83005861 C83.4175525,2.06871443 76.0939773,0.469891653 73.1800195,0.241488399 C69.6987426,-0.0630492726 64.6186569,-0.088427412 63.3550823,0.21611026 Z M71.1428278,22.8534105 C71.4264874,24.0715612 72.3806152,24.8836617 73.7215515,25.0866868 L74.8046154,25.2135775 L74.753041,26.4317282 C74.6756793,27.8782821 73.7215515,29.8323988 72.4837641,31.0505495 C71.7359343,31.7611374 71.3749129,31.9387844 70.5755086,31.9387844 C68.9251254,31.9387844 68.4093807,31.3043309 68.2804445,29.1725672 C68.2288701,28.1828198 68.3062318,26.8124003 68.4867424,26.1525686 C68.8993382,24.4776115 70.2660618,21.7367724 70.6270831,21.8636631 C70.7818065,21.9144194 71.0138916,22.3712259 71.1428278,22.8534105 Z" id="Shape"></path>
                    <path d="M11.8136986,0.263801062 C9.79360731,0.642000925 8.41278539,1.42361397 7.46666667,2.68428018 C7.13424658,3.1129067 6.49497717,3.59195986 6.00913242,3.79366645 C5.54885845,3.99537304 4.96073059,4.44921288 4.73059361,4.80219942 C4.21917808,5.55859914 3.5543379,8.83633129 2.96621005,13.399943 C2.73607306,15.190089 2.30136986,18.0644079 2.0456621,19.778914 C1.22739726,24.7963655 0,34.5791353 0,36.0919347 C0,38.5880538 1.22739726,40 3.34977169,40 C4.37260274,40 4.67945205,39.8739334 5.34429224,39.2183869 C6.06027397,38.5376272 6.1369863,38.285494 6.1369863,36.9744011 L6.1369863,35.5120283 L7.92694064,36.419708 C9.56347032,37.2517477 9.92146119,37.3273876 12.4785388,37.4282409 C14.7031963,37.5290942 15.6493151,37.4282409 17.3625571,36.9996144 C22.0420091,35.8398015 25.5707763,33.3941091 27.1561644,30.2172302 C27.9744292,28.6035775 28,28.4270842 28,25.5023386 C28,22.577593 27.9744292,22.4010997 27.1817352,20.8126603 C26.3378995,19.1233676 24.6246575,17.3080082 23.090411,16.5263952 L22.2977169,16.0977687 L22.8091324,14.6353959 C24.6757991,9.2649578 22.5534247,2.83556013 18.283105,0.768067546 C16.569863,-0.0387588286 14.4219178,-0.215252098 11.8136986,0.263801062 Z M16.2374429,6.28978555 C17.8484018,7.87822497 18.1041096,11.4080904 16.8,13.9294228 C16.0584475,15.3917956 15.8027397,15.5430755 14.1150685,15.5430755 C13.0155251,15.5430755 10.7652968,15.971702 9.23105023,16.4255419 C8.64292237,16.6272485 8.64292237,16.6020351 8.79634703,15.3917956 C8.87305936,14.7110358 9.00091324,13.0973831 9.10319635,11.8115035 C9.23105023,9.94571755 9.35890411,9.41623775 9.6913242,9.31538445 C10.739726,8.98761123 11.2511416,8.60941137 11.6347032,7.82779832 C12.0949772,6.84447868 13.9360731,5.45774585 14.7799087,5.45774585 C15.1378995,5.45774585 15.7515982,5.81073239 16.2374429,6.28978555 Z M20.5844749,21.6951266 C22.9881279,22.7036596 23.1926941,26.7630048 20.916895,28.8304974 C19.5872146,30.0659503 17.9762557,30.5450034 15.086758,30.5450034 C12.452968,30.5450034 12.3506849,30.5197901 11.1232877,29.7129637 C9.97260274,28.956564 9.6913242,28.880924 8.38721461,28.956564 C7.56894977,29.0069906 6.90410959,29.032204 6.90410959,28.9817773 C6.90410959,28.7296441 7.97808219,22.9810062 8.05479452,22.9053662 C8.0803653,22.8801529 8.41278539,22.9557928 8.79634703,23.1070728 C10.4073059,23.7121926 14.9589041,22.9810062 16.7744292,21.8464066 C17.6694064,21.2665001 19.3826484,21.2160735 20.5844749,21.6951266 Z" id="Shape"></path>
                    <path d="M115.704381,10.342952 C114.21321,10.8359363 111.578809,12.730034 111.181164,13.5862699 C110.634401,14.8057574 110.559843,15.3246883 110.36102,20.56589 C110.211903,24.0686733 109.938522,27.2600982 109.516023,29.9066456 C108.571615,35.848404 108.124264,39.8182251 108.074559,42.8280241 L108,45.500518 L108.820144,46.2789143 C110.087639,47.4724553 112.125571,47.1351503 112.796598,45.6302507 C113.393066,44.2291374 114.38718,39.5068665 114.933942,35.4851524 L115.480705,31.359652 L117.468932,31.3337054 C120.848918,31.2818124 123.011116,29.6471801 124.651403,25.9368245 C125.744928,23.4719028 126.117721,21.3442863 125.968604,18.5161131 C125.744928,14.7538643 124.228905,12.1332635 121.445387,10.7062036 C119.904511,9.92780729 117.419226,9.77212803 115.704381,10.342952 Z M120.302156,17.0631067 C120.500979,17.3225721 120.625243,18.2307011 120.650096,19.372349 C120.650096,20.9810347 120.550684,21.4999656 119.854805,22.9789185 C119.407454,23.9129941 118.736427,24.9508558 118.363634,25.2362678 C117.742313,25.7551986 117.667755,25.7811452 117.444079,25.3660005 C117.319815,25.1065351 116.947023,24.5876042 116.648788,24.1984061 C116.151732,23.575689 116.102026,23.290277 116.22629,21.7075379 C116.350554,20.0988522 116.698494,17.8933961 116.947023,16.985267 C117.09614,16.4922827 119.904511,16.5701224 120.302156,17.0631067 Z" id="Shape"></path>
                    <path d="M130.587389,10.8707458 C129.427371,12.0609645 129.229921,13.0992404 129.057153,18.2652962 C128.933747,22.4183999 128.983109,23.0261711 129.476734,24.9761039 C130.167808,27.7617222 130.488664,28.4961125 131.42655,29.6103599 C132.907424,31.3323784 135.128734,31.4589975 137.374726,29.9142455 L138.584106,29.07856 L138.756875,29.9142455 C139.27518,32.7758352 142.039478,33.9913777 143.619076,32.0667687 L144.236107,31.3323784 L144.112701,25.9384084 C143.989294,21.1268859 144.038657,20.2658766 144.5076,17.8601154 C145.198675,14.2388116 145.173993,13.5044213 144.359513,12.5674406 C143.002045,11.0480124 140.731373,11.5038409 139.941573,13.4537737 C139.744124,13.9602497 139.373905,15.7329159 139.127093,17.4549345 C138.633468,20.7976765 138.189206,21.8359524 136.066621,24.6975421 L135.054691,26.0650275 L134.684472,25.2040182 C134.289573,24.1910661 134.166167,17.2270203 134.511704,13.7829831 L134.733835,11.5798123 L133.968717,10.8200982 C132.907424,9.70585086 131.698044,9.73117466 130.587389,10.8707458 Z" id="Path"></path>
                    <path d="M180.293298,10.3097595 C178.038171,10.8591491 174.946872,12.6321791 172.94513,14.5550427 C171.450158,16.0034334 170.892711,16.752601 169.955186,18.7004368 C166.559825,25.7176401 167.67472,31.9607036 172.615729,33.5839001 C174.617472,34.2331787 178.494264,34.1083174 181.306838,33.3092053 C187.160034,31.6360643 189.187115,29.738173 187.337404,27.6904482 C186.450556,26.7165303 185.741078,26.691558 183.080534,27.4906701 C181.636239,27.9401707 180.166605,28.1898932 177.962155,28.3147545 C174.262733,28.5145325 173.831978,28.364699 173.831978,26.9412805 L173.831978,25.9673626 L174.617472,26.2420574 C175.83372,26.6665858 178.190202,26.2920019 179.963897,25.4179731 C184.702199,23.0955535 187.388081,20.098883 187.894851,16.652712 C188.325606,13.705986 186.475895,10.8092046 183.764674,10.2348427 C182.168348,9.91020344 181.940301,9.91020344 180.293298,10.3097595 Z M182.447071,15.9534889 C182.447071,16.2281837 181.914963,16.9773513 181.256161,17.5766854 C179.381112,19.3497154 175.859059,20.8730229 175.859059,19.899105 C175.859059,19.2997709 178.367571,17.2520461 180.166605,16.3530449 C182.29504,15.3042103 182.447071,15.279238 182.447071,15.9534889 Z" id="Shape"></path>
                    <path d="M149.84968,11.9219935 C148.997783,12.744312 148.920338,12.9187432 149.049413,13.8905742 C149.204304,15.0368364 150.520872,16.4572048 151.605105,16.6565547 C151.940701,16.7063922 152.895858,16.8808234 153.721941,17.0303359 C154.548023,17.1798483 155.29666,17.3293608 155.34829,17.404117 C155.477365,17.503792 154.470578,21.9393283 153.46379,25.9014085 C152.560263,29.2903575 152.405372,31.4333694 152.947489,32.4301192 C153.51542,33.5016251 154.315687,34 155.50318,34 C156.742304,34 157.645831,33.1776815 157.878167,31.8569881 C158.110502,30.5612134 159.427071,25.2784399 160.356413,22.0390033 C160.769454,20.5937161 161.156681,19.1235103 161.234126,18.7746479 C161.363201,18.1267606 161.414831,18.1267606 163.350961,18.1018418 C165.493612,18.1018418 168.023489,17.4788732 169.572393,16.5568797 C170.708256,15.8840737 171.250372,14.6132178 170.888962,13.616468 C170.501735,12.5200433 169.753098,12.1711809 167.558818,11.9967497 C166.5004,11.8970748 165.028941,11.7226436 164.331934,11.5980498 C163.609112,11.4734561 160.278968,11.2990249 156.897194,11.1993499 L150.804838,11 L149.84968,11.9219935 Z" id="Path"></path>
                    <path d="M94.6791013,12.1188718 C90.0581308,13.0135178 86.0782198,16.7660604 84.76939,21.4878027 C83.9413549,24.5196584 83.7543792,27.824878 84.3420171,29.4650622 C85.2234739,31.8756359 87.7075794,33.7891842 91.0464309,34.6092762 C93.450404,35.1808556 99.2466502,35.1063018 100.715745,34.5098711 C102.772477,33.6152252 103.226561,31.8259334 101.757467,30.3100056 L100.849299,29.3905084 L95.9345095,29.266252 C91.0197201,29.1419956 90.0848416,28.9680367 89.7376011,28.1230933 C89.4437822,27.4024063 89.5773362,27.2781499 90.6190579,27.2781499 C92.301839,27.2781499 96.7625447,26.11014 99.1130961,25.0415351 C101.650623,23.8735252 103.012875,22.5812589 103.600513,20.7174132 C104.802499,16.9897218 103.226561,13.6347996 99.7541556,12.491641 C98.3117718,12.0194667 96.0680635,11.8703591 94.6791013,12.1188718 Z M97.9645312,17.4867474 C98.5788799,17.7104088 98.4987474,18.4559471 97.7775555,19.2014854 C97.3501825,19.6985109 96.4153041,20.07128 94.1181743,20.7174132 C92.4353931,21.1647361 90.9395876,21.5623566 90.8327444,21.5623566 C90.4053714,21.5623566 91.5806471,20.0215775 92.8093445,18.9529726 C93.6640905,18.2074344 94.3852824,17.8098139 95.0797635,17.7104088 C95.6674014,17.6110037 96.2550392,17.5115986 96.3885933,17.4618961 C96.8426771,17.3127884 97.5371582,17.3376397 97.9645312,17.4867474 Z" id="Shape"></path>
                    <path d="M53.743303,14.3968601 C51.8075983,15.4895798 51.2821927,16.6551475 50.8397459,20.8074825 C50.6738284,22.4587034 50.3972992,24.3284682 50.2590345,24.9841 C49.8442407,26.9267129 49.9548524,35.2071001 50.3972992,36.1541238 C51.5863749,38.6552378 55.3195197,38.6066725 56.0938016,36.0569932 C56.5362484,34.6485989 57.4764478,26.9752782 57.5041007,24.7655561 C57.5041007,22.5801167 58.0295063,19.6904801 58.6931765,18.1121072 C59.0526645,17.2864967 59.0803174,16.8979741 58.859094,16.266625 C58.140118,14.3725775 55.5130902,13.401271 53.743303,14.3968601 Z" id="Path"></path>
                    <path d="M37.0440924,15.4649757 C36.3679028,16.0912993 35.9351415,17.5193172 35.9351415,19.1978645 C35.9351415,19.9243999 35.5835229,22.5299062 35.1237139,24.9600419 C33.3385734,34.7557435 33.6090492,37.2109321 36.4490456,37.6869381 C36.9899972,37.7871499 37.7743772,38.0877852 38.2071385,38.3633676 C39.3972322,39.1400089 41.6421817,39.2151678 43.5625602,38.5387382 C44.6985587,38.1378911 45.4558911,37.6368322 46.564842,36.5345026 C48.4311253,34.6805847 49.0261722,33.177408 48.9991246,30.396531 C48.972077,25.6114185 46.8082703,22.7052768 42.6699899,21.9035826 L40.9389445,21.5778943 L41.0471349,19.1978645 C41.1282776,16.7677288 40.9118969,15.9660346 40.0193267,15.314658 C39.3431371,14.838652 37.6391393,14.9138109 37.0440924,15.4649757 Z M42.2913237,28.2670307 C42.5888471,28.567666 42.8322754,29.2942014 42.9134182,30.0958957 C43.0216085,31.2483312 42.9404657,31.5239136 42.3724665,32.1251843 C41.7233245,32.8266667 41.7233245,32.8266667 40.8307542,32.4007667 C39.9381839,31.9748666 39.9381839,31.9748666 40.127517,30.5719017 C40.3168501,29.1188308 40.6684687,28.2920836 41.1823728,27.9663953 C41.6151341,27.6908129 41.750372,27.7158659 42.2913237,28.2670307 Z" id="Shape"></path>
                    <path d="M110.527904,55.3537309 C109.998614,55.5525893 109.418916,55.8260195 109.242486,55.950306 C109.015648,56.1243071 108.713197,56.1243071 108.234316,55.950306 C106.999307,55.5028747 105.789503,56.1740217 105.159396,57.6654596 C104.781332,58.535465 104.529289,64.1034997 104.151226,78.893592 L104,85.5304906 L104.680515,88.2150787 C105.058579,89.6816593 105.487051,91.322241 105.638277,91.8691015 C106.167566,93.9322573 107.881456,94.6531189 109.141669,93.3356821 L109.746572,92.6893924 L109.746572,84.3373403 C109.746572,76.0847173 109.746572,75.9604309 110.250657,76.0847173 C110.527904,76.1592892 111.788117,76.2090038 113.023125,76.2090038 C115.064671,76.2090038 115.41753,76.1344319 116.501313,75.5129995 C117.862344,74.717566 119.248578,72.9775551 119.702255,71.5358318 C120.508791,68.8263864 119.601438,62.4877754 117.887548,59.0077537 C116.224067,55.6768757 113.451598,54.2848671 110.527904,55.3537309 Z M113.628028,61.8912002 C114.661402,64.2775008 115.41753,68.9506728 114.913445,69.8952502 C114.258134,71.0884005 113.754049,71.1132578 111.51087,70.1686804 L109.872593,69.4975334 L109.872593,67.459235 C109.872593,65.4457938 109.872593,65.3960792 110.628721,65.0232198 C111.611687,64.5260738 111.888934,63.954356 111.888934,62.3386316 C111.888934,60.8969083 111.989751,60.6731926 112.645062,60.6731926 C112.922308,60.6731926 113.275168,61.120624 113.628028,61.8912002 Z" id="Shape"></path>
                    <path d="M93.4971783,55.577912 C90.972087,56.8055532 88.9416012,59.9122372 87.0152429,65.4742036 L86,68.3554024 L86,72.6145659 C86.0260319,77.3246997 86.208255,78.2516941 87.5098484,79.6547126 C88.8374737,81.1328929 90.581609,81.8344022 93.2108278,81.9596717 C95.2933773,82.0598873 95.6317916,82.0097795 96.9333851,81.3834319 C101.04642,79.4542814 103.389289,73.0655362 102.946747,64.9731255 C102.738492,61.1148245 102.321982,59.1606201 101.410867,57.632332 C100.421656,56.0288822 98.9118071,55.2271573 96.6210027,55.05178 C95.0590905,54.9265105 94.6946443,55.0016722 93.4971783,55.577912 Z M97.4019587,61.9666572 C97.5060862,62.5930048 97.5581499,65.0733412 97.5060862,67.4785158 C97.4019587,72.338973 96.9073532,74.5186625 95.6057598,75.8715733 C95.0070268,76.472867 94.7987718,76.5480287 93.6794014,76.4478131 C92.976541,76.3726514 92.0914574,76.1221123 91.7009794,75.8715733 L90.9981189,75.445657 L91.1543101,72.7648893 C91.4666925,67.5787314 92.3517761,64.8729099 94.7206762,61.9917111 C95.6057598,60.9143933 95.9181422,60.6889082 96.4908433,60.7640699 C97.0895763,60.8392316 97.2197356,60.989555 97.4019587,61.9666572 Z" id="Shape"></path>
                    <path d="M8.64960226,55.3512799 C7.3204468,56.083953 7.21820407,56.8924198 7.06483998,68.3120141 C6.91147589,79.8074021 6.91147589,79.8579313 8.44511681,80.489546 C9.05857318,80.7421919 9.36530136,80.7421919 9.97875773,80.489546 C11.2056705,79.9842542 11.5890807,78.9736706 11.7424448,75.8408616 C11.8702482,73.3901965 11.9469302,73.0617568 12.4581439,72.7333171 C12.9693575,72.3796129 13.0716003,72.4301421 13.9151028,73.5923132 C14.4007557,74.2491925 15.5254257,76.1693013 16.3944889,77.8114995 C17.2635521,79.4789624 18.2604187,81.0958961 18.6182683,81.4243358 C19.7940596,82.5107131 21.455504,82.0054213 21.9922783,80.363223 C22.580174,78.6199664 21.0976544,74.9818656 17.7236444,69.9794769 C16.0366394,67.4782826 15.7554719,68.1098973 20.2797126,64.1433569 C21.9155962,62.6780107 23.4492372,61.1621354 23.6537226,60.7831665 C24.5994678,58.9893807 23.5003585,56.942949 21.6599894,56.942949 C20.3819553,56.942949 19.5128921,57.5492991 15.5509864,61.3642521 L12.2792191,64.4717965 L12.2792191,60.5810498 L12.2792191,56.6903031 L11.4101559,55.8313071 C10.4644107,54.8965173 9.74871159,54.7701943 8.64960226,55.3512799 Z" id="Path"></path>
                    <path d="M50.0263506,55.1045141 C48.2149354,55.1813779 46.6238275,55.386348 46.3056059,55.5913181 C44.3962764,56.7186538 44.6410622,60.0750396 46.6483061,60.6387075 C47.0399634,60.7411925 48.2149354,60.8949201 49.2919931,60.9974052 L51.2502798,61.1511328 L51.4216299,64.2256847 C51.59298,67.7614194 51.3237156,72.6038386 50.7607082,75.3196928 C50.1977007,78.1636533 50.2711365,79.6240654 51.005494,80.3670821 C51.7398515,81.1613414 53.0127379,81.2125839 53.8939669,80.4951885 C54.5548886,79.9315206 55.2892461,77.9074406 55.8032964,75.242829 C55.9501679,74.3973272 56.1459966,70.9384563 56.2439109,67.5564492 L56.3907824,61.4073454 L58.3490691,61.2279966 C61.9229423,60.8949201 63,60.2800097 63,58.4608999 C63,56.64179 61.7515922,55.9500158 57.4923187,55.386348 C54.2856242,54.9507865 53.4533524,54.9251652 50.0263506,55.1045141 Z" id="Path"></path>
                    <path d="M70.0517967,56.1988264 C68.5948413,56.8080966 68.4943617,57.4904792 68.1678027,67.6043641 C67.8412437,77.4501702 67.9166035,78.2787776 69.0721198,79.3998348 C69.9010772,80.2040714 71.2575529,80.2040714 72.0865103,79.375464 C72.4381892,79.0586435 72.7145083,78.5955981 72.7145083,78.3518901 C72.7145083,78.108182 72.7647482,75.1105727 72.814988,71.6986597 C72.8652279,68.2867467 72.9908275,64.582384 73.0913071,63.5100685 L73.2922665,61.5116623 L77.0853745,61.4141791 C81.0794419,61.3166959 82.1847184,61.0242462 82.7624766,60.0250431 C83.1141555,59.3914021 83.0639156,58.0022661 82.6871168,57.5635916 C81.8079196,56.5156469 81.5567204,56.4669053 76.5076163,56.3206804 C73.7946649,56.247568 71.4082725,56.125714 71.2073131,56.0282307 C71.0063537,55.9551183 70.4788354,56.0282307 70.0517967,56.1988264 Z" id="Path"></path>
                    <path d="M133.639279,55.5737552 C132.606107,56.4431877 132.454912,57.0313332 132.328915,60.1510617 C132.253317,61.7364975 132.026523,63.9100788 131.799729,64.9585121 C131.39654,66.876378 129.304997,71.6071138 128.876609,71.6071138 C128.47342,71.6071138 127.969434,70.0728211 127.767839,68.4106707 C127.616643,66.876378 127.893836,62.9127885 128.423021,59.4094869 C128.775812,57.1080479 128.47342,56.1107576 127.213454,55.5993267 C126.129884,55.1134674 125.298306,55.3691828 124.391131,56.3920446 C123.357959,57.5939072 123.005169,59.9209178 123.005169,65.7256585 C122.979969,69.9193918 123.030368,70.6609666 123.534354,72.2464024 C124.466729,75.2638447 126.381877,76.9771382 128.775812,76.9771382 C130.438966,76.9771382 131.673733,76.2099919 133.009296,74.4199837 C133.639279,73.5761227 134.218864,72.9624057 134.269262,73.0646918 C134.319661,73.1925496 134.571654,73.8829813 134.823647,74.6501276 C135.10084,75.4939886 135.630025,76.3889927 136.234809,77.0027098 C137.091585,77.8721423 137.368778,78 138.37675,78 C140.745486,78 141.778658,75.698561 140.342297,73.6016943 C138.981534,71.6326853 137.595572,63.9100788 137.872764,59.8697747 C138.049159,57.1591909 137.797166,56.1874722 136.663197,55.3947543 C135.83162,54.8066088 134.445657,54.8833235 133.639279,55.5737552 Z" id="Path"></path>
                    <path d="M33.2542991,56.4732022 C31.8443361,57.3346617 30.4343731,60.571661 29.0244101,66.1580954 C27.1089886,73.8851261 26.4971178,79.4976653 27.4282255,80.8812214 C28.0933024,81.9254148 28.9712039,82.2386728 29.9821208,81.8209954 C31.1526561,81.3511084 31.5783053,80.5679634 32.4030007,77.5398027 C33.1744899,74.5899566 33.1478868,74.6160614 35.8880036,74.5377469 L37.1649513,74.5116421 L37.0851421,77.3570689 C37.0319359,80.0458668 37.058539,80.2547054 37.6704097,80.8812214 C39.0537697,82.3430921 41.4480465,81.4033181 41.8204896,79.2627218 C42.1131234,77.4092786 42.0333142,69.4473044 41.6874742,67.8810144 C41.5012527,67.0195549 40.7297635,64.9833779 39.9316712,63.3648782 C39.1335789,61.7463785 38.3886928,59.8929354 38.2290743,59.2142097 C37.8832343,57.7001294 37.5373943,57.0214037 36.7925082,56.4470973 C36.0476221,55.8466862 34.3184222,55.8466862 33.2542991,56.4732022 Z M35.9412098,66.523563 C36.1274313,66.99345 36.3934621,67.7504902 36.4998744,68.2203772 L36.6860959,69.0296271 L35.4623544,69.0296271 C34.7972775,69.0296271 34.2386129,69.0035222 34.2386129,68.9513126 C34.2386129,68.7685787 35.0899114,66.0275712 35.2229267,65.8187325 C35.4357514,65.4793697 35.5421637,65.6098939 35.9412098,66.523563 Z" id="Shape"></path>
                    <path d="M158.459717,56.4666855 C157.299674,57.161507 157.036027,58.165138 157.036027,61.7679161 L157.036027,64.9332141 L155.981442,66.9404761 C155.005951,68.8448017 152.000384,72.4990481 151.657644,72.1645044 C151.23581,71.7784925 151.024893,67.2235516 151.262174,64.3413291 C151.868561,57.8305943 151.868561,57.9335309 151.183081,57.161507 C149.917579,55.771864 147.834773,56.2350783 146.912011,58.1394039 C146.305625,59.4003762 145.857426,64.5986704 146.041979,68.4587898 C146.27926,73.476945 147.492033,77.4914692 149.073911,78.5208344 C150.787611,79.6531361 152.501312,78.8553781 156.113265,75.3040682 C157.273309,74.1460324 158.275165,73.2196037 158.354259,73.2196037 C158.433353,73.2196037 158.64427,73.6056157 158.828822,74.0430959 C158.98701,74.5063102 159.619761,75.4327389 160.199782,76.0760921 C161.966212,78.1090883 163.996288,78.649505 165.31452,77.4657351 C165.868177,76.9767866 166,76.6165088 166,75.6128778 C166,74.3776396 165.920906,74.1975006 164.312664,71.9586314 C163.178985,70.3631154 162.836245,68.510258 162.625328,62.7200789 L162.440776,57.4703165 L161.570743,56.7240268 C160.568887,55.8490664 159.619761,55.771864 158.459717,56.4666855 Z" id="Path"></path>
                    <path d="M172.849339,56.3165232 C170.223921,57.4584894 170.448957,61.1574667 173.174391,61.9022272 C174.999682,62.3987343 177,60.9340385 177,59.0969626 C177,58.0046471 176.149865,56.7385542 175.124701,56.3165232 C174.074534,55.8944923 173.849498,55.8944923 172.849339,56.3165232 Z" id="Path"></path>
                    <path d="M172.681534,71.3560194 C171.125191,72.1136364 170.498008,74.6477346 171.450397,76.3719664 C172.30987,77.9655746 174.144961,78.4880691 175.56193,77.4953296 C176.746609,76.6854631 177.095044,75.8755967 176.978899,74.229739 C176.862754,72.6361308 176.398174,71.8785138 175.236724,71.3298946 C174.307564,70.8857743 173.633923,70.8857743 172.681534,71.3560194 Z" id="Path"></path>
                </g>
            </g>
        </g>
    </g>
</svg>