<?xml version="1.0" encoding="UTF-8"?>
<svg width="217px" height="69px" viewBox="0 0 217 69" version="1.1" xmlns="http://www.w3.org/2000/svg" xmlns:xlink="http://www.w3.org/1999/xlink">
    <title>Group</title>
    <g id="Page-1" stroke="none" stroke-width="1" fill="none" fill-rule="evenodd">
        <g id="iPhone-11" transform="translate(-98.000000, -23.000000)" fill="#FFFFFF" fill-rule="nonzero">
            <g id="текста-паранойя-заголовки" transform="translate(-207.000000, -362.000000)">
                <g id="Group" transform="translate(305.000000, 385.000000)">
                    <path d="M119.215267,0.43828035 C118.589098,0.654999383 117.681153,1.11939731 117.180219,1.45995579 C114.331151,3.47234682 108.16339,11.0884728 106.629277,14.4940576 C105.314323,17.3423649 104.218528,22.0173041 103.96806,25.7015277 C103.592359,31.1504633 104.030677,40.3145825 104.813388,42.9771306 C105.690024,45.9183175 107.036287,48.8285445 108.132082,50.0978988 C110.135821,52.4508483 114.456385,53.5344435 117.55592,52.512768 C119.778818,51.7697314 123.003587,49.2619825 124.976018,46.6613541 C127.856394,42.9152109 128.952189,40.0978634 128.952189,36.4136399 C128.952189,33.0390149 127.793777,30.9647042 124.882093,29.0761526 L124.13069,28.5807948 L125.696112,26.6922432 C127.793777,24.1535346 130.047984,20.3764314 130.862003,18.1163615 C131.237704,17.094686 131.676022,14.7417365 131.863873,12.853185 C132.302191,8.17824582 131.863873,6.66121259 129.233965,3.87482502 C126.009196,0.469240212 122.502652,-0.738194402 119.215267,0.43828035 Z M123.222746,8.73552334 C124.569008,9.72623892 124.631625,9.8191185 124.475083,10.9955933 C124.193307,12.8841448 122.189568,17.3733248 120.404987,20.0668328 C117.681153,24.2154543 112.984889,29.5095907 112.984889,28.4569554 C112.984889,26.1349657 114.738161,16.6302881 115.489563,14.9894154 C116.178349,13.3795026 120.999847,7.74480776 121.657324,7.74480776 C121.75125,7.74480776 122.440035,8.20920568 123.222746,8.73552334 Z M121.125081,37.6210745 C121.125081,38.0545125 120.780688,39.076188 120.373679,39.9121043 C119.403117,41.769696 116.14704,45.8254379 115.614797,45.8254379 C114.738161,45.8254379 113.36059,43.0080904 112.859655,40.1597832 C112.671804,39.2309873 112.734421,39.0142683 113.141431,39.0142683 C113.423207,39.0142683 114.080684,38.7975492 114.644236,38.4879506 C115.771339,37.9306731 119.3405,36.9089977 120.436295,36.8780378 C120.968539,36.8470779 121.125081,37.0018772 121.125081,37.6210745 Z" id="Shape"></path>
                    <path d="M28.2955817,4.06058419 C27.1371697,4.64882157 26.6049264,4.67978143 21.2511846,4.52498212 C18.0577246,4.40114267 14.4885634,4.2153835 13.2675346,4.02962433 C12.0778142,3.87482502 9.41659756,3.75098557 7.38154952,3.72002571 C1.90257402,3.72002571 1.5894897,3.96770461 0.932012643,8.98320223 C0.0866849943,15.6086127 -0.0698571629,19.7262743 0.0240681314,36.1350011 L0.117993426,53.193885 L0.838087348,53.9678816 C2.21565833,55.3920352 4.12547265,55.2991556 5.15865088,53.7202027 C6.19182912,52.1412497 6.59883873,46.5065548 6.66145559,31.2743028 C6.72407246,23.3485781 6.88061461,15.3918936 7.00584834,13.5343019 L7.25631579,10.2215967 L8.63388677,10.2215967 C9.41659756,10.2215967 11.6708046,10.376396 13.6745442,10.5621552 C15.6782838,10.7169545 19.5918378,10.9646334 22.3469797,11.0884728 L27.3563288,11.3051919 L27.2624035,16.2587698 C27.231095,18.9832376 26.8240854,24.5250529 26.4170758,28.6117547 C25.9787578,32.6674966 25.634365,37.4662752 25.6030566,39.292907 C25.6030566,41.088579 25.415206,44.7728026 25.2273554,47.4663106 C25.0081964,50.1288587 24.976888,52.7604469 25.1021217,53.2558047 C25.3525892,54.2465203 26.8867023,55.4229951 27.9198805,55.4229951 C28.8904419,55.4229951 30.2993213,54.5251591 30.8002562,53.5654033 C31.1759574,52.8533265 31.363808,50.7790158 31.582967,44.3703244 C31.7708176,38.4569907 32.1465188,33.9058911 32.8039958,28.4879152 C33.6493235,21.8625048 33.7745572,19.9429933 33.7745572,13.1937434 L33.7745572,5.5156977 L32.7100705,4.4630624 C31.4577333,3.22466792 30.2367045,3.13178833 28.2955817,4.06058419 Z" id="Path"></path>
                    <path d="M51.6516715,17.8377227 C50.6184933,18.3640404 49.5540066,19.1999567 48.8652211,20.1287525 C48.0825104,21.1194681 47.3624164,21.6767456 46.6423225,21.8625048 C46.0474623,22.0173041 45.29606,22.5126619 44.9829757,22.9460999 C44.4194239,23.6891366 44.356807,24.494093 44.2941902,37.0328371 C44.2315733,45.9183175 44.0750311,51.0266947 43.7932553,52.4818082 C43.5740962,53.6582829 43.3862457,57.1567473 43.3549372,60.2217737 C43.3236288,65.1134318 43.3862457,65.9493481 43.918489,66.9710235 C45.2334431,69.6026118 48.6147537,69.6954914 49.8357825,67.1258229 C50.3680259,65.9493481 51.2133535,53.3486843 50.8689608,51.5220525 C50.743727,50.9338151 50.7124186,50.3455777 50.8063439,50.1907784 C50.9002692,50.066939 51.7142884,50.3146179 52.6222329,50.7480559 C54.0311123,51.4291729 54.6885894,51.5530123 57.0993386,51.5530123 C59.4787794,51.5530123 60.1988733,51.398213 61.6703696,50.7170961 C63.9871935,49.6644608 65.8656994,47.7759092 66.9928029,45.3919998 C68.6208414,41.9554551 68.9026173,38.4569907 68.0572896,32.0173395 C67.3058873,26.4136045 66.1787837,23.6581768 63.3923333,20.8098695 C61.8895286,19.2309165 60.3867239,18.3950002 57.5689651,17.6210037 C54.8451316,16.8470072 53.6241027,16.877967 51.6516715,17.8377227 Z M57.7568157,25.4228889 C59.1030782,26.2278453 60.5745745,29.199992 60.9815841,31.8935 C61.5451359,35.5777236 61.6703696,39.7263451 61.26336,40.87186 C60.3867239,43.1938496 57.3811145,43.998806 54.1250376,42.7294517 C53.2484015,42.3888932 52.2465317,42.1102545 51.9334474,42.1102545 C51.3385872,42.1102545 51.3072788,41.8625756 51.3072788,35.5158039 L51.3072788,28.8903934 L52.0586812,28.5188751 C52.7787751,28.1163969 53.0292425,27.7448785 53.7493365,25.9492065 C54.2502714,24.7108121 56.1600857,24.4321733 57.7568157,25.4228889 Z" id="Shape"></path>
                    <path d="M85.5900112,18.8284383 C84.0245896,19.571475 81.9582332,21.7386653 80.9250549,23.7820162 C79.766643,26.0111263 77.449819,32.8532557 76.0096312,38.2402717 C74.7572939,42.8532911 74.1311253,47.8687888 74.5694433,49.602541 C74.9451445,50.9957348 76.2914071,52.0174103 77.7629034,52.0174103 C79.4848671,52.0174103 80.6119706,51.1505341 81.0815971,49.4477417 C81.2694477,48.7356649 81.7703826,47.0638324 82.2087006,45.7325583 L82.9914114,43.3486489 L84.2750571,43.3486489 C85.9657124,43.3176891 88.0007604,42.8532911 89.5348736,42.1412143 L90.7559024,41.5529769 L90.7559024,44.0607257 C90.7872108,47.4972704 91.1316036,48.8904642 92.321324,49.9121396 C93.0414179,50.5622967 93.6049697,50.7790158 94.6068395,50.7790158 C97.4872151,50.7790158 98.489085,48.1164677 98.1133838,41.4910572 C97.7063742,34.3393291 96.3601116,27.7758384 94.4816057,24.060655 C92.321324,19.6953144 88.5330038,17.4971643 85.5900112,18.8284383 Z M88.8147796,29.7882294 C89.6914157,32.5126973 90.5993602,36.7851582 90.3488928,37.0328371 C90.2862759,37.0947568 89.7227242,37.0018772 89.0339387,36.8161181 C88.3764616,36.6303589 87.2180496,36.5684392 86.4353389,36.6922786 L85.0264594,36.9089977 L85.2456185,35.701563 C85.9657124,31.8625402 87.3745918,26.9399221 87.7816014,26.9399221 C87.8442183,26.9399221 88.3138447,28.2402363 88.8147796,29.7882294 Z" id="Shape"></path>
                    <path d="M204.405508,19.4166757 C203.528872,19.7262743 199.646627,23.9987352 199.020458,25.3300093 C198.707374,26.0420861 198.143822,27.9925574 197.830738,29.66439 C197.486345,31.3052627 196.860176,33.5653326 196.421858,34.6489277 C194.981671,38.0854724 194.19896,46.7851936 195.075596,49.602541 C195.513914,51.0886144 196.641017,52.0174103 197.98728,52.0174103 C200.084945,52.0174103 200.930273,50.6551763 202.057376,45.4229597 L202.558311,43.0390503 L203.873265,43.2557693 C204.593359,43.4105686 206.064855,43.5034482 207.129342,43.5034482 L209.039156,43.4724884 L209.258315,45.8254379 C209.352241,47.0947922 209.602708,48.6737452 209.75925,49.2929424 C210.448036,51.9554905 213.985888,53.0081258 215.927011,51.0886144 C217.054115,50.0050192 217.273274,48.704705 216.678414,47.1567119 C216.208787,45.8563977 215.95832,44.1226455 215.206917,36.7232385 C214.674674,31.2433429 213.860655,27.2495207 212.890093,24.9894508 C212.201308,23.379538 209.477474,20.3145117 208.099903,19.6333947 C207.254576,19.1999567 205.313453,19.0761172 204.405508,19.4166757 Z M206.941491,32.574617 C207.317193,34.4012488 207.536352,36.1040412 207.442426,36.3517201 C207.285884,36.7232385 206.816258,36.8470779 205.657846,36.8470779 C204.248966,36.8470779 204.092424,36.7851582 204.092424,36.1350011 C204.061116,34.9894862 205.783079,28.7975138 206.033547,29.0451927 C206.190089,29.199992 206.597099,30.778945 206.941491,32.574617 Z" id="Shape"></path>
                    <path d="M154.719028,20.1287525 C153.122298,21.0885082 152.715288,22.264983 152.433512,26.5993636 C152.245662,29.1380723 151.963886,31.0885436 151.556876,32.2030986 C150.49239,35.0823658 148.676501,38.7665894 147.549397,40.2836226 C146.328368,41.9554551 143.385376,44.0607257 142.540048,43.9059264 C141.256402,43.6892074 140.849393,38.3021914 141.600795,31.4291021 C142.039113,27.6519989 142.226964,24.5560128 142.133038,23.0080197 C142.070421,21.9553844 140.630234,20.469311 139.440513,20.252592 C138.000325,20.0049131 136.340979,20.8408293 135.71481,22.1411435 C134.994716,23.6272169 134.212005,37.063797 134.587706,40.87186 C135.11995,45.7325583 136.810605,48.7666248 139.816214,50.1598185 C143.072291,51.6768518 147.518089,50.283658 151.306409,46.5994344 C152.433512,45.5158393 153.404074,44.7418427 153.497999,44.8347223 C153.591924,44.9276019 153.68585,45.3610399 153.68585,45.794478 C153.68585,47.3424711 154.374635,49.0452635 155.407813,50.066939 C156.253141,50.9028552 156.660151,51.0886144 157.849871,51.0886144 C159.415293,51.0886144 160.730247,50.1598185 161.074639,48.7666248 C161.199873,48.3022268 160.949406,45.8873576 160.573704,43.4105686 C159.947536,39.5405859 159.884919,38.178352 160.041461,34.0606904 C160.166695,31.4291021 160.417162,27.868718 160.605013,26.1659256 C160.918097,23.5033775 160.886789,22.9151401 160.479779,21.9244245 C159.540526,19.7262743 156.785384,18.8593982 154.719028,20.1287525 Z" id="Path"></path>
                    <path d="M177.574183,21.5529062 C177.010631,21.8315449 176.22792,22.5745816 175.852219,23.1937788 C175.476518,23.8129761 174.63119,24.9894508 174.005022,25.856327 C172.251749,28.1783166 171.625581,29.6334301 170.404552,34.0606904 C169.809692,36.2898004 168.964364,38.8285091 168.588663,39.7263451 C167.555485,42.0173749 166.209222,46.8161535 166.209222,48.1474275 C166.209222,49.4787016 167.586793,51.0576545 168.776513,51.1195743 C171.218571,51.2434137 172.157824,50.4694172 173.848479,46.9709528 C175.069508,44.4322441 175.758294,42.4817728 177.82465,35.3300447 C178.137734,34.2464495 178.450819,33.2866938 178.513436,33.2247741 C178.576053,33.1628544 178.889137,33.9987706 179.202221,35.0514059 C179.483997,36.1350011 180.485867,38.9523485 181.393811,41.3362579 C182.333064,43.7201673 183.428859,46.8780732 183.867177,48.3331867 C184.743814,51.2124538 185.495216,52.3889286 186.872787,53.1010054 C189.158302,54.2774802 191.569052,52.7914068 191.569052,50.2526981 C191.569052,48.9833438 189.534004,41.9554551 187.968582,37.8068336 C187.185871,35.6706032 185.902225,31.7696606 185.119515,29.1380723 C184.336804,26.4755242 183.460168,23.9058557 183.178392,23.4104979 C181.988672,21.3981068 179.483997,20.5621906 177.574183,21.5529062 Z" id="Path"></path>
                </g>
            </g>
        </g>
    </g>
</svg>