<?xml version="1.0" encoding="UTF-8" standalone="no"?>
<!DOCTYPE svg PUBLIC "-//W3C//DTD SVG 1.1//EN" "http://www.w3.org/Graphics/SVG/1.1/DTD/svg11.dtd">
<svg width="100%" height="100%" viewBox="0 0 927 383" version="1.1" xmlns="http://www.w3.org/2000/svg" xmlns:xlink="http://www.w3.org/1999/xlink" xml:space="preserve" xmlns:serif="http://www.serif.com/" style="fill-rule:evenodd;clip-rule:evenodd;stroke-linejoin:round;stroke-miterlimit:2;">
    <g id="Монтажная-область1" serif:id="Монтажная область1" transform="matrix(0.934983,0,0,0.954082,-1386.71,-297.639)">
        <rect x="1483.14" y="311.963" width="990.812" height="401.131" style="fill:none;"/>
        <clipPath id="_clip1">
            <rect x="1483.14" y="311.963" width="990.812" height="401.131"/>
        </clipPath>
        <g clip-path="url(#_clip1)">
            <g transform="matrix(1.06954,0,0,1.04813,-102.989,-14.0042)">
                <path d="M856.5,-0.5L891.5,-0.5C873.003,31.164 857.169,64.164 844,98.5C842.525,103.063 841.692,107.73 841.5,112.5C856.669,109.776 871.335,105.443 885.5,99.5C888.923,89.322 893.423,79.655 899,70.5C906.023,42.438 920.19,18.771 941.5,-0.5L1198.5,-0.5C1215.71,4.403 1232.71,10.236 1249.5,17C1263.36,24.426 1276.36,33.093 1288.5,43C1305.86,42.649 1323.03,44.149 1340,47.5C1347.96,46.642 1355.79,45.142 1363.5,43C1375.17,39.333 1386.83,35.667 1398.5,32C1405.46,30.936 1412.46,30.269 1419.5,30C1443.59,20.228 1468.59,14.394 1494.5,12.5C1526,14.174 1549.83,28.508 1566,55.5C1570.2,63.063 1573.7,70.897 1576.5,79C1577.83,79.667 1579.17,79.667 1580.5,79C1586.96,76.685 1593.46,74.519 1600,72.5C1608.49,73.323 1613.49,77.99 1615,86.5C1621.79,84.95 1628.62,83.45 1635.5,82C1666.34,63.416 1696.67,44.082 1726.5,24C1737.42,16.055 1748.08,7.889 1758.5,-0.5L1806.5,-0.5C1798.62,7.78 1790.29,15.614 1781.5,23C1751.79,47.048 1721.79,70.714 1691.5,94C1675.44,104.689 1657.77,111.022 1638.5,113C1616,127.753 1593,141.753 1569.5,155C1570.83,178.518 1565.33,200.351 1553,220.5C1543.83,235.509 1534.16,250.176 1524,264.5C1501.75,287.209 1476.25,305.375 1447.5,319C1417.47,332.893 1386.97,334.393 1356,323.5C1330.09,337.638 1302.93,340.804 1274.5,333C1259.23,326.305 1249.73,314.805 1246,298.5C1234.95,252.49 1242.28,209.823 1268,170.5C1285.32,148.525 1302.15,126.192 1318.5,103.5C1312.94,98.537 1309.6,92.37 1308.5,85C1303.5,82.667 1298.5,80.333 1293.5,78C1264.32,77.905 1234.98,78.072 1205.5,78.5C1200.88,129.87 1183.38,176.203 1153,217.5C1131.71,246.459 1106.21,270.959 1076.5,291C1042.01,311.596 1005.01,317.596 965.5,309C944.044,303.859 926.877,292.359 914,274.5C891.38,246.571 878.714,214.571 876,178.5C875.661,162.789 875.494,147.123 875.5,131.5C863.203,136.266 850.537,139.599 837.5,141.5C819.579,140.238 811.246,130.572 812.5,112.5C812.473,104.327 813.64,96.327 816,88.5C827.866,58.059 841.366,28.392 856.5,-0.5ZM1063.5,3.5C1084.31,2.979 1104.98,4.479 1125.5,8C1137.64,11.601 1149.64,15.601 1161.5,20C1168.23,27.995 1172.56,37.162 1174.5,47.5C1165.12,47.628 1156.12,49.462 1147.5,53C1141.45,58.395 1139.95,64.895 1143,72.5C1145.2,75.04 1147.7,77.207 1150.5,79C1159.44,81.096 1168.44,81.596 1177.5,80.5C1174.57,110.79 1166.07,139.456 1152,166.5C1134.48,197.325 1112.31,224.492 1085.5,248C1071.77,260.392 1056.43,270.392 1039.5,278C1027.08,282.598 1014.24,284.432 1001,283.5C986.791,284.292 972.958,282.459 959.5,278C951.173,273.681 944.007,267.848 938,260.5C911.072,228.032 900.072,190.698 905,148.5C908.747,155.919 914.58,160.752 922.5,163C936.658,164.526 941.492,158.693 937,145.5C929.016,141.92 924.682,135.587 924,126.5C923.333,123.167 923.333,119.833 924,116.5C971.941,104.639 1019.44,91.139 1066.5,76C1076.35,73.231 1086.35,71.231 1096.5,70C1105.83,63.333 1105.83,56.667 1096.5,50C1090.8,49.47 1085.13,49.803 1079.5,51C1027.67,65.127 975.668,77.627 923.5,88.5C943.742,55.095 972.076,31.261 1008.5,17C1026.73,11.527 1045.06,7.027 1063.5,3.5ZM1198.5,30.5C1212.69,34.117 1226.35,39.117 1239.5,45.5C1227.23,47.282 1214.9,48.282 1202.5,48.5C1201.78,42.354 1200.45,36.354 1198.5,30.5ZM1487.5,44.5C1514.86,42.675 1533.86,54.341 1544.5,79.5C1499.05,86.95 1454.72,82.783 1411.5,67C1436.07,56.53 1461.4,49.03 1487.5,44.5ZM1378.5,86.5C1397.72,92.295 1417.05,97.795 1436.5,103C1471.44,111.612 1506.77,113.779 1542.5,109.5C1541.1,118.122 1539.94,126.789 1539,135.5C1533.25,143.413 1533.08,151.413 1538.5,159.5C1537.87,166.855 1537.03,174.188 1536,181.5C1526.16,204.649 1513.83,226.316 1499,246.5C1475.25,270.627 1447.09,287.461 1414.5,297C1407.54,298.331 1400.54,298.664 1393.5,298C1402.98,282.756 1407.65,266.089 1407.5,248C1406.9,194.228 1392.57,144.562 1364.5,99C1369.36,94.968 1374.03,90.801 1378.5,86.5ZM1343.5,121.5C1358.33,147.536 1367.83,175.536 1372,205.5C1374.83,222.399 1375.83,239.399 1375,256.5C1373.67,268.668 1368.5,278.835 1359.5,287C1358.39,287.638 1357.22,288.138 1356,288.5C1340.42,281.592 1327.08,271.592 1316,258.5C1306.68,244.914 1303.35,229.914 1306,213.5C1311.34,192.132 1318.68,171.466 1328,151.5C1332.4,141.034 1337.57,131.034 1343.5,121.5ZM1272.5,238.5C1275.5,250.324 1280,261.658 1286,272.5C1295.51,285.012 1306.68,295.846 1319.5,305C1319.17,305.333 1318.83,305.667 1318.5,306C1309.55,307.513 1300.55,307.846 1291.5,307C1283.04,305.203 1277.87,300.036 1276,291.5C1272.85,273.986 1271.68,256.319 1272.5,238.5Z" style="fill:rgb(41,108,30);fill-opacity:0.92;"/>
            </g>
            <g transform="matrix(1.06954,0,0,1.04813,-228.542,263.604)">
                <path d="M1964.5,54.5C2004.32,55.653 2043.99,58.82 2083.5,64C2115.17,64.333 2146.83,64.667 2178.5,65C2195.21,65.86 2211.87,67.193 2228.5,69C2277.5,69.207 2326.5,69.207 2375.5,69C2415.3,70.66 2449.8,84.827 2479,111.5C2488.18,123.025 2496.18,135.358 2503,148.5C2515.13,173.774 2509.29,193.607 2485.5,208C2472.32,215.447 2458.32,220.614 2443.5,223.5C2435.16,223.174 2429.5,219.174 2426.5,211.5C2418.05,215.226 2410.05,219.726 2402.5,225C2386.05,243.522 2367.39,259.188 2346.5,272C2304.33,292.916 2262.66,314.583 2221.5,337C2209.58,342.195 2197.58,347.195 2185.5,352C2143.17,367.332 2100.5,381.665 2057.5,395C2034.83,399.667 2012.16,404.334 1989.5,409C1925.9,420.207 1863.9,414.54 1803.5,392C1780.4,381.781 1757.06,372.114 1733.5,363C1727.21,361.177 1720.88,359.511 1714.5,358C1698.16,356.073 1681.82,354.073 1665.5,352C1647,348.736 1630.83,340.903 1617,328.5C1611.19,315.912 1615.03,309.746 1628.5,310C1639.61,315.219 1650.94,319.886 1662.5,324C1680.78,326.743 1699.11,329.077 1717.5,331C1729.47,333.322 1741.13,336.655 1752.5,341C1779.17,352 1805.83,363 1832.5,374C1837.41,375.782 1842.41,376.782 1847.5,377C1830.53,361.559 1821.2,342.393 1819.5,319.5C1821.28,297.228 1824.78,275.228 1830,253.5C1832.91,233.254 1834.91,212.92 1836,192.5C1837.2,184.812 1838.54,177.145 1840,169.5C1840.67,163.5 1840.67,157.5 1840,151.5C1836.73,142.99 1835.23,134.323 1835.5,125.5C1800.35,146.459 1768.52,171.792 1740,201.5C1713.65,230.169 1689.99,260.835 1669,293.5C1666.22,298.456 1664.89,303.79 1665,309.5C1660.08,317.064 1654.08,318.064 1647,312.5C1642.73,304.703 1642.39,296.703 1646,288.5C1652.47,273.555 1660.47,259.555 1670,246.5C1698.95,205.216 1733.11,168.716 1772.5,137C1789.48,124.507 1806.82,112.507 1824.5,101C1833.73,95.219 1843.39,90.219 1853.5,86C1875.15,78.783 1896.49,70.783 1917.5,62C1933.24,59.014 1948.9,56.514 1964.5,54.5ZM1958.5,82.5C1995.39,82.261 2032.06,84.928 2068.5,90.5C2069.76,96.323 2073.43,99.657 2079.5,100.5C2085.8,99.185 2091.8,97.018 2097.5,94C2121.22,93.03 2144.89,93.697 2168.5,96C2178.33,98.056 2188,100.723 2197.5,104C2205.03,107.864 2209.53,114.031 2211,122.5C2216.35,143.88 2223.68,164.547 2233,184.5C2236.28,193.334 2238.95,202.334 2241,211.5C2242.38,225.858 2240.72,239.858 2236,253.5C2231.78,265.495 2226.78,277.162 2221,288.5C2211.81,300.019 2201.65,310.519 2190.5,320C2149.99,335.061 2109.32,349.727 2068.5,364C2031.45,374.343 1993.79,381.343 1955.5,385C1936.5,385.667 1917.5,385.667 1898.5,385C1897.69,382.373 1896.35,380.04 1894.5,378C1889.12,376.432 1884.12,374.099 1879.5,371C1868.62,363.125 1859.46,353.625 1852,342.5C1845.29,329.872 1843.62,316.538 1847,302.5C1853.63,267.091 1858.3,231.425 1861,195.5C1864.78,180.37 1866.11,165.036 1865,149.5C1863.18,143.253 1862.18,136.92 1862,130.5C1870.21,117.954 1880.71,107.787 1893.5,100C1914.73,91.971 1936.39,86.137 1958.5,82.5ZM2249.5,290.5C2256.89,274.495 2262.39,257.829 2266,240.5C2269.4,220.919 2267.4,201.919 2260,183.5C2255.78,171.505 2250.78,159.838 2245,148.5C2240.69,135.258 2236.69,121.925 2233,108.5C2231.59,105.421 2230.09,102.421 2228.5,99.5C2269.32,99.289 2310.32,98.623 2351.5,97.5C2389.3,93.949 2423.3,103.449 2453.5,126C2467.24,138.316 2476.24,153.483 2480.5,171.5C2480.33,172.833 2480.17,174.167 2480,175.5C2472.07,183.887 2462.57,189.887 2451.5,193.5C2447.97,188.809 2443.31,185.975 2437.5,185C2428.84,183.664 2420.51,184.664 2412.5,188C2393.8,197.872 2377.46,210.872 2363.5,227C2354.44,233.725 2345.11,240.058 2335.5,246C2306.34,260.078 2277.67,274.912 2249.5,290.5ZM2026.5,145.5L2031.5,145.5C2033.23,156.894 2039.9,162.561 2051.5,162.5C2050.67,166.136 2050.01,169.803 2049.5,173.5C2046.52,174.071 2043.69,175.071 2041,176.5C2036.08,172.955 2031.24,169.288 2026.5,165.5C2026.13,158.891 2026.13,152.225 2026.5,145.5ZM1975.5,167.5C1975.56,166.957 1975.89,166.624 1976.5,166.5C1983.13,169.966 1989.63,173.633 1996,177.5C1993.92,187.684 1996.42,196.518 2003.5,204C2014.08,209.496 2024.91,209.996 2036,205.5C2038.46,206.958 2040.63,208.791 2042.5,211C2027.16,212.835 2011.82,214.668 1996.5,216.5C1993.16,202.319 1988.33,188.652 1982,175.5C1979.97,172.645 1977.8,169.978 1975.5,167.5ZM2138.5,181.5C2135.7,179.205 2133.04,176.705 2130.5,174C2131.83,173.333 2133.17,173.333 2134.5,174C2135.99,176.475 2137.32,178.975 2138.5,181.5ZM2099.5,183.5C2100.87,183.343 2102.21,183.51 2103.5,184C2108.81,190.781 2114.48,197.281 2120.5,203.5C2107.38,207.104 2094.04,208.437 2080.5,207.5C2082.31,201.585 2083.81,195.585 2085,189.5C2089.88,187.381 2094.71,185.381 2099.5,183.5ZM1960.5,191.5C1961.89,193.273 1963.06,195.273 1964,197.5C1966,205.658 1968.5,213.658 1971.5,221.5C1967,222.898 1962.5,224.231 1958,225.5C1958.7,214.207 1959.54,202.874 1960.5,191.5ZM2132.5,230.5L2137.5,230.5C2136.65,234.553 2135.48,238.553 2134,242.5C2128.06,239.446 2122.22,236.279 2116.5,233C2122,232.339 2127.34,231.506 2132.5,230.5ZM2077.5,237.5C2093.02,246.094 2108.69,254.427 2124.5,262.5C2117.59,276.246 2107.93,287.746 2095.5,297C2090.72,299.723 2085.72,301.889 2080.5,303.5C2079.39,281.503 2078.39,259.503 2077.5,237.5ZM2026.5,240.5C2027.24,240.369 2027.91,240.536 2028.5,241C2023.3,246.533 2017.8,251.7 2012,256.5C2009.88,252.661 2008.05,248.661 2006.5,244.5C2013.26,242.998 2019.92,241.664 2026.5,240.5ZM1975.5,248.5C1977.14,248.286 1978.64,248.62 1980,249.5C1982.92,257.93 1986.42,266.097 1990.5,274C1985.71,274.879 1981.05,274.545 1976.5,273C1972.33,268.833 1968.17,264.667 1964,260.5C1962.56,257.95 1961.39,255.284 1960.5,252.5C1965.62,251.151 1970.62,249.817 1975.5,248.5ZM2050.5,256.5C2052.39,270.296 2052.89,284.296 2052,298.5C2051.38,304.939 2047.88,307.439 2041.5,306C2034.92,298.843 2029.59,290.843 2025.5,282C2033.57,274.932 2041.4,267.432 2049,259.5C2049.51,258.473 2050.01,257.473 2050.5,256.5Z" style="fill:rgb(41,108,30);fill-opacity:0.9;"/>
            </g>
            <g transform="matrix(1.06954,0,0,1.04813,-228.542,263.604)">
                <path d="M1935.5,162.5C1921.61,178.673 1918.78,196.673 1927,216.5C1928.45,224.227 1925.28,228.893 1917.5,230.5C1908.83,227.994 1903.33,222.327 1901,213.5C1894.9,187.552 1900.57,164.552 1918,144.5C1926.37,134.448 1936.21,126.281 1947.5,120C1952.82,116.965 1958.48,115.965 1964.5,117C1968.21,119.403 1971.88,121.737 1975.5,124C1985.01,124.292 1994.51,124.792 2004,125.5C2011.4,123.145 2018.9,120.978 2026.5,119C2039.27,116.026 2048.77,120.192 2055,131.5C2057.77,125.845 2059.1,119.845 2059,113.5C2062.42,104.374 2068.92,100.874 2078.5,103C2082.87,105.226 2085.7,108.726 2087,113.5C2087.89,121.145 2088.39,128.811 2088.5,136.5C2093.12,135.993 2097.45,136.826 2101.5,139C2105.26,142.086 2108.26,145.752 2110.5,150C2118.39,148.535 2126.39,147.369 2134.5,146.5C2141.74,146.188 2147.91,148.521 2153,153.5C2159.25,162.007 2163.92,171.34 2167,181.5C2168.49,195.358 2168.99,209.191 2168.5,223C2161.44,250.279 2149.94,275.445 2134,298.5C2122.67,312.171 2108.84,322.338 2092.5,329C2066.84,334.999 2040.84,337.999 2014.5,338C2007.39,337.078 2001.06,334.411 1995.5,330C1984.8,318.97 1973.8,308.303 1962.5,298C1943.35,291.517 1926.52,281.351 1912,267.5C1906.06,256.481 1907.9,246.981 1917.5,239C1921.75,236.961 1925.91,234.794 1930,232.5C1931.84,211.816 1932.84,191.149 1933,170.5C1933.94,167.846 1934.77,165.179 1935.5,162.5ZM2026.5,145.5C2026.13,152.225 2026.13,158.891 2026.5,165.5C2031.24,169.288 2036.08,172.955 2041,176.5C2043.69,175.071 2046.52,174.071 2049.5,173.5C2050.01,169.803 2050.67,166.136 2051.5,162.5C2039.9,162.561 2033.23,156.894 2031.5,145.5L2026.5,145.5ZM1975.5,167.5C1977.8,169.978 1979.97,172.645 1982,175.5C1988.33,188.652 1993.16,202.319 1996.5,216.5C2011.82,214.668 2027.16,212.835 2042.5,211C2040.63,208.791 2038.46,206.958 2036,205.5C2024.91,209.996 2014.08,209.496 2003.5,204C1996.42,196.518 1993.92,187.684 1996,177.5C1989.63,173.633 1983.13,169.966 1976.5,166.5C1975.89,166.624 1975.56,166.957 1975.5,167.5ZM2138.5,181.5C2137.32,178.975 2135.99,176.475 2134.5,174C2133.17,173.333 2131.83,173.333 2130.5,174C2133.04,176.705 2135.7,179.205 2138.5,181.5ZM2099.5,183.5C2094.71,185.381 2089.88,187.381 2085,189.5C2083.81,195.585 2082.31,201.585 2080.5,207.5C2094.04,208.437 2107.38,207.104 2120.5,203.5C2114.48,197.281 2108.81,190.781 2103.5,184C2102.21,183.51 2100.87,183.343 2099.5,183.5ZM1960.5,191.5C1959.54,202.874 1958.7,214.207 1958,225.5C1962.5,224.231 1967,222.898 1971.5,221.5C1968.5,213.658 1966,205.658 1964,197.5C1963.06,195.273 1961.89,193.273 1960.5,191.5ZM2132.5,230.5C2127.34,231.506 2122,232.339 2116.5,233C2122.22,236.279 2128.06,239.446 2134,242.5C2135.48,238.553 2136.65,234.553 2137.5,230.5L2132.5,230.5ZM2077.5,237.5C2078.39,259.503 2079.39,281.503 2080.5,303.5C2085.72,301.889 2090.72,299.723 2095.5,297C2107.93,287.746 2117.59,276.246 2124.5,262.5C2108.69,254.427 2093.02,246.094 2077.5,237.5ZM2026.5,240.5C2019.92,241.664 2013.26,242.998 2006.5,244.5C2008.05,248.661 2009.88,252.661 2012,256.5C2017.8,251.7 2023.3,246.533 2028.5,241C2027.91,240.536 2027.24,240.369 2026.5,240.5ZM1975.5,248.5C1970.62,249.817 1965.62,251.151 1960.5,252.5C1961.39,255.284 1962.56,257.95 1964,260.5C1968.17,264.667 1972.33,268.833 1976.5,273C1981.05,274.545 1985.71,274.879 1990.5,274C1986.42,266.097 1982.92,257.93 1980,249.5C1978.64,248.62 1977.14,248.286 1975.5,248.5ZM2050.5,256.5C2050.01,257.473 2049.51,258.473 2049,259.5C2041.4,267.432 2033.57,274.932 2025.5,282C2029.59,290.843 2034.92,298.843 2041.5,306C2047.88,307.439 2051.38,304.939 2052,298.5C2052.89,284.296 2052.39,270.296 2050.5,256.5Z" style="fill:rgb(41,108,30);fill-opacity:0.93;"/>
            </g>
        </g>
    </g>
</svg>
